<svg width="73" height="13" viewBox="0 0 73 13" fill="none" xmlns="http://www.w3.org/2000/svg">
<path d="M72.8871 5.89417L67.1058 0.112924C66.9553 -0.0376413 66.7114 -0.0376413 66.5608 0.112924C66.4103 0.263489 66.4103 0.507385 66.5608 0.657915L71.6842 5.78125L0.385428 5.56821C0.172389 5.56821 0 5.7406 0 5.95364C0 6.16668 0.172389 6.33907 0.385428 6.33907L71.6842 6.55211L66.5608 11.6754C66.4103 11.826 66.4103 12.0699 66.5608 12.2204C66.6361 12.2957 66.7347 12.3333 66.8333 12.3333C66.932 12.3333 67.0306 12.2957 67.1059 12.2204L72.8871 6.43916C73.0376 6.28863 73.0376 6.04473 72.8871 5.89417Z" fill="#282828"/>
</svg>
