<svg width="73" height="13" viewBox="0 0 73 13" fill="none" xmlns="http://www.w3.org/2000/svg">
<path d="M0.112931 6.43915L5.89418 12.2204C6.04475 12.371 6.28864 12.371 6.43917 12.2204C6.58974 12.0698 6.58974 11.8259 6.43917 11.6754L1.31583 6.55206L72.6146 6.76511C72.8276 6.76511 73 6.59272 73 6.37968C73 6.16664 72.8276 5.99425 72.6146 5.99425L1.31583 5.78121L6.43917 0.657903C6.58974 0.507337 6.58974 0.263442 6.43917 0.112913C6.36391 0.0376481 6.26527 -2.01944e-06 6.16666 -2.02806e-06C6.06805 -2.03668e-06 5.96945 0.0376481 5.89414 0.112913L0.1129 5.89416C-0.0376276 6.04469 -0.0376353 6.28858 0.112931 6.43915Z" fill="#282828"/>
</svg>
