<svg width="30" height="18" viewBox="0 0 30 18" fill="none" xmlns="http://www.w3.org/2000/svg">
<path d="M29.8423 8.18858L21.7695 0.156882C21.5593 -0.0522939 21.2187 -0.0522939 21.0085 0.156882C20.7982 0.366057 20.7982 0.704894 21.0085 0.914019L28.1626 8.03171H0.538106C0.240622 8.03171 -0.000100059 8.2712 -0.000100059 8.56717C-0.000100059 8.86314 0.240622 9.10263 0.538106 9.10263H28.1626L21.0085 16.2203C20.7982 16.4294 20.7982 16.7683 21.0085 16.9774C21.1136 17.082 21.2513 17.1343 21.389 17.1343C21.5267 17.1343 21.6644 17.082 21.7696 16.9774L29.8424 8.94571C30.0526 8.73659 30.0526 8.39775 29.8423 8.18858Z" fill="#FFFCFC"/>
</svg>
