<svg width="40" height="40" viewBox="0 0 40 40" fill="none" xmlns="http://www.w3.org/2000/svg">
<path d="M39.3333 6.3335H32V1.00016C32 0.631996 31.7015 0.333496 31.3333 0.333496H8.66667C8.2985 0.333496 8 0.631996 8 1.00016V10.3335H0.666667C0.2985 10.3335 0 10.632 0 11.0002V38.3335C0 38.7017 0.2985 39.0002 0.666667 39.0002C1.03483 39.0002 1.33333 38.7017 1.33333 38.3335V11.6668H8V39.0002C8 39.3683 8.2985 39.6668 8.66667 39.6668H31.3333C31.7015 39.6668 32 39.3683 32 39.0002V7.66683H38.6667V38.3335C38.6667 38.7017 38.9652 39.0002 39.3333 39.0002C39.7015 39.0002 40 38.7017 40 38.3335V7.00016C40 6.632 39.7015 6.3335 39.3333 6.3335ZM19.3333 38.3335H16.6667V32.3335H19.3333V38.3335ZM23.3333 38.3335H20.6667V32.3335H23.3333V38.3335ZM30.6667 38.3335H24.6667V31.6668C24.6667 31.2987 24.3682 31.0002 24 31.0002H16C15.6318 31.0002 15.3333 31.2987 15.3333 31.6668V38.3335H9.33333V1.66683H30.6667V38.3335Z" fill="#282828"/>
<path d="M15.3332 3H11.3332C10.965 3 10.6665 3.2985 10.6665 3.66667V7.66667C10.6665 8.03483 10.965 8.33333 11.3332 8.33333H15.3332C15.7013 8.33333 15.9998 8.03483 15.9998 7.66667V3.66667C15.9998 3.2985 15.7013 3 15.3332 3ZM14.6665 7H11.9998V4.33333H14.6665V7Z" fill="#282828"/>
<path d="M22.0002 3H18.0002C17.632 3 17.3335 3.2985 17.3335 3.66667V7.66667C17.3335 8.03483 17.632 8.33333 18.0002 8.33333H22.0002C22.3683 8.33333 22.6668 8.03483 22.6668 7.66667V3.66667C22.6668 3.2985 22.3683 3 22.0002 3ZM21.3335 7H18.6668V4.33333H21.3335V7Z" fill="#282828"/>
<path d="M28.6667 3H24.6667C24.2985 3 24 3.2985 24 3.66667V7.66667C24 8.03483 24.2985 8.33333 24.6667 8.33333H28.6667C29.0348 8.33333 29.3333 8.03483 29.3333 7.66667V3.66667C29.3333 3.2985 29.0348 3 28.6667 3ZM28 7H25.3333V4.33333H28V7Z" fill="#282828"/>
<path d="M15.3332 9.6665H11.3332C10.965 9.6665 10.6665 9.965 10.6665 10.3332V14.3332C10.6665 14.7013 10.965 14.9998 11.3332 14.9998H15.3332C15.7013 14.9998 15.9998 14.7013 15.9998 14.3332V10.3332C15.9998 9.965 15.7013 9.6665 15.3332 9.6665ZM14.6665 13.6665H11.9998V10.9998H14.6665V13.6665Z" fill="#282828"/>
<path d="M22.0002 9.6665H18.0002C17.632 9.6665 17.3335 9.965 17.3335 10.3332V14.3332C17.3335 14.7013 17.632 14.9998 18.0002 14.9998H22.0002C22.3683 14.9998 22.6668 14.7013 22.6668 14.3332V10.3332C22.6668 9.965 22.3683 9.6665 22.0002 9.6665ZM21.3335 13.6665H18.6668V10.9998H21.3335V13.6665Z" fill="#282828"/>
<path d="M28.6667 9.6665H24.6667C24.2985 9.6665 24 9.965 24 10.3332V14.3332C24 14.7013 24.2985 14.9998 24.6667 14.9998H28.6667C29.0348 14.9998 29.3333 14.7013 29.3333 14.3332V10.3332C29.3333 9.965 29.0348 9.6665 28.6667 9.6665ZM28 13.6665H25.3333V10.9998H28V13.6665Z" fill="#282828"/>
<path d="M15.3332 16.3335H11.3332C10.965 16.3335 10.6665 16.632 10.6665 17.0002V21.0002C10.6665 21.3683 10.965 21.6668 11.3332 21.6668H15.3332C15.7013 21.6668 15.9998 21.3683 15.9998 21.0002V17.0002C15.9998 16.632 15.7013 16.3335 15.3332 16.3335ZM14.6665 20.3335H11.9998V17.6668H14.6665V20.3335Z" fill="#282828"/>
<path d="M22.0002 16.3335H18.0002C17.632 16.3335 17.3335 16.632 17.3335 17.0002V21.0002C17.3335 21.3683 17.632 21.6668 18.0002 21.6668H22.0002C22.3683 21.6668 22.6668 21.3683 22.6668 21.0002V17.0002C22.6668 16.632 22.3683 16.3335 22.0002 16.3335ZM21.3335 20.3335H18.6668V17.6668H21.3335V20.3335Z" fill="#282828"/>
<path d="M28.6667 16.3335H24.6667C24.2985 16.3335 24 16.632 24 17.0002V21.0002C24 21.3683 24.2985 21.6668 24.6667 21.6668H28.6667C29.0348 21.6668 29.3333 21.3683 29.3333 21.0002V17.0002C29.3333 16.632 29.0348 16.3335 28.6667 16.3335ZM28 20.3335H25.3333V17.6668H28V20.3335Z" fill="#282828"/>
<path d="M15.3332 23H11.3332C10.965 23 10.6665 23.2985 10.6665 23.6667V27.6667C10.6665 28.0348 10.965 28.3333 11.3332 28.3333H15.3332C15.7013 28.3333 15.9998 28.0348 15.9998 27.6667V23.6667C15.9998 23.2985 15.7013 23 15.3332 23ZM14.6665 27H11.9998V24.3333H14.6665V27Z" fill="#282828"/>
<path d="M22.0002 23H18.0002C17.632 23 17.3335 23.2985 17.3335 23.6667V27.6667C17.3335 28.0348 17.632 28.3333 18.0002 28.3333H22.0002C22.3683 28.3333 22.6668 28.0348 22.6668 27.6667V23.6667C22.6668 23.2985 22.3683 23 22.0002 23ZM21.3335 27H18.6668V24.3333H21.3335V27Z" fill="#282828"/>
<path d="M28.6667 23H24.6667C24.2985 23 24 23.2985 24 23.6667V27.6667C24 28.0348 24.2985 28.3333 24.6667 28.3333H28.6667C29.0348 28.3333 29.3333 28.0348 29.3333 27.6667V23.6667C29.3333 23.2985 29.0348 23 28.6667 23ZM28 27H25.3333V24.3333H28V27Z" fill="#282828"/>
<path d="M3.99984 13H3.33317C2.965 13 2.6665 13.2985 2.6665 13.6667V14.3333C2.6665 14.7015 2.965 15 3.33317 15H3.99984C4.368 15 4.6665 14.7015 4.6665 14.3333V13.6667C4.6665 13.2985 4.368 13 3.99984 13Z" fill="#282828"/>
<path d="M6.66683 13H6.00016C5.632 13 5.3335 13.2985 5.3335 13.6667V14.3333C5.3335 14.7015 5.632 15 6.00016 15H6.66683C7.035 15 7.3335 14.7015 7.3335 14.3333V13.6667C7.3335 13.2985 7.035 13 6.66683 13Z" fill="#282828"/>
<path d="M3.99984 15.6665H3.33317C2.965 15.6665 2.6665 15.965 2.6665 16.3332V16.9998C2.6665 17.368 2.965 17.6665 3.33317 17.6665H3.99984C4.368 17.6665 4.6665 17.368 4.6665 16.9998V16.3332C4.6665 15.965 4.368 15.6665 3.99984 15.6665Z" fill="#282828"/>
<path d="M6.66683 15.6665H6.00016C5.632 15.6665 5.3335 15.965 5.3335 16.3332V16.9998C5.3335 17.368 5.632 17.6665 6.00016 17.6665H6.66683C7.035 17.6665 7.3335 17.368 7.3335 16.9998V16.3332C7.3335 15.965 7.035 15.6665 6.66683 15.6665Z" fill="#282828"/>
<path d="M3.99984 18.3335H3.33317C2.965 18.3335 2.6665 18.632 2.6665 19.0002V19.6668C2.6665 20.035 2.965 20.3335 3.33317 20.3335H3.99984C4.368 20.3335 4.6665 20.035 4.6665 19.6668V19.0002C4.6665 18.632 4.368 18.3335 3.99984 18.3335Z" fill="#282828"/>
<path d="M6.66683 18.3335H6.00016C5.632 18.3335 5.3335 18.632 5.3335 19.0002V19.6668C5.3335 20.035 5.632 20.3335 6.00016 20.3335H6.66683C7.035 20.3335 7.3335 20.035 7.3335 19.6668V19.0002C7.3335 18.632 7.035 18.3335 6.66683 18.3335Z" fill="#282828"/>
<path d="M3.99984 21H3.33317C2.965 21 2.6665 21.2985 2.6665 21.6667V22.3333C2.6665 22.7015 2.965 23 3.33317 23H3.99984C4.368 23 4.6665 22.7015 4.6665 22.3333V21.6667C4.6665 21.2985 4.368 21 3.99984 21Z" fill="#282828"/>
<path d="M3.99984 23.6665H3.33317C2.965 23.6665 2.6665 23.965 2.6665 24.3332V24.9998C2.6665 25.368 2.965 25.6665 3.33317 25.6665H3.99984C4.368 25.6665 4.6665 25.368 4.6665 24.9998V24.3332C4.6665 23.965 4.368 23.6665 3.99984 23.6665Z" fill="#282828"/>
<path d="M6.66683 23.6665H6.00016C5.632 23.6665 5.3335 23.965 5.3335 24.3332V24.9998C5.3335 25.368 5.632 25.6665 6.00016 25.6665H6.66683C7.035 25.6665 7.3335 25.368 7.3335 24.9998V24.3332C7.3335 23.965 7.035 23.6665 6.66683 23.6665Z" fill="#282828"/>
<path d="M3.99984 26.3335H3.33317C2.965 26.3335 2.6665 26.632 2.6665 27.0002V27.6668C2.6665 28.035 2.965 28.3335 3.33317 28.3335H3.99984C4.368 28.3335 4.6665 28.035 4.6665 27.6668V27.0002C4.6665 26.632 4.368 26.3335 3.99984 26.3335Z" fill="#282828"/>
<path d="M6.66683 26.3335H6.00016C5.632 26.3335 5.3335 26.632 5.3335 27.0002V27.6668C5.3335 28.035 5.632 28.3335 6.00016 28.3335H6.66683C7.035 28.3335 7.3335 28.035 7.3335 27.6668V27.0002C7.3335 26.632 7.035 26.3335 6.66683 26.3335Z" fill="#282828"/>
<path d="M3.99984 29H3.33317C2.965 29 2.6665 29.2985 2.6665 29.6667V30.3333C2.6665 30.7015 2.965 31 3.33317 31H3.99984C4.368 31 4.6665 30.7015 4.6665 30.3333V29.6667C4.6665 29.2985 4.368 29 3.99984 29Z" fill="#282828"/>
<path d="M6.66683 29H6.00016C5.632 29 5.3335 29.2985 5.3335 29.6667V30.3333C5.3335 30.7015 5.632 31 6.00016 31H6.66683C7.035 31 7.3335 30.7015 7.3335 30.3333V29.6667C7.3335 29.2985 7.035 29 6.66683 29Z" fill="#282828"/>
<path d="M3.99984 31.6665H3.33317C2.965 31.6665 2.6665 31.965 2.6665 32.3332V32.9998C2.6665 33.368 2.965 33.6665 3.33317 33.6665H3.99984C4.368 33.6665 4.6665 33.368 4.6665 32.9998V32.3332C4.6665 31.965 4.368 31.6665 3.99984 31.6665Z" fill="#282828"/>
<path d="M6.66683 31.6665H6.00016C5.632 31.6665 5.3335 31.965 5.3335 32.3332V32.9998C5.3335 33.368 5.632 33.6665 6.00016 33.6665H6.66683C7.035 33.6665 7.3335 33.368 7.3335 32.9998V32.3332C7.3335 31.965 7.035 31.6665 6.66683 31.6665Z" fill="#282828"/>
<path d="M3.99984 34.3335H3.33317C2.965 34.3335 2.6665 34.632 2.6665 35.0002V35.6668C2.6665 36.035 2.965 36.3335 3.33317 36.3335H3.99984C4.368 36.3335 4.6665 36.035 4.6665 35.6668V35.0002C4.6665 34.632 4.368 34.3335 3.99984 34.3335Z" fill="#282828"/>
<path d="M6.66683 34.3335H6.00016C5.632 34.3335 5.3335 34.632 5.3335 35.0002V35.6668C5.3335 36.035 5.632 36.3335 6.00016 36.3335H6.66683C7.035 36.3335 7.3335 36.035 7.3335 35.6668V35.0002C7.3335 34.632 7.035 34.3335 6.66683 34.3335Z" fill="#282828"/>
<path d="M36.6668 9H34.0002C33.632 9 33.3335 9.2985 33.3335 9.66667V12.3333C33.3335 12.7015 33.632 13 34.0002 13H36.6668C37.035 13 37.3335 12.7015 37.3335 12.3333V9.66667C37.3335 9.2985 37.035 9 36.6668 9ZM36.0002 11.6667H34.6668V10.3333H36.0002V11.6667Z" fill="#282828"/>
<path d="M36.6668 14.3335H34.0002C33.632 14.3335 33.3335 14.632 33.3335 15.0002V17.6668C33.3335 18.035 33.632 18.3335 34.0002 18.3335H36.6668C37.035 18.3335 37.3335 18.035 37.3335 17.6668V15.0002C37.3335 14.632 37.035 14.3335 36.6668 14.3335ZM36.0002 17.0002H34.6668V15.6668H36.0002V17.0002Z" fill="#282828"/>
<path d="M36.6668 19.6665H34.0002C33.632 19.6665 33.3335 19.965 33.3335 20.3332V22.9998C33.3335 23.368 33.632 23.6665 34.0002 23.6665H36.6668C37.035 23.6665 37.3335 23.368 37.3335 22.9998V20.3332C37.3335 19.965 37.035 19.6665 36.6668 19.6665ZM36.0002 22.3332H34.6668V20.9998H36.0002V22.3332Z" fill="#282828"/>
<path d="M36.6668 25H34.0002C33.632 25 33.3335 25.2985 33.3335 25.6667V28.3333C33.3335 28.7015 33.632 29 34.0002 29H36.6668C37.035 29 37.3335 28.7015 37.3335 28.3333V25.6667C37.3335 25.2985 37.035 25 36.6668 25ZM36.0002 27.6667H34.6668V26.3333H36.0002V27.6667Z" fill="#282828"/>
<path d="M36.6668 30.3335H34.0002C33.632 30.3335 33.3335 30.632 33.3335 31.0002V33.6668C33.3335 34.035 33.632 34.3335 34.0002 34.3335H36.6668C37.035 34.3335 37.3335 34.035 37.3335 33.6668V31.0002C37.3335 30.632 37.035 30.3335 36.6668 30.3335ZM36.0002 33.0002H34.6668V31.6668H36.0002V33.0002Z" fill="#282828"/>
</svg>
