<svg width="540" height="449" viewBox="0 0 540 449" fill="none" xmlns="http://www.w3.org/2000/svg">
<path fill-rule="evenodd" clip-rule="evenodd" d="M539 1H1V448H539V1ZM0 0V449H540V0H0Z" fill="#BF794B"/>
<path fill-rule="evenodd" clip-rule="evenodd" d="M0 59.5H540V60.5H0V59.5Z" fill="#BF794B"/>
<path fill-rule="evenodd" clip-rule="evenodd" d="M65 389L65 1L66 1L66 389L65 389Z" fill="#BF794B"/>
<path fill-rule="evenodd" clip-rule="evenodd" d="M285 389V0L286 0V389H285Z" fill="#BF794B"/>
<path fill-rule="evenodd" clip-rule="evenodd" d="M540 107L1 107L1 106L540 106L540 107Z" fill="#BF794B"/>
<path fill-rule="evenodd" clip-rule="evenodd" d="M540 154L1 154L1 153L540 153L540 154Z" fill="#BF794B"/>
<path fill-rule="evenodd" clip-rule="evenodd" d="M540 201L1 201L1 200L540 200L540 201Z" fill="#BF794B"/>
<path fill-rule="evenodd" clip-rule="evenodd" d="M540 248L1 248L1 247L540 247L540 248Z" fill="#BF794B"/>
<path fill-rule="evenodd" clip-rule="evenodd" d="M540 342L1 342L1 341L540 341L540 342Z" fill="#BF794B"/>
<path fill-rule="evenodd" clip-rule="evenodd" d="M540 295L-8.74228e-08 295L0 294L540 294L540 295Z" fill="#BF794B"/>
<path fill-rule="evenodd" clip-rule="evenodd" d="M1 388.5H540V389.5H1V388.5Z" fill="#BF794B"/>
<path d="M129.06 32.84H126.14V39H124.18V25H126.14V31.08H129.1L133.5 25H135.64L130.64 31.78L135.88 39H133.6L129.06 32.84Z" fill="black"/>
<path d="M142.013 39.12C140.96 39.12 140.013 38.8867 139.173 38.42C138.333 37.9533 137.673 37.3133 137.193 36.5C136.726 35.6733 136.493 34.74 136.493 33.7C136.493 32.66 136.726 31.7333 137.193 30.92C137.673 30.0933 138.333 29.4533 139.173 29C140.013 28.5333 140.96 28.3 142.013 28.3C143.066 28.3 144.006 28.5333 144.833 29C145.673 29.4533 146.326 30.0933 146.793 30.92C147.273 31.7333 147.513 32.66 147.513 33.7C147.513 34.74 147.273 35.6733 146.793 36.5C146.326 37.3133 145.673 37.9533 144.833 38.42C144.006 38.8867 143.066 39.12 142.013 39.12ZM142.013 37.44C142.693 37.44 143.3 37.2867 143.833 36.98C144.38 36.66 144.806 36.22 145.113 35.66C145.42 35.0867 145.573 34.4333 145.573 33.7C145.573 32.9667 145.42 32.32 145.113 31.76C144.806 31.1867 144.38 30.7467 143.833 30.44C143.3 30.1333 142.693 29.98 142.013 29.98C141.333 29.98 140.72 30.1333 140.173 30.44C139.64 30.7467 139.213 31.1867 138.893 31.76C138.586 32.32 138.433 32.9667 138.433 33.7C138.433 34.4333 138.586 35.0867 138.893 35.66C139.213 36.22 139.64 36.66 140.173 36.98C140.72 37.2867 141.333 37.44 142.013 37.44Z" fill="black"/>
<path d="M162.505 28.4V39H160.765V31.26L156.805 37.8H155.965L152.045 31.24V39H150.285V28.4H152.265L156.425 35.56L160.705 28.4H162.505Z" fill="black"/>
<path d="M166.243 28.4H168.162V32.9H174.202V28.4H176.123V39H174.202V34.56H168.162V39H166.243V28.4Z" fill="black"/>
<path d="M183.636 28.3C185.102 28.3 186.222 28.66 186.996 29.38C187.782 30.1 188.176 31.1733 188.176 32.6V39H186.356V37.6C186.036 38.0933 185.576 38.4733 184.976 38.74C184.389 38.9933 183.689 39.12 182.876 39.12C181.689 39.12 180.736 38.8333 180.016 38.26C179.309 37.6867 178.956 36.9333 178.956 36C178.956 35.0667 179.296 34.32 179.976 33.76C180.656 33.1867 181.736 32.9 183.216 32.9H186.256V32.52C186.256 31.6933 186.016 31.06 185.536 30.62C185.056 30.18 184.349 29.96 183.416 29.96C182.789 29.96 182.176 30.0667 181.576 30.28C180.976 30.48 180.469 30.7533 180.056 31.1L179.256 29.66C179.802 29.22 180.456 28.8867 181.216 28.66C181.976 28.42 182.782 28.3 183.636 28.3ZM183.196 37.64C183.929 37.64 184.562 37.48 185.096 37.16C185.629 36.8267 186.016 36.36 186.256 35.76V34.28H183.296C181.669 34.28 180.856 34.8267 180.856 35.92C180.856 36.4533 181.062 36.8733 181.476 37.18C181.889 37.4867 182.462 37.64 183.196 37.64Z" fill="black"/>
<path d="M199.533 30.08H195.653V39H193.733V30.08H189.853V28.4H199.533V30.08Z" fill="black"/>
<path d="M205.276 28.3C206.743 28.3 207.863 28.66 208.636 29.38C209.423 30.1 209.816 31.1733 209.816 32.6V39H207.996V37.6C207.676 38.0933 207.216 38.4733 206.616 38.74C206.03 38.9933 205.33 39.12 204.516 39.12C203.33 39.12 202.376 38.8333 201.656 38.26C200.95 37.6867 200.596 36.9333 200.596 36C200.596 35.0667 200.936 34.32 201.616 33.76C202.296 33.1867 203.376 32.9 204.856 32.9H207.896V32.52C207.896 31.6933 207.656 31.06 207.176 30.62C206.696 30.18 205.99 29.96 205.056 29.96C204.43 29.96 203.816 30.0667 203.216 30.28C202.616 30.48 202.11 30.7533 201.696 31.1L200.896 29.66C201.443 29.22 202.096 28.8867 202.856 28.66C203.616 28.42 204.423 28.3 205.276 28.3ZM204.836 37.64C205.57 37.64 206.203 37.48 206.736 37.16C207.27 36.8267 207.656 36.36 207.896 35.76V34.28H204.936C203.31 34.28 202.496 34.8267 202.496 35.92C202.496 36.4533 202.703 36.8733 203.116 37.18C203.53 37.4867 204.103 37.64 204.836 37.64Z" fill="black"/>
<path d="M373.24 25V39H371.28V26.74H363.16V39H361.18V25H373.24Z" fill="black"/>
<path d="M386.385 28.4V39H384.465V30.08H379.905L379.785 32.44C379.719 33.8667 379.592 35.06 379.405 36.02C379.219 36.9667 378.912 37.7267 378.485 38.3C378.059 38.8733 377.465 39.16 376.705 39.16C376.359 39.16 375.965 39.1 375.525 38.98L375.645 37.36C375.819 37.4 375.979 37.42 376.125 37.42C376.659 37.42 377.059 37.1867 377.325 36.72C377.592 36.2533 377.765 35.7 377.845 35.06C377.925 34.42 377.999 33.5067 378.065 32.32L378.245 28.4H386.385Z" fill="black"/>
<path d="M394.638 39.12C393.585 39.12 392.638 38.8867 391.798 38.42C390.958 37.9533 390.298 37.3133 389.818 36.5C389.351 35.6733 389.118 34.74 389.118 33.7C389.118 32.66 389.351 31.7333 389.818 30.92C390.298 30.0933 390.958 29.4533 391.798 29C392.638 28.5333 393.585 28.3 394.638 28.3C395.691 28.3 396.631 28.5333 397.458 29C398.298 29.4533 398.951 30.0933 399.418 30.92C399.898 31.7333 400.138 32.66 400.138 33.7C400.138 34.74 399.898 35.6733 399.418 36.5C398.951 37.3133 398.298 37.9533 397.458 38.42C396.631 38.8867 395.691 39.12 394.638 39.12ZM394.638 37.44C395.318 37.44 395.925 37.2867 396.458 36.98C397.005 36.66 397.431 36.22 397.738 35.66C398.045 35.0867 398.198 34.4333 398.198 33.7C398.198 32.9667 398.045 32.32 397.738 31.76C397.431 31.1867 397.005 30.7467 396.458 30.44C395.925 30.1333 395.318 29.98 394.638 29.98C393.958 29.98 393.345 30.1333 392.798 30.44C392.265 30.7467 391.838 31.1867 391.518 31.76C391.211 32.32 391.058 32.9667 391.058 33.7C391.058 34.4333 391.211 35.0867 391.518 35.66C391.838 36.22 392.265 36.66 392.798 36.98C393.345 37.2867 393.958 37.44 394.638 37.44Z" fill="black"/>
<path d="M418.01 28.4V39H402.91V28.4H404.83V37.32H409.51V28.4H411.43V37.32H416.09V28.4H418.01ZM419.59 37.32V41.26H417.79V39H416.01V37.32H419.59Z" fill="black"/>
<path d="M425.519 28.3C426.985 28.3 428.105 28.66 428.879 29.38C429.665 30.1 430.059 31.1733 430.059 32.6V39H428.239V37.6C427.919 38.0933 427.459 38.4733 426.859 38.74C426.272 38.9933 425.572 39.12 424.759 39.12C423.572 39.12 422.619 38.8333 421.899 38.26C421.192 37.6867 420.839 36.9333 420.839 36C420.839 35.0667 421.179 34.32 421.859 33.76C422.539 33.1867 423.619 32.9 425.099 32.9H428.139V32.52C428.139 31.6933 427.899 31.06 427.419 30.62C426.939 30.18 426.232 29.96 425.299 29.96C424.672 29.96 424.059 30.0667 423.459 30.28C422.859 30.48 422.352 30.7533 421.939 31.1L421.139 29.66C421.685 29.22 422.339 28.8867 423.099 28.66C423.859 28.42 424.665 28.3 425.519 28.3ZM425.079 37.64C425.812 37.64 426.445 37.48 426.979 37.16C427.512 36.8267 427.899 36.36 428.139 35.76V34.28H425.179C423.552 34.28 422.739 34.8267 422.739 35.92C422.739 36.4533 422.945 36.8733 423.359 37.18C423.772 37.4867 424.345 37.64 425.079 37.64Z" fill="black"/>
<path d="M444.296 37.32V41.46H442.496V39H433.636V41.46H431.816V37.32H432.376C433.056 37.28 433.523 36.8 433.776 35.88C434.029 34.96 434.203 33.66 434.296 31.98L434.456 28.4H442.676V37.32H444.296ZM436.056 32.12C436.003 33.4533 435.889 34.56 435.716 35.44C435.556 36.3067 435.256 36.9333 434.816 37.32H440.756V30.08H436.156L436.056 32.12Z" fill="black"/>
<path d="M451.697 32C453.044 32.0133 454.071 32.32 454.777 32.92C455.484 33.52 455.837 34.3667 455.837 35.46C455.837 36.6067 455.451 37.4933 454.677 38.12C453.917 38.7333 452.824 39.0333 451.397 39.02L446.797 39V28.4H448.717V31.98L451.697 32ZM451.237 37.56C452.104 37.5733 452.757 37.4 453.197 37.04C453.651 36.68 453.877 36.1467 453.877 35.44C453.877 34.7467 453.657 34.24 453.217 33.92C452.791 33.6 452.131 33.4333 451.237 33.42L448.717 33.38V37.54L451.237 37.56Z" fill="black"/>
<path d="M458.604 36.38C458.978 36.38 459.284 36.5133 459.524 36.78C459.778 37.0333 459.904 37.3533 459.904 37.74C459.904 37.94 459.878 38.1333 459.824 38.32C459.784 38.5067 459.698 38.7933 459.564 39.18L458.624 41.96H457.364L458.104 38.98C457.851 38.8867 457.644 38.7333 457.484 38.52C457.338 38.2933 457.264 38.0333 457.264 37.74C457.264 37.34 457.391 37.0133 457.644 36.76C457.898 36.5067 458.218 36.38 458.604 36.38Z" fill="black"/>
<path d="M480.287 28.4V39H478.547V31.26L474.587 37.8H473.747L469.827 31.24V39H468.067V28.4H470.047L474.207 35.56L478.487 28.4H480.287Z" fill="black"/>
<path d="M489.764 31.3V32.46H483.084V31.56L486.784 28.32C487.25 27.9067 487.564 27.5733 487.724 27.32C487.897 27.0533 487.984 26.7867 487.984 26.52C487.984 26.1467 487.817 25.8467 487.484 25.62C487.15 25.38 486.65 25.26 485.984 25.26C485.49 25.26 485.05 25.34 484.664 25.5C484.277 25.6467 483.957 25.8667 483.704 26.16L482.724 25.4C483.43 24.5067 484.55 24.06 486.084 24.06C487.137 24.06 487.95 24.28 488.524 24.72C489.097 25.16 489.384 25.7267 489.384 26.42C489.384 26.8467 489.277 27.2467 489.064 27.62C488.85 27.9933 488.444 28.4467 487.844 28.98L485.204 31.3H489.764Z" fill="black"/>
<path d="M40.5196 31.34C39.8396 31.34 39.2263 31.2 38.6796 30.92C38.1463 30.64 37.7263 30.2533 37.4196 29.76C37.1129 29.2667 36.9596 28.7133 36.9596 28.1C36.9596 27.4867 37.1129 26.9333 37.4196 26.44C37.7263 25.9467 38.1463 25.5667 38.6796 25.3C39.2263 25.02 39.8396 24.88 40.5196 24.88C41.1996 24.88 41.8063 25.02 42.3396 25.3C42.8863 25.5667 43.3063 25.9467 43.5996 26.44C43.9063 26.9333 44.0596 27.4867 44.0596 28.1C44.0596 28.7133 43.9063 29.2667 43.5996 29.76C43.3063 30.2533 42.8863 30.64 42.3396 30.92C41.8063 31.2 41.1996 31.34 40.5196 31.34ZM33.1396 25H35.1396V39H33.4996L25.0996 28.56V39H23.0996V25H24.7396L33.1396 35.44V25ZM40.5196 26.02C39.8529 26.02 39.3129 26.2133 38.8996 26.6C38.4996 26.9867 38.2996 27.4867 38.2996 28.1C38.2996 28.7133 38.5063 29.2133 38.9196 29.6C39.3329 29.9867 39.8663 30.18 40.5196 30.18C41.1729 30.18 41.6996 29.9867 42.0996 29.6C42.5129 29.2133 42.7196 28.7133 42.7196 28.1C42.7196 27.4867 42.5129 26.9867 42.0996 26.6C41.6996 26.2133 41.1729 26.02 40.5196 26.02ZM37.3596 32.92H43.6796V34.22H37.3596V32.92Z" fill="black"/>
<path d="M35.3002 77V91H33.3202V78.74H30.1602V77H35.3002Z" fill="black"/>
<path d="M38.7993 136.26V138H28.7393V136.64L34.4393 131.14C35.1326 130.473 35.5993 129.9 35.8393 129.42C36.0793 128.927 36.1993 128.433 36.1993 127.94C36.1993 127.207 35.9393 126.64 35.4193 126.24C34.9126 125.827 34.1793 125.62 33.2193 125.62C31.6726 125.62 30.4793 126.127 29.6393 127.14L28.2793 125.96C28.826 125.293 29.5393 124.773 30.4193 124.4C31.3126 124.027 32.306 123.84 33.3993 123.84C34.866 123.84 36.0326 124.193 36.8993 124.9C37.766 125.593 38.1993 126.54 38.1993 127.74C38.1993 128.487 38.0393 129.193 37.7193 129.86C37.3993 130.527 36.7926 131.287 35.8993 132.14L31.6193 136.26H38.7993Z" fill="black"/>
<path d="M34.3196 176.88C35.6929 177.013 36.7396 177.44 37.4596 178.16C38.1796 178.867 38.5396 179.773 38.5396 180.88C38.5396 181.68 38.3396 182.407 37.9396 183.06C37.5396 183.7 36.9396 184.213 36.1396 184.6C35.3529 184.973 34.3863 185.16 33.2396 185.16C32.2396 185.16 31.2796 185.013 30.3596 184.72C29.4396 184.413 28.6863 183.993 28.0996 183.46L29.0196 181.88C29.4996 182.333 30.1129 182.7 30.8596 182.98C31.6063 183.247 32.3996 183.38 33.2396 183.38C34.2796 183.38 35.0863 183.16 35.6596 182.72C36.2463 182.28 36.5396 181.673 36.5396 180.9C36.5396 180.127 36.2529 179.527 35.6796 179.1C35.1063 178.673 34.2396 178.46 33.0796 178.46H31.9596V177.06L35.4796 172.74H28.7396V171H37.9796V172.36L34.3196 176.88Z" fill="black"/>
<path d="M40.1398 228.56H37.4798V232H35.5398V228.56H27.7598V227.16L34.9198 218H37.0798L30.2198 226.84H35.5998V223.8H37.4798V226.84H40.1398V228.56Z" fill="black"/>
<path d="M34.9598 270.58C36.9598 270.58 38.4265 270.96 39.3598 271.72C40.3065 272.467 40.7798 273.493 40.7798 274.8C40.7798 275.627 40.5798 276.373 40.1798 277.04C39.7932 277.693 39.1998 278.213 38.3998 278.6C37.6132 278.973 36.6398 279.16 35.4798 279.16C34.4932 279.16 33.5398 279.013 32.6198 278.72C31.6998 278.413 30.9398 277.993 30.3398 277.46L31.2598 275.88C31.7398 276.333 32.3532 276.7 33.0998 276.98C33.8465 277.247 34.6332 277.38 35.4598 277.38C36.5132 277.38 37.3265 277.16 37.8998 276.72C38.4865 276.267 38.7798 275.653 38.7798 274.88C38.7798 274.04 38.4598 273.407 37.8198 272.98C37.1798 272.54 36.0865 272.32 34.5398 272.32H31.3598L32.0998 265H39.9998V266.74H33.7798L33.3998 270.58H34.9598Z" fill="black"/>
<path d="M35 317.5C35.92 317.5 36.74 317.673 37.46 318.02C38.1933 318.367 38.7666 318.867 39.18 319.52C39.5933 320.16 39.8 320.9 39.8 321.74C39.8 322.62 39.58 323.393 39.14 324.06C38.7133 324.727 38.12 325.247 37.36 325.62C36.6133 325.98 35.7733 326.16 34.84 326.16C32.96 326.16 31.5066 325.553 30.48 324.34C29.4666 323.127 28.96 321.407 28.96 319.18C28.96 317.62 29.2333 316.293 29.78 315.2C30.34 314.093 31.1133 313.26 32.1 312.7C33.1 312.127 34.26 311.84 35.58 311.84C36.26 311.84 36.9 311.913 37.5 312.06C38.1 312.193 38.62 312.393 39.06 312.66L38.3 314.22C37.6333 313.78 36.74 313.56 35.62 313.56C34.1666 313.56 33.0266 314.013 32.2 314.92C31.3733 315.813 30.96 317.12 30.96 318.84C30.96 319.053 30.9666 319.22 30.98 319.34C31.38 318.74 31.9266 318.287 32.62 317.98C33.3266 317.66 34.12 317.5 35 317.5ZM34.76 324.54C35.68 324.54 36.4266 324.293 37 323.8C37.5733 323.307 37.86 322.647 37.86 321.82C37.86 320.993 37.5666 320.34 36.98 319.86C36.4066 319.367 35.6333 319.12 34.66 319.12C34.0333 319.12 33.4733 319.24 32.98 319.48C32.5 319.72 32.12 320.047 31.84 320.46C31.5733 320.873 31.44 321.333 31.44 321.84C31.44 322.333 31.5666 322.787 31.82 323.2C32.0866 323.6 32.4666 323.927 32.96 324.18C33.4666 324.42 34.0666 324.54 34.76 324.54Z" fill="black"/>
<path d="M39.1596 359V360.36L33.4996 373H31.3796L36.9196 360.74H30.5196V363.24H28.5996V359H39.1596Z" fill="black"/>
<path d="M119.423 77L123.083 82.12L126.743 77H129.083L124.343 83.72L129.463 91H127.103L123.083 85.42L119.083 91H116.783L121.883 83.8L117.123 77H119.423Z" fill="black"/>
<path d="M135.597 91.12C134.544 91.12 133.597 90.8867 132.757 90.42C131.917 89.9533 131.257 89.3133 130.777 88.5C130.31 87.6733 130.077 86.74 130.077 85.7C130.077 84.66 130.31 83.7333 130.777 82.92C131.257 82.0933 131.917 81.4533 132.757 81C133.597 80.5333 134.544 80.3 135.597 80.3C136.65 80.3 137.59 80.5333 138.417 81C139.257 81.4533 139.91 82.0933 140.377 82.92C140.857 83.7333 141.097 84.66 141.097 85.7C141.097 86.74 140.857 87.6733 140.377 88.5C139.91 89.3133 139.257 89.9533 138.417 90.42C137.59 90.8867 136.65 91.12 135.597 91.12ZM135.597 89.44C136.277 89.44 136.884 89.2867 137.417 88.98C137.964 88.66 138.39 88.22 138.697 87.66C139.004 87.0867 139.157 86.4333 139.157 85.7C139.157 84.9667 139.004 84.32 138.697 83.76C138.39 83.1867 137.964 82.7467 137.417 82.44C136.884 82.1333 136.277 81.98 135.597 81.98C134.917 81.98 134.304 82.1333 133.757 82.44C133.224 82.7467 132.797 83.1867 132.477 83.76C132.17 84.32 132.017 84.9667 132.017 85.7C132.017 86.4333 132.17 87.0867 132.477 87.66C132.797 88.22 133.224 88.66 133.757 88.98C134.304 89.2867 134.917 89.44 135.597 89.44Z" fill="black"/>
<path d="M152.891 80.4V91H150.971V82.08H146.411L146.291 84.44C146.225 85.8667 146.098 87.06 145.911 88.02C145.725 88.9667 145.418 89.7267 144.991 90.3C144.565 90.8733 143.971 91.16 143.211 91.16C142.865 91.16 142.471 91.1 142.031 90.98L142.151 89.36C142.325 89.4 142.485 89.42 142.631 89.42C143.165 89.42 143.565 89.1867 143.831 88.72C144.098 88.2533 144.271 87.7 144.351 87.06C144.431 86.42 144.505 85.5067 144.571 84.32L144.751 80.4H152.891Z" fill="black"/>
<path d="M165.704 80.4V91H163.784V82.08H159.224L159.104 84.44C159.037 85.8667 158.911 87.06 158.724 88.02C158.537 88.9667 158.231 89.7267 157.804 90.3C157.377 90.8733 156.784 91.16 156.024 91.16C155.677 91.16 155.284 91.1 154.844 90.98L154.964 89.36C155.137 89.4 155.297 89.42 155.444 89.42C155.977 89.42 156.377 89.1867 156.644 88.72C156.911 88.2533 157.084 87.7 157.164 87.06C157.244 86.42 157.317 85.5067 157.384 84.32L157.564 80.4H165.704Z" fill="black"/>
<path d="M124.512 138.16C123.112 138.16 121.846 137.853 120.712 137.24C119.592 136.613 118.712 135.76 118.072 134.68C117.432 133.587 117.112 132.36 117.112 131C117.112 129.64 117.432 128.42 118.072 127.34C118.712 126.247 119.599 125.393 120.732 124.78C121.866 124.153 123.132 123.84 124.532 123.84C125.626 123.84 126.626 124.027 127.532 124.4C128.439 124.76 129.212 125.3 129.852 126.02L128.552 127.28C127.499 126.173 126.186 125.62 124.612 125.62C123.572 125.62 122.632 125.853 121.792 126.32C120.952 126.787 120.292 127.433 119.812 128.26C119.346 129.073 119.112 129.987 119.112 131C119.112 132.013 119.346 132.933 119.812 133.76C120.292 134.573 120.952 135.213 121.792 135.68C122.632 136.147 123.572 136.38 124.612 136.38C126.172 136.38 127.486 135.82 128.552 134.7L129.852 135.96C129.212 136.68 128.432 137.227 127.512 137.6C126.606 137.973 125.606 138.16 124.512 138.16Z" fill="black"/>
<path d="M135.931 127.3C137.398 127.3 138.518 127.66 139.291 128.38C140.078 129.1 140.471 130.173 140.471 131.6V138H138.651V136.6C138.331 137.093 137.871 137.473 137.271 137.74C136.684 137.993 135.984 138.12 135.171 138.12C133.984 138.12 133.031 137.833 132.311 137.26C131.604 136.687 131.251 135.933 131.251 135C131.251 134.067 131.591 133.32 132.271 132.76C132.951 132.187 134.031 131.9 135.511 131.9H138.551V131.52C138.551 130.693 138.311 130.06 137.831 129.62C137.351 129.18 136.644 128.96 135.711 128.96C135.084 128.96 134.471 129.067 133.871 129.28C133.271 129.48 132.764 129.753 132.351 130.1L131.551 128.66C132.098 128.22 132.751 127.887 133.511 127.66C134.271 127.42 135.078 127.3 135.931 127.3ZM135.491 136.64C136.224 136.64 136.858 136.48 137.391 136.16C137.924 135.827 138.311 135.36 138.551 134.76V133.28H135.591C133.964 133.28 133.151 133.827 133.151 134.92C133.151 135.453 133.358 135.873 133.771 136.18C134.184 136.487 134.758 136.64 135.491 136.64Z" fill="black"/>
<path d="M143.928 127.4H145.848V131.9H151.888V127.4H153.808V138H151.888V133.56H145.848V138H143.928V127.4Z" fill="black"/>
<path d="M167.002 127.4L161.862 139.06C161.408 140.14 160.875 140.9 160.262 141.34C159.662 141.78 158.935 142 158.082 142C157.562 142 157.055 141.913 156.562 141.74C156.082 141.58 155.682 141.34 155.362 141.02L156.182 139.58C156.728 140.1 157.362 140.36 158.082 140.36C158.548 140.36 158.935 140.233 159.242 139.98C159.562 139.74 159.848 139.32 160.102 138.72L160.442 137.98L155.762 127.4H157.762L161.462 135.88L165.122 127.4H167.002Z" fill="black"/>
<path d="M174.454 132.48C175.16 132.667 175.707 132.967 176.094 133.38C176.48 133.793 176.674 134.307 176.674 134.92C176.674 135.547 176.46 136.107 176.034 136.6C175.607 137.08 175.014 137.46 174.254 137.74C173.507 138.007 172.667 138.14 171.734 138.14C170.947 138.14 170.174 138.04 169.414 137.84C168.667 137.627 168 137.327 167.414 136.94L167.994 135.48C168.5 135.8 169.08 136.053 169.734 136.24C170.387 136.413 171.047 136.5 171.714 136.5C172.62 136.5 173.34 136.347 173.874 136.04C174.42 135.72 174.694 135.293 174.694 134.76C174.694 134.267 174.474 133.887 174.034 133.62C173.607 133.353 173 133.22 172.214 133.22H170.274V131.84H172.074C172.794 131.84 173.36 131.713 173.774 131.46C174.187 131.207 174.394 130.86 174.394 130.42C174.394 129.94 174.147 129.567 173.654 129.3C173.174 129.033 172.52 128.9 171.694 128.9C170.64 128.9 169.527 129.173 168.354 129.72L167.834 128.24C169.127 127.587 170.48 127.26 171.894 127.26C172.747 127.26 173.514 127.38 174.194 127.62C174.874 127.86 175.407 128.2 175.794 128.64C176.18 129.08 176.374 129.58 176.374 130.14C176.374 130.66 176.2 131.127 175.854 131.54C175.507 131.953 175.04 132.267 174.454 132.48Z" fill="black"/>
<path d="M189.172 132.76C189.172 132.907 189.159 133.1 189.132 133.34H180.532C180.652 134.273 181.059 135.027 181.752 135.6C182.459 136.16 183.332 136.44 184.372 136.44C185.639 136.44 186.659 136.013 187.432 135.16L188.492 136.4C188.012 136.96 187.412 137.387 186.692 137.68C185.986 137.973 185.192 138.12 184.312 138.12C183.192 138.12 182.199 137.893 181.332 137.44C180.466 136.973 179.792 136.327 179.312 135.5C178.846 134.673 178.612 133.74 178.612 132.7C178.612 131.673 178.839 130.747 179.292 129.92C179.759 129.093 180.392 128.453 181.192 128C182.006 127.533 182.919 127.3 183.932 127.3C184.946 127.3 185.846 127.533 186.632 128C187.432 128.453 188.052 129.093 188.492 129.92C188.946 130.747 189.172 131.693 189.172 132.76ZM183.932 128.92C183.012 128.92 182.239 129.2 181.612 129.76C180.999 130.32 180.639 131.053 180.532 131.96H187.332C187.226 131.067 186.859 130.34 186.232 129.78C185.619 129.207 184.852 128.92 183.932 128.92Z" fill="black"/>
<path d="M201.075 127.4V138H199.155V129.08H194.595L194.475 131.44C194.409 132.867 194.282 134.06 194.095 135.02C193.909 135.967 193.602 136.727 193.175 137.3C192.749 137.873 192.155 138.16 191.395 138.16C191.049 138.16 190.655 138.1 190.215 137.98L190.335 136.36C190.509 136.4 190.669 136.42 190.815 136.42C191.349 136.42 191.749 136.187 192.015 135.72C192.282 135.253 192.455 134.7 192.535 134.06C192.615 133.42 192.689 132.507 192.755 131.32L192.935 127.4H201.075Z" fill="black"/>
<path d="M123.071 178.84H120.151V185H118.191V171H120.151V177.08H123.111L127.511 171H129.651L124.651 177.78L129.891 185H127.611L123.071 178.84Z" fill="black"/>
<path d="M140.956 174.4V185H139.036V176.08H134.476L134.356 178.44C134.289 179.867 134.162 181.06 133.976 182.02C133.789 182.967 133.482 183.727 133.056 184.3C132.629 184.873 132.036 185.16 131.276 185.16C130.929 185.16 130.536 185.1 130.096 184.98L130.216 183.36C130.389 183.4 130.549 183.42 130.696 183.42C131.229 183.42 131.629 183.187 131.896 182.72C132.162 182.253 132.336 181.7 132.416 181.06C132.496 180.42 132.569 179.507 132.636 178.32L132.816 174.4H140.956Z" fill="black"/>
<path d="M148.448 174.3C149.915 174.3 151.035 174.66 151.808 175.38C152.595 176.1 152.988 177.173 152.988 178.6V185H151.168V183.6C150.848 184.093 150.388 184.473 149.788 184.74C149.202 184.993 148.502 185.12 147.688 185.12C146.502 185.12 145.548 184.833 144.828 184.26C144.122 183.687 143.768 182.933 143.768 182C143.768 181.067 144.108 180.32 144.788 179.76C145.468 179.187 146.548 178.9 148.028 178.9H151.068V178.52C151.068 177.693 150.828 177.06 150.348 176.62C149.868 176.18 149.162 175.96 148.228 175.96C147.602 175.96 146.988 176.067 146.388 176.28C145.788 176.48 145.282 176.753 144.868 177.1L144.068 175.66C144.615 175.22 145.268 174.887 146.028 174.66C146.788 174.42 147.595 174.3 148.448 174.3ZM148.008 183.64C148.742 183.64 149.375 183.48 149.908 183.16C150.442 182.827 150.828 182.36 151.068 181.76V180.28H148.108C146.482 180.28 145.668 180.827 145.668 181.92C145.668 182.453 145.875 182.873 146.288 183.18C146.702 183.487 147.275 183.64 148.008 183.64Z" fill="black"/>
<path d="M167.226 183.32V187.46H165.426V185H156.566V187.46H154.746V183.32H155.306C155.986 183.28 156.452 182.8 156.706 181.88C156.959 180.96 157.132 179.66 157.226 177.98L157.386 174.4H165.606V183.32H167.226ZM158.986 178.12C158.932 179.453 158.819 180.56 158.646 181.44C158.486 182.307 158.186 182.933 157.746 183.32H163.686V176.08H159.086L158.986 178.12Z" fill="black"/>
<path d="M174.267 185.12C173.214 185.12 172.267 184.887 171.427 184.42C170.587 183.953 169.927 183.313 169.447 182.5C168.98 181.673 168.747 180.74 168.747 179.7C168.747 178.66 168.98 177.733 169.447 176.92C169.927 176.093 170.587 175.453 171.427 175C172.267 174.533 173.214 174.3 174.267 174.3C175.32 174.3 176.26 174.533 177.087 175C177.927 175.453 178.58 176.093 179.047 176.92C179.527 177.733 179.767 178.66 179.767 179.7C179.767 180.74 179.527 181.673 179.047 182.5C178.58 183.313 177.927 183.953 177.087 184.42C176.26 184.887 175.32 185.12 174.267 185.12ZM174.267 183.44C174.947 183.44 175.554 183.287 176.087 182.98C176.634 182.66 177.06 182.22 177.367 181.66C177.674 181.087 177.827 180.433 177.827 179.7C177.827 178.967 177.674 178.32 177.367 177.76C177.06 177.187 176.634 176.747 176.087 176.44C175.554 176.133 174.947 175.98 174.267 175.98C173.587 175.98 172.974 176.133 172.427 176.44C171.894 176.747 171.467 177.187 171.147 177.76C170.84 178.32 170.687 178.967 170.687 179.7C170.687 180.433 170.84 181.087 171.147 181.66C171.467 182.22 171.894 182.66 172.427 182.98C172.974 183.287 173.587 183.44 174.267 183.44Z" fill="black"/>
<path d="M189.759 179.5C191.133 179.847 191.819 180.707 191.819 182.08C191.819 183.013 191.466 183.733 190.759 184.24C190.066 184.747 189.026 185 187.639 185H182.539V174.4H187.459C188.713 174.4 189.693 174.64 190.399 175.12C191.106 175.587 191.459 176.253 191.459 177.12C191.459 177.68 191.306 178.167 190.999 178.58C190.706 178.98 190.293 179.287 189.759 179.5ZM184.419 178.96H187.299C188.033 178.96 188.586 178.827 188.959 178.56C189.346 178.293 189.539 177.907 189.539 177.4C189.539 176.387 188.793 175.88 187.299 175.88H184.419V178.96ZM187.499 183.52C188.299 183.52 188.899 183.393 189.299 183.14C189.699 182.887 189.899 182.493 189.899 181.96C189.899 181.413 189.713 181.007 189.339 180.74C188.979 180.473 188.406 180.34 187.619 180.34H184.419V183.52H187.499Z" fill="black"/>
<path d="M198.605 174.3C200.071 174.3 201.191 174.66 201.965 175.38C202.751 176.1 203.145 177.173 203.145 178.6V185H201.325V183.6C201.005 184.093 200.545 184.473 199.945 184.74C199.358 184.993 198.658 185.12 197.845 185.12C196.658 185.12 195.705 184.833 194.985 184.26C194.278 183.687 193.925 182.933 193.925 182C193.925 181.067 194.265 180.32 194.945 179.76C195.625 179.187 196.705 178.9 198.185 178.9H201.225V178.52C201.225 177.693 200.985 177.06 200.505 176.62C200.025 176.18 199.318 175.96 198.385 175.96C197.758 175.96 197.145 176.067 196.545 176.28C195.945 176.48 195.438 176.753 195.025 177.1L194.225 175.66C194.771 175.22 195.425 174.887 196.185 174.66C196.945 174.42 197.751 174.3 198.605 174.3ZM198.165 183.64C198.898 183.64 199.531 183.48 200.065 183.16C200.598 182.827 200.985 182.36 201.225 181.76V180.28H198.265C196.638 180.28 195.825 180.827 195.825 181.92C195.825 182.453 196.031 182.873 196.445 183.18C196.858 183.487 197.431 183.64 198.165 183.64Z" fill="black"/>
<path d="M215.102 174.4V185H213.382V181.64H210.302H210.082L207.762 185H205.702L208.282 181.38C207.482 181.14 206.869 180.747 206.442 180.2C206.015 179.64 205.802 178.947 205.802 178.12C205.802 176.907 206.215 175.987 207.042 175.36C207.869 174.72 209.009 174.4 210.462 174.4H215.102ZM207.762 178.18C207.762 178.887 207.982 179.413 208.422 179.76C208.875 180.093 209.549 180.26 210.442 180.26H213.382V176.08H210.522C208.682 176.08 207.762 176.78 207.762 178.18Z" fill="black"/>
<path d="M130.383 225.84H127.723V232H125.763V225.84H123.083L119.163 232H116.823L121.443 224.72L117.163 218H119.303L123.043 224.08H125.763V218H127.723V224.08H130.403L134.163 218H136.303L132.023 224.76L136.643 232H134.303L130.383 225.84Z" fill="black"/>
<path d="M138.694 221.4H140.614V229.12L147.114 221.4H148.854V232H146.934V224.28L140.454 232H138.694V221.4Z" fill="black"/>
<path d="M161.681 221.4V232H159.761V223.08H155.201L155.081 225.44C155.014 226.867 154.887 228.06 154.701 229.02C154.514 229.967 154.207 230.727 153.781 231.3C153.354 231.873 152.761 232.16 152.001 232.16C151.654 232.16 151.261 232.1 150.821 231.98L150.941 230.36C151.114 230.4 151.274 230.42 151.421 230.42C151.954 230.42 152.354 230.187 152.621 229.72C152.887 229.253 153.061 228.7 153.141 228.06C153.221 227.42 153.294 226.507 153.361 225.32L153.541 221.4H161.681Z" fill="black"/>
<path d="M169.173 221.3C170.64 221.3 171.76 221.66 172.533 222.38C173.32 223.1 173.713 224.173 173.713 225.6V232H171.893V230.6C171.573 231.093 171.113 231.473 170.513 231.74C169.926 231.993 169.226 232.12 168.413 232.12C167.226 232.12 166.273 231.833 165.553 231.26C164.846 230.687 164.493 229.933 164.493 229C164.493 228.067 164.833 227.32 165.513 226.76C166.193 226.187 167.273 225.9 168.753 225.9H171.793V225.52C171.793 224.693 171.553 224.06 171.073 223.62C170.593 223.18 169.886 222.96 168.953 222.96C168.326 222.96 167.713 223.067 167.113 223.28C166.513 223.48 166.006 223.753 165.593 224.1L164.793 222.66C165.34 222.22 165.993 221.887 166.753 221.66C167.513 221.42 168.32 221.3 169.173 221.3ZM168.733 230.64C169.466 230.64 170.1 230.48 170.633 230.16C171.166 229.827 171.553 229.36 171.793 228.76V227.28H168.833C167.206 227.28 166.393 227.827 166.393 228.92C166.393 229.453 166.6 229.873 167.013 230.18C167.426 230.487 168 230.64 168.733 230.64Z" fill="black"/>
<path d="M185.67 221.4V232H183.95V228.64H180.87H180.65L178.33 232H176.27L178.85 228.38C178.05 228.14 177.437 227.747 177.01 227.2C176.584 226.64 176.37 225.947 176.37 225.12C176.37 223.907 176.784 222.987 177.61 222.36C178.437 221.72 179.577 221.4 181.03 221.4H185.67ZM178.33 225.18C178.33 225.887 178.55 226.413 178.99 226.76C179.444 227.093 180.117 227.26 181.01 227.26H183.95V223.08H181.09C179.25 223.08 178.33 223.78 178.33 225.18Z" fill="black"/>
<path d="M130.383 272.84H127.723V279H125.763V272.84H123.083L119.163 279H116.823L121.443 271.72L117.163 265H119.303L123.043 271.08H125.763V265H127.723V271.08H130.403L134.163 265H136.303L132.023 271.76L136.643 279H134.303L130.383 272.84Z" fill="black"/>
<path d="M138.694 268.4H140.614V276.12L147.114 268.4H148.854V279H146.934V271.28L140.454 279H138.694V268.4Z" fill="black"/>
<path d="M161.681 268.4V279H159.761V270.08H155.201L155.081 272.44C155.014 273.867 154.887 275.06 154.701 276.02C154.514 276.967 154.207 277.727 153.781 278.3C153.354 278.873 152.761 279.16 152.001 279.16C151.654 279.16 151.261 279.1 150.821 278.98L150.941 277.36C151.114 277.4 151.274 277.42 151.421 277.42C151.954 277.42 152.354 277.187 152.621 276.72C152.887 276.253 153.061 275.7 153.141 275.06C153.221 274.42 153.294 273.507 153.361 272.32L153.541 268.4H161.681Z" fill="black"/>
<path d="M169.173 268.3C170.64 268.3 171.76 268.66 172.533 269.38C173.32 270.1 173.713 271.173 173.713 272.6V279H171.893V277.6C171.573 278.093 171.113 278.473 170.513 278.74C169.926 278.993 169.226 279.12 168.413 279.12C167.226 279.12 166.273 278.833 165.553 278.26C164.846 277.687 164.493 276.933 164.493 276C164.493 275.067 164.833 274.32 165.513 273.76C166.193 273.187 167.273 272.9 168.753 272.9H171.793V272.52C171.793 271.693 171.553 271.06 171.073 270.62C170.593 270.18 169.886 269.96 168.953 269.96C168.326 269.96 167.713 270.067 167.113 270.28C166.513 270.48 166.006 270.753 165.593 271.1L164.793 269.66C165.34 269.22 165.993 268.887 166.753 268.66C167.513 268.42 168.32 268.3 169.173 268.3ZM168.733 277.64C169.466 277.64 170.1 277.48 170.633 277.16C171.166 276.827 171.553 276.36 171.793 275.76V274.28H168.833C167.206 274.28 166.393 274.827 166.393 275.92C166.393 276.453 166.6 276.873 167.013 277.18C167.426 277.487 168 277.64 168.733 277.64Z" fill="black"/>
<path d="M185.67 268.4V279H183.95V275.64H180.87H180.65L178.33 279H176.27L178.85 275.38C178.05 275.14 177.437 274.747 177.01 274.2C176.584 273.64 176.37 272.947 176.37 272.12C176.37 270.907 176.784 269.987 177.61 269.36C178.437 268.72 179.577 268.4 181.03 268.4H185.67ZM178.33 272.18C178.33 272.887 178.55 273.413 178.99 273.76C179.444 274.093 180.117 274.26 181.01 274.26H183.95V270.08H181.09C179.25 270.08 178.33 270.78 178.33 272.18Z" fill="black"/>
<path d="M124.512 326.16C123.112 326.16 121.846 325.853 120.712 325.24C119.592 324.613 118.712 323.76 118.072 322.68C117.432 321.587 117.112 320.36 117.112 319C117.112 317.64 117.432 316.42 118.072 315.34C118.712 314.247 119.599 313.393 120.732 312.78C121.866 312.153 123.132 311.84 124.532 311.84C125.626 311.84 126.626 312.027 127.532 312.4C128.439 312.76 129.212 313.3 129.852 314.02L128.552 315.28C127.499 314.173 126.186 313.62 124.612 313.62C123.572 313.62 122.632 313.853 121.792 314.32C120.952 314.787 120.292 315.433 119.812 316.26C119.346 317.073 119.112 317.987 119.112 319C119.112 320.013 119.346 320.933 119.812 321.76C120.292 322.573 120.952 323.213 121.792 323.68C122.632 324.147 123.572 324.38 124.612 324.38C126.172 324.38 127.486 323.82 128.552 322.7L129.852 323.96C129.212 324.68 128.432 325.227 127.512 325.6C126.606 325.973 125.606 326.16 124.512 326.16Z" fill="black"/>
<path d="M135.931 315.3C137.398 315.3 138.518 315.66 139.291 316.38C140.078 317.1 140.471 318.173 140.471 319.6V326H138.651V324.6C138.331 325.093 137.871 325.473 137.271 325.74C136.684 325.993 135.984 326.12 135.171 326.12C133.984 326.12 133.031 325.833 132.311 325.26C131.604 324.687 131.251 323.933 131.251 323C131.251 322.067 131.591 321.32 132.271 320.76C132.951 320.187 134.031 319.9 135.511 319.9H138.551V319.52C138.551 318.693 138.311 318.06 137.831 317.62C137.351 317.18 136.644 316.96 135.711 316.96C135.084 316.96 134.471 317.067 133.871 317.28C133.271 317.48 132.764 317.753 132.351 318.1L131.551 316.66C132.098 316.22 132.751 315.887 133.511 315.66C134.271 315.42 135.078 315.3 135.931 315.3ZM135.491 324.64C136.224 324.64 136.858 324.48 137.391 324.16C137.924 323.827 138.311 323.36 138.551 322.76V321.28H135.591C133.964 321.28 133.151 321.827 133.151 322.92C133.151 323.453 133.358 323.873 133.771 324.18C134.184 324.487 134.758 324.64 135.491 324.64Z" fill="black"/>
<path d="M143.928 315.4H145.848V319.9H151.888V315.4H153.808V326H151.888V321.56H145.848V326H143.928V315.4Z" fill="black"/>
<path d="M167.002 315.4L161.862 327.06C161.408 328.14 160.875 328.9 160.262 329.34C159.662 329.78 158.935 330 158.082 330C157.562 330 157.055 329.913 156.562 329.74C156.082 329.58 155.682 329.34 155.362 329.02L156.182 327.58C156.728 328.1 157.362 328.36 158.082 328.36C158.548 328.36 158.935 328.233 159.242 327.98C159.562 327.74 159.848 327.32 160.102 326.72L160.442 325.98L155.762 315.4H157.762L161.462 323.88L165.122 315.4H167.002Z" fill="black"/>
<path d="M174.454 320.48C175.16 320.667 175.707 320.967 176.094 321.38C176.48 321.793 176.674 322.307 176.674 322.92C176.674 323.547 176.46 324.107 176.034 324.6C175.607 325.08 175.014 325.46 174.254 325.74C173.507 326.007 172.667 326.14 171.734 326.14C170.947 326.14 170.174 326.04 169.414 325.84C168.667 325.627 168 325.327 167.414 324.94L167.994 323.48C168.5 323.8 169.08 324.053 169.734 324.24C170.387 324.413 171.047 324.5 171.714 324.5C172.62 324.5 173.34 324.347 173.874 324.04C174.42 323.72 174.694 323.293 174.694 322.76C174.694 322.267 174.474 321.887 174.034 321.62C173.607 321.353 173 321.22 172.214 321.22H170.274V319.84H172.074C172.794 319.84 173.36 319.713 173.774 319.46C174.187 319.207 174.394 318.86 174.394 318.42C174.394 317.94 174.147 317.567 173.654 317.3C173.174 317.033 172.52 316.9 171.694 316.9C170.64 316.9 169.527 317.173 168.354 317.72L167.834 316.24C169.127 315.587 170.48 315.26 171.894 315.26C172.747 315.26 173.514 315.38 174.194 315.62C174.874 315.86 175.407 316.2 175.794 316.64C176.18 317.08 176.374 317.58 176.374 318.14C176.374 318.66 176.2 319.127 175.854 319.54C175.507 319.953 175.04 320.267 174.454 320.48Z" fill="black"/>
<path d="M189.172 320.76C189.172 320.907 189.159 321.1 189.132 321.34H180.532C180.652 322.273 181.059 323.027 181.752 323.6C182.459 324.16 183.332 324.44 184.372 324.44C185.639 324.44 186.659 324.013 187.432 323.16L188.492 324.4C188.012 324.96 187.412 325.387 186.692 325.68C185.986 325.973 185.192 326.12 184.312 326.12C183.192 326.12 182.199 325.893 181.332 325.44C180.466 324.973 179.792 324.327 179.312 323.5C178.846 322.673 178.612 321.74 178.612 320.7C178.612 319.673 178.839 318.747 179.292 317.92C179.759 317.093 180.392 316.453 181.192 316C182.006 315.533 182.919 315.3 183.932 315.3C184.946 315.3 185.846 315.533 186.632 316C187.432 316.453 188.052 317.093 188.492 317.92C188.946 318.747 189.172 319.693 189.172 320.76ZM183.932 316.92C183.012 316.92 182.239 317.2 181.612 317.76C180.999 318.32 180.639 319.053 180.532 319.96H187.332C187.226 319.067 186.859 318.34 186.232 317.78C185.619 317.207 184.852 316.92 183.932 316.92Z" fill="black"/>
<path d="M201.075 315.4V326H199.155V317.08H194.595L194.475 319.44C194.409 320.867 194.282 322.06 194.095 323.02C193.909 323.967 193.602 324.727 193.175 325.3C192.749 325.873 192.155 326.16 191.395 326.16C191.049 326.16 190.655 326.1 190.215 325.98L190.335 324.36C190.509 324.4 190.669 324.42 190.815 324.42C191.349 324.42 191.749 324.187 192.015 323.72C192.282 323.253 192.455 322.7 192.535 322.06C192.615 321.42 192.689 320.507 192.755 319.32L192.935 315.4H201.075Z" fill="black"/>
<path d="M124.512 373.16C123.112 373.16 121.846 372.853 120.712 372.24C119.592 371.613 118.712 370.76 118.072 369.68C117.432 368.587 117.112 367.36 117.112 366C117.112 364.64 117.432 363.42 118.072 362.34C118.712 361.247 119.599 360.393 120.732 359.78C121.866 359.153 123.132 358.84 124.532 358.84C125.626 358.84 126.626 359.027 127.532 359.4C128.439 359.76 129.212 360.3 129.852 361.02L128.552 362.28C127.499 361.173 126.186 360.62 124.612 360.62C123.572 360.62 122.632 360.853 121.792 361.32C120.952 361.787 120.292 362.433 119.812 363.26C119.346 364.073 119.112 364.987 119.112 366C119.112 367.013 119.346 367.933 119.812 368.76C120.292 369.573 120.952 370.213 121.792 370.68C122.632 371.147 123.572 371.38 124.612 371.38C126.172 371.38 127.486 370.82 128.552 369.7L129.852 370.96C129.212 371.68 128.432 372.227 127.512 372.6C126.606 372.973 125.606 373.16 124.512 373.16Z" fill="black"/>
<path d="M135.931 362.3C137.398 362.3 138.518 362.66 139.291 363.38C140.078 364.1 140.471 365.173 140.471 366.6V373H138.651V371.6C138.331 372.093 137.871 372.473 137.271 372.74C136.684 372.993 135.984 373.12 135.171 373.12C133.984 373.12 133.031 372.833 132.311 372.26C131.604 371.687 131.251 370.933 131.251 370C131.251 369.067 131.591 368.32 132.271 367.76C132.951 367.187 134.031 366.9 135.511 366.9H138.551V366.52C138.551 365.693 138.311 365.06 137.831 364.62C137.351 364.18 136.644 363.96 135.711 363.96C135.084 363.96 134.471 364.067 133.871 364.28C133.271 364.48 132.764 364.753 132.351 365.1L131.551 363.66C132.098 363.22 132.751 362.887 133.511 362.66C134.271 362.42 135.078 362.3 135.931 362.3ZM135.491 371.64C136.224 371.64 136.858 371.48 137.391 371.16C137.924 370.827 138.311 370.36 138.551 369.76V368.28H135.591C133.964 368.28 133.151 368.827 133.151 369.92C133.151 370.453 133.358 370.873 133.771 371.18C134.184 371.487 134.758 371.64 135.491 371.64Z" fill="black"/>
<path d="M143.928 362.4H145.848V366.9H151.888V362.4H153.808V373H151.888V368.56H145.848V373H143.928V362.4Z" fill="black"/>
<path d="M167.002 362.4L161.862 374.06C161.408 375.14 160.875 375.9 160.262 376.34C159.662 376.78 158.935 377 158.082 377C157.562 377 157.055 376.913 156.562 376.74C156.082 376.58 155.682 376.34 155.362 376.02L156.182 374.58C156.728 375.1 157.362 375.36 158.082 375.36C158.548 375.36 158.935 375.233 159.242 374.98C159.562 374.74 159.848 374.32 160.102 373.72L160.442 372.98L155.762 362.4H157.762L161.462 370.88L165.122 362.4H167.002Z" fill="black"/>
<path d="M174.454 367.48C175.16 367.667 175.707 367.967 176.094 368.38C176.48 368.793 176.674 369.307 176.674 369.92C176.674 370.547 176.46 371.107 176.034 371.6C175.607 372.08 175.014 372.46 174.254 372.74C173.507 373.007 172.667 373.14 171.734 373.14C170.947 373.14 170.174 373.04 169.414 372.84C168.667 372.627 168 372.327 167.414 371.94L167.994 370.48C168.5 370.8 169.08 371.053 169.734 371.24C170.387 371.413 171.047 371.5 171.714 371.5C172.62 371.5 173.34 371.347 173.874 371.04C174.42 370.72 174.694 370.293 174.694 369.76C174.694 369.267 174.474 368.887 174.034 368.62C173.607 368.353 173 368.22 172.214 368.22H170.274V366.84H172.074C172.794 366.84 173.36 366.713 173.774 366.46C174.187 366.207 174.394 365.86 174.394 365.42C174.394 364.94 174.147 364.567 173.654 364.3C173.174 364.033 172.52 363.9 171.694 363.9C170.64 363.9 169.527 364.173 168.354 364.72L167.834 363.24C169.127 362.587 170.48 362.26 171.894 362.26C172.747 362.26 173.514 362.38 174.194 362.62C174.874 362.86 175.407 363.2 175.794 363.64C176.18 364.08 176.374 364.58 176.374 365.14C176.374 365.66 176.2 366.127 175.854 366.54C175.507 366.953 175.04 367.267 174.454 367.48Z" fill="black"/>
<path d="M189.172 367.76C189.172 367.907 189.159 368.1 189.132 368.34H180.532C180.652 369.273 181.059 370.027 181.752 370.6C182.459 371.16 183.332 371.44 184.372 371.44C185.639 371.44 186.659 371.013 187.432 370.16L188.492 371.4C188.012 371.96 187.412 372.387 186.692 372.68C185.986 372.973 185.192 373.12 184.312 373.12C183.192 373.12 182.199 372.893 181.332 372.44C180.466 371.973 179.792 371.327 179.312 370.5C178.846 369.673 178.612 368.74 178.612 367.7C178.612 366.673 178.839 365.747 179.292 364.92C179.759 364.093 180.392 363.453 181.192 363C182.006 362.533 182.919 362.3 183.932 362.3C184.946 362.3 185.846 362.533 186.632 363C187.432 363.453 188.052 364.093 188.492 364.92C188.946 365.747 189.172 366.693 189.172 367.76ZM183.932 363.92C183.012 363.92 182.239 364.2 181.612 364.76C180.999 365.32 180.639 366.053 180.532 366.96H187.332C187.226 366.067 186.859 365.34 186.232 364.78C185.619 364.207 184.852 363.92 183.932 363.92Z" fill="black"/>
<path d="M201.075 362.4V373H199.155V364.08H194.595L194.475 366.44C194.409 367.867 194.282 369.06 194.095 370.02C193.909 370.967 193.602 371.727 193.175 372.3C192.749 372.873 192.155 373.16 191.395 373.16C191.049 373.16 190.655 373.1 190.215 372.98L190.335 371.36C190.509 371.4 190.669 371.42 190.815 371.42C191.349 371.42 191.749 371.187 192.015 370.72C192.282 370.253 192.455 369.7 192.535 369.06C192.615 368.42 192.689 367.507 192.755 366.32L192.935 362.4H201.075Z" fill="black"/>
<path d="M99.9795 412H102.539V421.94L110.059 412H112.479V426H109.919V416.08L102.399 426H99.9795V412Z" fill="black"/>
<path d="M124.585 417.44H120.845V426H118.345V417.44H114.585V415.32H124.585V417.44Z" fill="black"/>
<path d="M130.689 426.14C129.609 426.14 128.636 425.907 127.769 425.44C126.903 424.973 126.223 424.327 125.729 423.5C125.249 422.66 125.009 421.713 125.009 420.66C125.009 419.607 125.249 418.667 125.729 417.84C126.223 417.013 126.903 416.367 127.769 415.9C128.636 415.433 129.609 415.2 130.689 415.2C131.783 415.2 132.763 415.433 133.629 415.9C134.496 416.367 135.169 417.013 135.649 417.84C136.143 418.667 136.389 419.607 136.389 420.66C136.389 421.713 136.143 422.66 135.649 423.5C135.169 424.327 134.496 424.973 133.629 425.44C132.763 425.907 131.783 426.14 130.689 426.14ZM130.689 424C131.609 424 132.369 423.693 132.969 423.08C133.569 422.467 133.869 421.66 133.869 420.66C133.869 419.66 133.569 418.853 132.969 418.24C132.369 417.627 131.609 417.32 130.689 417.32C129.769 417.32 129.009 417.627 128.409 418.24C127.823 418.853 127.529 419.66 127.529 420.66C127.529 421.66 127.823 422.467 128.409 423.08C129.009 423.693 129.769 424 130.689 424Z" fill="black"/>
<path d="M147.059 417.44H141.359V426H138.859V415.32H147.059V417.44Z" fill="black"/>
<path d="M153.17 426.14C152.09 426.14 151.117 425.907 150.25 425.44C149.383 424.973 148.703 424.327 148.21 423.5C147.73 422.66 147.49 421.713 147.49 420.66C147.49 419.607 147.73 418.667 148.21 417.84C148.703 417.013 149.383 416.367 150.25 415.9C151.117 415.433 152.09 415.2 153.17 415.2C154.263 415.2 155.243 415.433 156.11 415.9C156.977 416.367 157.65 417.013 158.13 417.84C158.623 418.667 158.87 419.607 158.87 420.66C158.87 421.713 158.623 422.66 158.13 423.5C157.65 424.327 156.977 424.973 156.11 425.44C155.243 425.907 154.263 426.14 153.17 426.14ZM153.17 424C154.09 424 154.85 423.693 155.45 423.08C156.05 422.467 156.35 421.66 156.35 420.66C156.35 419.66 156.05 418.853 155.45 418.24C154.85 417.627 154.09 417.32 153.17 417.32C152.25 417.32 151.49 417.627 150.89 418.24C150.303 418.853 150.01 419.66 150.01 420.66C150.01 421.66 150.303 422.467 150.89 423.08C151.49 423.693 152.25 424 153.17 424Z" fill="black"/>
<path d="M171.627 426.14C170.547 426.14 169.574 425.907 168.707 425.44C167.84 424.973 167.16 424.327 166.667 423.5C166.187 422.66 165.947 421.713 165.947 420.66C165.947 419.607 166.187 418.667 166.667 417.84C167.16 417.013 167.84 416.367 168.707 415.9C169.574 415.433 170.547 415.2 171.627 415.2C172.72 415.2 173.7 415.433 174.567 415.9C175.434 416.367 176.107 417.013 176.587 417.84C177.08 418.667 177.327 419.607 177.327 420.66C177.327 421.713 177.08 422.66 176.587 423.5C176.107 424.327 175.434 424.973 174.567 425.44C173.7 425.907 172.72 426.14 171.627 426.14ZM171.627 424C172.547 424 173.307 423.693 173.907 423.08C174.507 422.467 174.807 421.66 174.807 420.66C174.807 419.66 174.507 418.853 173.907 418.24C173.307 417.627 172.547 417.32 171.627 417.32C170.707 417.32 169.947 417.627 169.347 418.24C168.76 418.853 168.467 419.66 168.467 420.66C168.467 421.66 168.76 422.467 169.347 423.08C169.947 423.693 170.707 424 171.627 424Z" fill="black"/>
<path d="M185.577 415.84C186.59 415.84 187.483 416.06 188.257 416.5C189.03 416.927 189.63 417.527 190.057 418.3C190.497 419.073 190.717 419.96 190.717 420.96C190.717 421.987 190.477 422.9 189.997 423.7C189.517 424.487 188.843 425.1 187.977 425.54C187.11 425.98 186.123 426.2 185.017 426.2C183.163 426.2 181.73 425.587 180.717 424.36C179.703 423.133 179.197 421.367 179.197 419.06C179.197 416.913 179.657 415.213 180.577 413.96C181.497 412.707 182.903 411.88 184.797 411.48L189.757 410.42L190.117 412.66L185.617 413.58C184.323 413.847 183.357 414.3 182.717 414.94C182.077 415.58 181.703 416.48 181.597 417.64C182.077 417.067 182.657 416.627 183.337 416.32C184.017 416 184.763 415.84 185.577 415.84ZM185.077 424.18C185.997 424.18 186.737 423.887 187.297 423.3C187.87 422.7 188.157 421.94 188.157 421.02C188.157 420.1 187.87 419.36 187.297 418.8C186.737 418.24 185.997 417.96 185.077 417.96C184.143 417.96 183.39 418.24 182.817 418.8C182.243 419.36 181.957 420.1 181.957 421.02C181.957 421.953 182.243 422.713 182.817 423.3C183.403 423.887 184.157 424.18 185.077 424.18Z" fill="black"/>
<path d="M208.877 415.32V426H193.137V415.32H195.637V423.88H199.777V415.32H202.277V423.88H206.377V415.32H208.877ZM210.417 423.88V428.2H208.077V426H206.297V423.88H210.417Z" fill="black"/>
<path d="M216.218 415.2C217.791 415.2 218.991 415.58 219.818 416.34C220.658 417.087 221.078 418.22 221.078 419.74V426H218.718V424.7C218.411 425.167 217.971 425.527 217.398 425.78C216.838 426.02 216.158 426.14 215.358 426.14C214.558 426.14 213.858 426.007 213.258 425.74C212.658 425.46 212.191 425.08 211.858 424.6C211.538 424.107 211.378 423.553 211.378 422.94C211.378 421.98 211.731 421.213 212.438 420.64C213.158 420.053 214.285 419.76 215.818 419.76H218.578V419.6C218.578 418.853 218.351 418.28 217.898 417.88C217.458 417.48 216.798 417.28 215.918 417.28C215.318 417.28 214.725 417.373 214.138 417.56C213.565 417.747 213.078 418.007 212.678 418.34L211.698 416.52C212.258 416.093 212.931 415.767 213.718 415.54C214.505 415.313 215.338 415.2 216.218 415.2ZM215.878 424.32C216.505 424.32 217.058 424.18 217.538 423.9C218.031 423.607 218.378 423.193 218.578 422.66V421.42H215.998C214.558 421.42 213.838 421.893 213.838 422.84C213.838 423.293 214.018 423.653 214.378 423.92C214.738 424.187 215.238 424.32 215.878 424.32Z" fill="black"/>
<path d="M233.192 415.32V426H230.952V422.78H228.132L225.952 426H223.272L225.792 422.44C225.018 422.173 224.425 421.767 224.012 421.22C223.612 420.66 223.412 419.973 223.412 419.16C223.412 417.933 223.845 416.987 224.712 416.32C225.578 415.653 226.772 415.32 228.292 415.32H233.192ZM228.372 417.42C226.758 417.42 225.952 418.027 225.952 419.24C225.952 420.44 226.732 421.04 228.292 421.04H230.952V417.42H228.372Z" fill="black"/>
<path d="M396.719 412V426H394.119V414.18H391.159V412H396.719Z" fill="black"/>
<path d="M408.576 418.64C409.31 418.973 409.87 419.427 410.256 420C410.656 420.56 410.856 421.22 410.856 421.98C410.856 422.833 410.616 423.58 410.136 424.22C409.67 424.86 409.003 425.353 408.136 425.7C407.27 426.033 406.263 426.2 405.116 426.2C403.97 426.2 402.963 426.033 402.096 425.7C401.243 425.353 400.583 424.86 400.116 424.22C399.65 423.58 399.416 422.833 399.416 421.98C399.416 421.22 399.61 420.56 399.996 420C400.383 419.427 400.936 418.973 401.656 418.64C401.096 418.333 400.663 417.933 400.356 417.44C400.063 416.933 399.916 416.353 399.916 415.7C399.916 414.913 400.13 414.227 400.556 413.64C400.996 413.053 401.61 412.6 402.396 412.28C403.183 411.96 404.09 411.8 405.116 411.8C406.156 411.8 407.07 411.96 407.856 412.28C408.643 412.6 409.256 413.053 409.696 413.64C410.136 414.227 410.356 414.913 410.356 415.7C410.356 416.353 410.203 416.927 409.896 417.42C409.59 417.913 409.15 418.32 408.576 418.64ZM405.116 413.84C404.303 413.84 403.656 414.013 403.176 414.36C402.71 414.707 402.476 415.193 402.476 415.82C402.476 416.42 402.71 416.9 403.176 417.26C403.656 417.607 404.303 417.78 405.116 417.78C405.943 417.78 406.596 417.607 407.076 417.26C407.556 416.9 407.796 416.42 407.796 415.82C407.796 415.193 407.55 414.707 407.056 414.36C406.576 414.013 405.93 413.84 405.116 413.84ZM405.116 424.16C406.076 424.16 406.836 423.96 407.396 423.56C407.956 423.16 408.236 422.607 408.236 421.9C408.236 421.207 407.956 420.66 407.396 420.26C406.836 419.86 406.076 419.66 405.116 419.66C404.156 419.66 403.403 419.86 402.856 420.26C402.31 420.66 402.036 421.207 402.036 421.9C402.036 422.607 402.31 423.16 402.856 423.56C403.403 423.96 404.156 424.16 405.116 424.16Z" fill="black"/>
<path d="M422.683 423.8V426H412.363V424.26L417.923 418.98C418.55 418.38 418.97 417.86 419.183 417.42C419.41 416.967 419.523 416.52 419.523 416.08C419.523 415.427 419.303 414.927 418.863 414.58C418.423 414.233 417.777 414.06 416.923 414.06C415.497 414.06 414.403 414.547 413.643 415.52L411.823 414.12C412.37 413.387 413.103 412.82 414.023 412.42C414.957 412.007 415.997 411.8 417.143 411.8C418.663 411.8 419.877 412.16 420.783 412.88C421.69 413.6 422.143 414.58 422.143 415.82C422.143 416.58 421.983 417.293 421.663 417.96C421.343 418.627 420.73 419.387 419.823 420.24L416.083 423.8H422.683Z" fill="black"/>
<path d="M425.959 422.82C426.426 422.82 426.813 422.973 427.119 423.28C427.426 423.587 427.579 423.987 427.579 424.48C427.579 424.693 427.546 424.92 427.479 425.16C427.426 425.387 427.306 425.733 427.119 426.2L426.099 429.02H424.479L425.279 425.96C424.986 425.84 424.753 425.653 424.579 425.4C424.419 425.133 424.339 424.827 424.339 424.48C424.339 423.987 424.493 423.587 424.799 423.28C425.106 422.973 425.493 422.82 425.959 422.82Z" fill="black"/>
<path d="M434.868 426.2C433.748 426.2 432.748 425.92 431.868 425.36C430.988 424.787 430.294 423.96 429.788 422.88C429.281 421.787 429.028 420.493 429.028 419C429.028 417.507 429.281 416.22 429.788 415.14C430.294 414.047 430.988 413.22 431.868 412.66C432.748 412.087 433.748 411.8 434.868 411.8C435.988 411.8 436.988 412.087 437.868 412.66C438.761 413.22 439.461 414.047 439.968 415.14C440.474 416.22 440.728 417.507 440.728 419C440.728 420.493 440.474 421.787 439.968 422.88C439.461 423.96 438.761 424.787 437.868 425.36C436.988 425.92 435.988 426.2 434.868 426.2ZM434.868 423.94C435.868 423.94 436.654 423.527 437.228 422.7C437.814 421.873 438.108 420.64 438.108 419C438.108 417.36 437.814 416.127 437.228 415.3C436.654 414.473 435.868 414.06 434.868 414.06C433.881 414.06 433.094 414.473 432.508 415.3C431.934 416.127 431.648 417.36 431.648 419C431.648 420.64 431.934 421.873 432.508 422.7C433.094 423.527 433.881 423.94 434.868 423.94Z" fill="black"/>
<path d="M413.206 89.26V91H403.146V89.64L408.846 84.14C409.539 83.4733 410.006 82.9 410.246 82.42C410.486 81.9267 410.606 81.4333 410.606 80.94C410.606 80.2067 410.346 79.64 409.826 79.24C409.319 78.8267 408.586 78.62 407.626 78.62C406.079 78.62 404.886 79.1267 404.046 80.14L402.686 78.96C403.232 78.2933 403.946 77.7733 404.826 77.4C405.719 77.0267 406.712 76.84 407.806 76.84C409.272 76.84 410.439 77.1933 411.306 77.9C412.172 78.5933 412.606 79.54 412.606 80.74C412.606 81.4867 412.446 82.1933 412.126 82.86C411.806 83.5267 411.199 84.2867 410.306 85.14L406.026 89.26H413.206Z" fill="black"/>
<path d="M423.41 83.66C424.21 83.9667 424.823 84.4067 425.25 84.98C425.677 85.5533 425.89 86.24 425.89 87.04C425.89 87.88 425.663 88.6133 425.21 89.24C424.757 89.8533 424.11 90.3267 423.27 90.66C422.43 90.9933 421.443 91.16 420.31 91.16C419.19 91.16 418.21 90.9933 417.37 90.66C416.543 90.3267 415.903 89.8533 415.45 89.24C414.997 88.6133 414.77 87.88 414.77 87.04C414.77 86.24 414.977 85.5533 415.39 84.98C415.817 84.4067 416.43 83.9667 417.23 83.66C416.59 83.3533 416.103 82.9467 415.77 82.44C415.437 81.9333 415.27 81.3333 415.27 80.64C415.27 79.8667 415.477 79.1933 415.89 78.62C416.317 78.0467 416.91 77.6067 417.67 77.3C418.43 76.9933 419.31 76.84 420.31 76.84C421.323 76.84 422.21 76.9933 422.97 77.3C423.743 77.6067 424.337 78.0467 424.75 78.62C425.177 79.1933 425.39 79.8667 425.39 80.64C425.39 81.32 425.217 81.92 424.87 82.44C424.537 82.9467 424.05 83.3533 423.41 83.66ZM420.31 78.46C419.363 78.46 418.617 78.6667 418.07 79.08C417.523 79.48 417.25 80.0267 417.25 80.72C417.25 81.4133 417.517 81.96 418.05 82.36C418.597 82.76 419.35 82.96 420.31 82.96C421.283 82.96 422.043 82.76 422.59 82.36C423.15 81.96 423.43 81.4133 423.43 80.72C423.43 80.0267 423.143 79.48 422.57 79.08C422.01 78.6667 421.257 78.46 420.31 78.46ZM420.31 89.54C421.417 89.54 422.29 89.3133 422.93 88.86C423.57 88.3933 423.89 87.7667 423.89 86.98C423.89 86.2067 423.57 85.6 422.93 85.16C422.29 84.7067 421.417 84.48 420.31 84.48C419.203 84.48 418.337 84.7067 417.71 85.16C417.083 85.6 416.77 86.2067 416.77 86.98C416.77 87.7667 417.083 88.3933 417.71 88.86C418.337 89.3133 419.203 89.54 420.31 89.54Z" fill="black"/>
<path d="M429.256 88.38C429.63 88.38 429.936 88.5133 430.176 88.78C430.43 89.0333 430.556 89.3533 430.556 89.74C430.556 89.94 430.53 90.1333 430.476 90.32C430.436 90.5067 430.35 90.7933 430.216 91.18L429.276 93.96H428.016L428.756 90.98C428.503 90.8867 428.296 90.7333 428.136 90.52C427.99 90.2933 427.916 90.0333 427.916 89.74C427.916 89.34 428.043 89.0133 428.296 88.76C428.55 88.5067 428.87 88.38 429.256 88.38Z" fill="black"/>
<path d="M437.933 91.16C436.827 91.16 435.84 90.88 434.973 90.32C434.12 89.7467 433.447 88.92 432.953 87.84C432.46 86.76 432.213 85.48 432.213 84C432.213 82.52 432.46 81.24 432.953 80.16C433.447 79.08 434.12 78.26 434.973 77.7C435.84 77.1267 436.827 76.84 437.933 76.84C439.027 76.84 440 77.1267 440.853 77.7C441.72 78.26 442.4 79.08 442.893 80.16C443.387 81.24 443.633 82.52 443.633 84C443.633 85.48 443.387 86.76 442.893 87.84C442.4 88.92 441.72 89.7467 440.853 90.32C440 90.88 439.027 91.16 437.933 91.16ZM437.933 89.38C439.053 89.38 439.947 88.92 440.613 88C441.293 87.08 441.633 85.7467 441.633 84C441.633 82.2533 441.293 80.92 440.613 80C439.947 79.08 439.053 78.62 437.933 78.62C436.8 78.62 435.893 79.08 435.213 80C434.547 80.92 434.213 82.2533 434.213 84C434.213 85.7467 434.547 87.08 435.213 88C435.893 88.92 436.8 89.38 437.933 89.38Z" fill="black"/>
<path d="M408.779 128.88C410.152 129.013 411.199 129.44 411.919 130.16C412.639 130.867 412.999 131.773 412.999 132.88C412.999 133.68 412.799 134.407 412.399 135.06C411.999 135.7 411.399 136.213 410.599 136.6C409.812 136.973 408.845 137.16 407.699 137.16C406.699 137.16 405.739 137.013 404.819 136.72C403.899 136.413 403.145 135.993 402.559 135.46L403.479 133.88C403.959 134.333 404.572 134.7 405.319 134.98C406.065 135.247 406.859 135.38 407.699 135.38C408.739 135.38 409.545 135.16 410.119 134.72C410.705 134.28 410.999 133.673 410.999 132.9C410.999 132.127 410.712 131.527 410.139 131.1C409.565 130.673 408.699 130.46 407.539 130.46H406.419V129.06L409.939 124.74H403.199V123H412.439V124.36L408.779 128.88Z" fill="black"/>
<path d="M416.204 134.38C416.577 134.38 416.884 134.513 417.124 134.78C417.377 135.033 417.504 135.353 417.504 135.74C417.504 135.94 417.477 136.133 417.424 136.32C417.384 136.507 417.297 136.793 417.164 137.18L416.224 139.96H414.964L415.704 136.98C415.451 136.887 415.244 136.733 415.084 136.52C414.937 136.293 414.864 136.033 414.864 135.74C414.864 135.34 414.991 135.013 415.244 134.76C415.497 134.507 415.817 134.38 416.204 134.38Z" fill="black"/>
<path d="M424.881 137.16C423.774 137.16 422.787 136.88 421.921 136.32C421.067 135.747 420.394 134.92 419.901 133.84C419.407 132.76 419.161 131.48 419.161 130C419.161 128.52 419.407 127.24 419.901 126.16C420.394 125.08 421.067 124.26 421.921 123.7C422.787 123.127 423.774 122.84 424.881 122.84C425.974 122.84 426.947 123.127 427.801 123.7C428.667 124.26 429.347 125.08 429.841 126.16C430.334 127.24 430.581 128.52 430.581 130C430.581 131.48 430.334 132.76 429.841 133.84C429.347 134.92 428.667 135.747 427.801 136.32C426.947 136.88 425.974 137.16 424.881 137.16ZM424.881 135.38C426.001 135.38 426.894 134.92 427.561 134C428.241 133.08 428.581 131.747 428.581 130C428.581 128.253 428.241 126.92 427.561 126C426.894 125.08 426.001 124.62 424.881 124.62C423.747 124.62 422.841 125.08 422.161 126C421.494 126.92 421.161 128.253 421.161 130C421.161 131.747 421.494 133.08 422.161 134C422.841 134.92 423.747 135.38 424.881 135.38Z" fill="black"/>
<path d="M407.399 176.58C409.399 176.58 410.866 176.96 411.799 177.72C412.746 178.467 413.219 179.493 413.219 180.8C413.219 181.627 413.019 182.373 412.619 183.04C412.233 183.693 411.639 184.213 410.839 184.6C410.053 184.973 409.079 185.16 407.919 185.16C406.933 185.16 405.979 185.013 405.059 184.72C404.139 184.413 403.379 183.993 402.779 183.46L403.699 181.88C404.179 182.333 404.793 182.7 405.539 182.98C406.286 183.247 407.073 183.38 407.899 183.38C408.953 183.38 409.766 183.16 410.339 182.72C410.926 182.267 411.219 181.653 411.219 180.88C411.219 180.04 410.899 179.407 410.259 178.98C409.619 178.54 408.526 178.32 406.979 178.32H403.799L404.539 171H412.439V172.74H406.219L405.839 176.58H407.399Z" fill="black"/>
<path d="M416.224 182.38C416.597 182.38 416.904 182.513 417.144 182.78C417.397 183.033 417.524 183.353 417.524 183.74C417.524 183.94 417.497 184.133 417.444 184.32C417.404 184.507 417.317 184.793 417.184 185.18L416.244 187.96H414.984L415.724 184.98C415.47 184.887 415.264 184.733 415.104 184.52C414.957 184.293 414.884 184.033 414.884 183.74C414.884 183.34 415.01 183.013 415.264 182.76C415.517 182.507 415.837 182.38 416.224 182.38Z" fill="black"/>
<path d="M424.901 185.16C423.794 185.16 422.807 184.88 421.941 184.32C421.087 183.747 420.414 182.92 419.921 181.84C419.427 180.76 419.181 179.48 419.181 178C419.181 176.52 419.427 175.24 419.921 174.16C420.414 173.08 421.087 172.26 421.941 171.7C422.807 171.127 423.794 170.84 424.901 170.84C425.994 170.84 426.967 171.127 427.821 171.7C428.687 172.26 429.367 173.08 429.861 174.16C430.354 175.24 430.601 176.52 430.601 178C430.601 179.48 430.354 180.76 429.861 181.84C429.367 182.92 428.687 183.747 427.821 184.32C426.967 184.88 425.994 185.16 424.901 185.16ZM424.901 183.38C426.021 183.38 426.914 182.92 427.581 182C428.261 181.08 428.601 179.747 428.601 178C428.601 176.253 428.261 174.92 427.581 174C426.914 173.08 426.021 172.62 424.901 172.62C423.767 172.62 422.861 173.08 422.181 174C421.514 174.92 421.181 176.253 421.181 178C421.181 179.747 421.514 181.08 422.181 182C422.861 182.92 423.767 183.38 424.901 183.38Z" fill="black"/>
<path d="M415.247 228.56H412.587V232H410.647V228.56H402.867V227.16L410.027 218H412.187L405.327 226.84H410.707V223.8H412.587V226.84H415.247V228.56Z" fill="black"/>
<path d="M428.626 228.56H425.966V232H424.026V228.56H416.246V227.16L423.406 218H425.566L418.706 226.84H424.086V223.8H425.966V226.84H428.626V228.56Z" fill="black"/>
<path d="M431.556 229.38C431.929 229.38 432.236 229.513 432.476 229.78C432.729 230.033 432.856 230.353 432.856 230.74C432.856 230.94 432.829 231.133 432.776 231.32C432.736 231.507 432.649 231.793 432.516 232.18L431.576 234.96H430.316L431.056 231.98C430.802 231.887 430.596 231.733 430.436 231.52C430.289 231.293 430.216 231.033 430.216 230.74C430.216 230.34 430.342 230.013 430.596 229.76C430.849 229.507 431.169 229.38 431.556 229.38Z" fill="black"/>
<path d="M440.233 232.16C439.126 232.16 438.139 231.88 437.273 231.32C436.419 230.747 435.746 229.92 435.253 228.84C434.759 227.76 434.512 226.48 434.512 225C434.512 223.52 434.759 222.24 435.253 221.16C435.746 220.08 436.419 219.26 437.273 218.7C438.139 218.127 439.126 217.84 440.233 217.84C441.326 217.84 442.299 218.127 443.153 218.7C444.019 219.26 444.699 220.08 445.193 221.16C445.686 222.24 445.933 223.52 445.933 225C445.933 226.48 445.686 227.76 445.193 228.84C444.699 229.92 444.019 230.747 443.153 231.32C442.299 231.88 441.326 232.16 440.233 232.16ZM440.233 230.38C441.353 230.38 442.246 229.92 442.913 229C443.593 228.08 443.933 226.747 443.933 225C443.933 223.253 443.593 221.92 442.913 221C442.246 220.08 441.353 219.62 440.233 219.62C439.099 219.62 438.193 220.08 437.513 221C436.846 221.92 436.513 223.253 436.513 225C436.513 226.747 436.846 228.08 437.513 229C438.193 229.92 439.099 230.38 440.233 230.38Z" fill="black"/>
<path d="M407.725 265V279H405.745V266.74H402.585V265H407.725Z" fill="black"/>
<path d="M415.327 264.84C417.207 264.84 418.654 265.447 419.667 266.66C420.694 267.873 421.207 269.593 421.207 271.82C421.207 273.38 420.927 274.713 420.367 275.82C419.821 276.913 419.047 277.747 418.047 278.32C417.061 278.88 415.907 279.16 414.587 279.16C413.907 279.16 413.267 279.093 412.667 278.96C412.067 278.813 411.547 278.607 411.107 278.34L411.867 276.78C412.547 277.22 413.447 277.44 414.567 277.44C416.021 277.44 417.154 276.993 417.967 276.1C418.794 275.193 419.207 273.88 419.207 272.16V271.66C418.807 272.26 418.254 272.72 417.547 273.04C416.841 273.347 416.047 273.5 415.167 273.5C414.247 273.5 413.421 273.327 412.687 272.98C411.967 272.633 411.401 272.14 410.987 271.5C410.587 270.847 410.387 270.1 410.387 269.26C410.387 268.38 410.601 267.607 411.027 266.94C411.467 266.273 412.061 265.76 412.807 265.4C413.554 265.027 414.394 264.84 415.327 264.84ZM415.507 271.88C416.134 271.88 416.694 271.76 417.187 271.52C417.681 271.28 418.061 270.953 418.327 270.54C418.607 270.127 418.747 269.667 418.747 269.16C418.747 268.667 418.614 268.22 418.347 267.82C418.094 267.407 417.714 267.08 417.207 266.84C416.714 266.587 416.114 266.46 415.407 266.46C414.487 266.46 413.741 266.707 413.167 267.2C412.607 267.693 412.327 268.353 412.327 269.18C412.327 270.007 412.614 270.667 413.187 271.16C413.761 271.64 414.534 271.88 415.507 271.88Z" fill="black"/>
<path d="M424.237 276.38C424.61 276.38 424.917 276.513 425.157 276.78C425.41 277.033 425.537 277.353 425.537 277.74C425.537 277.94 425.51 278.133 425.457 278.32C425.417 278.507 425.33 278.793 425.197 279.18L424.257 281.96H422.997L423.737 278.98C423.483 278.887 423.277 278.733 423.117 278.52C422.97 278.293 422.897 278.033 422.897 277.74C422.897 277.34 423.023 277.013 423.277 276.76C423.53 276.507 423.85 276.38 424.237 276.38Z" fill="black"/>
<path d="M432.914 279.16C431.807 279.16 430.82 278.88 429.954 278.32C429.1 277.747 428.427 276.92 427.934 275.84C427.44 274.76 427.194 273.48 427.194 272C427.194 270.52 427.44 269.24 427.934 268.16C428.427 267.08 429.1 266.26 429.954 265.7C430.82 265.127 431.807 264.84 432.914 264.84C434.007 264.84 434.98 265.127 435.834 265.7C436.7 266.26 437.38 267.08 437.874 268.16C438.367 269.24 438.614 270.52 438.614 272C438.614 273.48 438.367 274.76 437.874 275.84C437.38 276.92 436.7 277.747 435.834 278.32C434.98 278.88 434.007 279.16 432.914 279.16ZM432.914 277.38C434.034 277.38 434.927 276.92 435.594 276C436.274 275.08 436.614 273.747 436.614 272C436.614 270.253 436.274 268.92 435.594 268C434.927 267.08 434.034 266.62 432.914 266.62C431.78 266.62 430.874 267.08 430.194 268C429.527 268.92 429.194 270.253 429.194 272C429.194 273.747 429.527 275.08 430.194 276C430.874 276.92 431.78 277.38 432.914 277.38Z" fill="black"/>
<path d="M407.399 317.58C409.399 317.58 410.866 317.96 411.799 318.72C412.746 319.467 413.219 320.493 413.219 321.8C413.219 322.627 413.019 323.373 412.619 324.04C412.233 324.693 411.639 325.213 410.839 325.6C410.053 325.973 409.079 326.16 407.919 326.16C406.933 326.16 405.979 326.013 405.059 325.72C404.139 325.413 403.379 324.993 402.779 324.46L403.699 322.88C404.179 323.333 404.793 323.7 405.539 323.98C406.286 324.247 407.073 324.38 407.899 324.38C408.953 324.38 409.766 324.16 410.339 323.72C410.926 323.267 411.219 322.653 411.219 321.88C411.219 321.04 410.899 320.407 410.259 319.98C409.619 319.54 408.526 319.32 406.979 319.32H403.799L404.539 312H412.439V313.74H406.219L405.839 317.58H407.399Z" fill="black"/>
<path d="M416.224 323.38C416.597 323.38 416.904 323.513 417.144 323.78C417.397 324.033 417.524 324.353 417.524 324.74C417.524 324.94 417.497 325.133 417.444 325.32C417.404 325.507 417.317 325.793 417.184 326.18L416.244 328.96H414.984L415.724 325.98C415.47 325.887 415.264 325.733 415.104 325.52C414.957 325.293 414.884 325.033 414.884 324.74C414.884 324.34 415.01 324.013 415.264 323.76C415.517 323.507 415.837 323.38 416.224 323.38Z" fill="black"/>
<path d="M424.901 326.16C423.794 326.16 422.807 325.88 421.941 325.32C421.087 324.747 420.414 323.92 419.921 322.84C419.427 321.76 419.181 320.48 419.181 319C419.181 317.52 419.427 316.24 419.921 315.16C420.414 314.08 421.087 313.26 421.941 312.7C422.807 312.127 423.794 311.84 424.901 311.84C425.994 311.84 426.967 312.127 427.821 312.7C428.687 313.26 429.367 314.08 429.861 315.16C430.354 316.24 430.601 317.52 430.601 319C430.601 320.48 430.354 321.76 429.861 322.84C429.367 323.92 428.687 324.747 427.821 325.32C426.967 325.88 425.994 326.16 424.901 326.16ZM424.901 324.38C426.021 324.38 426.914 323.92 427.581 323C428.261 322.08 428.601 320.747 428.601 319C428.601 317.253 428.261 315.92 427.581 315C426.914 314.08 426.021 313.62 424.901 313.62C423.767 313.62 422.861 314.08 422.181 315C421.514 315.92 421.181 317.253 421.181 319C421.181 320.747 421.514 322.08 422.181 323C422.861 323.92 423.767 324.38 424.901 324.38Z" fill="black"/>
<path d="M407.399 364.58C409.399 364.58 410.866 364.96 411.799 365.72C412.746 366.467 413.219 367.493 413.219 368.8C413.219 369.627 413.019 370.373 412.619 371.04C412.233 371.693 411.639 372.213 410.839 372.6C410.053 372.973 409.079 373.16 407.919 373.16C406.933 373.16 405.979 373.013 405.059 372.72C404.139 372.413 403.379 371.993 402.779 371.46L403.699 369.88C404.179 370.333 404.793 370.7 405.539 370.98C406.286 371.247 407.073 371.38 407.899 371.38C408.953 371.38 409.766 371.16 410.339 370.72C410.926 370.267 411.219 369.653 411.219 368.88C411.219 368.04 410.899 367.407 410.259 366.98C409.619 366.54 408.526 366.32 406.979 366.32H403.799L404.539 359H412.439V360.74H406.219L405.839 364.58H407.399Z" fill="black"/>
<path d="M416.224 370.38C416.597 370.38 416.904 370.513 417.144 370.78C417.397 371.033 417.524 371.353 417.524 371.74C417.524 371.94 417.497 372.133 417.444 372.32C417.404 372.507 417.317 372.793 417.184 373.18L416.244 375.96H414.984L415.724 372.98C415.47 372.887 415.264 372.733 415.104 372.52C414.957 372.293 414.884 372.033 414.884 371.74C414.884 371.34 415.01 371.013 415.264 370.76C415.517 370.507 415.837 370.38 416.224 370.38Z" fill="black"/>
<path d="M424.901 373.16C423.794 373.16 422.807 372.88 421.941 372.32C421.087 371.747 420.414 370.92 419.921 369.84C419.427 368.76 419.181 367.48 419.181 366C419.181 364.52 419.427 363.24 419.921 362.16C420.414 361.08 421.087 360.26 421.941 359.7C422.807 359.127 423.794 358.84 424.901 358.84C425.994 358.84 426.967 359.127 427.821 359.7C428.687 360.26 429.367 361.08 429.861 362.16C430.354 363.24 430.601 364.52 430.601 366C430.601 367.48 430.354 368.76 429.861 369.84C429.367 370.92 428.687 371.747 427.821 372.32C426.967 372.88 425.994 373.16 424.901 373.16ZM424.901 371.38C426.021 371.38 426.914 370.92 427.581 370C428.261 369.08 428.601 367.747 428.601 366C428.601 364.253 428.261 362.92 427.581 362C426.914 361.08 426.021 360.62 424.901 360.62C423.767 360.62 422.861 361.08 422.181 362C421.514 362.92 421.181 364.253 421.181 366C421.181 367.747 421.514 369.08 422.181 370C422.861 370.92 423.767 371.38 424.901 371.38Z" fill="black"/>
</svg>
