<svg width="162" height="91" viewBox="0 0 162 91" fill="none" xmlns="http://www.w3.org/2000/svg">
<path d="M1 -0.5H0.5V0V90V90.5H1H81.5405H161H161.5V90V0V-0.5H161H1Z" fill="#F5F1ED" stroke="#BF794B"/>
<path fill-rule="evenodd" clip-rule="evenodd" d="M100.853 40.8088C100.693 41.0414 100.492 40.8717 100.333 40.8088C100.356 41.4578 100.942 41.5681 100.853 40.8088Z" fill="#282828"/>
<path fill-rule="evenodd" clip-rule="evenodd" d="M58.9971 36.0489C59.2151 36.1431 59.2969 36.4998 59.5602 36.4253C59.5763 36.4253 59.609 36.4643 59.609 36.4838C59.404 36.7465 59.1536 36.3902 59.0133 36.2216C58.9837 36.2369 58.9837 36.276 58.9675 36.3113C58.7952 36.3113 58.6973 36.5385 58.5513 36.5777C58.6326 36.3706 58.8118 36.1234 58.9971 36.0489Z" fill="#282828"/>
<path fill-rule="evenodd" clip-rule="evenodd" d="M58.7145 35.3739C58.7935 35.4093 58.9894 35.2582 58.8863 35.0865C58.8863 35.0471 58.8863 35.007 58.8962 34.9911C59.0012 34.9911 59.068 35.1427 59.0802 35.3137L58.7813 35.601C58.6691 35.4851 58.6288 35.8122 58.6667 35.9677C58.681 36.0434 58.6457 36.059 58.6118 36.0434C58.4755 35.8481 58.5956 35.5053 58.7145 35.3739Z" fill="#282828"/>
<path fill-rule="evenodd" clip-rule="evenodd" d="M58.965 35.7204L58.8903 35.7606C58.7766 35.6543 58.6624 35.8666 58.5526 35.8889C58.5325 35.7204 58.7415 35.6317 58.8156 35.5301C59.1142 35.4636 59.2285 35.7426 59.4363 35.8666L59.609 35.9333V36.0176C59.3623 36.1462 59.1538 35.8447 58.965 35.7204Z" fill="#282828"/>
<path fill-rule="evenodd" clip-rule="evenodd" d="M58.0225 34.602C58.1291 34.571 58.2745 34.5551 58.3855 34.4645C58.4419 34.4515 58.4591 34.4955 58.4157 34.5425L58.4702 34.7056C58.4788 34.8279 58.583 34.8561 58.5417 34.9911C58.4702 34.9911 58.4591 34.8561 58.3966 34.8279C58.2681 34.9189 58.1378 34.7369 58.0268 34.6616L58.0225 34.602ZM58.3657 34.7056L58.281 34.7527C58.2986 34.7964 58.4048 34.7652 58.3657 34.7056Z" fill="#282828"/>
<path fill-rule="evenodd" clip-rule="evenodd" d="M63.0379 43.2691C63.1849 43.2452 63.2369 43.4324 63.1115 43.4997C63.2889 43.6147 63.0854 43.8447 63.2628 43.8688L63.3885 43.4089C63.211 43.2691 63.2369 42.9918 63.462 42.9244C64.2942 43.1062 63.4889 43.9838 63.5149 44.4633L63.3626 44.5111L63.2628 44.3957C62.7079 44.3721 62.6344 43.5228 63.0379 43.2691Z" fill="#282828"/>
<path fill-rule="evenodd" clip-rule="evenodd" d="M62.0893 45.6711C62.1602 45.6495 62.2068 45.7515 62.2533 45.7995C62.2068 45.9015 62.1848 46.0356 62.0893 46.0976C61.913 46.1031 61.7953 45.9662 61.7244 45.7995C61.7487 45.714 61.8324 45.6442 61.8911 45.5688C62.0303 45.6145 61.9599 45.7703 62.0181 45.8638C62.1848 45.8912 61.9716 45.6951 62.0893 45.6711Z" fill="#282828"/>
<path fill-rule="evenodd" clip-rule="evenodd" d="M62.405 43.9876C62.5566 43.9669 62.6829 44.0081 62.6516 44.0663C62.8596 44.0871 62.772 44.1363 62.7081 44.1862C62.5889 44.2152 62.5566 44.1572 62.5251 44.1363C62.405 44.1757 62.2534 44.1363 62.1906 44.1862L62.316 44.2855C62.7405 44.1262 62.8919 44.4116 62.6192 44.5111C62.2534 44.5026 62.0128 44.3805 61.7403 44.2958C61.6461 44.1363 61.9815 44.0187 62.405 43.9876Z" fill="#282828"/>
<path fill-rule="evenodd" clip-rule="evenodd" d="M63.5146 45.5712C63.6718 45.5364 63.6601 45.8951 63.6157 46.1046L63.6718 46.1299C63.7283 46.1299 63.7075 45.94 63.6955 45.8631C63.6955 45.8329 63.7166 45.8022 63.7283 45.7917C63.9449 45.874 63.8084 46.5954 63.6391 46.6266C63.5709 46.5954 63.5146 46.4934 63.5024 46.3344C63.4363 46.3498 63.3683 46.3498 63.3118 46.273C63.3 45.9501 63.4247 45.736 63.5146 45.5712Z" fill="#282828"/>
<path fill-rule="evenodd" clip-rule="evenodd" d="M63.8396 42.466L63.9317 42.3955C64.2548 42.3955 64.4868 42.7364 64.3042 42.9244C63.9981 42.9068 63.8823 42.6368 63.8396 42.466Z" fill="#282828"/>
<path fill-rule="evenodd" clip-rule="evenodd" d="M63.3109 42.5395C63.1809 42.8688 62.7274 42.9408 62.3635 42.9215C62.0806 42.7963 62.4036 42.4673 62.6418 42.4673C62.7897 42.3955 62.8572 42.5395 62.8796 42.634C63.0956 42.6681 62.9024 42.5241 62.9431 42.433L63.0509 42.3955H63.2033L63.3109 42.5395Z" fill="#282828"/>
<path fill-rule="evenodd" clip-rule="evenodd" d="M63.7302 41.8666C63.3516 41.8666 63.1371 41.443 63.4914 41.3384C63.6894 41.3248 64.0068 41.534 63.6519 41.5615C63.7677 41.6412 63.9647 41.7872 63.7302 41.8666Z" fill="#282828"/>
<path fill-rule="evenodd" clip-rule="evenodd" d="M46.6657 49.2078C47.004 49.0732 47.3628 49.007 47.6729 48.765C49.1659 46.7516 50.9398 44.4264 50.8502 41.8308C51.8945 39.0957 53.0982 36.3603 54.9706 33.9994C55.0557 33.7816 54.8393 33.5845 54.9412 33.3508C55.1899 33.1542 55.4758 32.9368 55.798 32.8755C56.4342 33.0724 57.0386 33.3508 57.7522 33.2322C58.8817 32.3748 58.6287 33.5475 59.1999 33.9581C59.5505 34.786 60.8838 35.4341 60.1589 36.3978C59.7462 36.734 60.0604 37.361 59.628 37.7547C59.0037 38.8004 58.1149 37.3244 57.9188 38.4643C58.5755 39.7639 60.2971 40.6497 61.7036 39.8625C62.0177 39.8829 62.2915 39.8829 62.5647 39.9613C62.9565 40.1372 63.3482 40.3912 63.7027 40.6498C65.1666 42.7494 67.5572 43.4956 69.3965 45.0948C69.7673 45.9602 69.8085 47.2356 69.0825 47.9244C68.0837 48.0962 68.4174 46.9937 68.5935 46.4687C68.3979 44.857 66.1667 43.8726 65.1302 43.5777C65.2077 44.673 65.0691 45.8575 66.1864 46.395C66.1297 47.6538 66.6562 49.0732 66.2233 50.2826C65.2651 50.1345 63.2012 51.1802 63.3968 49.5188C63.9476 48.8922 65.2854 47.8382 63.8781 47.1704C62.626 47.2597 61.4311 46.4805 60.6475 45.7218C60.6072 46.0174 60.8229 46.2432 60.8027 46.5262C59.2572 47.7276 59.8851 49.6422 59.1223 51.1272C58.1069 51.332 56.8259 51.6398 55.896 51.0166C55.6833 50.36 56.3611 49.8685 56.4426 49.4212C56.2426 49.4741 56.047 49.5444 55.9368 49.3225C54.6114 49.737 55.9734 47.2723 56.9484 48.1541C57.1156 47.5184 57.1885 46.8092 57.0058 46.1569C56.6303 45.9478 56.3687 46.0913 56.2633 46.5218C56.2014 46.5957 56.0834 46.5585 56.1122 46.4479C56.1122 46.1569 55.7083 47.2437 55.4231 47.4857C55.2109 47.1946 55.7859 46.7516 55.2109 47.0589C55.8798 45.6077 53.9014 45.5952 53.0243 45.3126C52.0741 46.2636 51.5198 47.5472 51.4086 48.8638C51.1812 49.0313 50.8913 49.1175 50.6182 49.1669C50.0424 49.8641 48.9951 51.1064 48.1833 50.4219C47.9999 50.6388 47.7545 50.5244 47.7216 50.7907C47.4733 50.3357 46.7513 50.4257 46.4693 50.4584C46.3028 50.0405 46.3959 49.5605 46.6657 49.2078ZM69.2212 45.427C69.1599 45.5668 69.201 45.7551 69.3555 45.792C69.3965 45.6773 69.2582 45.5295 69.2212 45.427ZM68.2017 44.9924C68.2791 44.8366 68.4585 44.7916 68.6135 44.8773C68.6709 44.9511 68.6912 45.0373 68.6709 45.1315C68.65 45.2507 68.5362 45.2344 68.4585 45.2672C68.6338 45.6036 68.8093 45.8986 68.7889 46.3049C69.4741 46.4109 69.2374 47.4281 68.6709 47.5346C68.7323 47.621 68.7889 47.7149 68.8666 47.7602C68.9643 47.8213 69.025 47.74 69.1032 47.703C69.2987 47.2149 69.5148 46.6737 69.4539 46.1203L69.0825 46.0667C69.0053 46.0299 68.9475 45.9814 68.9076 45.8906L68.9279 45.4439C68.9643 45.3287 69.1234 45.3904 69.201 45.3614C69.0053 45.013 68.7116 44.591 68.2994 44.5004L67.965 44.7301L68.2017 44.9924ZM68.6709 47.0918C68.7889 47.075 69.0054 46.932 68.8868 46.8053C68.8093 46.8909 68.6709 46.944 68.6709 47.0918ZM67.3818 44.3033V43.9878L66.6758 43.6924L66.615 43.9098L67.3818 44.3033ZM65.9335 43.3192C66.0109 43.3192 66.0683 43.3604 66.1463 43.3396C65.9136 43.1225 65.6973 42.9257 65.4236 42.7904C65.4035 42.8684 65.4606 42.9257 65.5017 43.0036C65.4809 43.0855 65.4445 43.1843 65.4035 43.2414C65.5585 43.3396 65.775 43.5567 65.9335 43.3192ZM51.6134 40.5105C51.5925 40.5719 51.5521 40.6296 51.5561 40.6868C51.7072 40.6659 51.8294 40.5883 51.8009 40.4121H51.7436C51.7321 40.4901 51.6951 40.531 51.6134 40.5105ZM52.6047 38.3453C52.4982 38.4229 52.3923 38.6037 52.3511 38.7387L52.4942 38.5628C52.6404 38.6608 52.6121 38.4643 52.6047 38.3453ZM56.8055 33.3386V33.3793C56.9073 33.4 56.8096 33.556 56.9363 33.5764C56.8991 33.4779 56.981 33.3019 56.8055 33.3386ZM58.4372 33.1335C58.4616 33.2483 58.2661 33.466 58.4738 33.5067C58.5026 33.4453 58.4987 33.3508 58.5878 33.3306C58.5715 33.2322 58.5142 33.1703 58.4372 33.1335ZM64.8937 42.3765C64.8937 42.4747 64.951 42.573 65.0691 42.5527L64.8937 42.3765ZM64.8369 50.2454L65.0325 49.8763C65.2077 49.8923 64.992 50.1796 65.1465 50.2246C65.4809 49.9378 65.3628 49.4008 65.4035 49.011C65.3056 48.929 65.1875 48.9041 65.0691 48.908C64.6778 49.1588 64.584 49.8843 64.8369 50.2454ZM64.0337 49.0479C63.7398 49.1832 63.4864 49.6345 63.7595 49.8719L63.7398 50.2209C63.7803 50.2454 63.7965 50.266 63.8375 50.266L63.8944 50.2209C63.8174 49.8313 63.8781 49.388 64.1101 49.0685L64.0337 49.0479ZM64.0124 50.2C64.0337 50.2288 64.0697 50.2535 64.1101 50.2617C64.1923 50.1633 64.0697 49.934 64.2086 49.9132L64.3879 49.9747L64.3474 50.2826C64.8166 50.2077 64.2862 49.5359 64.5997 49.2775L64.6609 49.1255C64.6609 49.0806 64.6778 49.007 64.5997 49.0273C64.0697 49.097 63.9921 49.7778 64.0124 50.2ZM60.1788 44.7586C60.1008 45.07 60.2357 45.3493 60.5701 45.263C60.4723 44.9924 60.7251 44.0697 60.3745 44.4799C60.2971 44.5004 60.2564 44.4433 60.2154 44.3814C60.1177 44.1273 60.3907 43.7539 60.6275 43.9713C60.7049 43.4014 60.9983 42.9669 61.2922 42.5527C61.6839 42.4747 62.1728 42.9463 62.0556 43.4176C61.9571 43.598 61.7813 43.6353 61.5862 43.6353C61.4103 43.4176 61.9975 43.2621 61.6471 43.0239C61.4677 42.9871 61.5287 43.2211 61.4311 43.2787C60.8431 43.0855 60.864 43.951 61.0962 44.3611C60.1951 45.8165 62.6051 47.2684 63.9764 46.8053C64.3266 46.8664 64.698 46.9116 65.0325 47.084C65.0325 47.1739 65.0521 47.256 65.0898 47.3297C64.951 47.4978 64.8369 47.1577 64.6778 47.1821C64.8369 47.7191 64.6778 48.2848 64.8166 48.8223C65.0691 48.7366 65.4809 48.7079 65.5996 49.0029C65.775 48.8673 66.0886 49.0148 66.0272 49.2652C65.5585 48.9451 65.5585 49.8022 65.5585 50.1305C65.6765 50.3806 65.8315 49.7535 65.9706 50.1796C66.3049 49.7006 66.2072 48.9373 66.1297 48.3629C66.0479 48.4372 66.1463 48.6175 66.0272 48.6701C65.9706 48.6909 65.9508 48.6337 65.9335 48.5929C65.8315 47.8835 66.1463 47.2109 66.0109 46.5139C65.5221 46.3214 64.971 46.1123 64.951 45.4846C64.8565 43.7336 64.8166 41.6916 63.2704 40.6868C63.193 40.8059 63.054 40.826 62.9193 40.7856C62.8216 40.531 62.6833 40.375 62.3691 40.3545C62.2915 40.5516 62.2342 40.925 61.9571 40.9451C61.6631 40.7856 61.1937 40.6091 61.3737 40.2561C60.8027 40.3545 60.2357 40.8059 59.6691 40.3545C59.8641 40.863 59.9828 41.3962 60.0604 41.946C60.3335 41.8679 60.6475 41.9867 60.7251 42.2779C60.7251 42.5527 60.4521 42.9093 60.1589 42.7494C60.0604 43.1429 60.2564 43.2414 60.4114 43.4592C60.0192 43.7539 60.1788 44.3033 60.1788 44.7586ZM58.6692 51.0166L58.7514 50.8028C58.7879 50.7907 58.8285 50.7907 58.8446 50.8236C58.8087 50.938 58.947 51.0329 59.024 50.9304C59.024 50.6965 59.1796 50.5081 59.1223 50.2698L58.9835 50.2826C58.9632 50.2163 58.9632 50.1139 58.8655 50.1305C58.4986 50.1957 58.6531 50.6348 58.5924 50.9135C58.6079 50.9547 58.6287 50.9999 58.6692 51.0166ZM57.8697 51.1842C57.8251 51.037 57.8372 50.8482 57.9685 50.7374C58.1555 50.7989 58.0375 51.0575 58.111 51.1842C58.2005 51.168 58.2823 51.094 58.3511 51.0285C58.2863 50.6759 58.5432 50.0976 58.0455 49.934C58.0334 49.9707 57.9969 49.9866 57.964 50.0033C57.4866 50.1139 57.637 50.688 57.5272 51.0489C57.6624 51.0285 57.7354 51.205 57.8697 51.1842ZM56.9895 51.1064C56.9681 50.9918 56.9323 50.8075 57.0706 50.7374C57.2215 50.7785 57.152 50.996 57.206 51.094L57.3396 50.9871L57.4785 49.9747C57.4131 49.9132 57.3355 49.8511 57.246 49.8511C56.8096 50.085 56.8507 50.6144 56.842 51.0489L56.9895 51.1064ZM56.1163 50.9304C56.2014 50.8604 56.1649 50.6719 56.3079 50.6596C56.467 50.7449 56.2223 51.2579 56.5566 51.1064L56.6141 50.1139C56.5729 50.0609 56.5041 50.0438 56.4426 50.0281C56.1082 50.1757 56.1244 50.6264 56.1163 50.9304ZM56.21 48.2403C55.8798 48.318 55.6634 48.6503 55.7242 49.0029L55.9167 49.0851C55.9821 48.8062 56.1326 48.5269 56.2674 48.2613C56.2633 48.2276 56.2263 48.2443 56.21 48.2403ZM56.4624 48.2771C56.4305 48.3671 56.4138 48.4653 56.3443 48.5355C56.6544 48.6422 56.1731 49.0479 56.3322 49.2572C56.8055 49.3103 56.7934 48.6826 56.8709 48.3629C56.7725 48.2403 56.6012 48.289 56.4624 48.2771ZM48.3668 50.3967C48.5137 50.438 48.4443 50.1057 48.5584 50.0281C48.4969 50.7907 49.5818 50.3273 49.325 49.7778C49.786 49.7126 50.2466 49.5188 50.4753 49.0685C50.5973 48.9419 50.7282 48.445 50.912 48.7243C51.0997 48.6869 51.1812 48.5557 51.1974 48.3588C51.1401 48.2728 50.896 48.5355 50.7848 48.2771C51.6783 46.9898 52.2539 45.4641 52.5474 43.951C52.6047 44.3611 52.482 44.943 52.3721 45.3863C52.2865 45.644 52.0983 46.1695 52.3963 45.6858C52.6375 45.423 52.5427 45.1934 52.6121 44.8773C52.6938 44.9021 52.6699 45.0502 52.6903 45.1236C53.5715 44.7505 55.4881 45.7144 55.8512 46.2065C55.908 45.9765 55.896 45.7716 56.0307 45.5828C56.5857 46.5177 56.879 45.0502 56.8991 44.5946C57.6336 45.6527 57.4461 47.1083 57.2135 48.3513C57.2945 48.2193 57.4905 48.0185 57.5398 48.2978L57.519 48.5929C57.4905 48.6826 57.4541 48.765 57.3887 48.8347C57.3557 48.8922 57.2869 48.908 57.2505 48.8428C56.9895 48.1172 57.1561 49.958 56.879 49.4253L56.7934 49.5731C56.7644 49.696 56.5116 49.7819 56.6457 49.9051C57.4743 49.4707 58.4778 49.8267 59.2369 50.1018C59.4927 49.5605 59.1797 49.737 59.0037 49.3798C59.024 49.0403 59.4729 48.9738 59.3549 48.5557C59.3138 48.6993 59.1022 49.2611 59.0408 48.8308C59.1223 48.2156 59.3752 47.621 59.4522 46.9849C59.628 47.2723 59.6887 47.5141 60.0806 47.0389C59.3752 44.673 60.6887 41.946 58.9632 39.8998C58.5276 39.9772 58.4331 39.4892 58.0819 39.4073C57.9969 39.7028 57.5929 40.2358 57.2909 39.8998C57.1156 39.153 57.6045 39.1939 57.8137 39.3865C57.4461 38.9764 57.4905 38.3907 57.6902 37.8983C57.3529 37.8248 56.7934 37.8121 56.4265 37.9679C55.9248 38.1853 55.7165 38.6076 56.2836 38.6404C55.6181 39.8625 55.9248 40.2561 55.5458 41.5151C55.4186 41.7282 55.6302 42.1588 55.3659 42.2369C55.2594 41.3345 55.4186 40.2935 55.5778 39.4073C55.3816 39.4688 55.4881 39.8998 55.268 39.9772C55.1576 39.2312 55.7456 38.407 56.0307 37.7959C55.4388 37.5213 55.4104 36.734 55.3294 36.164C55.4267 35.3148 55.9121 34.7082 56.0307 35.7495C54.8068 36.9879 56.5164 38.2264 57.9519 37.5786C58.3436 37.5417 58.7879 38.2673 58.8857 37.6193C59.0813 37.9149 59.9423 37.5417 59.7663 36.8321C59.4729 36.7912 59.1386 36.8692 58.8446 37.0498C58.4047 37.3244 58.5797 36.6352 58.6369 36.3978C58.8087 36.3402 58.8857 36.2253 59.0408 36.164C59.6483 37.267 60.7454 35.8276 59.5094 35.6305C59.5303 35.2577 59.9054 35.3767 60.1589 35.4341C59.1223 34.5071 58.8446 33.1703 57.0503 33.6254C56.8222 34.0566 56.4096 33.4082 55.6059 33.2691C55.2184 33.5845 55.6302 34.1544 55.3618 34.5071C55.198 34.7082 55.2594 34.3104 55.1211 34.3309C54.7212 35.729 53.3997 35.4747 53.5426 37.1439C52.833 37.361 53.0571 38.2264 52.9188 38.7797C52.8528 39.0548 52.1886 39.3501 52.2623 38.8781L51.7112 39.8998C51.8581 39.6865 52.0578 39.7807 52.1759 39.9613C52.1718 40.1743 52.1394 40.3912 52.0741 40.6091L51.8987 40.9657C51.7072 41.0233 51.4665 41.0598 51.4989 40.826C51.0175 41.8104 51.1726 42.8883 51.0748 44.0493C50.6257 44.3814 49.9574 45.1402 50.194 45.6979C49.6918 45.9976 49.0923 46.6902 49.4922 47.1704C48.8481 47.2804 48.4893 48.2276 48.1058 48.929C48.3501 49.1588 48.8359 49.2204 49.1786 49.4334C48.656 49.2897 48.1833 49.7986 48.3668 50.3967ZM55.5696 35.9465C55.7456 35.9465 55.6551 35.7495 55.639 35.6674L55.5696 35.9465ZM59.1386 36.4593C59.1386 36.377 59.0037 36.3603 58.947 36.3603C58.8857 36.4593 59.0813 36.5163 59.1386 36.4593ZM58.8087 36.7912L58.7514 36.8692C58.5878 37.0291 59.0611 36.8114 58.8087 36.7912ZM47.5631 50.4175L47.681 50.1511C47.8281 50.1019 47.7877 50.2786 47.7996 50.36C47.9015 50.3729 48.0358 50.438 48.1585 50.3397C48.0808 49.958 48.3748 49.667 48.4199 49.3023C48.4113 49.2775 48.3871 49.2571 48.3627 49.2652C48.1955 49.384 47.942 49.3269 47.7787 49.4618C47.6973 49.7778 47.5133 50.0976 47.5631 50.4175ZM46.8334 50.2454L46.8987 49.9953C46.9434 49.9707 47.0284 49.9417 47.0491 50.0114C47.102 50.143 46.9475 50.4091 47.1834 50.3967L47.3183 50.3187C47.3147 49.9507 47.4693 49.5644 47.6325 49.2164C47.6325 49.1956 47.5995 49.1789 47.5753 49.1832C47.0734 49.2043 46.8293 49.7568 46.7761 50.1879C46.7837 50.2122 46.8091 50.2369 46.8334 50.2454ZM46.5805 50.1879C46.584 50.2122 46.6124 50.2334 46.6372 50.2246C46.7189 49.946 46.7351 49.6176 46.9104 49.3597L46.8334 49.3434C46.6741 49.4415 46.576 49.63 46.5393 49.8148C46.669 49.8923 46.5967 50.0527 46.5805 50.1879Z" fill="#282828"/>
<path fill-rule="evenodd" clip-rule="evenodd" d="M63.4819 44.5775C63.8239 44.5745 64.0038 44.9507 63.6388 45.04C63.4819 44.9938 63.4819 44.8896 63.4819 44.8057C63.3204 44.7826 63.23 44.6324 63.4104 44.5775V44.5111L63.4819 44.5775Z" fill="#282828"/>
<path fill-rule="evenodd" clip-rule="evenodd" d="M63.9858 43.9822C64.1311 44.0682 64.0514 44.2724 64.0514 44.4411L64.183 44.5665C64.183 44.4731 64.2759 44.3229 64.3664 44.3983C64.38 44.556 64.3279 44.8173 64.2102 44.8603C64.2378 44.9501 64.2102 44.9572 64.1582 44.9572L64.131 45.0399C63.8821 44.7995 63.6983 44.3084 63.9858 43.9822Z" fill="#282828"/>
<path fill-rule="evenodd" clip-rule="evenodd" d="M61.4531 45.04C61.0678 45.0178 61.1695 44.6429 61.4003 44.5143C61.5018 44.4954 61.555 44.5633 61.5816 44.62C61.8599 44.6918 61.6839 44.9946 61.4531 45.04Z" fill="#282828"/>
<path fill-rule="evenodd" clip-rule="evenodd" d="M60.3409 40.8088C60.5849 40.8307 60.7774 40.9782 61.021 40.8709C61.2501 41.0221 61.2321 41.383 61.0907 41.597L60.8286 41.7481C60.3775 42.2204 59.8356 41.1515 60.3409 40.8088Z" fill="#282828"/>
<path fill-rule="evenodd" clip-rule="evenodd" d="M61.9845 41.339C62.3542 41.318 62.5773 41.5603 62.7773 41.7399C62.8065 41.8609 62.6948 41.9403 62.5773 41.9989C62.6948 42.1949 62.3833 42.2951 62.2134 42.3955C61.874 42.3575 61.3676 42.2951 61.3985 41.9819C61.2862 41.9403 61.1746 41.8817 61.1986 41.7771C61.3676 41.5603 61.6789 41.4392 61.9845 41.339Z" fill="#282828"/>
<path fill-rule="evenodd" clip-rule="evenodd" d="M56.1935 34.9911C55.8554 34.9568 55.8016 34.5723 56.1109 34.4622C56.4443 34.5191 56.5975 34.8844 56.1935 34.9911Z" fill="#282828"/>
<path fill-rule="evenodd" clip-rule="evenodd" d="M56.7144 33.9333C56.8086 33.9333 57.0091 33.9676 56.9359 34.205L56.9644 34.4491L56.8296 34.4136C56.6855 34.5497 56.5303 34.3781 56.4355 34.1695C56.4929 33.9676 56.6115 33.9676 56.7144 33.9333Z" fill="#282828"/>
<path fill-rule="evenodd" clip-rule="evenodd" d="M56.2932 36.0489H56.374C56.4653 36.2376 56.5051 36.5105 56.1262 36.5777C55.6898 36.4928 55.9887 36.1339 56.2932 36.0489Z" fill="#282828"/>
<path fill-rule="evenodd" clip-rule="evenodd" d="M55.9068 34.1828C55.7495 34.4388 55.7495 34.8287 55.5312 34.9911L55.4514 34.9396C55.4221 34.4388 55.3249 33.9045 55.416 33.4044C55.7374 33.4854 55.7425 33.9337 55.9068 34.1828Z" fill="#282828"/>
<path fill-rule="evenodd" clip-rule="evenodd" d="M56.9634 34.4622C57.095 34.4622 57.1757 34.531 57.2074 34.6943L57.4063 34.6605C57.7174 35.1177 57.125 35.5753 56.7213 35.5145C56.166 35.3167 56.5151 34.531 56.9634 34.4622ZM56.9386 35.0908C57.1015 35.1177 57.2074 34.8239 57.1686 34.7286C57.051 34.7628 56.8572 34.9202 56.9386 35.0908Z" fill="#282828"/>
<path fill-rule="evenodd" clip-rule="evenodd" d="M57.6922 34.9911C57.8259 34.9911 57.9776 35.0238 58.0218 35.147L57.8638 35.4903C57.465 35.6458 57.3571 35.147 57.6922 34.9911Z" fill="#282828"/>
<path fill-rule="evenodd" clip-rule="evenodd" d="M57.3151 35.9042L57.2418 36.0241C57.2314 36.0498 57.2515 36.0742 57.2729 36.0995C57.622 36.1241 57.4711 36.5777 57.1737 36.5777C56.8194 36.3389 56.9653 35.76 57.2418 35.52C57.4971 35.5703 57.617 36.2384 57.3151 35.9042Z" fill="#282828"/>
<path fill-rule="evenodd" clip-rule="evenodd" d="M57.8052 36.5777C58.1334 36.5777 58.0517 37.0331 57.8052 37.1042C57.2702 37.1438 57.5268 36.6955 57.8052 36.5777Z" fill="#282828"/>
<path fill-rule="evenodd" clip-rule="evenodd" d="M54.1041 36.5642L53.9087 36.5777C53.5869 36.4593 53.9934 36.062 54.3098 36.2686L54.4993 36.3198C54.5156 36.2796 54.4684 36.2553 54.4521 36.2179C54.1244 36.2044 54.3518 35.9975 54.5794 36.0756L54.6572 36.0489C54.7202 36.0489 54.7897 36.0489 54.8324 36.0756C54.9266 36.293 54.6048 36.6284 54.1041 36.5642Z" fill="#282828"/>
<path fill-rule="evenodd" clip-rule="evenodd" d="M53.4229 38.1439L53.3864 38.0667C52.9716 37.9531 53.7229 37.4954 53.743 37.8126C53.6598 37.8895 53.6432 37.9401 53.8435 37.9027C54.0999 37.8524 53.8167 37.6755 54.0732 37.6355C54.7237 37.7759 53.9372 38.2705 53.4229 38.1439Z" fill="#282828"/>
<path fill-rule="evenodd" clip-rule="evenodd" d="M55.1083 38.1644C54.6462 38.0734 54.8924 37.7621 55.1399 37.6355C55.6407 37.7138 55.2091 38.025 55.1083 38.1644Z" fill="#282828"/>
<path fill-rule="evenodd" clip-rule="evenodd" d="M54.4579 39.7511C54.1775 39.6221 54.3784 39.3477 54.5815 39.2222C55.0224 39.3093 54.873 39.6938 54.4579 39.7511Z" fill="#282828"/>
<path fill-rule="evenodd" clip-rule="evenodd" d="M53.0109 39.226C53.0804 39.203 53.1378 39.2885 53.1156 39.3559C52.9532 39.7193 52.9886 40.1505 53.0189 40.5634C53.1156 40.5411 53.1596 40.6041 53.2376 40.6486C53.561 41.5108 54.2426 42.2781 54.8492 42.9244C54.1068 42.7089 53.5914 41.8113 53.0934 41.1872C52.9532 41.3132 53.0934 41.7031 52.871 41.7439L52.7611 41.4656C52.858 40.6891 52.5129 39.8498 53.0109 39.226Z" fill="#282828"/>
<path fill-rule="evenodd" clip-rule="evenodd" d="M53.57 40.28C53.1818 40.2296 53.2287 39.9377 53.343 39.7511C53.7409 39.7511 53.9964 40.1472 53.57 40.28Z" fill="#282828"/>
<path fill-rule="evenodd" clip-rule="evenodd" d="M51.7238 41.8405C51.6257 41.6735 51.6773 41.4391 51.8706 41.3601L51.917 41.3951C51.9729 41.4717 51.8678 41.5715 51.9316 41.6387L52.0364 41.5065C51.9781 41.4507 52.0048 41.3601 52.0833 41.3394C52.3083 41.316 52.1613 41.5504 52.1026 41.6387C52.0392 41.7851 51.89 41.9264 51.7238 41.8405Z" fill="#282828"/>
<path fill-rule="evenodd" clip-rule="evenodd" d="M53.0026 42.4105C53.2866 42.571 54.11 42.7161 53.6591 42.9185C53.0328 42.9761 52.514 42.5982 52.8281 42.3955L53.0026 42.4105Z" fill="#282828"/>
<path fill-rule="evenodd" clip-rule="evenodd" d="M54.3619 42.9244C54.5573 42.9716 54.6127 43.1824 54.8034 43.2425L54.8487 43.4533C54.5707 43.3809 54.4364 43.1513 54.3198 42.9869L54.3619 42.9244Z" fill="#282828"/>
<path fill-rule="evenodd" clip-rule="evenodd" d="M51.3773 43.9822C51.7853 44.0261 51.7623 44.4201 51.3825 44.4546C51.3346 44.4766 51.2806 44.5046 51.2213 44.5111C51.0396 44.36 51.2273 44.1172 51.3773 43.9822Z" fill="#282828"/>
<path fill-rule="evenodd" clip-rule="evenodd" d="M53.6754 45.0342C53.2987 45.0923 53.158 44.6944 53.3422 44.5207C53.6917 44.4419 53.9499 44.8685 53.6754 45.0342Z" fill="#282828"/>
<path fill-rule="evenodd" clip-rule="evenodd" d="M51.1839 45.0531C51.3278 45.0582 51.2863 45.1442 51.3589 45.1568L51.4353 45.0406C51.5638 45.0329 51.6147 45.0989 51.6757 45.1391C51.4655 45.3286 51.0866 45.5284 50.6565 45.5688C50.5183 45.3689 50.7647 45.1111 51.1839 45.0531Z" fill="#282828"/>
<path fill-rule="evenodd" clip-rule="evenodd" d="M50.2764 46.8562C50.2683 46.7642 50.3094 46.6937 50.4152 46.6266C50.851 46.685 50.4927 47.1555 50.1833 47.1555C50.0035 47.1005 50.1054 46.8619 50.2764 46.8562Z" fill="#282828"/>
<path fill-rule="evenodd" clip-rule="evenodd" d="M50.3482 47.6853C50.7704 47.663 50.6284 48.075 50.3828 48.2048C49.9268 48.2845 50.0698 47.776 50.3482 47.6853Z" fill="#282828"/>
<path fill-rule="evenodd" clip-rule="evenodd" d="M48.5707 48.7363L48.5024 48.668C48.5611 48.5013 48.6333 48.2701 48.8442 48.2133C49.2712 48.2588 48.8753 48.8044 48.5707 48.7363Z" fill="#282828"/>
<path fill-rule="evenodd" clip-rule="evenodd" d="M56.6726 42.0942C56.8511 42.2427 56.6138 42.5405 56.4951 42.67C56.4894 43.2341 56.6568 43.8176 56.96 44.3423C56.9805 44.4172 56.9278 44.4563 56.8788 44.5111C56.2468 44.288 56.0577 43.6849 56.1067 43.1948C56.0308 43.0656 55.9495 42.9168 56.0522 42.7834C56.0308 42.7442 55.9383 42.819 55.9067 42.764C56.0194 42.2427 56.4299 41.7336 56.9103 41.3377C57.0027 41.5261 56.8673 41.8474 56.6726 42.0942Z" fill="#282828"/>
<path fill-rule="evenodd" clip-rule="evenodd" d="M56.6904 38.1644C57.1137 38.1644 56.9695 38.5652 56.7706 38.6901C56.3025 38.7367 56.372 38.264 56.6904 38.1644Z" fill="#282828"/>
<path fill-rule="evenodd" clip-rule="evenodd" d="M55.9336 40.8088C55.8194 40.5996 56.0962 40.43 56.2592 40.28C56.3287 40.28 56.391 40.28 56.4355 40.316C56.4408 40.5051 56.2852 40.8088 55.9336 40.8088Z" fill="#282828"/>
<path fill-rule="evenodd" clip-rule="evenodd" d="M58.8189 41.3377L58.7414 41.2844C58.7041 41.2844 58.6771 41.3035 58.6391 41.2844C58.5134 41.064 58.5267 40.6454 58.6528 40.4283C58.8055 40.5005 58.8321 40.7559 58.7816 40.9571L58.8564 40.9724C59.0893 40.7559 58.5913 40.4628 58.8055 40.28C59.2314 40.28 59.103 41.174 58.8189 41.3377Z" fill="#282828"/>
<path fill-rule="evenodd" clip-rule="evenodd" d="M57.3429 40.8088C57.8249 40.8921 56.9764 41.1407 57.1926 41.3068C57.1926 41.3241 57.162 41.3377 57.1389 41.3377C56.7482 41.2064 57.1028 40.9266 57.3429 40.8088Z" fill="#282828"/>
<path fill-rule="evenodd" clip-rule="evenodd" d="M59.2108 43.44C58.9916 43.1408 59.0446 42.4417 59.3919 42.4039C59.6636 42.3209 59.6979 42.8826 59.3919 42.7827C59.3725 42.8036 59.3725 42.841 59.3725 42.8615C59.3725 42.8994 59.4068 42.9409 59.4256 42.982C59.769 43.0408 59.463 43.5404 59.2108 43.44Z" fill="#282828"/>
<path fill-rule="evenodd" clip-rule="evenodd" d="M58.5817 44.7692C58.5391 44.6487 58.6757 44.5581 58.8306 44.5129C58.878 44.507 58.9201 44.5152 58.9674 44.5421C58.9907 44.5659 58.9907 44.5875 58.9907 44.6139C58.9201 44.7075 58.9441 44.822 59.0802 44.8968C59.0802 44.9712 58.9441 45.0064 58.8547 45.0382C58.605 45.0594 58.4922 44.8807 58.5817 44.7692Z" fill="#282828"/>
<path fill-rule="evenodd" clip-rule="evenodd" d="M57.696 45.0399C57.99 45.1185 58.1694 45.4275 57.8607 45.5688C57.4769 45.5343 57.3476 45.1595 57.696 45.0399Z" fill="#282828"/>
<path fill-rule="evenodd" clip-rule="evenodd" d="M59.3339 45.5688C59.5864 45.5688 59.6678 45.9714 59.5661 46.2402C59.6881 46.4174 59.4517 46.552 59.3536 46.6266C58.9838 46.5139 59 45.7354 59.3339 45.5688Z" fill="#282828"/>
<path fill-rule="evenodd" clip-rule="evenodd" d="M58.4063 47.6844C58.5895 47.6908 58.4258 48.0733 58.5513 48.1839V48.2596C58.4063 48.446 58.3082 48.6667 58.1332 48.7422C57.8488 48.4347 58.1753 47.8291 58.4063 47.6844ZM58.388 48.0444C58.4258 48.0329 58.4258 47.9168 58.388 47.9055C58.3724 47.9405 58.3498 48.0277 58.388 48.0444Z" fill="#282828"/>
<path fill-rule="evenodd" clip-rule="evenodd" d="M102.002 36.0489C101.785 36.1431 101.703 36.4998 101.439 36.4253C101.423 36.4253 101.391 36.4643 101.391 36.4838C101.596 36.7465 101.846 36.3902 101.987 36.2216C102.016 36.2369 102.016 36.276 102.032 36.3113C102.205 36.3113 102.302 36.5385 102.449 36.5777C102.367 36.3706 102.188 36.1234 102.002 36.0489Z" fill="#282828"/>
<path fill-rule="evenodd" clip-rule="evenodd" d="M102.285 35.3739C102.206 35.4093 102.01 35.2582 102.113 35.0865C102.113 35.0471 102.113 35.007 102.103 34.9911C101.998 34.9911 101.932 35.1427 101.92 35.3137L102.218 35.601C102.331 35.4851 102.371 35.8122 102.333 35.9677C102.319 36.0434 102.354 36.059 102.388 36.0434C102.524 35.8481 102.405 35.5053 102.285 35.3739Z" fill="#282828"/>
<path fill-rule="evenodd" clip-rule="evenodd" d="M102.035 35.7204L102.109 35.7606C102.224 35.6543 102.337 35.8666 102.447 35.8889C102.467 35.7204 102.258 35.6317 102.184 35.5301C101.885 35.4636 101.772 35.7426 101.564 35.8666L101.391 35.9333V36.0176C101.638 36.1462 101.846 35.8447 102.035 35.7204Z" fill="#282828"/>
<path fill-rule="evenodd" clip-rule="evenodd" d="M102.978 34.602C102.871 34.571 102.725 34.5551 102.615 34.4645C102.558 34.4515 102.541 34.4955 102.584 34.5425L102.53 34.7056C102.521 34.8279 102.417 34.8561 102.458 34.9911C102.53 34.9911 102.541 34.8561 102.603 34.8279C102.732 34.9189 102.862 34.7369 102.973 34.6616L102.978 34.602ZM102.634 34.7056L102.719 34.7527C102.701 34.7964 102.595 34.7652 102.634 34.7056Z" fill="#282828"/>
<path fill-rule="evenodd" clip-rule="evenodd" d="M97.9626 43.2691C97.8149 43.2452 97.7631 43.4324 97.8886 43.4997C97.7109 43.6147 97.9147 43.8447 97.7373 43.8688L97.6115 43.4089C97.7888 43.2691 97.7631 42.9918 97.5379 42.9244C96.7057 43.1062 97.511 43.9838 97.4853 44.4633L97.6369 44.5111L97.7373 44.3957C98.2918 44.3721 98.3654 43.5228 97.9626 43.2691Z" fill="#282828"/>
<path fill-rule="evenodd" clip-rule="evenodd" d="M98.9103 45.6711C98.8395 45.6495 98.7928 45.7515 98.7463 45.7995C98.7928 45.9015 98.8143 46.0356 98.9103 46.0976C99.0865 46.1031 99.2044 45.9662 99.2752 45.7995C99.2508 45.714 99.1674 45.6442 99.1087 45.5688C98.969 45.6145 99.0399 45.7703 98.9813 45.8638C98.8143 45.8912 99.0278 45.6951 98.9103 45.6711Z" fill="#282828"/>
<path fill-rule="evenodd" clip-rule="evenodd" d="M98.5948 43.9876C98.4439 43.9669 98.317 44.0081 98.3477 44.0663C98.1394 44.0871 98.2278 44.1363 98.292 44.1862C98.4112 44.2152 98.4439 44.1572 98.4749 44.1363C98.5948 44.1757 98.7467 44.1363 98.8097 44.1862L98.6828 44.2855C98.2598 44.1262 98.1084 44.4116 98.3795 44.5111C98.7467 44.5026 98.9868 44.3805 99.2593 44.2958C99.3526 44.1363 99.0183 44.0187 98.5948 43.9876Z" fill="#282828"/>
<path fill-rule="evenodd" clip-rule="evenodd" d="M97.4852 45.5712C97.3277 45.5364 97.3398 45.8951 97.3843 46.1046L97.3277 46.1299C97.2714 46.1299 97.2924 45.94 97.3046 45.8631C97.3046 45.8329 97.2829 45.8022 97.2714 45.7917C97.055 45.874 97.1916 46.5954 97.3608 46.6266C97.4289 46.5954 97.4852 46.4934 97.4973 46.3344C97.5634 46.3498 97.6314 46.3498 97.6881 46.273C97.6996 45.9501 97.575 45.736 97.4852 45.5712Z" fill="#282828"/>
<path fill-rule="evenodd" clip-rule="evenodd" d="M97.16 42.466L97.068 42.3955C96.7443 42.3955 96.5127 42.7364 96.6957 42.9244C97.001 42.9068 97.1168 42.6368 97.16 42.466Z" fill="#282828"/>
<path fill-rule="evenodd" clip-rule="evenodd" d="M97.6882 42.5395C97.8182 42.8688 98.272 42.9408 98.6353 42.9215C98.9189 42.7963 98.5957 42.4673 98.3576 42.4673C98.2091 42.3955 98.142 42.5395 98.1192 42.634C97.9041 42.6681 98.0968 42.5241 98.0561 42.433L97.9482 42.3955H97.7958L97.6882 42.5395Z" fill="#282828"/>
<path fill-rule="evenodd" clip-rule="evenodd" d="M97.2698 41.8666C97.6483 41.8666 97.8628 41.443 97.5082 41.3384C97.3105 41.3248 96.9931 41.534 97.348 41.5615C97.2325 41.6412 97.0348 41.7872 97.2698 41.8666Z" fill="#282828"/>
<path fill-rule="evenodd" clip-rule="evenodd" d="M114.334 49.2078C113.995 49.0732 113.637 49.007 113.327 48.765C111.833 46.7516 110.059 44.4264 110.149 41.8308C109.105 39.0957 107.902 36.3603 106.029 33.9994C105.943 33.7816 106.16 33.5845 106.058 33.3508C105.81 33.1542 105.524 32.9368 105.202 32.8755C104.566 33.0724 103.961 33.3508 103.248 33.2322C102.118 32.3748 102.371 33.5475 101.8 33.9581C101.449 34.786 100.116 35.4341 100.841 36.3978C101.253 36.734 100.939 37.361 101.371 37.7547C101.996 38.8004 102.885 37.3244 103.081 38.4643C102.424 39.7639 100.702 40.6497 99.2957 39.8625C98.9821 39.8829 98.7082 39.8829 98.4354 39.9613C98.0434 40.1372 97.6517 40.3912 97.297 40.6498C95.8327 42.7494 93.4423 43.4956 91.6026 45.0948C91.2321 45.9602 91.1914 47.2356 91.9175 47.9244C92.9165 48.0962 92.5823 46.9937 92.4064 46.4687C92.6018 44.857 94.8332 43.8726 95.8697 43.5777C95.792 44.673 95.931 45.8575 94.8131 46.395C94.8702 47.6538 94.3432 49.0732 94.7758 50.2826C95.735 50.1345 97.7989 51.1802 97.6025 49.5188C97.0521 48.8922 95.7146 47.8382 97.1219 47.1704C98.3733 47.2597 99.569 46.4805 100.352 45.7218C100.393 46.0174 100.177 46.2432 100.197 46.5262C101.743 47.7276 101.115 49.6422 101.877 51.1272C102.893 51.332 104.173 51.6398 105.103 51.0166C105.316 50.36 104.639 49.8685 104.557 49.4212C104.757 49.4741 104.953 49.5444 105.063 49.3225C106.388 49.737 105.026 47.2723 104.051 48.1541C103.884 47.5184 103.811 46.8092 103.994 46.1569C104.37 45.9478 104.631 46.0913 104.737 46.5218C104.798 46.5957 104.917 46.5585 104.887 46.4479C104.887 46.1569 105.291 47.2437 105.577 47.4857C105.789 47.1946 105.214 46.7516 105.789 47.0589C105.12 45.6077 107.099 45.5952 107.975 45.3126C108.925 46.2636 109.48 47.5472 109.591 48.8638C109.819 49.0313 110.108 49.1175 110.382 49.1669C110.957 49.8641 112.005 51.1064 112.816 50.4219C113 50.6388 113.245 50.5244 113.278 50.7907C113.527 50.3357 114.248 50.4257 114.53 50.4584C114.697 50.0405 114.603 49.5605 114.334 49.2078ZM91.7785 45.427C91.8401 45.5668 91.799 45.7551 91.6438 45.792C91.6026 45.6773 91.741 45.5295 91.7785 45.427ZM92.7978 44.9924C92.7208 44.8366 92.5414 44.7916 92.386 44.8773C92.329 44.9511 92.3087 45.0373 92.329 45.1315C92.3497 45.2507 92.4637 45.2344 92.5414 45.2672C92.366 45.6036 92.1906 45.8986 92.2107 46.3049C91.5252 46.4109 91.7625 47.4281 92.329 47.5346C92.2674 47.621 92.2107 47.7149 92.1333 47.7602C92.0353 47.8213 91.9743 47.74 91.8969 47.703C91.7012 47.2149 91.4855 46.6737 91.5461 46.1203L91.9175 46.0667C91.9943 46.0299 92.0517 45.9814 92.0923 45.8906L92.0714 45.4439C92.0353 45.3287 91.876 45.3904 91.799 45.3614C91.9943 45.013 92.2883 44.591 92.7007 44.5004L93.0347 44.7301L92.7978 44.9924ZM92.329 47.0918C92.2107 47.075 91.9943 46.932 92.1123 46.8053C92.1906 46.8909 92.329 46.944 92.329 47.0918ZM93.6174 44.3033V43.9878L94.3237 43.6924L94.385 43.9098L93.6174 44.3033ZM95.0656 43.3192C94.9882 43.3192 94.9317 43.3604 94.8538 43.3396C95.0859 43.1225 95.3023 42.9257 95.5762 42.7904C95.596 42.8684 95.5392 42.9257 95.498 43.0036C95.5181 43.0855 95.5554 43.1843 95.596 43.2414C95.4412 43.3396 95.2249 43.5567 95.0656 43.3192ZM109.386 40.5105C109.407 40.5719 109.448 40.6296 109.444 40.6868C109.293 40.6659 109.17 40.5883 109.199 40.4121H109.256C109.268 40.4901 109.305 40.531 109.386 40.5105ZM108.395 38.3453C108.501 38.4229 108.608 38.6037 108.648 38.7387L108.505 38.5628C108.359 38.6608 108.388 38.4643 108.395 38.3453ZM104.194 33.3386V33.3793C104.093 33.4 104.19 33.556 104.063 33.5764C104.1 33.4779 104.019 33.3019 104.194 33.3386ZM102.563 33.1335C102.538 33.2483 102.734 33.466 102.526 33.5067C102.497 33.4453 102.501 33.3508 102.412 33.3306C102.428 33.2322 102.485 33.1703 102.563 33.1335ZM96.1055 42.3765C96.1055 42.4747 96.049 42.573 95.931 42.5527L96.1055 42.3765ZM96.1631 50.2454L95.9677 49.8763C95.792 49.8923 96.0078 50.1796 95.8533 50.2246C95.5181 49.9378 95.6369 49.4008 95.596 49.011C95.6943 48.929 95.8118 48.9041 95.931 48.908C96.3218 49.1588 96.4155 49.8843 96.1631 50.2454ZM96.9663 49.0479C97.26 49.1832 97.5134 49.6345 97.24 49.8719L97.26 50.2209C97.2196 50.2454 97.2035 50.266 97.1623 50.266L97.1055 50.2209C97.1827 49.8313 97.1219 49.388 96.8892 49.0685L96.9663 49.0479ZM96.9869 50.2C96.9663 50.2288 96.9301 50.2535 96.8892 50.2617C96.807 50.1633 96.9301 49.934 96.7912 49.9132L96.6116 49.9747L96.6525 50.2826C96.1829 50.2077 96.7129 49.5359 96.3997 49.2775L96.3382 49.1255C96.3382 49.0806 96.3218 49.007 96.3997 49.0273C96.9301 49.097 97.0069 49.7778 96.9869 50.2ZM100.821 44.7586C100.899 45.07 100.764 45.3493 100.43 45.263C100.528 44.9924 100.274 44.0697 100.625 44.4799C100.702 44.5004 100.743 44.4433 100.784 44.3814C100.882 44.1273 100.609 43.7539 100.373 43.9713C100.295 43.4014 100.001 42.9669 99.7077 42.5527C99.3157 42.4747 98.8263 42.9463 98.9443 43.4176C99.0423 43.598 99.2183 43.6353 99.4137 43.6353C99.5891 43.4176 99.0016 43.2621 99.353 43.0239C99.5324 42.9871 99.471 43.2211 99.569 43.2787C100.156 43.0855 100.136 43.951 99.9031 44.3611C100.804 45.8165 98.3939 47.2684 97.0233 46.8053C96.6726 46.8664 96.3017 46.9116 95.9677 47.084C95.9677 47.1739 95.947 47.256 95.9101 47.3297C96.049 47.4978 96.1631 47.1577 96.3218 47.1821C96.1631 47.7191 96.3218 48.2848 96.1829 48.8223C95.931 48.7366 95.5181 48.7079 95.4002 49.0029C95.2249 48.8673 94.9114 49.0148 94.9722 49.2652C95.4412 48.9451 95.4412 49.8022 95.4412 50.1305C95.3232 50.3806 95.1684 49.7535 95.0289 50.1796C94.6943 49.7006 94.7922 48.9373 94.8702 48.3629C94.9521 48.4372 94.8538 48.6175 94.9722 48.6701C95.0289 48.6909 95.049 48.6337 95.0656 48.5929C95.1684 47.8835 94.8538 47.2109 94.9883 46.5139C95.478 46.3214 96.0287 46.1123 96.049 45.4846C96.1428 43.7336 96.1829 41.6916 97.7294 40.6868C97.8067 40.8059 97.9451 40.826 98.0807 40.7856C98.1781 40.531 98.3166 40.375 98.6309 40.3545C98.7083 40.5516 98.765 40.925 99.0423 40.9451C99.3364 40.7856 99.8051 40.6091 99.6252 40.2561C100.197 40.3545 100.764 40.8059 101.33 40.3545C101.135 40.863 101.016 41.3962 100.939 41.946C100.666 41.8679 100.352 41.9867 100.275 42.2779C100.275 42.5527 100.547 42.9093 100.841 42.7494C100.939 43.1429 100.743 43.2414 100.588 43.4592C100.98 43.7539 100.821 44.3033 100.821 44.7586ZM102.33 51.0166L102.248 50.8028C102.212 50.7907 102.171 50.7907 102.155 50.8236C102.191 50.938 102.053 51.0329 101.975 50.9304C101.975 50.6965 101.82 50.5081 101.877 50.2698L102.016 50.2826C102.037 50.2163 102.037 50.1139 102.134 50.1305C102.501 50.1957 102.347 50.6348 102.408 50.9135C102.391 50.9547 102.371 50.9999 102.33 51.0166ZM103.13 51.1842C103.174 51.037 103.162 50.8482 103.031 50.7374C102.844 50.7989 102.963 51.0575 102.889 51.1842C102.799 51.168 102.718 51.094 102.649 51.0285C102.714 50.6759 102.457 50.0976 102.954 49.934C102.967 49.9707 103.003 49.9866 103.036 50.0033C103.514 50.1139 103.362 50.688 103.472 51.0489C103.338 51.0285 103.264 51.205 103.13 51.1842ZM104.01 51.1064C104.031 50.9918 104.068 50.8075 103.929 50.7374C103.779 50.7785 103.848 50.996 103.794 51.094L103.66 50.9871L103.521 49.9747C103.587 49.9132 103.664 49.8511 103.753 49.8511C104.19 50.085 104.149 50.6144 104.158 51.0489L104.01 51.1064ZM104.884 50.9304C104.798 50.8604 104.835 50.6719 104.691 50.6596C104.533 50.7449 104.778 51.2579 104.443 51.1064L104.385 50.1139C104.427 50.0609 104.496 50.0438 104.557 50.0281C104.891 50.1757 104.875 50.6264 104.884 50.9304ZM104.79 48.2403C105.12 48.318 105.336 48.6503 105.275 49.0029L105.083 49.0851C105.018 48.8062 104.867 48.5269 104.732 48.2613C104.737 48.2276 104.773 48.2443 104.79 48.2403ZM104.537 48.2771C104.569 48.3671 104.585 48.4653 104.655 48.5355C104.346 48.6422 104.827 49.0479 104.668 49.2572C104.194 49.3103 104.207 48.6826 104.129 48.3629C104.227 48.2403 104.398 48.289 104.537 48.2771ZM112.633 50.3967C112.486 50.438 112.555 50.1057 112.442 50.0281C112.503 50.7907 111.418 50.3273 111.674 49.7778C111.214 49.7126 110.753 49.5188 110.524 49.0685C110.402 48.9419 110.272 48.445 110.087 48.7243C109.9 48.6869 109.819 48.5557 109.802 48.3588C109.86 48.2728 110.104 48.5355 110.214 48.2771C109.321 46.9898 108.746 45.4641 108.453 43.951C108.395 44.3611 108.518 44.943 108.628 45.3863C108.713 45.644 108.901 46.1695 108.604 45.6858C108.362 45.423 108.456 45.1934 108.388 44.8773C108.306 44.9021 108.33 45.0502 108.31 45.1236C107.428 44.7505 105.511 45.7144 105.148 46.2065C105.091 45.9765 105.103 45.7716 104.969 45.5828C104.414 46.5177 104.121 45.0502 104.1 44.5946C103.366 45.6527 103.554 47.1083 103.786 48.3513C103.705 48.2193 103.509 48.0185 103.46 48.2978L103.481 48.5929C103.509 48.6826 103.546 48.765 103.611 48.8347C103.643 48.8922 103.713 48.908 103.749 48.8428C104.01 48.1172 103.844 49.958 104.121 49.4253L104.207 49.5731C104.235 49.696 104.488 49.7819 104.353 49.9051C103.525 49.4707 102.522 49.8267 101.763 50.1018C101.507 49.5605 101.82 49.737 101.996 49.3798C101.975 49.0403 101.526 48.9738 101.645 48.5557C101.685 48.6993 101.898 49.2611 101.959 48.8308C101.877 48.2156 101.625 47.621 101.547 46.9849C101.371 47.2723 101.31 47.5141 100.919 47.0389C101.625 44.673 100.311 41.946 102.037 39.8998C102.473 39.9772 102.567 39.4892 102.917 39.4073C103.003 39.7028 103.407 40.2358 103.709 39.8998C103.884 39.153 103.395 39.1939 103.187 39.3865C103.554 38.9764 103.509 38.3907 103.31 37.8983C103.647 37.8248 104.207 37.8121 104.573 37.9679C105.075 38.1853 105.283 38.6076 104.716 38.6404C105.381 39.8625 105.075 40.2561 105.454 41.5151C105.581 41.7282 105.369 42.1588 105.634 42.2369C105.74 41.3345 105.581 40.2935 105.422 39.4073C105.618 39.4688 105.511 39.8998 105.732 39.9772C105.842 39.2312 105.254 38.407 104.969 37.7959C105.56 37.5213 105.589 36.734 105.671 36.164C105.573 35.3148 105.087 34.7082 104.969 35.7495C106.193 36.9879 104.484 38.2264 103.048 37.5786C102.656 37.5417 102.212 38.2673 102.114 37.6193C101.918 37.9149 101.058 37.5417 101.233 36.8321C101.526 36.7912 101.861 36.8692 102.155 37.0498C102.595 37.3244 102.42 36.6352 102.363 36.3978C102.191 36.3402 102.114 36.2253 101.959 36.164C101.352 37.267 100.254 35.8276 101.49 35.6305C101.469 35.2577 101.094 35.3767 100.841 35.4341C101.877 34.5071 102.155 33.1703 103.95 33.6254C104.178 34.0566 104.59 33.4082 105.393 33.2691C105.781 33.5845 105.369 34.1544 105.638 34.5071C105.801 34.7082 105.74 34.3104 105.878 34.3309C106.278 35.729 107.6 35.4747 107.457 37.1439C108.167 37.361 107.943 38.2264 108.081 38.7797C108.146 39.0548 108.811 39.3501 108.737 38.8781L109.288 39.8998C109.142 39.6865 108.942 39.7807 108.824 39.9613C108.827 40.1743 108.861 40.3912 108.925 40.6091L109.101 40.9657C109.293 41.0233 109.533 41.0598 109.501 40.826C109.982 41.8104 109.827 42.8883 109.925 44.0493C110.374 44.3814 111.042 45.1402 110.805 45.6979C111.307 45.9976 111.907 46.6902 111.507 47.1704C112.152 47.2804 112.51 48.2276 112.893 48.929C112.649 49.1588 112.164 49.2204 111.821 49.4334C112.343 49.2897 112.816 49.7986 112.633 50.3967ZM105.43 35.9465C105.254 35.9465 105.345 35.7495 105.361 35.6674L105.43 35.9465ZM101.861 36.4593C101.861 36.377 101.996 36.3603 102.053 36.3603C102.114 36.4593 101.918 36.5163 101.861 36.4593ZM102.191 36.7912L102.248 36.8692C102.412 37.0291 101.939 36.8114 102.191 36.7912ZM113.437 50.4175L113.318 50.1511C113.171 50.1019 113.212 50.2786 113.2 50.36C113.098 50.3729 112.963 50.438 112.841 50.3397C112.918 49.958 112.625 49.667 112.58 49.3023C112.588 49.2775 112.612 49.2571 112.637 49.2652C112.804 49.384 113.058 49.3269 113.22 49.4618C113.302 49.7778 113.486 50.0976 113.437 50.4175ZM114.166 50.2454L114.101 49.9953C114.056 49.9707 113.971 49.9417 113.951 50.0114C113.897 50.143 114.053 50.4091 113.816 50.3967L113.681 50.3187C113.685 49.9507 113.531 49.5644 113.367 49.2164C113.367 49.1956 113.4 49.1789 113.425 49.1832C113.927 49.2043 114.171 49.7568 114.224 50.1879C114.215 50.2122 114.191 50.2369 114.166 50.2454ZM114.419 50.1879C114.416 50.2122 114.387 50.2334 114.363 50.2246C114.28 49.946 114.264 49.6176 114.089 49.3597L114.166 49.3434C114.325 49.4415 114.424 49.63 114.46 49.8148C114.33 49.8923 114.403 50.0527 114.419 50.1879Z" fill="#282828"/>
<path fill-rule="evenodd" clip-rule="evenodd" d="M97.5181 44.5775C97.1759 44.5745 96.9958 44.9507 97.3614 45.04C97.5181 44.9938 97.5181 44.8896 97.5181 44.8057C97.6791 44.7826 97.7701 44.6324 97.5893 44.5775V44.5111L97.5181 44.5775Z" fill="#282828"/>
<path fill-rule="evenodd" clip-rule="evenodd" d="M97.0138 43.9822C96.8682 44.0682 96.9483 44.2724 96.9483 44.4411L96.8166 44.5665C96.8166 44.4731 96.7237 44.3229 96.6333 44.3983C96.6195 44.556 96.6714 44.8173 96.7895 44.8603C96.7616 44.9501 96.7895 44.9572 96.8414 44.9572L96.8682 45.0399C97.1174 44.7995 97.3013 44.3084 97.0138 43.9822Z" fill="#282828"/>
<path fill-rule="evenodd" clip-rule="evenodd" d="M99.5465 45.04C99.9325 45.0178 99.8299 44.6429 99.5998 44.5143C99.4983 44.4954 99.4449 44.5633 99.4186 44.62C99.1396 44.6918 99.3163 44.9946 99.5465 45.04Z" fill="#282828"/>
<path fill-rule="evenodd" clip-rule="evenodd" d="M100.659 40.8088C100.415 40.8307 100.222 40.9782 99.9781 40.8709C99.7495 41.0221 99.7677 41.383 99.909 41.597L100.171 41.7481C100.622 42.2204 101.164 41.1515 100.659 40.8088Z" fill="#282828"/>
<path fill-rule="evenodd" clip-rule="evenodd" d="M99.0149 41.339C98.6451 41.318 98.422 41.5603 98.2221 41.7399C98.1924 41.8609 98.3038 41.9403 98.422 41.9989C98.3038 42.1949 98.615 42.2951 98.7857 42.3955C99.1254 42.3575 99.6309 42.2951 99.6012 41.9819C99.7133 41.9403 99.8243 41.8817 99.8007 41.7771C99.6309 41.5603 99.32 41.4392 99.0149 41.339Z" fill="#282828"/>
<path fill-rule="evenodd" clip-rule="evenodd" d="M104.806 34.9911C105.144 34.9568 105.198 34.5723 104.889 34.4622C104.556 34.5191 104.402 34.8844 104.806 34.9911Z" fill="#282828"/>
<path fill-rule="evenodd" clip-rule="evenodd" d="M104.286 33.9333C104.192 33.9333 103.991 33.9676 104.065 34.205L104.035 34.4491L104.171 34.4136C104.315 34.5497 104.47 34.3781 104.564 34.1695C104.507 33.9676 104.388 33.9676 104.286 33.9333Z" fill="#282828"/>
<path fill-rule="evenodd" clip-rule="evenodd" d="M104.707 36.0489H104.625C104.534 36.2376 104.495 36.5105 104.873 36.5777C105.31 36.4928 105.011 36.1339 104.707 36.0489Z" fill="#282828"/>
<path fill-rule="evenodd" clip-rule="evenodd" d="M105.093 34.1828C105.25 34.4388 105.25 34.8287 105.468 34.9911L105.548 34.9396C105.577 34.4388 105.675 33.9045 105.583 33.4044C105.262 33.4854 105.256 33.9337 105.093 34.1828Z" fill="#282828"/>
<path fill-rule="evenodd" clip-rule="evenodd" d="M104.035 34.4622C103.905 34.4622 103.824 34.531 103.792 34.6943L103.593 34.6605C103.281 35.1177 103.875 35.5753 104.279 35.5145C104.833 35.3167 104.485 34.531 104.035 34.4622ZM104.061 35.0908C103.899 35.1177 103.792 34.8239 103.831 34.7286C103.949 34.7628 104.142 34.9202 104.061 35.0908Z" fill="#282828"/>
<path fill-rule="evenodd" clip-rule="evenodd" d="M103.306 34.9911C103.174 34.9911 103.022 35.0238 102.978 35.147L103.136 35.4903C103.535 35.6458 103.642 35.147 103.306 34.9911Z" fill="#282828"/>
<path fill-rule="evenodd" clip-rule="evenodd" d="M103.685 35.9042L103.758 36.0241C103.768 36.0498 103.748 36.0742 103.726 36.0995C103.377 36.1241 103.529 36.5777 103.825 36.5777C104.18 36.3389 104.035 35.76 103.758 35.52C103.503 35.5703 103.382 36.2384 103.685 35.9042Z" fill="#282828"/>
<path fill-rule="evenodd" clip-rule="evenodd" d="M103.194 36.5777C102.865 36.5777 102.949 37.0331 103.194 37.1042C103.728 37.1438 103.474 36.6955 103.194 36.5777Z" fill="#282828"/>
<path fill-rule="evenodd" clip-rule="evenodd" d="M106.895 36.5642L107.091 36.5777C107.412 36.4593 107.006 36.062 106.69 36.2686L106.499 36.3198C106.483 36.2796 106.531 36.2553 106.548 36.2179C106.875 36.2044 106.647 35.9975 106.42 36.0756L106.342 36.0489C106.279 36.0489 106.21 36.0489 106.167 36.0756C106.072 36.293 106.394 36.6284 106.895 36.5642Z" fill="#282828"/>
<path fill-rule="evenodd" clip-rule="evenodd" d="M107.576 38.1439L107.613 38.0667C108.027 37.9531 107.277 37.4954 107.256 37.8126C107.34 37.8895 107.357 37.9401 107.157 37.9027C106.9 37.8524 107.183 37.6755 106.926 37.6355C106.276 37.7759 107.062 38.2705 107.576 38.1439Z" fill="#282828"/>
<path fill-rule="evenodd" clip-rule="evenodd" d="M105.891 38.1644C106.353 38.0734 106.106 37.7621 105.859 37.6355C105.358 37.7138 105.79 38.025 105.891 38.1644Z" fill="#282828"/>
<path fill-rule="evenodd" clip-rule="evenodd" d="M106.542 39.7511C106.822 39.6221 106.621 39.3477 106.418 39.2222C105.977 39.3093 106.126 39.6938 106.542 39.7511Z" fill="#282828"/>
<path fill-rule="evenodd" clip-rule="evenodd" d="M107.989 39.226C107.919 39.203 107.862 39.2885 107.885 39.3559C108.047 39.7193 108.012 40.1505 107.981 40.5634C107.885 40.5411 107.841 40.6041 107.763 40.6486C107.439 41.5108 106.757 42.2781 106.151 42.9244C106.893 42.7089 107.408 41.8113 107.906 41.1872C108.047 41.3132 107.906 41.7031 108.13 41.7439L108.239 41.4656C108.142 40.6891 108.487 39.8498 107.989 39.226Z" fill="#282828"/>
<path fill-rule="evenodd" clip-rule="evenodd" d="M107.429 40.28C107.818 40.2296 107.77 39.9377 107.655 39.7511C107.258 39.7511 107.003 40.1472 107.429 40.28Z" fill="#282828"/>
<path fill-rule="evenodd" clip-rule="evenodd" d="M109.276 41.8405C109.374 41.6735 109.322 41.4391 109.129 41.3601L109.083 41.3951C109.027 41.4717 109.132 41.5715 109.068 41.6387L108.963 41.5065C109.021 41.4507 108.995 41.3601 108.917 41.3394C108.692 41.316 108.839 41.5504 108.897 41.6387C108.96 41.7851 109.11 41.9264 109.276 41.8405Z" fill="#282828"/>
<path fill-rule="evenodd" clip-rule="evenodd" d="M107.998 42.4105C107.714 42.571 106.89 42.7161 107.34 42.9185C107.966 42.9761 108.486 42.5982 108.172 42.3955L107.998 42.4105Z" fill="#282828"/>
<path fill-rule="evenodd" clip-rule="evenodd" d="M106.637 42.9244C106.442 42.9716 106.387 43.1824 106.197 43.2425L106.151 43.4533C106.428 43.3809 106.563 43.1513 106.68 42.9869L106.637 42.9244Z" fill="#282828"/>
<path fill-rule="evenodd" clip-rule="evenodd" d="M109.622 43.9822C109.215 44.0261 109.237 44.4201 109.617 44.4546C109.666 44.4766 109.719 44.5046 109.779 44.5111C109.96 44.36 109.773 44.1172 109.622 43.9822Z" fill="#282828"/>
<path fill-rule="evenodd" clip-rule="evenodd" d="M107.324 45.0342C107.7 45.0923 107.841 44.6944 107.657 44.5207C107.308 44.4419 107.049 44.8685 107.324 45.0342Z" fill="#282828"/>
<path fill-rule="evenodd" clip-rule="evenodd" d="M109.816 45.0531C109.673 45.0582 109.715 45.1442 109.642 45.1568L109.565 45.0406C109.437 45.0329 109.386 45.0989 109.325 45.1391C109.534 45.3286 109.914 45.5284 110.344 45.5688C110.482 45.3689 110.236 45.1111 109.816 45.0531Z" fill="#282828"/>
<path fill-rule="evenodd" clip-rule="evenodd" d="M110.722 46.8562C110.731 46.7642 110.69 46.6937 110.584 46.6266C110.148 46.685 110.507 47.1555 110.816 47.1555C110.996 47.1005 110.894 46.8619 110.722 46.8562Z" fill="#282828"/>
<path fill-rule="evenodd" clip-rule="evenodd" d="M110.65 47.6853C110.229 47.663 110.371 48.075 110.617 48.2048C111.073 48.2845 110.93 47.776 110.65 47.6853Z" fill="#282828"/>
<path fill-rule="evenodd" clip-rule="evenodd" d="M112.43 48.7363L112.498 48.668C112.439 48.5013 112.367 48.2701 112.156 48.2133C111.729 48.2588 112.125 48.8044 112.43 48.7363Z" fill="#282828"/>
<path fill-rule="evenodd" clip-rule="evenodd" d="M104.327 42.0942C104.149 42.2427 104.385 42.5405 104.505 42.67C104.511 43.2341 104.343 43.8176 104.04 44.3423C104.019 44.4172 104.072 44.4563 104.122 44.5111C104.753 44.288 104.942 43.6849 104.893 43.1948C104.969 43.0656 105.05 42.9168 104.947 42.7834C104.969 42.7442 105.061 42.819 105.093 42.764C104.98 42.2427 104.569 41.7336 104.09 41.3377C103.998 41.5261 104.133 41.8474 104.327 42.0942Z" fill="#282828"/>
<path fill-rule="evenodd" clip-rule="evenodd" d="M104.309 38.1644C103.886 38.1644 104.03 38.5652 104.23 38.6901C104.698 38.7367 104.627 38.264 104.309 38.1644Z" fill="#282828"/>
<path fill-rule="evenodd" clip-rule="evenodd" d="M105.066 40.8088C105.18 40.5996 104.904 40.43 104.741 40.28C104.671 40.28 104.608 40.28 104.564 40.316C104.558 40.5051 104.714 40.8088 105.066 40.8088Z" fill="#282828"/>
<path fill-rule="evenodd" clip-rule="evenodd" d="M102.181 41.3377L102.259 41.2844C102.296 41.2844 102.323 41.3035 102.361 41.2844C102.486 41.064 102.473 40.6454 102.347 40.4283C102.195 40.5005 102.168 40.7559 102.218 40.9571L102.143 40.9724C101.91 40.7559 102.409 40.4628 102.195 40.28C101.768 40.28 101.897 41.174 102.181 41.3377Z" fill="#282828"/>
<path fill-rule="evenodd" clip-rule="evenodd" d="M103.657 40.8088C103.174 40.8921 104.023 41.1407 103.807 41.3068C103.807 41.3241 103.837 41.3377 103.861 41.3377C104.251 41.2064 103.897 40.9266 103.657 40.8088Z" fill="#282828"/>
<path fill-rule="evenodd" clip-rule="evenodd" d="M101.789 43.44C102.008 43.1408 101.955 42.4417 101.608 42.4039C101.336 42.3209 101.302 42.8826 101.608 42.7827C101.627 42.8036 101.627 42.841 101.627 42.8615C101.627 42.8994 101.593 42.9409 101.574 42.982C101.23 43.0408 101.536 43.5404 101.789 43.44Z" fill="#282828"/>
<path fill-rule="evenodd" clip-rule="evenodd" d="M102.418 44.7692C102.46 44.6487 102.324 44.5581 102.169 44.5129C102.121 44.507 102.08 44.5152 102.032 44.5421C102.009 44.5659 102.009 44.5875 102.009 44.6139C102.08 44.7075 102.056 44.822 101.92 44.8968C101.92 44.9712 102.056 45.0064 102.145 45.0382C102.395 45.0594 102.508 44.8807 102.418 44.7692Z" fill="#282828"/>
<path fill-rule="evenodd" clip-rule="evenodd" d="M103.303 45.0399C103.01 45.1185 102.83 45.4275 103.139 45.5688C103.522 45.5343 103.652 45.1595 103.303 45.0399Z" fill="#282828"/>
<path fill-rule="evenodd" clip-rule="evenodd" d="M101.665 45.5688C101.413 45.5688 101.332 45.9714 101.434 46.2402C101.311 46.4174 101.547 46.552 101.646 46.6266C102.016 46.5139 102 45.7354 101.665 45.5688Z" fill="#282828"/>
<path fill-rule="evenodd" clip-rule="evenodd" d="M102.594 47.6844C102.411 47.6908 102.574 48.0733 102.449 48.1839V48.2596C102.594 48.446 102.692 48.6667 102.867 48.7422C103.151 48.4347 102.825 47.8291 102.594 47.6844ZM102.612 48.0444C102.574 48.0329 102.574 47.9168 102.612 47.9055C102.628 47.9405 102.65 48.0277 102.612 48.0444Z" fill="#282828"/>
<path fill-rule="evenodd" clip-rule="evenodd" d="M30.5182 62.5045L30.5755 63.8686C30.3462 63.9269 30.1309 63.999 29.9016 64.0576C28.9986 64.3333 27.7229 64.6088 26.7772 64.6088C23.5806 64.6088 21 62.9257 21 59.3417C21 56.0479 23.4368 54.031 26.8772 54.031C28.1388 54.031 29.3998 54.3359 30.6042 54.6842C30.4609 55.4095 30.3749 56.1346 30.2889 56.8604H29.8731C29.8303 55.9314 30.0595 55.5976 29.2138 55.1773C28.626 54.8869 27.9381 54.6404 26.9058 54.6404C24.1532 54.6404 22.5338 56.4395 22.5338 59.0076C22.5338 61.9246 24.1966 63.9846 27.1497 63.9846C28.2534 63.9846 29.0561 63.767 29.1712 63.4044C29.2998 62.969 29.2138 61.3876 29.185 61.1552C29.1426 60.8509 28.5687 60.8651 27.551 60.8217V60.3864H31.0489V60.7492C30.3462 60.8651 30.4755 61.5758 30.5182 62.5045Z" fill="#282828"/>
<path fill-rule="evenodd" clip-rule="evenodd" d="M42.2008 64.5329C41.858 64.5329 41.5301 64.5633 41.1874 64.6088C40.9491 64.291 40.7856 64.0193 40.5769 63.7621L37.031 59.1349L37.0908 58.9077C37.5526 58.9378 38.014 58.9222 38.4609 58.8464C39.5041 58.6658 40.3977 57.8486 40.3977 56.7294C40.3977 55.0965 39.2062 54.6127 38.1034 54.6127C37.5826 54.6127 37.0158 54.6888 36.614 54.8092C36.524 55.0664 36.524 55.3844 36.524 55.8523V62.7945C36.524 63.9736 36.5095 64.0795 37.9399 64.1556V64.6088C37.2244 64.5633 36.524 64.5329 35.7945 64.5329C35.0644 64.5329 34.364 64.5633 33.6936 64.6088V64.1556C35.124 64.0795 35.1088 63.9736 35.1088 62.7945V55.8523C35.1088 54.6732 35.124 54.567 33.6936 54.492V54.0379C34.5277 54.0836 35.3923 54.1138 36.2712 54.1138C37.1502 54.1138 38.014 54.0836 38.8785 54.0379C40.9347 53.9323 41.8878 55.0664 41.8878 56.3361C41.8878 57.9849 40.4275 58.9679 38.9824 59.255L42.3643 63.7314C42.6033 64.0193 42.9156 64.1096 43.2136 64.1556V64.6088C42.8859 64.5633 42.5437 64.5329 42.2008 64.5329Z" fill="#282828"/>
<path fill-rule="evenodd" clip-rule="evenodd" d="M52.587 63.2774V64.5329C52.0498 64.6088 51.0762 64.5938 50.1753 64.6088C49.318 64.5633 48.4464 64.5329 47.5601 64.5329C46.6739 64.5329 45.8166 64.5633 44.9302 64.6088V64.1553C45.6566 64.1246 46.1793 63.807 46.1793 62.7933V55.8467C46.1793 54.6668 46.1942 54.5605 44.7993 54.4855V54.031C45.6856 54.0768 46.5576 54.107 47.4584 54.107C48.3594 54.107 49.2457 54.0768 50.1171 54.031C51.0325 54.0463 52.035 54.031 52.5294 54.107C52.3694 54.6062 52.3111 55.0903 52.2963 55.5745C52.2963 55.8927 52.253 56.1499 52.253 56.4671H51.8027C51.7884 55.8776 51.7006 55.4538 51.5993 54.9844C50.9015 54.7577 50.161 54.7275 49.4342 54.7275C48.7951 54.7275 48.1123 54.7275 47.6325 54.8028C47.5744 55.181 47.5601 55.5293 47.5601 56.0592V58.8884C50.727 58.9185 50.9309 59.1009 50.9454 57.6176H51.4248V61.1136H50.9454C50.9454 59.4032 50.8434 59.4941 47.5601 59.6151V62.5356C47.5601 63.0805 47.5744 63.4433 47.6325 63.8368C48.1702 63.9127 48.9113 63.9127 49.6085 63.9127C50.3934 63.9127 51.1919 63.8823 51.9478 63.6553C52.0206 63.428 52.0931 63.1561 52.1222 62.883L52.253 62.0514H52.7326C52.6741 62.3688 52.587 62.7933 52.587 63.2774Z" fill="#282828"/>
<path fill-rule="evenodd" clip-rule="evenodd" d="M63.166 63.2774V64.5329C62.6288 64.6088 61.6548 64.5938 60.754 64.6088C59.8969 64.5633 59.0252 64.5329 58.1388 64.5329C57.2526 64.5329 56.3952 64.5633 55.5088 64.6088V64.1553C56.2351 64.1246 56.7582 63.807 56.7582 62.7933V55.8467C56.7582 54.6668 56.773 54.5605 55.3779 54.4855V54.031C56.2643 54.0768 57.1359 54.107 58.037 54.107C58.9382 54.107 59.8243 54.0768 60.6959 54.031C61.6113 54.0463 62.6139 54.031 63.1084 54.107C62.9484 54.6062 62.8903 55.0903 62.8755 55.5745C62.8755 55.8927 62.8322 56.1499 62.8322 56.4671H62.3815C62.3668 55.8776 62.2796 55.4538 62.1783 54.9844C61.4808 54.7577 60.7399 54.7275 60.013 54.7275C59.374 54.7275 58.6908 54.7275 58.2113 54.8028C58.1532 55.181 58.1388 55.5293 58.1388 56.0592V58.8884C61.3061 58.9185 61.5095 59.1009 61.5243 57.6176H62.0038V61.1136H61.5243C61.5243 59.4032 61.4223 59.4941 58.1388 59.6151V62.5356C58.1388 63.0805 58.1532 63.4433 58.2113 63.8368C58.7489 63.9127 59.4902 63.9127 60.1878 63.9127C60.9723 63.9127 61.771 63.8823 62.5267 63.6553C62.5998 63.428 62.6719 63.1561 62.7011 62.883L62.8322 62.0514H63.3112C63.2531 62.3688 63.166 62.7933 63.166 63.2774Z" fill="#282828"/>
<path fill-rule="evenodd" clip-rule="evenodd" d="M76.8284 54.4895C75.9097 54.4895 75.6331 54.6239 75.6331 55.4828V64.0605L75.6766 64.6088L74.5247 64.4013L67.4818 55.7048V62.9346C67.4818 63.7941 67.7592 63.9273 68.6779 63.9273L68.9111 63.9426V64.3866C68.3422 64.342 67.7592 64.3122 67.1756 64.3122C66.5924 64.3122 66.0092 64.342 65.4263 64.3866V63.9426L65.6595 63.9273C66.5488 63.9273 66.8112 63.7941 66.8112 62.9346V55.4828C66.8112 54.6239 66.5776 54.4895 65.7611 54.4759H65.5572V54.031C65.9802 54.0758 66.3883 54.1054 66.8257 54.1054C67.2488 54.1054 67.6568 54.0758 68.0798 54.031L74.9626 62.8462V55.4828C74.9626 54.6239 74.7001 54.4895 73.8102 54.4895L73.5769 54.4759V54.031C74.1604 54.0758 74.7436 54.1054 75.3267 54.1054C75.9097 54.1054 76.4934 54.0758 77.0618 54.031V54.4759L76.8284 54.4895Z" fill="#282828"/>
<path fill-rule="evenodd" clip-rule="evenodd" d="M89.3954 59.5856C88.986 59.5996 88.6223 59.5538 88.4094 59.4941L88.2428 58.9342C88.47 58.9944 88.8339 59.0552 89.2132 59.0702C90.4564 59.1154 91.4123 58.1778 91.4123 56.8911C91.4123 55.3176 90.4564 54.5915 88.9401 54.5915C88.4251 54.5915 87.9242 54.7125 87.4385 54.8028C87.3485 55.0603 87.3485 55.3785 87.3485 55.8467V62.7933C87.3485 63.9732 87.3322 64.0792 88.7884 64.1553V64.6088C88.0608 64.5633 87.3485 64.5329 86.6047 64.5329C85.8615 64.5329 85.1488 64.5633 84.4663 64.6088V64.1553C85.9224 64.0792 85.9068 63.9732 85.9068 62.7933V55.8467C85.9068 54.6668 85.9224 54.5605 84.4663 54.4855V54.031C85.3462 54.0768 86.2254 54.107 87.1357 54.107C88.0301 54.107 88.9094 54.0768 89.7898 54.031C91.2602 54.031 92.9285 54.6668 92.9285 56.3765C92.9285 58.2684 91.291 59.5095 89.3954 59.5856Z" fill="#282828"/>
<path fill-rule="evenodd" clip-rule="evenodd" d="M102.836 62.9438L102.68 64.5329C102.227 64.6088 101.32 64.5938 100.484 64.6088C99.6912 64.5633 98.8837 64.5329 98.0621 64.5329C97.2403 64.5329 96.4469 64.5633 95.6253 64.6088V64.1553C96.2913 64.0337 96.3908 63.5948 96.3908 62.3845V55.8467C96.3908 54.6668 96.4049 54.5605 95.0444 54.4855V54.031C95.6825 54.0768 96.3485 54.107 97.0422 54.107C97.7363 54.107 98.4015 54.0768 99.0818 54.031V54.4855C97.7219 54.5605 97.7364 54.6668 97.7364 55.8467V63.2774L97.7792 63.8368C98.3738 63.9127 99.0965 63.9127 99.7761 63.9127C100.541 63.9127 101.32 63.8823 102.057 63.6553C102.114 63.5194 102.156 63.3527 102.198 63.1711L102.524 61.8997L102.978 61.9307C102.935 62.1423 102.893 62.5356 102.836 62.9438Z" fill="#282828"/>
<path fill-rule="evenodd" clip-rule="evenodd" d="M113.772 64.5335C113.13 64.5335 112.501 64.5637 111.874 64.6088V64.1592C112.244 64.1437 112.63 64.1287 112.944 63.9487C113.144 63.8434 113.158 63.6034 113.044 63.3338L112.173 61.1434H108.119C107.948 61.5479 107.163 63.3338 107.163 63.6634C107.163 64.1592 107.862 64.0837 108.376 64.1592V64.6088C107.834 64.5637 107.291 64.5335 106.734 64.5335C106.177 64.5335 105.635 64.5637 105.093 64.6088V64.1592C105.893 63.9938 105.992 64.1287 106.335 63.3485L107.034 61.8028L108.961 57.272C109.418 56.207 109.889 55.1109 110.26 54.031H110.717L114.157 62.5682C114.343 63.0488 114.529 63.5431 114.885 63.903C115.042 64.0536 115.342 64.1437 115.671 64.1592V64.6088C115.042 64.5637 114.415 64.5335 113.772 64.5335ZM110.132 56.0261L108.347 60.4977H111.916L110.132 56.0261Z" fill="#282828"/>
<path fill-rule="evenodd" clip-rule="evenodd" d="M122.553 64.5329C120.934 64.5329 119.36 64.5633 117.786 64.6088V64.1698L119.268 62.3845L124.448 55.8163L124.83 55.3023L125.197 54.7421C124.861 54.7421 124.539 54.7275 124.203 54.7275C123.057 54.7275 121.911 54.7421 120.766 54.7878C119.238 54.848 119.406 54.9844 119.329 55.635L119.222 56.5129H118.748C118.794 56.1044 118.825 55.6963 118.825 55.2719C118.825 54.848 118.794 54.4397 118.748 54.031H127.29V54.4993L127.061 54.7421L119.879 63.8527L123.852 63.897C124.539 63.897 125.533 63.9431 126.189 63.7308C126.511 63.6254 126.572 63.3377 126.663 62.7777L126.801 61.8997H127.29L127.244 62.2787L127.306 64.6088C125.732 64.5633 124.158 64.5329 122.553 64.5329Z" fill="#282828"/>
<path fill-rule="evenodd" clip-rule="evenodd" d="M138.007 64.5335C137.332 64.5335 136.673 64.5637 136.014 64.6088V64.1592C136.403 64.1437 136.807 64.1287 137.138 63.9487C137.347 63.8434 137.362 63.6034 137.242 63.3338L136.328 61.1434H132.071C131.891 61.5479 131.067 63.3338 131.067 63.6634C131.067 64.1592 131.801 64.0837 132.34 64.1592V64.6088C131.771 64.5637 131.202 64.5335 130.617 64.5335C130.033 64.5335 129.463 64.5637 128.893 64.6088V64.1592C129.732 63.9938 129.837 64.1287 130.197 63.3485L130.932 61.8028L132.955 57.272C133.435 56.207 133.93 55.1109 134.319 54.031H134.8L138.412 62.5682C138.606 63.0488 138.801 63.5431 139.176 63.903C139.341 64.0536 139.656 64.1437 140 64.1592V64.6088C139.341 64.5637 138.681 64.5335 138.007 64.5335ZM134.184 56.0261L132.311 60.4977H136.058L134.184 56.0261Z" fill="#282828"/>
<path fill-rule="evenodd" clip-rule="evenodd" d="M80.4998 26C75.388 26 71.2444 30.2618 71.2444 35.5201C71.2444 40.7779 75.388 45.0399 80.4998 45.0399C85.6123 45.0399 89.7554 40.7779 89.7554 35.5201C89.7554 30.2618 85.6123 26 80.4998 26ZM80.4998 43.5704C76.177 43.5704 72.6733 39.9658 72.6733 35.5201C72.6733 31.0737 76.177 27.4701 80.4998 27.4701C84.8222 27.4701 88.3267 31.0737 88.3267 35.5201C88.3267 39.9658 84.8222 43.5704 80.4998 43.5704Z" fill="#282828"/>
<path fill-rule="evenodd" clip-rule="evenodd" d="M85.4818 40.2607C85.0828 39.8925 85.0595 38.8166 85.0595 38.8166C85.0595 38.8166 85.1442 31.9251 85.1442 31.6052C85.1442 31.2863 85.2642 30.8979 85.3985 30.6417C85.6046 30.3822 85.3525 30.2336 85.3525 30.2336C85.3525 30.2336 83.5862 30.228 82.9458 30.2336C83.3908 30.4283 83.519 31.4754 83.5826 31.6811C80.9572 30.1766 78.2207 31.3998 78.0885 31.4432C77.9556 31.4864 77.9556 31.3728 77.9556 31.3728L78.5543 30.2359C78.5543 30.2359 76.5483 30.2302 76.2043 30.2359C76.0078 30.3219 76.1299 30.4901 76.2043 30.5608C76.4582 30.7773 76.5011 30.9499 76.5011 31.1781C76.5011 31.4051 76.4318 32.0172 76.4318 32.0172C76.4318 32.0172 75.7434 32.8943 75.5528 33.1538C75.3623 33.4141 75.5636 33.63 75.7222 33.587C76.5483 33.6197 76.5266 34.0637 76.6116 34.3667C76.6962 34.6699 76.7178 37.1927 76.6541 38.8272C76.5234 39.6542 76.3469 39.8132 76.098 40.3111C76.0154 40.513 76.1279 40.8094 76.3044 40.8088C76.4318 40.7984 80.1682 40.6683 80.4014 40.6501C81.7141 40.6435 83.4395 39.2861 83.6374 39.1488C83.5525 39.6902 83.348 40.0728 83.1502 40.3762C82.9633 40.5869 83.2066 40.6631 83.2066 40.6631C83.2066 40.6631 85.1869 40.5762 85.4303 40.5545C85.5385 40.475 85.5497 40.3542 85.4818 40.2607ZM78.2418 39.1412L78.157 33.8686C78.157 33.8686 78.0408 32.2657 79.8295 32.3308C80.3159 32.329 82.9739 32.0497 83.5667 34.962C83.5862 35.0867 83.5996 35.1896 83.6073 35.2832C83.0416 35.723 82.8969 35.7633 82.4346 35.7214C82.0115 35.7214 81.6654 34.9269 80.7426 34.8924C80.2254 34.9199 79.4349 35.2376 79.1652 35.8595C79.2425 36.0664 79.3575 36.2742 79.3575 36.2742C79.7426 35.8246 80.2422 35.7903 80.2422 35.7903C80.8577 35.8246 81.1523 36.7572 81.8835 36.7915H81.9728C82.6152 36.7915 83.2889 36.2294 83.598 35.8717C83.5892 35.9759 83.5785 36.0948 83.5667 36.2397C83.5794 36.6414 82.4977 39.8886 78.2418 39.1412Z" fill="#282828"/>
<path fill-rule="evenodd" clip-rule="evenodd" d="M73.8883 43.9824C73.8883 44.2737 73.6515 44.511 73.3601 44.511C73.0666 44.511 72.8306 44.2737 72.8306 43.9824C72.8306 43.6905 73.0666 43.4533 73.3601 43.4533C73.6515 43.4533 73.8883 43.6905 73.8883 43.9824Z" fill="#282828"/>
<path fill-rule="evenodd" clip-rule="evenodd" d="M88.1684 43.9824C88.1684 44.2737 87.9311 44.511 87.6393 44.511C87.347 44.511 87.1106 44.2737 87.1106 43.9824C87.1106 43.6905 87.347 43.4533 87.6393 43.4533C87.9311 43.4533 88.1684 43.6905 88.1684 43.9824Z" fill="#282828"/>
<path fill-rule="evenodd" clip-rule="evenodd" d="M93.561 33.2125C93.3982 33.3926 93.2393 33.591 93.1328 33.8039C93.0159 34.0392 92.9688 34.2997 92.9401 34.5576C92.9061 34.881 92.9594 35.1994 92.9401 35.52C93.189 35.2834 93.3763 35.0086 93.5563 34.7214C93.6447 34.5808 93.735 34.4416 93.7817 34.2819C93.8338 34.1044 93.8427 33.9425 93.8329 33.7596C93.829 33.683 93.8155 33.5926 93.8252 33.5154C93.8394 33.4149 93.9125 33.327 93.9296 33.2226C93.9468 33.1065 93.9347 32.9845 93.9862 32.8755C93.8374 32.9209 93.7228 33.037 93.6213 33.1475C93.6003 33.1683 93.5805 33.19 93.561 33.2125Z" fill="#282828"/>
<path fill-rule="evenodd" clip-rule="evenodd" d="M67.4384 33.2125C67.6006 33.3926 67.76 33.591 67.8666 33.8039C67.9842 34.0392 68.0304 34.2997 68.0589 34.5576C68.0933 34.881 68.04 35.1994 68.0589 35.52C67.8121 35.2834 67.6223 35.0086 67.4419 34.7214C67.3542 34.5808 67.263 34.4416 67.2168 34.2819C67.1655 34.1044 67.1555 33.9425 67.1655 33.7596C67.1699 33.683 67.1833 33.5926 67.1732 33.5154C67.1596 33.4149 67.0865 33.327 67.0689 33.2226C67.0521 33.1065 67.0636 32.9845 67.0129 32.8755C67.1614 32.9209 67.276 33.037 67.3773 33.1475C67.3983 33.1683 67.4185 33.19 67.4384 33.2125Z" fill="#282828"/>
<path fill-rule="evenodd" clip-rule="evenodd" d="M93.877 36.4411C93.8519 36.6263 93.7902 36.8061 93.6969 36.9605C93.6435 37.0478 93.5908 37.1328 93.5303 37.2125C93.4611 37.3037 93.3658 37.3657 93.281 37.4359C93.2192 37.487 93.1553 37.516 93.0851 37.5475C93.0312 37.5712 92.981 37.62 92.9285 37.6355C92.9466 37.5705 92.9443 37.5047 92.9496 37.4381C92.9582 37.3471 92.9828 37.264 92.9942 37.1752C93.0138 37.0146 93.0473 36.8705 93.1039 36.7228C93.1583 36.5756 93.2081 36.4313 93.2828 36.2994C93.3586 36.1648 93.4532 36.0514 93.5476 35.9369C93.6191 35.8515 93.7011 35.7717 93.7899 35.7097C93.8714 35.6557 93.9296 35.6096 93.9862 35.52C93.9154 35.6308 93.9338 35.8515 93.9275 35.9789C93.9209 36.1296 93.8975 36.2899 93.877 36.4411Z" fill="#282828"/>
<path fill-rule="evenodd" clip-rule="evenodd" d="M67.1226 36.4411C67.1473 36.6263 67.2088 36.8061 67.3026 36.9605C67.3554 37.0478 67.4084 37.1328 67.4685 37.2125C67.538 37.3037 67.6333 37.3657 67.7183 37.4359C67.7805 37.487 67.8432 37.516 67.9141 37.5475C67.9675 37.5712 68.018 37.62 68.0707 37.6355C68.0521 37.5705 68.0551 37.5047 68.0495 37.4381C68.0408 37.3471 68.0159 37.264 68.0045 37.1752C67.9855 37.0146 67.9517 36.8705 67.896 36.7228C67.8407 36.5756 67.791 36.4313 67.7169 36.2994C67.6405 36.1648 67.5459 36.0514 67.4518 35.9369C67.3803 35.8515 67.2983 35.7717 67.2093 35.7097C67.128 35.6557 67.0703 35.6096 67.0129 35.52C67.0838 35.6308 67.0653 35.8515 67.0708 35.9789C67.0785 36.1296 67.1029 36.2899 67.1226 36.4411Z" fill="#282828"/>
<path fill-rule="evenodd" clip-rule="evenodd" d="M90.1798 42.3844C90.2113 42.0925 90.3005 41.8104 90.2814 41.5074C90.2603 41.1724 90.0945 40.8869 90.0548 40.5602C90.0439 40.47 90.0402 40.3668 90.0669 40.28C90.0301 40.3048 89.975 40.3865 89.9485 40.4318C89.9117 40.4942 89.8812 40.566 89.8563 40.6388C89.8126 40.7631 89.7942 40.9124 89.7773 41.0482C89.7426 41.3325 89.7432 41.6852 89.8185 41.9559C89.8727 42.1498 90.005 42.4038 90.1823 42.3953C90.1827 42.3356 90.2002 42.2798 90.2029 42.2191L90.1798 42.3844Z" fill="#282828"/>
<path fill-rule="evenodd" clip-rule="evenodd" d="M70.8201 42.3844C70.7886 42.0925 70.699 41.8104 70.7183 41.5074C70.7387 41.1724 70.9046 40.8869 70.9445 40.5602C70.9555 40.47 70.9593 40.3668 70.9327 40.28C70.9689 40.3048 71.0244 40.3865 71.0509 40.4318C71.0879 40.4942 71.1185 40.566 71.1436 40.6388C71.1867 40.7631 71.2055 40.9124 71.2221 41.0482C71.2571 41.3325 71.2564 41.6852 71.1808 41.9559C71.1272 42.1498 70.9946 42.4038 70.8168 42.3953C70.8162 42.3356 70.7991 42.2798 70.7966 42.2191L70.8201 42.3844Z" fill="#282828"/>
<path fill-rule="evenodd" clip-rule="evenodd" d="M88.7495 43.3588C88.7909 43.5469 88.8514 43.711 88.9315 43.8606C88.9519 43.8974 88.9716 43.935 88.9802 43.9822C88.9918 43.9368 88.9875 43.8776 88.9989 43.8264C89.0204 43.7335 89.0702 43.6357 89.1055 43.5562C89.174 43.402 89.2086 43.2014 89.2197 43.0141C89.2332 42.7951 89.227 42.5847 89.2009 42.3681C89.1762 42.1616 89.1236 41.9875 89.0724 41.7964C89.033 41.6483 89.0129 41.4872 88.9882 41.3377C88.9604 41.4889 88.9037 41.6262 88.8634 41.7725C88.8196 41.936 88.787 42.1014 88.755 42.2706C88.688 42.627 88.6719 43.0024 88.7495 43.3588Z" fill="#282828"/>
<path fill-rule="evenodd" clip-rule="evenodd" d="M72.2503 43.3588C72.2091 43.5469 72.1484 43.711 72.0682 43.8606C72.0479 43.8974 72.0277 43.935 72.0205 43.9822C72.0085 43.9368 72.0128 43.8776 72.0016 43.8264C71.9798 43.7335 71.93 43.6357 71.8941 43.5562C71.8259 43.402 71.7912 43.2014 71.78 43.0141C71.7667 42.7951 71.7729 42.5847 71.799 42.3681C71.8236 42.1616 71.8762 41.9875 71.9274 41.7964C71.9665 41.6483 71.9868 41.4872 72.0119 41.3377C72.0397 41.4889 72.096 41.6262 72.1365 41.7725C72.1805 41.936 72.213 42.1014 72.2445 42.2706C72.3117 42.627 72.3281 43.0024 72.2503 43.3588Z" fill="#282828"/>
<path fill-rule="evenodd" clip-rule="evenodd" d="M92.4681 36.6227C92.4681 35.9114 92.4235 35.2394 92.3454 34.6075C92.0947 34.7246 91.7132 34.5976 91.5316 34.4269C91.399 34.3017 91.3285 34.1369 91.2734 33.9667C91.2236 33.8101 91.1862 33.6486 91.1528 33.4892C91.1297 33.3755 91.0443 33.1633 91.1102 33.054C91.2011 33.1194 91.2772 33.2053 91.3649 33.2762C91.48 33.3712 91.5969 33.4588 91.7106 33.5559C91.8228 33.6502 91.9414 33.7349 92.0475 33.837C92.1076 33.8942 92.1941 33.9535 92.2623 34.0198C92.1935 33.5999 92.1108 33.2006 92.0178 32.8212C91.9889 32.8195 91.9595 32.8167 91.9426 32.8132C91.5473 32.7423 91.1941 32.4853 90.9519 32.1881C90.826 32.0361 90.7006 31.8646 90.6292 31.6834C90.5995 31.6099 90.578 31.5291 90.5546 31.4518C90.5368 31.3916 90.4896 31.2827 90.4989 31.226C90.6165 31.2737 90.7388 31.3535 90.8531 31.4154C91.0207 31.5032 91.1897 31.5912 91.3424 31.6985C91.4605 31.78 91.5707 31.8558 91.6776 31.9494C91.7042 31.9731 91.756 32.005 91.8044 32.0408C91.1402 29.848 90.1621 28.4534 89.7793 27.9632C89.7613 27.9574 89.5051 27.7522 89.4663 27.7241C89.2935 27.5986 89.0871 27.5206 88.8919 27.4212C88.7379 27.3435 88.5966 27.2698 88.4759 27.148C88.3658 27.035 88.2859 26.9015 88.1847 26.7839C87.983 26.549 87.8604 26.2793 87.7487 26C87.9467 26.1351 88.1742 26.2451 88.4051 26.3367C88.6196 26.4226 88.8397 26.5018 89.0364 26.6156C89.2325 26.7284 89.3943 26.8619 89.55 27.0218C89.6747 27.1499 89.7682 27.2956 89.8341 27.4596C89.8648 27.5352 89.9449 27.7297 89.9542 27.7539C90.3692 28.3013 92.7901 31.6994 92.7901 36.5333C92.7901 38.0547 92.3914 39.4192 91.7948 40.6082C91.979 40.3963 92.2786 40.2696 92.5436 40.1905C92.6899 40.1468 92.8351 40.1223 92.9799 40.0842C93.1367 40.043 93.2967 39.9976 93.4576 39.9667C93.3897 39.9793 93.3323 40.0593 93.2956 40.1057C93.2264 40.1892 93.1568 40.2707 93.0906 40.3564C92.9018 40.6051 92.7855 40.8997 92.5709 41.134C92.45 41.2677 92.283 41.3827 92.1082 41.4528C91.9872 41.5007 91.779 41.532 91.6564 41.4722C91.5072 41.3991 91.4999 41.2384 91.5451 41.0757C91.2754 41.5525 90.9781 41.9972 90.6648 42.412C90.7895 42.3432 90.9344 42.3008 91.0746 42.2761C91.3119 42.2347 91.5532 42.2295 91.7922 42.2161C92.0259 42.2013 92.2512 42.1522 92.4821 42.1201C92.2821 42.2854 92.093 42.4964 91.9204 42.6878C91.8105 42.8092 91.6669 42.8933 91.5316 42.9877C91.4004 43.0802 91.25 43.1603 91.0945 43.209C90.9338 43.2596 90.677 43.308 90.5211 43.2252C90.3853 43.1547 90.318 42.9766 90.3404 42.8362C90.3407 42.8303 90.3425 42.8239 90.3442 42.8181C88.6071 44.9331 86.582 46.0977 86.582 46.0977V45.3483C86.582 45.3483 92.4681 41.8662 92.4681 36.6227Z" fill="#282828"/>
<path fill-rule="evenodd" clip-rule="evenodd" d="M68.531 36.6227C68.531 35.9114 68.577 35.2394 68.6546 34.6075C68.9047 34.7246 69.2862 34.5976 69.4675 34.4269C69.6007 34.3017 69.6719 34.1369 69.7255 33.9667C69.7762 33.8101 69.8138 33.6486 69.8467 33.4892C69.8709 33.3755 69.9552 33.1633 69.8887 33.054C69.7989 33.1194 69.7223 33.2053 69.6345 33.2762C69.52 33.3712 69.4022 33.4588 69.2891 33.5559C69.1766 33.6502 69.0588 33.7349 68.9522 33.837C68.8921 33.8942 68.8055 33.9535 68.7379 34.0198C68.8067 33.5999 68.8889 33.2006 68.981 32.8212C69.0113 32.8195 69.0402 32.8167 69.0568 32.8132C69.4532 32.7423 69.8051 32.4853 70.0476 32.1881C70.1733 32.0361 70.2989 31.8646 70.3702 31.6834C70.3996 31.6099 70.4216 31.5291 70.4443 31.4518C70.4629 31.3916 70.5104 31.2827 70.5014 31.226C70.3839 31.2737 70.2612 31.3535 70.1458 31.4154C69.9791 31.5032 69.8103 31.5912 69.657 31.6985C69.5387 31.78 69.4302 31.8558 69.3217 31.9494C69.2952 31.9731 69.2445 32.005 69.1946 32.0408C69.8592 29.848 70.8369 28.4534 71.2196 27.9632C71.2383 27.9574 71.4953 27.7522 71.5332 27.7241C71.7073 27.5986 71.9128 27.5206 72.1081 27.4212C72.2614 27.3435 72.4031 27.2698 72.524 27.148C72.6345 27.035 72.7132 26.9015 72.8141 26.7839C73.0172 26.549 73.1402 26.2793 73.251 26C73.0531 26.1351 72.8254 26.2451 72.5952 26.3367C72.3803 26.4226 72.1608 26.5018 71.9635 26.6156C71.7673 26.7284 71.6052 26.8619 71.4496 27.0218C71.3254 27.1499 71.2313 27.2956 71.1655 27.4596C71.1354 27.5352 71.0552 27.7297 71.0459 27.7539C70.6302 28.3013 68.2095 31.6994 68.2095 36.5333C68.2095 38.0547 68.6085 39.4192 69.2049 40.6082C69.021 40.3963 68.7214 40.2696 68.4558 40.1905C68.3097 40.1468 68.1651 40.1223 68.0194 40.0842C67.8623 40.043 67.7032 39.9976 67.542 39.9667C67.6088 39.9793 67.6681 40.0593 67.7046 40.1057C67.7728 40.1892 67.8434 40.2707 67.9095 40.3564C68.0987 40.6051 68.2145 40.8997 68.4284 41.134C68.5499 41.2677 68.7166 41.3827 68.891 41.4528C69.0131 41.5007 69.2221 41.532 69.3422 41.4722C69.4929 41.3991 69.5008 41.2384 69.4544 41.0757C69.7235 41.5525 70.0219 41.9972 70.3347 42.412C70.2108 42.3432 70.0648 42.3008 69.9243 42.2761C69.6879 42.2347 69.4459 42.2295 69.2072 42.2161C68.974 42.2013 68.7484 42.1522 68.5181 42.1201C68.7186 42.2854 68.9055 42.4964 69.0798 42.6878C69.1894 42.8092 69.3326 42.8933 69.4675 42.9877C69.6001 43.0802 69.7493 43.1603 69.9053 43.209C70.0659 43.2596 70.3227 43.308 70.4787 43.2252C70.6145 43.1547 70.6812 42.9766 70.6591 42.8362C70.6589 42.8303 70.6577 42.8239 70.6562 42.8181C72.3928 44.9331 74.4175 46.0977 74.4175 46.0977V45.3483C74.4175 45.3483 68.5309 41.8662 68.5309 36.6227H68.531Z" fill="#282828"/>
<path fill-rule="evenodd" clip-rule="evenodd" d="M91.1092 29.6987C91.0066 29.7362 90.9743 29.4592 90.944 29.4038C90.8558 29.2485 90.713 29.1328 90.6259 28.9827C90.4683 28.7112 90.3416 28.3416 90.3102 28.026C90.2923 27.8613 90.2775 27.7 90.2868 27.54C90.2946 27.3908 90.2709 27.1797 90.4049 27.0753C90.5151 26.9891 90.6002 27.2439 90.6388 27.3309C90.7087 27.4843 90.7668 27.6497 90.8566 27.7985C90.9489 27.9515 91.0597 28.085 91.1363 28.2488C91.2158 28.4192 91.2772 28.6051 91.3128 28.7884C91.3484 28.9631 91.356 29.13 91.3076 29.3025C91.2808 29.3979 91.2201 29.66 91.1092 29.6987Z" fill="#282828"/>
<path fill-rule="evenodd" clip-rule="evenodd" d="M69.8884 29.6987C69.9915 29.7362 70.0245 29.4592 70.0549 29.4038C70.1422 29.2485 70.2863 29.1328 70.3729 28.9827C70.5312 28.7112 70.6571 28.3416 70.6888 28.026C70.7046 27.8613 70.7214 27.7 70.7125 27.54C70.7036 27.3908 70.727 27.1797 70.5935 27.0753C70.484 26.9891 70.3977 27.2439 70.3588 27.3309C70.2905 27.4843 70.2315 27.6497 70.1416 27.7985C70.0492 27.9515 69.9391 28.085 69.8633 28.2488C69.7832 28.4192 69.7226 28.6051 69.686 28.7884C69.65 28.9631 69.6434 29.13 69.6915 29.3025C69.7173 29.3979 69.7783 29.66 69.8884 29.6987Z" fill="#282828"/>
<path fill-rule="evenodd" clip-rule="evenodd" d="M88.6978 28.1165C88.8038 28.106 88.9807 28.1836 89.0864 28.2193C89.2719 28.2805 89.4512 28.3393 89.6261 28.4271C89.7726 28.5024 89.9087 28.5994 90.019 28.7255C90.1176 28.8373 90.2466 29.0149 90.2844 29.1632C90.1802 29.1887 90.0714 29.1581 89.9664 29.1581C89.8522 29.1585 89.743 29.1295 89.6373 29.0836C89.4935 29.0228 89.3742 28.9118 89.2619 28.8017C89.0488 28.5965 88.8693 28.3546 88.6978 28.1165Z" fill="#282828"/>
<path fill-rule="evenodd" clip-rule="evenodd" d="M72.3022 28.1165C72.1956 28.106 72.0191 28.1836 71.9129 28.2193C71.7269 28.2805 71.5491 28.3393 71.3737 28.4271C71.2268 28.5024 71.0916 28.5994 70.9811 28.7255C70.8828 28.8373 70.7541 29.0149 70.7156 29.1632C70.8205 29.1887 70.9296 29.1581 71.0331 29.1581C71.1481 29.1585 71.2567 29.1295 71.3629 29.0836C71.5071 29.0228 71.6257 28.9118 71.7393 28.8017C71.9501 28.5965 72.1309 28.3546 72.3022 28.1165Z" fill="#282828"/>
<path fill-rule="evenodd" clip-rule="evenodd" d="M90.6986 30.0653C91.0054 30.2213 91.2114 30.4423 91.3418 30.6975C91.2385 30.7356 91.1287 30.7615 91.0112 30.7599C90.6728 30.7561 90.3937 30.5742 90.2033 30.3848C90.0932 30.2746 90.0197 30.1479 89.9385 30.0256C89.8721 29.9242 89.8 29.8081 89.7551 29.7022C89.9065 29.7482 90.0506 29.8101 90.2018 29.8613C90.3688 29.9174 90.5461 29.9876 90.6986 30.0653Z" fill="#282828"/>
<path fill-rule="evenodd" clip-rule="evenodd" d="M70.3018 30.0653C69.9931 30.2213 69.7872 30.4423 69.6572 30.6975C69.7607 30.7356 69.8714 30.7615 69.9879 30.7599C70.3255 30.7561 70.6054 30.5742 70.7951 30.3848C70.9051 30.2746 70.9789 30.1479 71.0596 30.0256C71.1276 29.9242 71.199 29.8081 71.2439 29.7022C71.0912 29.7482 70.948 29.8101 70.7965 29.8613C70.629 29.9174 70.4524 29.9876 70.3018 30.0653Z" fill="#282828"/>
<path fill-rule="evenodd" clip-rule="evenodd" d="M92.286 31.0114C92.2525 31.0981 92.215 31.229 92.1528 31.2762C92.0625 31.3429 91.9924 31.1296 91.9619 31.0266C91.9104 30.8559 91.8916 30.6799 91.8766 30.4968C91.8643 30.3479 91.8724 30.1743 91.8818 30.0247C91.8926 29.8527 91.8964 29.6834 91.922 29.5151C91.9474 29.3468 91.9826 29.1785 92.017 29.014C92.0311 28.9454 92.0473 28.8781 92.0605 28.8093C92.0715 28.7526 92.0679 28.693 92.0908 28.6444C92.1394 28.7604 92.1629 28.9224 92.2014 29.0519C92.2459 29.1987 92.295 29.3434 92.323 29.4969C92.3846 29.838 92.424 30.1774 92.3815 30.531C92.3604 30.7032 92.3447 30.8591 92.286 31.0114Z" fill="#282828"/>
<path fill-rule="evenodd" clip-rule="evenodd" d="M68.7132 31.0114C68.747 31.0981 68.7845 31.229 68.8466 31.2762C68.9363 31.3429 69.0066 31.1296 69.0371 31.0266C69.0884 30.8559 69.1072 30.6799 69.1224 30.4968C69.135 30.3479 69.1265 30.1743 69.1174 30.0247C69.107 29.8527 69.1023 29.6834 69.0768 29.5151C69.0518 29.3468 69.0164 29.1785 68.9818 29.014C68.9672 28.9454 68.9521 28.8781 68.9386 28.8093C68.9275 28.7526 68.931 28.693 68.9082 28.6444C68.8595 28.7604 68.8362 28.9224 68.7979 29.0519C68.7541 29.1987 68.7039 29.3434 68.6761 29.4969C68.6143 29.838 68.5751 30.1774 68.6177 30.531C68.6382 30.7032 68.654 30.8591 68.7132 31.0114Z" fill="#282828"/>
<path fill-rule="evenodd" clip-rule="evenodd" d="M93.3495 32.2955C93.2705 32.5468 93.1435 32.7641 92.9876 32.9929C92.8828 33.1475 92.707 33.2679 92.5715 33.4044C92.5741 33.2946 92.4783 33.1591 92.4507 33.0482C92.4311 32.9787 92.4189 32.91 92.4145 32.8406C92.4086 32.7472 92.4031 32.6566 92.4008 32.5655C92.3931 32.2653 92.4212 31.9762 92.5733 31.6808C92.6576 31.5156 92.7742 31.372 92.8879 31.2194C92.9571 31.1291 93.0142 31.0369 93.0974 30.952C93.1317 30.9161 93.2827 30.7658 93.3363 30.7603C93.4064 30.7513 93.4187 30.9191 93.4261 30.9648C93.4608 31.1519 93.4573 31.3406 93.4573 31.5278C93.4573 31.7855 93.4271 32.0441 93.3495 32.2955Z" fill="#282828"/>
<path fill-rule="evenodd" clip-rule="evenodd" d="M67.6497 32.2955C67.7277 32.5468 67.8553 32.7641 68.0116 32.9929C68.1169 33.1475 68.2912 33.2679 68.4274 33.4044C68.4251 33.2946 68.5207 33.1591 68.5493 33.0482C68.5666 32.9787 68.5799 32.91 68.5854 32.8406C68.5907 32.7472 68.5965 32.6566 68.5988 32.5655C68.6058 32.2653 68.5781 31.9762 68.4267 31.6808C68.3413 31.5156 68.2255 31.372 68.1109 31.2194C68.0429 31.1291 67.9843 31.0369 67.9026 30.952C67.8673 30.9161 67.7165 30.7658 67.6623 30.7603C67.5924 30.7513 67.5795 30.9191 67.5726 30.9648C67.5386 31.1519 67.5415 31.3406 67.5425 31.5278C67.5429 31.7855 67.5714 32.0441 67.6497 32.2955Z" fill="#282828"/>
<path fill-rule="evenodd" clip-rule="evenodd" d="M91.3815 35.9831C91.3442 35.8139 91.3455 35.6299 91.3442 35.4572C91.3432 35.3133 91.33 35.1234 91.3895 34.9911C91.4145 35.0449 91.4229 35.0976 91.4543 35.1489C91.5623 35.3241 91.7403 35.4727 91.8933 35.6106C92.0343 35.739 92.1444 35.8955 92.2234 36.0702C92.2993 36.237 92.3345 36.4136 92.3638 36.5939C92.3918 36.7667 92.4119 36.9329 92.3922 37.1066C92.2351 37.1108 92.0624 36.9163 91.9424 36.8342C91.6499 36.6334 91.4556 36.322 91.3815 35.9831Z" fill="#282828"/>
<path fill-rule="evenodd" clip-rule="evenodd" d="M69.6193 35.9831C69.6553 35.8139 69.6543 35.6299 69.6553 35.4572C69.6572 35.3133 69.6695 35.1234 69.6099 34.9911C69.5847 35.0449 69.577 35.0976 69.5461 35.1489C69.4375 35.3241 69.2597 35.4727 69.1061 35.6106C68.9657 35.739 68.856 35.8955 68.7768 36.0702C68.7009 36.237 68.6663 36.4136 68.6362 36.5939C68.6081 36.7667 68.588 36.9329 68.6078 37.1066C68.7647 37.1108 68.9374 36.9163 69.0579 36.8342C69.3503 36.6334 69.5442 36.322 69.6193 35.9831Z" fill="#282828"/>
<path fill-rule="evenodd" clip-rule="evenodd" d="M91.7742 38.6933C91.7019 38.6108 91.6179 38.5413 91.5585 38.4263C91.4222 38.1607 91.3718 37.8606 91.3461 37.5116C91.3345 37.3469 91.3521 37.1789 91.3608 37.0156C91.3684 36.8802 91.3561 36.7075 91.3756 36.5777C91.4249 36.7184 91.484 36.8419 91.553 36.9546C91.6365 37.0912 91.7195 37.2296 91.7742 37.4109C91.8159 37.5486 91.8486 37.6971 91.8602 37.8507C91.872 38.0021 91.8778 38.1607 91.8591 38.3121C91.8428 38.4486 91.8225 38.5796 91.7742 38.6933H91.7742Z" fill="#282828"/>
<path fill-rule="evenodd" clip-rule="evenodd" d="M69.2255 38.6933C69.2986 38.6108 69.382 38.5413 69.4413 38.4263C69.5777 38.1607 69.6282 37.8606 69.6537 37.5116C69.6654 37.3469 69.6475 37.1789 69.6391 37.0156C69.6319 36.8802 69.6442 36.7075 69.6246 36.5777C69.5753 36.7184 69.5161 36.8419 69.4464 36.9546C69.3632 37.0912 69.28 37.2296 69.2255 37.4109C69.1842 37.5486 69.1513 37.6971 69.1393 37.8507C69.1281 38.0021 69.1219 38.1607 69.1404 38.3121C69.1572 38.4486 69.1776 38.5796 69.2255 38.6933H69.2255Z" fill="#282828"/>
<path fill-rule="evenodd" clip-rule="evenodd" d="M92.8888 39.4991C92.7352 39.6039 92.5547 39.6532 92.3997 39.7511C92.4179 39.509 92.4948 39.2892 92.5991 39.0815C92.6787 38.9208 92.7752 38.7666 92.8716 38.6126C92.9746 38.4485 93.0941 38.2804 93.2385 38.1492C93.3737 38.0248 93.5174 37.9294 93.6575 37.8206C93.754 37.7469 93.8747 37.6801 93.9863 37.6355C93.9641 37.731 93.9062 37.8321 93.8798 37.9294C93.851 38.0346 93.8072 38.141 93.7647 38.2425C93.635 38.556 93.5397 38.8649 93.3115 39.1213C93.1852 39.2631 93.0452 39.3932 92.8888 39.4991Z" fill="#282828"/>
<path fill-rule="evenodd" clip-rule="evenodd" d="M68.1105 39.4991C68.2653 39.6039 68.4448 39.6532 68.5996 39.7511C68.5821 39.509 68.5056 39.2892 68.4012 39.0815C68.321 38.9208 68.2244 38.7666 68.1285 38.6126C68.0255 38.4485 67.9053 38.2804 67.7613 38.1492C67.6259 38.0248 67.4815 37.9294 67.3414 37.8206C67.2457 37.7469 67.1244 37.6801 67.0129 37.6355C67.0347 37.731 67.0941 37.8321 67.1196 37.9294C67.1469 38.0346 67.1925 38.141 67.2341 38.2425C67.3642 38.556 67.4602 38.8649 67.6881 39.1213C67.8139 39.2631 67.9543 39.3932 68.1105 39.4991Z" fill="#282828"/>
<path fill-rule="evenodd" clip-rule="evenodd" d="M91.248 40.6809C91.2042 40.8528 91.1116 40.8301 91.005 40.7379C90.9162 40.6604 90.8757 40.5765 90.854 40.4479C90.8304 40.3137 90.8272 40.1859 90.8229 40.0463C90.8171 39.8956 90.8076 39.7327 90.8184 39.5831C90.8299 39.4309 90.8473 39.2766 90.854 39.1257C90.8595 38.9916 90.843 38.8216 90.8763 38.6933C90.8955 38.7645 90.9444 38.8279 90.982 38.886C91.0435 38.9823 91.0861 39.0865 91.136 39.192C91.268 39.4714 91.3424 39.7491 91.3424 40.0728C91.3424 40.2224 91.3372 40.3642 91.3016 40.5079C91.2858 40.5684 91.2626 40.6211 91.248 40.6809Z" fill="#282828"/>
<path fill-rule="evenodd" clip-rule="evenodd" d="M69.7523 40.6809C69.7953 40.8528 69.8884 40.8301 69.9947 40.7379C70.0833 40.6604 70.1247 40.5765 70.1461 40.4479C70.1695 40.3137 70.1725 40.1859 70.1768 40.0463C70.1821 39.8956 70.1923 39.7327 70.181 39.5831C70.1698 39.4309 70.1526 39.2766 70.1461 39.1257C70.14 38.9916 70.1561 38.8216 70.1238 38.6933C70.104 38.7645 70.0555 38.8279 70.0172 38.886C69.9567 38.9823 69.9136 39.0865 69.8634 39.192C69.7311 39.4714 69.6572 39.7491 69.6572 40.0728C69.6572 40.2224 69.6629 40.3642 69.6985 40.5079C69.7135 40.5684 69.7375 40.6211 69.7523 40.6809Z" fill="#282828"/>
<path fill-rule="evenodd" clip-rule="evenodd" d="M90.1086 44.0372C90.5225 44.0089 90.9329 44.048 91.3421 43.9822C91.259 44.054 91.2227 44.1893 91.1381 44.2579C91.0378 44.3409 90.9453 44.4438 90.8434 44.5295C90.6604 44.6822 90.4757 44.8333 90.2719 44.9254C90.0963 45.0042 89.8997 45.0358 89.7159 45.0399C89.5711 45.0425 89.3576 44.9629 89.2687 44.7968C89.2011 44.6692 89.2205 44.5082 89.2864 44.3885C89.464 44.0638 89.8325 44.0559 90.1086 44.0372Z" fill="#282828"/>
<path fill-rule="evenodd" clip-rule="evenodd" d="M70.8909 44.0372C70.4776 44.0089 70.067 44.048 69.6572 43.9822C69.7402 44.054 69.7773 44.1893 69.8613 44.2579C69.9611 44.3409 70.0551 44.4438 70.1558 44.5295C70.3385 44.6822 70.5234 44.8333 70.7278 44.9254C70.9036 45.0042 71.1002 45.0358 71.2826 45.0399C71.4277 45.0425 71.642 44.9629 71.7306 44.7968C71.7987 44.6692 71.7782 44.5082 71.7126 44.3885C71.5351 44.0638 71.1669 44.0559 70.8909 44.0372Z" fill="#282828"/>
<path fill-rule="evenodd" clip-rule="evenodd" d="M89.2265 47.6844C89.2265 47.9764 88.9451 48.2133 88.5974 48.2133H72.4021C72.0548 48.2133 71.7732 47.9764 71.7732 47.6844C71.7732 47.3923 72.0548 47.1555 72.4021 47.1555H88.5974C88.9451 47.1555 89.2265 47.3923 89.2265 47.6844Z" fill="#282828"/>
<path fill-rule="evenodd" clip-rule="evenodd" d="M88.169 49.271C88.169 49.5631 87.9303 49.7999 87.6353 49.7999H73.8937C73.599 49.7999 73.3601 49.5631 73.3601 49.271C73.3601 48.9789 73.599 48.7421 73.8937 48.7421H87.6353C87.9303 48.7421 88.169 48.9789 88.169 49.271Z" fill="#282828"/>
<path fill-rule="evenodd" clip-rule="evenodd" d="M75.4757 50.9627C75.4757 50.6127 75.2391 50.3288 74.9469 50.3288C74.6549 50.3288 74.418 50.6127 74.418 50.9627V52.9733H75.4757V50.9627Z" fill="#282828"/>
<path fill-rule="evenodd" clip-rule="evenodd" d="M77.591 50.9627C77.591 50.6127 77.3543 50.3288 77.0622 50.3288C76.7701 50.3288 76.5332 50.6127 76.5332 50.9627V52.9733H77.591V50.9627Z" fill="#282828"/>
<path fill-rule="evenodd" clip-rule="evenodd" d="M80.2353 50.9627C80.2353 50.6127 79.8804 50.3288 79.4423 50.3288C79.004 50.3288 78.6487 50.6127 78.6487 50.9627V52.9733H80.2353V50.9627Z" fill="#282828"/>
<path fill-rule="evenodd" clip-rule="evenodd" d="M82.3511 50.9627C82.3511 50.6127 81.996 50.3288 81.5579 50.3288C81.1198 50.3288 80.7644 50.6127 80.7644 50.9627V52.9733H82.3511V50.9627Z" fill="#282828"/>
<path fill-rule="evenodd" clip-rule="evenodd" d="M84.467 50.9627C84.467 50.6127 84.2302 50.3288 83.9383 50.3288C83.6459 50.3288 83.4092 50.6127 83.4092 50.9627V52.9733H84.467V50.9627Z" fill="#282828"/>
<path fill-rule="evenodd" clip-rule="evenodd" d="M86.5819 50.9627C86.5819 50.6127 86.3452 50.3288 86.0531 50.3288C85.7611 50.3288 85.5242 50.6127 85.5242 50.9627V52.9733H86.5819V50.9627Z" fill="#282828"/>
<path fill-rule="evenodd" clip-rule="evenodd" d="M30.5182 62.5045L30.5755 63.8686C30.3462 63.9269 30.1309 63.999 29.9016 64.0576C28.9986 64.3333 27.7229 64.6088 26.7772 64.6088C23.5806 64.6088 21 62.9257 21 59.3417C21 56.0479 23.4368 54.031 26.8772 54.031C28.1388 54.031 29.3998 54.3359 30.6042 54.6842C30.4609 55.4095 30.3749 56.1346 30.2889 56.8604H29.8731C29.8303 55.9314 30.0595 55.5976 29.2138 55.1773C28.626 54.8869 27.9381 54.6404 26.9058 54.6404C24.1532 54.6404 22.5338 56.4395 22.5338 59.0076C22.5338 61.9246 24.1966 63.9846 27.1497 63.9846C28.2534 63.9846 29.0561 63.767 29.1712 63.4044C29.2998 62.969 29.2138 61.3876 29.185 61.1552C29.1426 60.8509 28.5687 60.8651 27.551 60.8217V60.3864H31.0489V60.7492C30.3462 60.8651 30.4755 61.5758 30.5182 62.5045Z" fill="#282828"/>
</svg>
