<svg width="162" height="91" viewBox="0 0 162 91" fill="none" xmlns="http://www.w3.org/2000/svg">
<path d="M1 -0.5H0.5V0V90V90.5H1H81.5405H161H161.5V90V0V-0.5H161H1Z" fill="#F0E6DD" stroke="#BF794B"/>
<path fill-rule="evenodd" clip-rule="evenodd" d="M100.853 40.9256C100.693 41.16 100.492 40.9889 100.333 40.9256C100.356 41.5797 100.942 41.6908 100.853 40.9256Z" fill="#282828"/>
<path fill-rule="evenodd" clip-rule="evenodd" d="M58.9971 36.1281C59.2151 36.223 59.2969 36.5825 59.5602 36.5075C59.5763 36.5075 59.609 36.5468 59.609 36.5664C59.404 36.8312 59.1536 36.4721 59.0133 36.3021C58.9837 36.3176 58.9837 36.357 58.9675 36.3926C58.7952 36.3926 58.6973 36.6216 58.5513 36.6611C58.6326 36.4523 58.8118 36.2032 58.9971 36.1281Z" fill="#282828"/>
<path fill-rule="evenodd" clip-rule="evenodd" d="M58.7145 35.4478C58.7935 35.4835 58.9894 35.3312 58.8863 35.1581C58.8863 35.1184 58.8863 35.078 58.8962 35.0619C59.0012 35.0619 59.068 35.2148 59.0802 35.3871L58.7813 35.6767C58.6691 35.5599 58.6288 35.8896 58.6667 36.0463C58.681 36.1225 58.6457 36.1383 58.6118 36.1225C58.4755 35.9257 58.5956 35.5802 58.7145 35.4478Z" fill="#282828"/>
<path fill-rule="evenodd" clip-rule="evenodd" d="M58.965 35.797L58.8903 35.8376C58.7766 35.7304 58.6624 35.9444 58.5526 35.9668C58.5325 35.797 58.7415 35.7076 58.8156 35.6052C59.1142 35.5382 59.2285 35.8194 59.4363 35.9444L59.609 36.0116V36.0965C59.3623 36.2261 59.1538 35.9223 58.965 35.797Z" fill="#282828"/>
<path fill-rule="evenodd" clip-rule="evenodd" d="M58.0225 34.6698C58.1291 34.6386 58.2745 34.6226 58.3855 34.5312C58.4419 34.5181 58.4591 34.5624 58.4157 34.6098L58.4702 34.7742C58.4788 34.8975 58.583 34.9259 58.5417 35.062C58.4702 35.062 58.4591 34.9259 58.3966 34.8975C58.2681 34.9892 58.1378 34.8057 58.0268 34.7299L58.0225 34.6698ZM58.3657 34.7742L58.281 34.8217C58.2986 34.8658 58.4048 34.8343 58.3657 34.7742Z" fill="#282828"/>
<path fill-rule="evenodd" clip-rule="evenodd" d="M63.0379 43.4052C63.1849 43.3811 63.2369 43.5698 63.1115 43.6377C63.2889 43.7535 63.0854 43.9853 63.2628 44.0096L63.3885 43.5461C63.211 43.4052 63.2369 43.1257 63.462 43.0578C64.2942 43.241 63.4889 44.1255 63.5149 44.6088L63.3626 44.657L63.2628 44.5407C62.7079 44.5169 62.6344 43.661 63.0379 43.4052Z" fill="#282828"/>
<path fill-rule="evenodd" clip-rule="evenodd" d="M62.0895 45.8261C62.1605 45.8044 62.207 45.9072 62.2535 45.9556C62.207 46.0583 62.1851 46.1935 62.0895 46.256C61.9132 46.2615 61.7956 46.1236 61.7246 45.9556C61.7489 45.8694 61.8327 45.799 61.8913 45.7231C62.0305 45.7691 61.9601 45.9261 62.0183 46.0204C62.1851 46.048 61.9718 45.8503 62.0895 45.8261Z" fill="#282828"/>
<path fill-rule="evenodd" clip-rule="evenodd" d="M62.4052 44.1294C62.5568 44.1085 62.6831 44.15 62.6519 44.2087C62.8598 44.2296 62.7723 44.2793 62.7083 44.3295C62.5891 44.3588 62.5568 44.3003 62.5253 44.2793C62.4052 44.319 62.2536 44.2793 62.1908 44.3295L62.3163 44.4296C62.7407 44.2691 62.8922 44.5567 62.6195 44.657C62.2536 44.6485 62.013 44.5254 61.7406 44.44C61.6464 44.2793 61.9818 44.1607 62.4052 44.1294Z" fill="#282828"/>
<path fill-rule="evenodd" clip-rule="evenodd" d="M63.5145 45.7254C63.6718 45.6904 63.6601 46.0519 63.6157 46.2631L63.6718 46.2886C63.7283 46.2886 63.7075 46.0972 63.6955 46.0196C63.6955 45.9892 63.7166 45.9583 63.7283 45.9477C63.9449 46.0307 63.8083 46.7578 63.6391 46.7892C63.5709 46.7578 63.5146 46.6549 63.5024 46.4946C63.4363 46.5102 63.3683 46.5102 63.3118 46.4328C63.3 46.1073 63.4247 45.8915 63.5145 45.7254Z" fill="#282828"/>
<path fill-rule="evenodd" clip-rule="evenodd" d="M63.8398 42.5958L63.9319 42.5247C64.255 42.5247 64.487 42.8683 64.3044 43.0578C63.9984 43.0401 63.8825 42.7679 63.8398 42.5958Z" fill="#282828"/>
<path fill-rule="evenodd" clip-rule="evenodd" d="M63.3107 42.6699C63.1807 43.0018 62.7272 43.0744 62.3632 43.0549C62.0803 42.9287 62.4033 42.5971 62.6416 42.5971C62.7894 42.5247 62.857 42.6699 62.8794 42.7651C63.0954 42.7994 62.9022 42.6544 62.9429 42.5626L63.0507 42.5247H63.2031L63.3107 42.6699Z" fill="#282828"/>
<path fill-rule="evenodd" clip-rule="evenodd" d="M63.7302 41.9917C63.3516 41.9917 63.1371 41.5647 63.4914 41.4593C63.6894 41.4456 64.0068 41.6564 63.6519 41.6841C63.7677 41.7645 63.9647 41.9117 63.7302 41.9917Z" fill="#282828"/>
<path fill-rule="evenodd" clip-rule="evenodd" d="M46.6657 49.3907C47.004 49.2551 47.3628 49.1884 47.6729 48.9444C49.1659 46.9152 50.9398 44.5716 50.8502 41.9556C51.8945 39.1989 53.0982 36.442 54.9706 34.0624C55.0557 33.8429 54.8393 33.6443 54.9412 33.4088C55.1898 33.2106 55.4758 32.9915 55.798 32.9297C56.4342 33.1281 57.0386 33.4088 57.7522 33.2892C58.8817 32.425 58.6287 33.607 59.1999 34.0208C59.5505 34.8552 60.8838 35.5084 60.1589 36.4797C59.7462 36.8186 60.0604 37.4506 59.628 37.8474C59.0037 38.9013 58.1149 37.4136 57.9188 38.5626C58.5755 39.8723 60.2971 40.7652 61.7036 39.9718C62.0177 39.9924 62.2915 39.9924 62.5647 40.0714C62.9565 40.2486 63.3482 40.5046 63.7027 40.7652C65.1666 42.8815 67.5572 43.6334 69.3965 45.2453C69.7673 46.1175 69.8085 47.4029 69.0825 48.0972C68.0837 48.2703 68.4174 47.1592 68.5935 46.63C68.3979 45.0056 66.1667 44.0135 65.1302 43.7163C65.2077 44.8202 65.0691 46.014 66.1864 46.5558C66.1297 47.8245 66.6561 49.255 66.2233 50.474C65.2651 50.3247 63.2012 51.3787 63.3967 49.7042C63.9475 49.0727 65.2854 48.0103 63.8781 47.3372C62.626 47.4273 61.4311 46.6419 60.6475 45.8773C60.6072 46.1752 60.8229 46.4028 60.8027 46.688C59.2572 47.8989 59.8851 49.8286 59.1223 51.3253C58.1069 51.5316 56.8259 51.8419 55.896 51.2137C55.6833 50.552 56.3611 50.0566 56.4426 49.6058C56.2426 49.6591 56.047 49.7299 55.9368 49.5063C54.6114 49.9241 55.9734 47.4399 56.9484 48.3287C57.1156 47.688 57.1885 46.9732 57.0058 46.3158C56.6303 46.1051 56.3687 46.2497 56.2633 46.6835C56.2014 46.758 56.0834 46.7205 56.1122 46.6091C56.1122 46.3158 55.7083 47.4111 55.4231 47.655C55.2109 47.3616 55.7859 46.9152 55.2109 47.2249C55.8798 45.7622 53.9014 45.7496 53.0243 45.4648C52.0741 46.4233 51.5198 47.717 51.4086 49.044C51.1812 49.2129 50.8913 49.2997 50.6182 49.3495C50.0424 50.0522 48.9951 51.3043 48.1833 50.6144C47.9999 50.833 47.7545 50.7177 47.7216 50.9861C47.4733 50.5275 46.7513 50.6183 46.4693 50.6511C46.3028 50.23 46.3959 49.7461 46.6657 49.3907ZM69.2212 45.5801C69.1599 45.721 69.201 45.9108 69.3555 45.948C69.3965 45.8324 69.2582 45.6834 69.2212 45.5801ZM68.2017 45.1421C68.2791 44.985 68.4585 44.9397 68.6135 45.026C68.6709 45.1005 68.6912 45.1874 68.6709 45.2823C68.65 45.4024 68.5362 45.386 68.4585 45.4191C68.6338 45.7581 68.8093 46.0554 68.7889 46.4649C69.4741 46.5718 69.2374 47.597 68.6709 47.7043C68.7323 47.7915 68.7889 47.8861 68.8666 47.9317C68.9643 47.9933 69.025 47.9113 69.1032 47.874C69.2987 47.3821 69.5148 46.8366 69.4539 46.2789L69.0825 46.2249C69.0053 46.1878 68.9475 46.1389 68.9076 46.0474L68.9279 45.5971C68.9643 45.4811 69.1234 45.5432 69.201 45.514C69.0053 45.1629 68.7115 44.7375 68.2994 44.6462L67.965 44.8777L68.2017 45.1421ZM68.6709 47.258C68.7889 47.2411 69.0053 47.0969 68.8868 46.9693C68.8093 47.0556 68.6709 47.1091 68.6709 47.258ZM67.3818 44.4476V44.1296L66.6758 43.8319L66.615 44.0509L67.3818 44.4476ZM65.9335 43.4557C66.0109 43.4557 66.0683 43.4972 66.1463 43.4763C65.9136 43.2574 65.6973 43.0591 65.4236 42.9227C65.4035 43.0014 65.4606 43.0591 65.5017 43.1376C65.4809 43.2202 65.4445 43.3198 65.4035 43.3773C65.5585 43.4763 65.775 43.6951 65.9335 43.4557ZM51.6134 40.6248C51.5925 40.6868 51.5521 40.7449 51.5561 40.8025C51.7072 40.7815 51.8294 40.7033 51.8009 40.5257H51.7436C51.7321 40.6043 51.6951 40.6455 51.6134 40.6248ZM52.6047 38.4426C52.4982 38.5209 52.3923 38.703 52.3511 38.8391L52.4942 38.6618C52.6404 38.7606 52.6121 38.5626 52.6047 38.4426ZM56.8055 33.3965V33.4374C56.9073 33.4583 56.8096 33.6155 56.9363 33.6361C56.8991 33.5369 56.981 33.3594 56.8055 33.3965ZM58.4372 33.1897C58.4616 33.3055 58.2661 33.5248 58.4737 33.5658C58.5026 33.504 58.4986 33.4088 58.5878 33.3884C58.5715 33.2892 58.5141 33.2268 58.4372 33.1897ZM64.8937 42.5056C64.8937 42.6045 64.951 42.7036 65.0691 42.6832L64.8937 42.5056ZM64.8369 50.4365L65.0325 50.0644C65.2077 50.0806 64.992 50.3701 65.1465 50.4156C65.4809 50.1264 65.3628 49.5852 65.4035 49.1923C65.3056 49.1097 65.1875 49.0846 65.0691 49.0885C64.6778 49.3414 64.584 50.0725 64.8369 50.4365ZM64.0337 49.2296C63.7398 49.366 63.4864 49.8208 63.7595 50.06L63.7398 50.4117C63.7802 50.4365 63.7965 50.4573 63.8375 50.4573L63.8944 50.4117C63.8174 50.0191 63.8781 49.5723 64.1101 49.2503L64.0337 49.2296ZM64.0124 50.3907C64.0337 50.4198 64.0697 50.4446 64.1101 50.453C64.1923 50.3538 64.0697 50.1227 64.2086 50.1017L64.3879 50.1636L64.3474 50.474C64.8166 50.3985 64.2862 49.7214 64.5997 49.461L64.6609 49.3078C64.6609 49.2625 64.6778 49.1884 64.5997 49.2088C64.0697 49.2791 63.9921 49.9652 64.0124 50.3907ZM60.1788 44.9064C60.1008 45.2203 60.2357 45.5018 60.5701 45.4148C60.4723 45.1421 60.7251 44.2122 60.3745 44.6256C60.2971 44.6462 60.2564 44.5886 60.2154 44.5262C60.1177 44.2702 60.3907 43.8939 60.6275 44.1129C60.7049 43.5385 60.9983 43.1006 61.2922 42.6832C61.6839 42.6045 62.1728 43.0798 62.0555 43.5549C61.9571 43.7367 61.7813 43.7743 61.5862 43.7743C61.4103 43.5549 61.9975 43.3982 61.6471 43.1581C61.4677 43.121 61.5287 43.3569 61.4311 43.4149C60.8431 43.2202 60.864 44.0925 61.0962 44.5058C60.1951 45.9727 62.6051 47.436 63.9764 46.9693C64.3266 47.0308 64.698 47.0764 65.0325 47.2501C65.0325 47.3407 65.0521 47.4235 65.0898 47.4978C64.951 47.6673 64.8369 47.3245 64.6778 47.3491C64.8369 47.8903 64.6778 48.4605 64.8166 49.0022C65.0691 48.9158 65.4809 48.8869 65.5996 49.1842C65.775 49.0476 66.0886 49.1962 66.0272 49.4486C65.5585 49.126 65.5585 49.9898 65.5585 50.3207C65.6765 50.5728 65.8315 49.9407 65.9706 50.3701C66.3049 49.8874 66.2072 49.1181 66.1297 48.5392C66.0479 48.614 66.1463 48.7958 66.0272 48.8488C65.9706 48.8697 65.9507 48.8121 65.9335 48.771C65.8315 48.056 66.1463 47.3781 66.0109 46.6756C65.5221 46.4815 64.971 46.2708 64.951 45.6381C64.8565 43.8734 64.8166 41.8152 63.2704 40.8025C63.193 40.9225 63.054 40.9429 62.9193 40.9021C62.8216 40.6455 62.6833 40.4883 62.3691 40.4677C62.2915 40.6663 62.2342 41.0427 61.9571 41.0629C61.6631 40.9021 61.1937 40.7242 61.3737 40.3684C60.8027 40.4677 60.2357 40.9225 59.6691 40.4677C59.8641 40.9801 59.9828 41.5175 60.0604 42.0717C60.3334 41.993 60.6475 42.1127 60.7251 42.4062C60.7251 42.6832 60.4521 43.0426 60.1589 42.8815C60.0604 43.278 60.2564 43.3773 60.4114 43.5968C60.0192 43.8939 60.1788 44.4476 60.1788 44.9064ZM58.6692 51.2137L58.7514 50.9983C58.7879 50.9861 58.8285 50.9861 58.8446 51.0193C58.8087 51.1346 58.947 51.2302 59.024 51.1268C59.024 50.8912 59.1796 50.7013 59.1223 50.4611L58.9835 50.474C58.9632 50.4072 58.9632 50.304 58.8655 50.3207C58.4986 50.3864 58.6531 50.829 58.5923 51.1098C58.6079 51.1514 58.6287 51.197 58.6692 51.2137ZM57.8697 51.3827C57.8251 51.2343 57.8372 51.044 57.9685 50.9324C58.1555 50.9944 58.0375 51.255 58.111 51.3827C58.2005 51.3664 58.2823 51.2918 58.3511 51.2257C58.2863 50.8704 58.5432 50.2876 58.0455 50.1227C58.0334 50.1597 57.9969 50.1757 57.964 50.1925C57.4866 50.304 57.637 50.8826 57.5272 51.2464C57.6624 51.2257 57.7354 51.4036 57.8697 51.3827ZM56.9895 51.3043C56.9681 51.1888 56.9323 51.003 57.0706 50.9324C57.2215 50.9738 57.152 51.193 57.206 51.2918L57.3396 51.184L57.4785 50.1636C57.4131 50.1017 57.3355 50.0391 57.246 50.0391C56.8096 50.2748 56.8507 50.8084 56.842 51.2464L56.9895 51.3043ZM56.1163 51.1268C56.2014 51.0563 56.1649 50.8664 56.3079 50.8539C56.467 50.9399 56.2223 51.4569 56.5566 51.3043L56.6141 50.304C56.5729 50.2505 56.5041 50.2333 56.4426 50.2175C56.1082 50.3662 56.1244 50.8205 56.1163 51.1268ZM56.21 48.4156C55.8798 48.4939 55.6634 48.8289 55.7242 49.1842L55.9167 49.2671C55.9821 48.9859 56.1326 48.7044 56.2674 48.4368C56.2633 48.4028 56.2263 48.4196 56.21 48.4156ZM56.4624 48.4527C56.4305 48.5434 56.4138 48.6424 56.3443 48.7131C56.6544 48.8206 56.1731 49.2296 56.3322 49.4405C56.8055 49.494 56.7934 48.8614 56.8709 48.5392C56.7725 48.4156 56.6012 48.4647 56.4624 48.4527ZM48.3668 50.589C48.5137 50.6306 48.4443 50.2957 48.5584 50.2175C48.4969 50.9861 49.5818 50.5191 49.325 49.9652C49.786 49.8995 50.2466 49.7042 50.4753 49.2503C50.5973 49.1227 50.7282 48.6219 50.912 48.9034C51.0997 48.8657 51.1812 48.7335 51.1974 48.5351C51.1401 48.4483 50.896 48.7131 50.7848 48.4527C51.6783 47.1552 52.2539 45.6175 52.5474 44.0925C52.6047 44.5058 52.482 45.0923 52.3721 45.5391C52.2865 45.7989 52.0983 46.3285 52.3963 45.8409C52.6375 45.5761 52.5427 45.3447 52.6121 45.026C52.6938 45.0511 52.6699 45.2003 52.6903 45.2743C53.5715 44.8983 55.4881 45.8698 55.8512 46.3657C55.908 46.134 55.896 45.9274 56.0307 45.7372C56.5856 46.6794 56.879 45.2003 56.8991 44.7411C57.6336 45.8076 57.4461 47.2746 57.2135 48.5275C57.2945 48.3944 57.4905 48.1921 57.5398 48.4735L57.519 48.771C57.4905 48.8614 57.4541 48.9444 57.3887 49.0147C57.3557 49.0727 57.2869 49.0885 57.2505 49.0228C56.9895 48.2915 57.1561 50.1468 56.879 49.6099L56.7934 49.7589C56.7644 49.8828 56.5116 49.9694 56.6457 50.0935C57.4743 49.6557 58.4778 50.0145 59.2368 50.2918C59.4927 49.7461 59.1796 49.9241 59.0037 49.5641C59.024 49.2218 59.4729 49.1549 59.3549 48.7335C59.3138 48.8782 59.1022 49.4444 59.0408 49.0108C59.1223 48.3907 59.3752 47.7915 59.4522 47.1503C59.628 47.4399 59.6887 47.6837 60.0806 47.2047C59.3752 44.8202 60.6887 42.0717 58.9632 40.0094C58.5276 40.0874 58.4331 39.5956 58.0819 39.5129C57.9969 39.8108 57.5929 40.348 57.2909 40.0094C57.1156 39.2567 57.6045 39.2979 57.8137 39.492C57.4461 39.0786 57.4905 38.4884 57.6902 37.9921C57.3529 37.918 56.7934 37.9052 56.4265 38.0623C55.9248 38.2814 55.7165 38.707 56.2836 38.7401C55.6181 39.9718 55.9248 40.3684 55.5458 41.6374C55.4186 41.8521 55.6302 42.2861 55.3659 42.3649C55.2594 41.4554 55.4186 40.4062 55.5777 39.5129C55.3816 39.575 55.4881 40.0094 55.268 40.0874C55.1576 39.3355 55.7456 38.5048 56.0307 37.8889C55.4388 37.6121 55.4104 36.8186 55.3294 36.2441C55.4267 35.3882 55.9121 34.7768 56.0307 35.8263C54.8068 37.0745 56.5164 38.3228 57.9519 37.6699C58.3436 37.6327 58.7879 38.364 58.8857 37.7109C59.0813 38.0088 59.9423 37.6327 59.7663 36.9174C59.4729 36.8762 59.1386 36.9548 58.8446 37.1368C58.4047 37.4136 58.5797 36.719 58.6369 36.4797C58.8087 36.4217 58.8857 36.3059 59.0408 36.2441C59.6483 37.3558 60.7454 35.9051 59.5094 35.7064C59.5303 35.3307 59.9054 35.4506 60.1589 35.5084C59.1223 34.5742 58.8446 33.2268 57.0503 33.6855C56.8222 34.1201 56.4096 33.4666 55.6059 33.3264C55.2184 33.6443 55.6302 34.2187 55.3618 34.5742C55.198 34.7768 55.2594 34.3759 55.1211 34.3965C54.7212 35.8056 53.3997 35.5494 53.5426 37.2317C52.833 37.4506 53.0571 38.3228 52.9188 38.8805C52.8528 39.1577 52.1886 39.4553 52.2623 38.9796L51.7111 40.0094C51.8581 39.7943 52.0578 39.8894 52.1759 40.0714C52.1718 40.286 52.1394 40.5046 52.0741 40.7242L51.8987 41.0837C51.7072 41.1417 51.4665 41.1785 51.4989 40.9429C51.0175 41.935 51.1726 43.0214 51.0748 44.1916C50.6257 44.5262 49.9574 45.291 50.194 45.8531C49.6918 46.1552 49.0923 46.8532 49.4922 47.3372C48.8481 47.4481 48.4893 48.4028 48.1058 49.1097C48.3501 49.3414 48.8359 49.4034 49.1786 49.6181C48.656 49.4733 48.1833 49.9862 48.3668 50.589ZM55.5696 36.0249C55.7456 36.0249 55.6551 35.8263 55.639 35.7436L55.5696 36.0249ZM59.1386 36.5417C59.1386 36.4588 59.0037 36.442 58.947 36.442C58.8857 36.5417 59.0813 36.5992 59.1386 36.5417ZM58.8087 36.8762L58.7514 36.9548C58.5878 37.1161 59.0611 36.8966 58.8087 36.8762ZM47.5631 50.6099L47.681 50.3415C47.8281 50.2918 47.7877 50.47 47.7996 50.552C47.9015 50.565 48.0358 50.6306 48.1585 50.5315C48.0808 50.1468 48.3748 49.8535 48.4199 49.486C48.4113 49.461 48.3871 49.4405 48.3627 49.4486C48.1955 49.5683 47.942 49.5107 47.7787 49.6467C47.6973 49.9652 47.5133 50.2876 47.5631 50.6099ZM46.8334 50.4365L46.8987 50.1844C46.9434 50.1597 47.0284 50.1304 47.0491 50.2007C47.102 50.3333 46.9475 50.6015 47.1834 50.589L47.3183 50.5104C47.3147 50.1395 47.4693 49.7501 47.6325 49.3994C47.6325 49.3784 47.5995 49.3616 47.5753 49.366C47.0734 49.3871 46.8293 49.944 46.7761 50.3785C46.7837 50.403 46.8091 50.428 46.8334 50.4365ZM46.5805 50.3785C46.584 50.403 46.6124 50.4244 46.6372 50.4156C46.7189 50.1347 46.7351 49.8038 46.9104 49.5438L46.8334 49.5273C46.6741 49.6262 46.576 49.8162 46.5393 50.0025C46.669 50.0806 46.5967 50.2423 46.5805 50.3785Z" fill="#282828"/>
<path fill-rule="evenodd" clip-rule="evenodd" d="M63.4819 44.7239C63.8239 44.7208 64.0038 45.1 63.6388 45.19C63.4819 45.1435 63.4819 45.0385 63.4819 44.954C63.3204 44.9307 63.23 44.7793 63.4104 44.7239V44.657L63.4819 44.7239Z" fill="#282828"/>
<path fill-rule="evenodd" clip-rule="evenodd" d="M63.986 44.1239C64.1313 44.2107 64.0517 44.4164 64.0517 44.5865L64.1832 44.7128C64.1832 44.6186 64.2761 44.4673 64.3666 44.5433C64.3802 44.7022 64.3282 44.9657 64.2104 45.0089C64.238 45.0995 64.2104 45.1066 64.1584 45.1066L64.1313 45.19C63.8823 44.9477 63.6986 44.4527 63.986 44.1239Z" fill="#282828"/>
<path fill-rule="evenodd" clip-rule="evenodd" d="M61.4531 45.19C61.0678 45.1677 61.1695 44.7898 61.4003 44.6602C61.5018 44.6412 61.555 44.7096 61.5816 44.7667C61.8599 44.8391 61.6839 45.1443 61.4531 45.19Z" fill="#282828"/>
<path fill-rule="evenodd" clip-rule="evenodd" d="M60.3409 40.9256C60.5849 40.9476 60.7774 41.0962 61.021 40.9881C61.2501 41.1405 61.2321 41.5042 61.0907 41.72L60.8286 41.8723C60.3775 42.3482 59.8356 41.2709 60.3409 40.9256Z" fill="#282828"/>
<path fill-rule="evenodd" clip-rule="evenodd" d="M61.9845 41.4599C62.3543 41.4388 62.5773 41.6829 62.7773 41.864C62.8065 41.9859 62.6948 42.0659 62.5773 42.125C62.6948 42.3226 62.3833 42.4235 62.2134 42.5247C61.874 42.4864 61.3676 42.4235 61.3985 42.1079C61.2862 42.0659 61.1746 42.0069 61.1986 41.9015C61.3676 41.6829 61.6789 41.5609 61.9845 41.4599Z" fill="#282828"/>
<path fill-rule="evenodd" clip-rule="evenodd" d="M56.1936 35.062C55.8554 35.0274 55.8016 34.6399 56.1109 34.5289C56.4443 34.5862 56.5976 34.9545 56.1936 35.062Z" fill="#282828"/>
<path fill-rule="evenodd" clip-rule="evenodd" d="M56.7144 33.9958C56.8086 33.9958 57.0091 34.0303 56.9359 34.2696L56.9644 34.5157L56.8296 34.4799C56.6854 34.617 56.5303 34.4441 56.4355 34.2339C56.4929 34.0303 56.6115 34.0303 56.7144 33.9958Z" fill="#282828"/>
<path fill-rule="evenodd" clip-rule="evenodd" d="M56.2932 36.1281H56.374C56.4653 36.3183 56.5051 36.5934 56.1262 36.6611C55.6898 36.5755 55.9887 36.2138 56.2932 36.1281Z" fill="#282828"/>
<path fill-rule="evenodd" clip-rule="evenodd" d="M55.9068 34.2473C55.7495 34.5053 55.7495 34.8982 55.5312 35.0619L55.4514 35.01C55.4221 34.5053 55.3249 33.9668 55.416 33.4628C55.7374 33.5444 55.7426 33.9962 55.9068 34.2473Z" fill="#282828"/>
<path fill-rule="evenodd" clip-rule="evenodd" d="M56.9634 34.5289C57.095 34.5289 57.1757 34.5982 57.2074 34.7628L57.4063 34.7288C57.7174 35.1896 57.125 35.6508 56.7213 35.5895C56.166 35.3902 56.5151 34.5982 56.9634 34.5289ZM56.9386 35.1625C57.1015 35.1896 57.2074 34.8935 57.1686 34.7974C57.051 34.8319 56.8572 34.9905 56.9386 35.1625Z" fill="#282828"/>
<path fill-rule="evenodd" clip-rule="evenodd" d="M57.6919 35.0619C57.8257 35.0619 57.9774 35.0949 58.0216 35.2191L57.8635 35.5651C57.4647 35.7218 57.3568 35.2191 57.6919 35.0619Z" fill="#282828"/>
<path fill-rule="evenodd" clip-rule="evenodd" d="M57.3154 35.9822L57.242 36.1032C57.2316 36.129 57.2517 36.1536 57.2731 36.1791C57.6222 36.2039 57.4713 36.6611 57.174 36.6611C56.8196 36.4203 56.9655 35.8369 57.242 35.595C57.4973 35.6458 57.6172 36.3191 57.3154 35.9822Z" fill="#282828"/>
<path fill-rule="evenodd" clip-rule="evenodd" d="M57.805 36.6611C58.1331 36.6611 58.0515 37.1201 57.805 37.1917C57.2699 37.2316 57.5266 36.7798 57.805 36.6611Z" fill="#282828"/>
<path fill-rule="evenodd" clip-rule="evenodd" d="M54.1041 36.6475L53.9087 36.6611C53.5869 36.5417 53.9934 36.1413 54.3098 36.3495L54.4993 36.4012C54.5156 36.3606 54.4684 36.3361 54.4521 36.2985C54.1244 36.2849 54.3518 36.0763 54.5794 36.155L54.6572 36.1281C54.7202 36.1281 54.7897 36.1281 54.8324 36.155C54.9266 36.3741 54.6048 36.7122 54.1041 36.6475Z" fill="#282828"/>
<path fill-rule="evenodd" clip-rule="evenodd" d="M53.4229 38.2396L53.3864 38.1618C52.9716 38.0474 53.7229 37.586 53.743 37.9057C53.6597 37.9832 53.6432 38.0342 53.8435 37.9965C54.0999 37.9459 53.8167 37.7675 54.0732 37.7272C54.7237 37.8687 53.9372 38.3672 53.4229 38.2396Z" fill="#282828"/>
<path fill-rule="evenodd" clip-rule="evenodd" d="M55.1086 38.2603C54.6464 38.1686 54.8927 37.8548 55.1402 37.7272C55.641 37.8062 55.2094 38.1198 55.1086 38.2603Z" fill="#282828"/>
<path fill-rule="evenodd" clip-rule="evenodd" d="M54.4579 39.8594C54.1775 39.7294 54.3784 39.4529 54.5815 39.3264C55.0224 39.4142 54.873 39.8017 54.4579 39.8594Z" fill="#282828"/>
<path fill-rule="evenodd" clip-rule="evenodd" d="M53.0106 39.3302C53.0802 39.3071 53.1376 39.3933 53.1153 39.4612C52.9529 39.8274 52.9883 40.262 53.0187 40.6782C53.1153 40.6557 53.1593 40.7192 53.2374 40.764C53.5608 41.633 54.2423 42.4064 54.849 43.0578C54.1066 42.8406 53.5912 41.9359 53.0931 41.3069C52.9529 41.4339 53.0931 41.8269 52.8707 41.868L52.7608 41.5875C52.8577 40.8048 52.5126 39.959 53.0106 39.3302Z" fill="#282828"/>
<path fill-rule="evenodd" clip-rule="evenodd" d="M53.57 40.3925C53.1818 40.3418 53.2287 40.0475 53.343 39.8595C53.7409 39.8595 53.9964 40.2587 53.57 40.3925Z" fill="#282828"/>
<path fill-rule="evenodd" clip-rule="evenodd" d="M51.7238 41.9654C51.6257 41.7971 51.6773 41.5608 51.8706 41.4812L51.917 41.5164C51.9729 41.5936 51.8678 41.6942 51.9316 41.7619L52.0364 41.6287C51.9781 41.5725 52.0048 41.4812 52.0833 41.4603C52.3083 41.4367 52.1612 41.673 52.1026 41.7619C52.0392 41.9096 51.89 42.0519 51.7238 41.9654Z" fill="#282828"/>
<path fill-rule="evenodd" clip-rule="evenodd" d="M53.0024 42.5399C53.2863 42.7016 54.1098 42.8478 53.6589 43.0518C53.0326 43.1099 52.5137 42.729 52.8278 42.5247L53.0024 42.5399Z" fill="#282828"/>
<path fill-rule="evenodd" clip-rule="evenodd" d="M54.3619 43.0578C54.5573 43.1054 54.6127 43.3179 54.8034 43.3784L54.8487 43.5908C54.5707 43.5179 54.4364 43.2865 54.3198 43.1208L54.3619 43.0578Z" fill="#282828"/>
<path fill-rule="evenodd" clip-rule="evenodd" d="M51.3773 44.1239C51.7853 44.1682 51.7623 44.5653 51.3825 44.6001C51.3346 44.6222 51.2806 44.6504 51.2213 44.657C51.0396 44.5047 51.2273 44.26 51.3773 44.1239Z" fill="#282828"/>
<path fill-rule="evenodd" clip-rule="evenodd" d="M53.6754 45.1842C53.2987 45.2428 53.158 44.8417 53.3422 44.6666C53.6917 44.5872 53.9499 45.0172 53.6754 45.1842Z" fill="#282828"/>
<path fill-rule="evenodd" clip-rule="evenodd" d="M51.1837 45.2033C51.3276 45.2084 51.2861 45.295 51.3587 45.3077L51.435 45.1906C51.5636 45.1829 51.6144 45.2494 51.6755 45.2899C51.4653 45.481 51.0863 45.6823 50.6562 45.7231C50.5181 45.5215 50.7645 45.2618 51.1837 45.2033Z" fill="#282828"/>
<path fill-rule="evenodd" clip-rule="evenodd" d="M50.2766 47.0206C50.2686 46.9279 50.3096 46.8568 50.4154 46.7892C50.8513 46.848 50.4929 47.3222 50.1835 47.3222C50.0037 47.2668 50.1056 47.0263 50.2766 47.0206Z" fill="#282828"/>
<path fill-rule="evenodd" clip-rule="evenodd" d="M50.3484 47.8562C50.7707 47.8337 50.6286 48.249 50.3831 48.3799C49.9271 48.4601 50.07 47.9477 50.3484 47.8562Z" fill="#282828"/>
<path fill-rule="evenodd" clip-rule="evenodd" d="M48.5707 48.9155L48.5024 48.8466C48.5611 48.6786 48.6333 48.4456 48.8442 48.3883C49.2712 48.4343 48.8753 48.9841 48.5707 48.9155Z" fill="#282828"/>
<path fill-rule="evenodd" clip-rule="evenodd" d="M56.6726 42.2211C56.8511 42.3707 56.6138 42.6708 56.4951 42.8014C56.4895 43.37 56.6568 43.958 56.96 44.4869C56.9805 44.5624 56.9279 44.6018 56.8788 44.657C56.2468 44.4321 56.0577 43.8243 56.1067 43.3303C56.0308 43.2001 55.9495 43.0501 56.0522 42.9157C56.0308 42.8762 55.9383 42.9515 55.9067 42.8961C56.0194 42.3707 56.4299 41.8576 56.9103 41.4586C57.0027 41.6484 56.8673 41.9723 56.6726 42.2211Z" fill="#282828"/>
<path fill-rule="evenodd" clip-rule="evenodd" d="M56.6904 38.2603C57.1137 38.2603 56.9695 38.6642 56.7706 38.7901C56.3025 38.8371 56.372 38.3607 56.6904 38.2603Z" fill="#282828"/>
<path fill-rule="evenodd" clip-rule="evenodd" d="M55.9336 40.9256C55.8194 40.7147 56.0962 40.5438 56.2592 40.3925C56.3287 40.3925 56.391 40.3925 56.4355 40.4288C56.4408 40.6194 56.2852 40.9256 55.9336 40.9256Z" fill="#282828"/>
<path fill-rule="evenodd" clip-rule="evenodd" d="M58.8189 41.4586L58.7414 41.4048C58.7041 41.4048 58.6771 41.4241 58.6391 41.4048C58.5134 41.1827 58.5267 40.7608 58.6528 40.542C58.8055 40.6148 58.8321 40.8722 58.7816 41.075L58.8564 41.0904C59.0893 40.8722 58.5913 40.5768 58.8055 40.3925C59.2314 40.3925 59.103 41.2936 58.8189 41.4586Z" fill="#282828"/>
<path fill-rule="evenodd" clip-rule="evenodd" d="M57.3432 40.9256C57.8251 41.0095 56.9767 41.26 57.1928 41.4274C57.1928 41.4449 57.1622 41.4586 57.1391 41.4586C56.7485 41.3263 57.103 41.0442 57.3432 40.9256Z" fill="#282828"/>
<path fill-rule="evenodd" clip-rule="evenodd" d="M59.211 43.5774C58.9919 43.2759 59.0449 42.5713 59.3921 42.5332C59.6639 42.4495 59.6981 43.0157 59.3921 42.915C59.3728 42.9361 59.3728 42.9738 59.3728 42.9944C59.3728 43.0326 59.407 43.0744 59.4258 43.1158C59.7692 43.1751 59.4633 43.6787 59.211 43.5774Z" fill="#282828"/>
<path fill-rule="evenodd" clip-rule="evenodd" d="M58.5817 44.9171C58.5391 44.7957 58.6757 44.7043 58.8306 44.6588C58.878 44.6528 58.9201 44.6611 58.9674 44.6882C58.9907 44.7122 58.9907 44.734 58.9907 44.7606C58.9201 44.8549 58.9441 44.9704 59.0802 45.0458C59.0802 45.1208 58.9441 45.1562 58.8547 45.1883C58.605 45.2097 58.4922 45.0295 58.5817 44.9171Z" fill="#282828"/>
<path fill-rule="evenodd" clip-rule="evenodd" d="M57.6958 45.19C57.9898 45.2692 58.1691 45.5806 57.8605 45.7231C57.4767 45.6882 57.3473 45.3105 57.6958 45.19Z" fill="#282828"/>
<path fill-rule="evenodd" clip-rule="evenodd" d="M59.3341 45.7231C59.5866 45.7231 59.668 46.1288 59.5663 46.3997C59.6883 46.5783 59.452 46.7139 59.3538 46.7892C58.984 46.6755 59.0002 45.891 59.3341 45.7231Z" fill="#282828"/>
<path fill-rule="evenodd" clip-rule="evenodd" d="M58.4063 47.8553C58.5895 47.8618 58.4258 48.2473 58.5513 48.3587V48.4351C58.4063 48.6229 58.3082 48.8454 58.1332 48.9214C57.8488 48.6115 58.1753 48.0011 58.4063 47.8553ZM58.388 48.2181C58.4258 48.2066 58.4258 48.0896 58.388 48.0781C58.3724 48.1134 58.3498 48.2013 58.388 48.2181Z" fill="#282828"/>
<path fill-rule="evenodd" clip-rule="evenodd" d="M102.003 36.1281C101.785 36.223 101.703 36.5825 101.44 36.5075C101.423 36.5075 101.391 36.5468 101.391 36.5664C101.596 36.8312 101.847 36.4721 101.987 36.3021C102.016 36.3176 102.016 36.357 102.032 36.3926C102.205 36.3926 102.302 36.6216 102.449 36.6611C102.368 36.4523 102.188 36.2032 102.003 36.1281Z" fill="#282828"/>
<path fill-rule="evenodd" clip-rule="evenodd" d="M102.285 35.4478C102.206 35.4835 102.01 35.3312 102.113 35.1581C102.113 35.1184 102.113 35.078 102.103 35.0619C101.998 35.0619 101.932 35.2148 101.919 35.3871L102.218 35.6767C102.331 35.5599 102.371 35.8896 102.333 36.0463C102.319 36.1225 102.354 36.1383 102.388 36.1225C102.524 35.9257 102.404 35.5802 102.285 35.4478Z" fill="#282828"/>
<path fill-rule="evenodd" clip-rule="evenodd" d="M102.035 35.797L102.11 35.8376C102.224 35.7304 102.337 35.9444 102.448 35.9668C102.468 35.797 102.259 35.7076 102.184 35.6052C101.886 35.5382 101.772 35.8194 101.564 35.9444L101.391 36.0116V36.0965C101.638 36.2261 101.847 35.9223 102.035 35.797Z" fill="#282828"/>
<path fill-rule="evenodd" clip-rule="evenodd" d="M102.978 34.6698C102.871 34.6386 102.725 34.6226 102.615 34.5312C102.558 34.5181 102.541 34.5624 102.584 34.6098L102.53 34.7742C102.521 34.8975 102.417 34.9259 102.458 35.062C102.53 35.062 102.541 34.9259 102.603 34.8975C102.732 34.9892 102.862 34.8057 102.973 34.7299L102.978 34.6698ZM102.634 34.7742L102.719 34.8217C102.701 34.8658 102.595 34.8343 102.634 34.7742Z" fill="#282828"/>
<path fill-rule="evenodd" clip-rule="evenodd" d="M97.9623 43.4052C97.8147 43.3811 97.7629 43.5698 97.8883 43.6377C97.7107 43.7535 97.9144 43.9853 97.7371 44.0096L97.6113 43.5461C97.7886 43.4052 97.7629 43.1257 97.5376 43.0578C96.7055 43.241 97.5108 44.1255 97.4851 44.6088L97.6367 44.657L97.7371 44.5407C98.2916 44.5169 98.3651 43.661 97.9623 43.4052Z" fill="#282828"/>
<path fill-rule="evenodd" clip-rule="evenodd" d="M98.9106 45.8261C98.8397 45.8044 98.793 45.9072 98.7466 45.9556C98.793 46.0583 98.8146 46.1935 98.9106 46.256C99.0867 46.2615 99.2046 46.1236 99.2755 45.9556C99.2511 45.8694 99.1676 45.799 99.1089 45.7231C98.9692 45.7691 99.0401 45.9261 98.9816 46.0204C98.8146 46.048 99.0281 45.8503 98.9106 45.8261Z" fill="#282828"/>
<path fill-rule="evenodd" clip-rule="evenodd" d="M98.5948 44.1294C98.4439 44.1085 98.317 44.15 98.3477 44.2087C98.1394 44.2296 98.2278 44.2793 98.292 44.3295C98.4111 44.3588 98.4439 44.3003 98.4749 44.2793C98.5948 44.319 98.7467 44.2793 98.8097 44.3295L98.6828 44.4296C98.2598 44.2691 98.1084 44.5567 98.3795 44.657C98.7467 44.6485 98.9868 44.5254 99.2593 44.44C99.3526 44.2793 99.0183 44.1607 98.5948 44.1294Z" fill="#282828"/>
<path fill-rule="evenodd" clip-rule="evenodd" d="M97.485 45.7254C97.3275 45.6904 97.3396 46.0519 97.384 46.2631L97.3275 46.2886C97.2711 46.2886 97.2921 46.0972 97.3044 46.0196C97.3044 45.9892 97.2827 45.9583 97.2711 45.9477C97.0547 46.0307 97.1913 46.7578 97.3605 46.7892C97.4286 46.7578 97.485 46.6549 97.497 46.4946C97.5632 46.5102 97.6311 46.5102 97.6878 46.4328C97.6993 46.1073 97.5748 45.8915 97.485 45.7254Z" fill="#282828"/>
<path fill-rule="evenodd" clip-rule="evenodd" d="M97.1602 42.5958L97.0682 42.5247C96.7446 42.5247 96.5129 42.8683 96.696 43.0578C97.0013 43.0401 97.1171 42.7679 97.1602 42.5958Z" fill="#282828"/>
<path fill-rule="evenodd" clip-rule="evenodd" d="M97.688 42.6699C97.818 43.0018 98.2717 43.0744 98.635 43.0549C98.9187 42.9287 98.5955 42.5971 98.3573 42.5971C98.2089 42.5247 98.1417 42.6699 98.119 42.7651C97.9039 42.7994 98.0966 42.6544 98.0559 42.5626L97.948 42.5247H97.7956L97.688 42.6699Z" fill="#282828"/>
<path fill-rule="evenodd" clip-rule="evenodd" d="M97.2696 41.9917C97.648 41.9917 97.8625 41.5647 97.508 41.4593C97.3103 41.4456 96.9929 41.6564 97.3477 41.6841C97.2322 41.7645 97.0345 41.9117 97.2696 41.9917Z" fill="#282828"/>
<path fill-rule="evenodd" clip-rule="evenodd" d="M114.334 49.3907C113.995 49.2551 113.637 49.1884 113.327 48.9444C111.833 46.9152 110.059 44.5716 110.149 41.9556C109.105 39.1989 107.902 36.442 106.029 34.0624C105.943 33.8429 106.16 33.6443 106.058 33.4088C105.81 33.2106 105.524 32.9915 105.202 32.9297C104.566 33.1281 103.961 33.4088 103.248 33.2892C102.118 32.425 102.371 33.607 101.8 34.0208C101.449 34.8552 100.116 35.5084 100.841 36.4797C101.253 36.8186 100.939 37.4506 101.371 37.8474C101.996 38.9013 102.885 37.4136 103.081 38.5626C102.424 39.8723 100.702 40.7652 99.2957 39.9718C98.9821 39.9924 98.7082 39.9924 98.4354 40.0714C98.0434 40.2486 97.6517 40.5046 97.297 40.7652C95.8327 42.8815 93.4423 43.6334 91.6026 45.2453C91.2321 46.1175 91.1914 47.4029 91.9175 48.0972C92.9165 48.2703 92.5823 47.1592 92.4064 46.63C92.6018 45.0056 94.8332 44.0135 95.8697 43.7163C95.792 44.8202 95.931 46.014 94.8131 46.5558C94.8702 47.8245 94.3432 49.255 94.7758 50.474C95.735 50.3247 97.7989 51.3787 97.6025 49.7042C97.0521 49.0727 95.7146 48.0103 97.1219 47.3372C98.3733 47.4273 99.569 46.6419 100.352 45.8773C100.393 46.1752 100.177 46.4028 100.197 46.688C101.743 47.8989 101.115 49.8286 101.877 51.3253C102.893 51.5316 104.173 51.8419 105.103 51.2137C105.316 50.552 104.639 50.0566 104.557 49.6058C104.757 49.6591 104.953 49.7299 105.063 49.5063C106.388 49.9241 105.026 47.4399 104.051 48.3287C103.884 47.688 103.811 46.9732 103.994 46.3158C104.37 46.1051 104.631 46.2497 104.737 46.6835C104.798 46.758 104.917 46.7205 104.887 46.6091C104.887 46.3158 105.291 47.4111 105.577 47.655C105.789 47.3616 105.214 46.9152 105.789 47.2249C105.12 45.7622 107.099 45.7496 107.975 45.4648C108.925 46.4233 109.48 47.717 109.591 49.044C109.819 49.2129 110.108 49.2997 110.382 49.3495C110.957 50.0522 112.005 51.3043 112.816 50.6144C113 50.833 113.245 50.7177 113.278 50.9861C113.527 50.5275 114.248 50.6183 114.53 50.6511C114.697 50.23 114.603 49.7461 114.334 49.3907ZM91.7785 45.5801C91.8401 45.721 91.799 45.9108 91.6438 45.948C91.6026 45.8324 91.741 45.6834 91.7785 45.5801ZM92.7978 45.1421C92.7208 44.985 92.5414 44.9397 92.386 45.026C92.329 45.1005 92.3087 45.1874 92.329 45.2823C92.3497 45.4024 92.4637 45.386 92.5414 45.4191C92.366 45.7581 92.1906 46.0554 92.2107 46.4649C91.5252 46.5718 91.7625 47.597 92.329 47.7043C92.2674 47.7915 92.2107 47.8861 92.1333 47.9317C92.0353 47.9933 91.9743 47.9113 91.8969 47.874C91.7012 47.3821 91.4855 46.8366 91.5461 46.2789L91.9175 46.2249C91.9943 46.1878 92.0517 46.1389 92.0923 46.0474L92.0714 45.5971C92.0353 45.4811 91.876 45.5432 91.799 45.514C91.9943 45.1629 92.2883 44.7375 92.7007 44.6462L93.0347 44.8777L92.7978 45.1421ZM92.329 47.258C92.2107 47.2411 91.9943 47.0969 92.1123 46.9693C92.1906 47.0556 92.329 47.1091 92.329 47.258ZM93.6174 44.4476V44.1296L94.3237 43.8319L94.385 44.0509L93.6174 44.4476ZM95.0656 43.4557C94.9882 43.4557 94.9317 43.4972 94.8538 43.4763C95.0859 43.2574 95.3023 43.0591 95.5762 42.9227C95.596 43.0014 95.5392 43.0591 95.498 43.1376C95.5181 43.2202 95.5554 43.3198 95.596 43.3773C95.4412 43.4763 95.2249 43.6951 95.0656 43.4557ZM109.386 40.6248C109.407 40.6868 109.448 40.7449 109.444 40.8025C109.293 40.7815 109.17 40.7033 109.199 40.5257H109.256C109.268 40.6043 109.305 40.6455 109.386 40.6248ZM108.395 38.4426C108.501 38.5209 108.608 38.703 108.648 38.8391L108.505 38.6618C108.359 38.7606 108.388 38.5626 108.395 38.4426ZM104.194 33.3965V33.4374C104.093 33.4583 104.19 33.6155 104.063 33.6361C104.1 33.5369 104.019 33.3594 104.194 33.3965ZM102.563 33.1897C102.538 33.3055 102.734 33.5248 102.526 33.5658C102.497 33.504 102.501 33.4088 102.412 33.3884C102.428 33.2892 102.485 33.2268 102.563 33.1897ZM96.1055 42.5056C96.1055 42.6045 96.049 42.7036 95.931 42.6832L96.1055 42.5056ZM96.1631 50.4365L95.9677 50.0644C95.792 50.0806 96.0078 50.3701 95.8533 50.4156C95.5181 50.1264 95.6369 49.5852 95.596 49.1923C95.6943 49.1097 95.8118 49.0846 95.931 49.0885C96.3218 49.3414 96.4155 50.0725 96.1631 50.4365ZM96.9663 49.2296C97.26 49.366 97.5134 49.8208 97.24 50.06L97.26 50.4117C97.2196 50.4365 97.2035 50.4573 97.1623 50.4573L97.1055 50.4117C97.1827 50.0191 97.1219 49.5723 96.8892 49.2503L96.9663 49.2296ZM96.9869 50.3907C96.9663 50.4198 96.9301 50.4446 96.8892 50.453C96.807 50.3538 96.9301 50.1227 96.7912 50.1017L96.6116 50.1636L96.6525 50.474C96.1829 50.3985 96.7129 49.7214 96.3997 49.461L96.3382 49.3078C96.3382 49.2625 96.3218 49.1884 96.3997 49.2088C96.9301 49.2791 97.0069 49.9652 96.9869 50.3907ZM100.821 44.9064C100.899 45.2203 100.764 45.5018 100.43 45.4148C100.528 45.1421 100.274 44.2122 100.625 44.6256C100.702 44.6462 100.743 44.5886 100.784 44.5262C100.882 44.2702 100.609 43.8939 100.373 44.1129C100.295 43.5385 100.001 43.1006 99.7077 42.6832C99.3157 42.6045 98.8263 43.0798 98.9443 43.5549C99.0423 43.7367 99.2183 43.7743 99.4137 43.7743C99.5891 43.5549 99.0016 43.3982 99.353 43.1581C99.5324 43.121 99.471 43.3569 99.569 43.4149C100.156 43.2202 100.136 44.0925 99.9031 44.5058C100.804 45.9727 98.3939 47.436 97.0233 46.9693C96.6726 47.0308 96.3017 47.0764 95.9677 47.2501C95.9677 47.3407 95.947 47.4235 95.9101 47.4978C96.049 47.6673 96.1631 47.3245 96.3218 47.3491C96.1631 47.8903 96.3218 48.4605 96.1829 49.0022C95.931 48.9158 95.5181 48.8869 95.4002 49.1842C95.2249 49.0476 94.9114 49.1962 94.9722 49.4486C95.4412 49.126 95.4412 49.9898 95.4412 50.3207C95.3232 50.5728 95.1684 49.9407 95.0289 50.3701C94.6943 49.8874 94.7922 49.1181 94.8702 48.5392C94.9521 48.614 94.8538 48.7958 94.9722 48.8488C95.0289 48.8697 95.049 48.8121 95.0656 48.771C95.1684 48.056 94.8538 47.3781 94.9883 46.6756C95.478 46.4815 96.0287 46.2708 96.049 45.6381C96.1428 43.8734 96.1829 41.8152 97.7294 40.8025C97.8067 40.9225 97.9451 40.9429 98.0807 40.9021C98.1781 40.6455 98.3166 40.4883 98.6309 40.4677C98.7083 40.6663 98.765 41.0427 99.0423 41.0629C99.3364 40.9021 99.8051 40.7242 99.6252 40.3684C100.197 40.4677 100.764 40.9225 101.33 40.4677C101.135 40.9801 101.016 41.5175 100.939 42.0717C100.666 41.993 100.352 42.1127 100.274 42.4062C100.274 42.6832 100.547 43.0426 100.841 42.8815C100.939 43.278 100.743 43.3773 100.588 43.5968C100.98 43.8939 100.821 44.4476 100.821 44.9064ZM102.33 51.2137L102.248 50.9983C102.212 50.9861 102.171 50.9861 102.155 51.0193C102.191 51.1346 102.053 51.2302 101.975 51.1268C101.975 50.8912 101.82 50.7013 101.877 50.4611L102.016 50.474C102.037 50.4072 102.037 50.304 102.134 50.3207C102.501 50.3864 102.347 50.829 102.408 51.1098C102.391 51.1514 102.371 51.197 102.33 51.2137ZM103.13 51.3827C103.174 51.2343 103.162 51.044 103.031 50.9324C102.844 50.9944 102.963 51.255 102.889 51.3827C102.799 51.3664 102.718 51.2918 102.649 51.2257C102.714 50.8704 102.457 50.2876 102.954 50.1227C102.967 50.1597 103.003 50.1757 103.036 50.1925C103.514 50.304 103.362 50.8826 103.472 51.2464C103.338 51.2257 103.264 51.4036 103.13 51.3827ZM104.01 51.3043C104.031 51.1888 104.068 51.003 103.929 50.9324C103.778 50.9738 103.848 51.193 103.794 51.2918L103.66 51.184L103.521 50.1636C103.587 50.1017 103.664 50.0391 103.753 50.0391C104.19 50.2748 104.149 50.8084 104.158 51.2464L104.01 51.3043ZM104.884 51.1268C104.798 51.0563 104.835 50.8664 104.691 50.8539C104.533 50.9399 104.778 51.4569 104.443 51.3043L104.385 50.304C104.427 50.2505 104.496 50.2333 104.557 50.2175C104.891 50.3662 104.875 50.8205 104.884 51.1268ZM104.79 48.4156C105.12 48.4939 105.336 48.8289 105.275 49.1842L105.083 49.2671C105.018 48.9859 104.867 48.7044 104.732 48.4368C104.737 48.4028 104.773 48.4196 104.79 48.4156ZM104.537 48.4527C104.569 48.5434 104.585 48.6424 104.655 48.7131C104.346 48.8206 104.827 49.2296 104.668 49.4405C104.194 49.494 104.207 48.8614 104.129 48.5392C104.227 48.4156 104.398 48.4647 104.537 48.4527ZM112.633 50.589C112.486 50.6306 112.555 50.2957 112.442 50.2175C112.503 50.9861 111.418 50.5191 111.674 49.9652C111.214 49.8995 110.753 49.7042 110.524 49.2503C110.402 49.1227 110.272 48.6219 110.087 48.9034C109.9 48.8657 109.819 48.7335 109.802 48.5351C109.86 48.4483 110.104 48.7131 110.214 48.4527C109.321 47.1552 108.746 45.6175 108.453 44.0925C108.395 44.5058 108.518 45.0923 108.628 45.5391C108.713 45.7989 108.901 46.3285 108.604 45.8409C108.362 45.5761 108.456 45.3447 108.388 45.026C108.306 45.0511 108.33 45.2003 108.31 45.2743C107.428 44.8983 105.511 45.8698 105.148 46.3657C105.091 46.134 105.103 45.9274 104.969 45.7372C104.414 46.6794 104.121 45.2003 104.1 44.7411C103.366 45.8076 103.554 47.2746 103.786 48.5275C103.705 48.3944 103.509 48.1921 103.46 48.4735L103.481 48.771C103.509 48.8614 103.546 48.9444 103.611 49.0147C103.643 49.0727 103.713 49.0885 103.749 49.0228C104.01 48.2915 103.844 50.1468 104.121 49.6099L104.207 49.7589C104.235 49.8828 104.488 49.9694 104.353 50.0935C103.525 49.6557 102.522 50.0145 101.763 50.2918C101.507 49.7461 101.82 49.9241 101.996 49.5641C101.975 49.2218 101.526 49.1549 101.645 48.7335C101.685 48.8782 101.898 49.4444 101.959 49.0108C101.877 48.3907 101.625 47.7915 101.547 47.1503C101.371 47.4399 101.31 47.6837 100.919 47.2047C101.625 44.8202 100.311 42.0717 102.037 40.0094C102.473 40.0874 102.567 39.5956 102.917 39.5129C103.003 39.8108 103.407 40.348 103.709 40.0094C103.884 39.2567 103.395 39.2979 103.187 39.492C103.554 39.0786 103.509 38.4884 103.31 37.9921C103.647 37.918 104.207 37.9052 104.573 38.0623C105.075 38.2814 105.283 38.707 104.716 38.7401C105.381 39.9718 105.075 40.3684 105.454 41.6374C105.581 41.8521 105.369 42.2861 105.634 42.3649C105.74 41.4554 105.581 40.4062 105.422 39.5129C105.618 39.575 105.511 40.0094 105.732 40.0874C105.842 39.3355 105.254 38.5048 104.969 37.8889C105.56 37.6121 105.589 36.8186 105.671 36.2441C105.573 35.3882 105.087 34.7768 104.969 35.8263C106.193 37.0745 104.484 38.3228 103.048 37.6699C102.656 37.6327 102.212 38.364 102.114 37.7109C101.918 38.0088 101.058 37.6327 101.233 36.9174C101.526 36.8762 101.861 36.9548 102.155 37.1368C102.595 37.4136 102.42 36.719 102.363 36.4797C102.191 36.4217 102.114 36.3059 101.959 36.2441C101.352 37.3558 100.254 35.9051 101.49 35.7064C101.469 35.3307 101.094 35.4506 100.841 35.5084C101.877 34.5742 102.155 33.2268 103.95 33.6855C104.178 34.1201 104.59 33.4666 105.393 33.3264C105.781 33.6443 105.369 34.2187 105.638 34.5742C105.801 34.7768 105.74 34.3759 105.878 34.3965C106.278 35.8056 107.6 35.5494 107.457 37.2317C108.167 37.4506 107.943 38.3228 108.081 38.8805C108.146 39.1577 108.811 39.4553 108.737 38.9796L109.288 40.0094C109.142 39.7943 108.942 39.8894 108.824 40.0714C108.827 40.286 108.861 40.5046 108.925 40.7242L109.101 41.0837C109.293 41.1417 109.533 41.1785 109.501 40.9429C109.982 41.935 109.827 43.0214 109.925 44.1916C110.373 44.5262 111.042 45.291 110.805 45.8531C111.307 46.1552 111.907 46.8532 111.507 47.3372C112.152 47.4481 112.51 48.4028 112.893 49.1097C112.649 49.3414 112.164 49.4034 111.821 49.6181C112.343 49.4733 112.816 49.9862 112.633 50.589ZM105.43 36.0249C105.254 36.0249 105.345 35.8263 105.361 35.7436L105.43 36.0249ZM101.861 36.5417C101.861 36.4588 101.996 36.442 102.053 36.442C102.114 36.5417 101.918 36.5992 101.861 36.5417ZM102.191 36.8762L102.248 36.9548C102.412 37.1161 101.939 36.8966 102.191 36.8762ZM113.437 50.6099L113.318 50.3415C113.171 50.2918 113.212 50.47 113.2 50.552C113.098 50.565 112.963 50.6306 112.841 50.5315C112.918 50.1468 112.625 49.8535 112.58 49.486C112.588 49.461 112.612 49.4405 112.637 49.4486C112.804 49.5683 113.058 49.5107 113.22 49.6467C113.302 49.9652 113.486 50.2876 113.437 50.6099ZM114.166 50.4365L114.101 50.1844C114.056 50.1597 113.971 50.1304 113.951 50.2007C113.897 50.3333 114.053 50.6015 113.816 50.589L113.681 50.5104C113.685 50.1395 113.531 49.7501 113.367 49.3994C113.367 49.3784 113.4 49.3616 113.425 49.366C113.927 49.3871 114.171 49.944 114.224 50.3785C114.215 50.403 114.191 50.428 114.166 50.4365ZM114.419 50.3785C114.416 50.403 114.387 50.4244 114.363 50.4156C114.28 50.1347 114.264 49.8038 114.089 49.5438L114.166 49.5273C114.325 49.6262 114.424 49.8162 114.46 50.0025C114.33 50.0806 114.403 50.2423 114.419 50.3785Z" fill="#282828"/>
<path fill-rule="evenodd" clip-rule="evenodd" d="M97.5178 44.7239C97.1757 44.7208 96.9956 45.1 97.3611 45.19C97.5178 45.1435 97.5178 45.0385 97.5178 44.954C97.6789 44.9307 97.7699 44.7793 97.5891 44.7239V44.657L97.5178 44.7239Z" fill="#282828"/>
<path fill-rule="evenodd" clip-rule="evenodd" d="M97.014 44.1239C96.8684 44.2107 96.9486 44.4164 96.9486 44.5865L96.8169 44.7128C96.8169 44.6186 96.7239 44.4673 96.6335 44.5433C96.6197 44.7022 96.6717 44.9657 96.7897 45.0089C96.7619 45.0995 96.7898 45.1066 96.8417 45.1066L96.8684 45.19C97.1177 44.9477 97.3016 44.4527 97.014 44.1239Z" fill="#282828"/>
<path fill-rule="evenodd" clip-rule="evenodd" d="M99.5462 45.19C99.9322 45.1677 99.8296 44.7898 99.5996 44.6602C99.498 44.6412 99.4447 44.7096 99.4183 44.7667C99.1393 44.8391 99.3161 45.1443 99.5462 45.19Z" fill="#282828"/>
<path fill-rule="evenodd" clip-rule="evenodd" d="M100.659 40.9256C100.415 40.9476 100.222 41.0962 99.9781 40.9881C99.7495 41.1405 99.7677 41.5042 99.909 41.72L100.171 41.8723C100.622 42.3482 101.164 41.2709 100.659 40.9256Z" fill="#282828"/>
<path fill-rule="evenodd" clip-rule="evenodd" d="M99.0149 41.4599C98.6451 41.4388 98.422 41.6829 98.2221 41.864C98.1924 41.9859 98.3038 42.0659 98.422 42.125C98.3038 42.3226 98.615 42.4235 98.7857 42.5247C99.1254 42.4864 99.6309 42.4235 99.6012 42.1079C99.7133 42.0659 99.8243 42.0069 99.8008 41.9015C99.6309 41.6829 99.32 41.5609 99.0149 41.4599Z" fill="#282828"/>
<path fill-rule="evenodd" clip-rule="evenodd" d="M104.806 35.062C105.144 35.0274 105.198 34.6399 104.889 34.5289C104.556 34.5862 104.402 34.9545 104.806 35.062Z" fill="#282828"/>
<path fill-rule="evenodd" clip-rule="evenodd" d="M104.286 33.9958C104.191 33.9958 103.99 34.0303 104.064 34.2696L104.035 34.5157L104.17 34.4799C104.314 34.617 104.469 34.4441 104.564 34.2339C104.507 34.0303 104.388 34.0303 104.286 33.9958Z" fill="#282828"/>
<path fill-rule="evenodd" clip-rule="evenodd" d="M104.707 36.1281H104.625C104.534 36.3183 104.495 36.5934 104.873 36.6611C105.31 36.5755 105.011 36.2138 104.707 36.1281Z" fill="#282828"/>
<path fill-rule="evenodd" clip-rule="evenodd" d="M105.093 34.2473C105.25 34.5053 105.25 34.8982 105.468 35.0619L105.548 35.01C105.577 34.5053 105.675 33.9668 105.583 33.4628C105.262 33.5444 105.256 33.9962 105.093 34.2473Z" fill="#282828"/>
<path fill-rule="evenodd" clip-rule="evenodd" d="M104.036 34.5289C103.905 34.5289 103.825 34.5982 103.793 34.7628L103.594 34.7288C103.282 35.1896 103.875 35.6508 104.279 35.5895C104.833 35.3902 104.485 34.5982 104.036 34.5289ZM104.061 35.1625C103.899 35.1896 103.793 34.8935 103.831 34.7974C103.949 34.8319 104.142 34.9905 104.061 35.1625Z" fill="#282828"/>
<path fill-rule="evenodd" clip-rule="evenodd" d="M103.306 35.0619C103.174 35.0619 103.022 35.0949 102.978 35.2191L103.136 35.5651C103.535 35.7218 103.642 35.2191 103.306 35.0619Z" fill="#282828"/>
<path fill-rule="evenodd" clip-rule="evenodd" d="M103.685 35.9822L103.758 36.1032C103.768 36.129 103.748 36.1536 103.726 36.1791C103.377 36.2039 103.529 36.6611 103.825 36.6611C104.18 36.4203 104.035 35.8369 103.758 35.595C103.503 35.6458 103.382 36.3191 103.685 35.9822Z" fill="#282828"/>
<path fill-rule="evenodd" clip-rule="evenodd" d="M103.194 36.6611C102.865 36.6611 102.949 37.1201 103.194 37.1917C103.728 37.2316 103.474 36.7798 103.194 36.6611Z" fill="#282828"/>
<path fill-rule="evenodd" clip-rule="evenodd" d="M106.895 36.6475L107.091 36.6611C107.412 36.5417 107.007 36.1413 106.69 36.3495L106.5 36.4012C106.483 36.3606 106.531 36.3361 106.548 36.2985C106.875 36.2849 106.647 36.0763 106.42 36.155L106.342 36.1281C106.279 36.1281 106.21 36.1281 106.168 36.155C106.072 36.3741 106.394 36.7122 106.895 36.6475Z" fill="#282828"/>
<path fill-rule="evenodd" clip-rule="evenodd" d="M107.576 38.2396L107.613 38.1618C108.027 38.0474 107.277 37.586 107.256 37.9057C107.34 37.9832 107.357 38.0342 107.156 37.9965C106.9 37.9459 107.183 37.7675 106.926 37.7272C106.275 37.8687 107.062 38.3672 107.576 38.2396Z" fill="#282828"/>
<path fill-rule="evenodd" clip-rule="evenodd" d="M105.891 38.2603C106.353 38.1686 106.106 37.8548 105.859 37.7272C105.358 37.8062 105.79 38.1198 105.891 38.2603Z" fill="#282828"/>
<path fill-rule="evenodd" clip-rule="evenodd" d="M106.542 39.8594C106.822 39.7294 106.621 39.4529 106.419 39.3264C105.977 39.4142 106.126 39.8017 106.542 39.8594Z" fill="#282828"/>
<path fill-rule="evenodd" clip-rule="evenodd" d="M107.989 39.3302C107.92 39.3071 107.863 39.3933 107.885 39.4612C108.047 39.8274 108.012 40.262 107.981 40.6782C107.885 40.6557 107.841 40.7192 107.763 40.764C107.439 41.633 106.758 42.4064 106.151 43.0578C106.893 42.8406 107.408 41.9359 107.907 41.3069C108.047 41.4339 107.907 41.8269 108.13 41.868L108.239 41.5875C108.142 40.8048 108.487 39.959 107.989 39.3302Z" fill="#282828"/>
<path fill-rule="evenodd" clip-rule="evenodd" d="M107.429 40.3925C107.818 40.3418 107.77 40.0475 107.655 39.8595C107.258 39.8595 107.003 40.2587 107.429 40.3925Z" fill="#282828"/>
<path fill-rule="evenodd" clip-rule="evenodd" d="M109.276 41.9654C109.374 41.7971 109.322 41.5608 109.129 41.4812L109.082 41.5164C109.026 41.5936 109.132 41.6942 109.068 41.7619L108.963 41.6287C109.021 41.5725 108.995 41.4812 108.916 41.4603C108.691 41.4367 108.838 41.673 108.897 41.7619C108.96 41.9096 109.11 42.0519 109.276 41.9654Z" fill="#282828"/>
<path fill-rule="evenodd" clip-rule="evenodd" d="M107.998 42.5399C107.714 42.7016 106.89 42.8478 107.34 43.0518C107.966 43.1099 108.486 42.729 108.172 42.5247L107.998 42.5399Z" fill="#282828"/>
<path fill-rule="evenodd" clip-rule="evenodd" d="M106.637 43.0578C106.443 43.1054 106.387 43.3179 106.197 43.3784L106.151 43.5908C106.429 43.5179 106.564 43.2865 106.68 43.1208L106.637 43.0578Z" fill="#282828"/>
<path fill-rule="evenodd" clip-rule="evenodd" d="M109.622 44.1239C109.215 44.1682 109.237 44.5653 109.617 44.6001C109.666 44.6222 109.719 44.6504 109.779 44.657C109.96 44.5047 109.773 44.26 109.622 44.1239Z" fill="#282828"/>
<path fill-rule="evenodd" clip-rule="evenodd" d="M107.324 45.1842C107.7 45.2428 107.841 44.8417 107.657 44.6666C107.308 44.5872 107.049 45.0172 107.324 45.1842Z" fill="#282828"/>
<path fill-rule="evenodd" clip-rule="evenodd" d="M109.816 45.2033C109.673 45.2084 109.715 45.295 109.642 45.3077L109.565 45.1906C109.437 45.1829 109.386 45.2494 109.325 45.2899C109.534 45.481 109.914 45.6823 110.344 45.7231C110.482 45.5215 110.236 45.2618 109.816 45.2033Z" fill="#282828"/>
<path fill-rule="evenodd" clip-rule="evenodd" d="M110.723 47.0206C110.731 46.9279 110.69 46.8568 110.584 46.7892C110.148 46.848 110.507 47.3222 110.816 47.3222C110.996 47.2668 110.894 47.0263 110.723 47.0206Z" fill="#282828"/>
<path fill-rule="evenodd" clip-rule="evenodd" d="M110.651 47.8562C110.229 47.8337 110.371 48.249 110.617 48.3799C111.073 48.4601 110.93 47.9477 110.651 47.8562Z" fill="#282828"/>
<path fill-rule="evenodd" clip-rule="evenodd" d="M112.43 48.9155L112.498 48.8466C112.439 48.6786 112.367 48.4456 112.156 48.3883C111.729 48.4343 112.125 48.9841 112.43 48.9155Z" fill="#282828"/>
<path fill-rule="evenodd" clip-rule="evenodd" d="M104.327 42.2211C104.149 42.3707 104.385 42.6708 104.505 42.8014C104.51 43.37 104.343 43.958 104.04 44.4869C104.019 44.5624 104.072 44.6018 104.121 44.657C104.753 44.4321 104.942 43.8243 104.893 43.3303C104.969 43.2001 105.05 43.0501 104.947 42.9157C104.969 42.8762 105.061 42.9515 105.093 42.8961C104.98 42.3707 104.569 41.8576 104.089 41.4586C103.997 41.6484 104.133 41.9723 104.327 42.2211Z" fill="#282828"/>
<path fill-rule="evenodd" clip-rule="evenodd" d="M104.308 38.2603C103.886 38.2603 104.03 38.6642 104.23 38.7901C104.698 38.8371 104.627 38.3607 104.308 38.2603Z" fill="#282828"/>
<path fill-rule="evenodd" clip-rule="evenodd" d="M105.066 40.9256C105.18 40.7147 104.904 40.5438 104.741 40.3925C104.671 40.3925 104.608 40.3925 104.564 40.4288C104.558 40.6194 104.714 40.9256 105.066 40.9256Z" fill="#282828"/>
<path fill-rule="evenodd" clip-rule="evenodd" d="M102.181 41.4586L102.258 41.4048C102.296 41.4048 102.323 41.4241 102.361 41.4048C102.486 41.1827 102.473 40.7608 102.347 40.542C102.194 40.6148 102.167 40.8722 102.218 41.075L102.143 41.0904C101.91 40.8722 102.408 40.5768 102.194 40.3925C101.768 40.3925 101.897 41.2936 102.181 41.4586Z" fill="#282828"/>
<path fill-rule="evenodd" clip-rule="evenodd" d="M103.657 40.9256C103.175 41.0095 104.024 41.26 103.808 41.4274C103.808 41.4449 103.837 41.4586 103.861 41.4586C104.252 41.3263 103.897 41.0442 103.657 40.9256Z" fill="#282828"/>
<path fill-rule="evenodd" clip-rule="evenodd" d="M101.789 43.5774C102.008 43.2759 101.955 42.5713 101.608 42.5332C101.336 42.4495 101.302 43.0157 101.608 42.915C101.627 42.9361 101.627 42.9738 101.627 42.9944C101.627 43.0326 101.593 43.0744 101.574 43.1158C101.231 43.1751 101.536 43.6787 101.789 43.5774Z" fill="#282828"/>
<path fill-rule="evenodd" clip-rule="evenodd" d="M102.418 44.9171C102.46 44.7957 102.324 44.7043 102.169 44.6588C102.121 44.6528 102.079 44.6611 102.032 44.6882C102.009 44.7122 102.009 44.734 102.009 44.7606C102.079 44.8549 102.056 44.9704 101.919 45.0458C101.919 45.1208 102.056 45.1562 102.145 45.1883C102.395 45.2097 102.508 45.0295 102.418 44.9171Z" fill="#282828"/>
<path fill-rule="evenodd" clip-rule="evenodd" d="M103.303 45.19C103.01 45.2692 102.83 45.5806 103.139 45.7231C103.522 45.6882 103.652 45.3105 103.303 45.19Z" fill="#282828"/>
<path fill-rule="evenodd" clip-rule="evenodd" d="M101.666 45.7231C101.413 45.7231 101.332 46.1288 101.434 46.3997C101.311 46.5783 101.548 46.7139 101.646 46.7892C102.016 46.6755 102 45.891 101.666 45.7231Z" fill="#282828"/>
<path fill-rule="evenodd" clip-rule="evenodd" d="M102.594 47.8553C102.411 47.8618 102.574 48.2473 102.449 48.3587V48.4351C102.594 48.6229 102.692 48.8454 102.867 48.9214C103.151 48.6115 102.825 48.0011 102.594 47.8553ZM102.612 48.2181C102.574 48.2066 102.574 48.0896 102.612 48.0781C102.628 48.1134 102.65 48.2013 102.612 48.2181Z" fill="#282828"/>
<path fill-rule="evenodd" clip-rule="evenodd" d="M30.5182 62.7922L30.5754 64.167C30.3462 64.2258 30.1309 64.2985 29.9016 64.3576C28.9986 64.6354 27.7229 64.9131 26.7772 64.9131C23.5806 64.9131 21 63.2167 21 59.6044C21 56.2848 23.4368 54.252 26.8772 54.252C28.1388 54.252 29.3998 54.5592 30.6042 54.9103C30.4609 55.6412 30.3749 56.3721 30.2889 57.1036H29.8731C29.8303 56.1673 30.0595 55.8309 29.2138 55.4073C28.626 55.1146 27.9381 54.8661 26.9058 54.8661C24.1532 54.8661 22.5338 56.6794 22.5338 59.2678C22.5338 62.2077 24.1966 64.284 27.1497 64.284C28.2534 64.284 29.0561 64.0646 29.1712 63.6992C29.2998 63.2604 29.2138 61.6665 29.185 61.4323C29.1426 61.1256 28.5687 61.1399 27.551 61.0962V60.6575H31.0489V61.0231C30.3462 61.1399 30.4755 61.8562 30.5182 62.7922Z" fill="#282828"/>
<path fill-rule="evenodd" clip-rule="evenodd" d="M42.2006 64.8366C41.8577 64.8366 41.5299 64.8673 41.1871 64.9131C40.9488 64.5928 40.7853 64.319 40.5766 64.0597L37.0308 59.396L37.0906 59.1671C37.5524 59.1974 38.0138 59.1817 38.4606 59.1052C39.5038 58.9232 40.3975 58.0996 40.3975 56.9716C40.3975 55.3258 39.206 54.8382 38.1031 54.8382C37.5823 54.8382 37.0156 54.9149 36.6138 55.0362C36.5238 55.2955 36.5238 55.616 36.5238 56.0876V63.0845C36.5238 64.2729 36.5092 64.3797 37.9396 64.4564V64.9131C37.2241 64.8673 36.5238 64.8366 35.7943 64.8366C35.0642 64.8366 34.3637 64.8673 33.6934 64.9131V64.4564C35.1238 64.3797 35.1085 64.2729 35.1085 63.0845V56.0876C35.1085 54.8992 35.1238 54.7922 33.6934 54.7166V54.2588C34.5274 54.3049 35.392 54.3354 36.2709 54.3354C37.15 54.3354 38.0138 54.3049 38.8783 54.2588C40.9344 54.1525 41.8875 55.2955 41.8875 56.5752C41.8875 58.237 40.4272 59.2277 38.9822 59.5171L42.3641 64.0288C42.603 64.319 42.9153 64.41 43.2133 64.4564V64.9131C42.8857 64.8673 42.5435 64.8366 42.2006 64.8366Z" fill="#282828"/>
<path fill-rule="evenodd" clip-rule="evenodd" d="M52.587 63.5712V64.8366C52.0498 64.9131 51.0762 64.8979 50.1753 64.9131C49.318 64.8672 48.4464 64.8366 47.5601 64.8366C46.6739 64.8366 45.8166 64.8672 44.9302 64.9131V64.4561C45.6566 64.4251 46.1793 64.1049 46.1793 63.0833V56.0819C46.1793 54.8927 46.1942 54.7856 44.7993 54.71V54.252C45.6856 54.298 46.5576 54.3285 47.4584 54.3285C48.3594 54.3285 49.2457 54.298 50.1171 54.252C51.0325 54.2674 52.035 54.252 52.5294 54.3285C52.3694 54.8317 52.3111 55.3196 52.2963 55.8076C52.2963 56.1283 52.253 56.3875 52.253 56.7073H51.8027C51.7884 56.1131 51.7007 55.6859 51.5993 55.2128C50.9015 54.9844 50.161 54.9539 49.4342 54.9539C48.7951 54.9539 48.1123 54.9539 47.6325 55.0298C47.5744 55.4109 47.5601 55.7621 47.5601 56.2961V59.1476C50.727 59.178 50.931 59.3618 50.9454 57.8668H51.4248V61.3903H50.9454C50.9454 59.6665 50.8434 59.7581 47.5601 59.88V62.8236C47.5601 63.3727 47.5744 63.7384 47.6325 64.135C48.1702 64.2115 48.9114 64.2115 49.6085 64.2115C50.3934 64.2115 51.1919 64.1808 51.9478 63.9521C52.0206 63.723 52.0931 63.449 52.1222 63.1737L52.253 62.3355H52.7326C52.6741 62.6554 52.587 63.0833 52.587 63.5712Z" fill="#282828"/>
<path fill-rule="evenodd" clip-rule="evenodd" d="M63.166 63.5712V64.8366C62.6288 64.9131 61.6548 64.8979 60.754 64.9131C59.8969 64.8672 59.0252 64.8366 58.1388 64.8366C57.2526 64.8366 56.3952 64.8672 55.5088 64.9131V64.4561C56.2351 64.4251 56.7582 64.1049 56.7582 63.0833V56.0819C56.7582 54.8927 56.773 54.7856 55.3779 54.71V54.252C56.2643 54.298 57.1359 54.3285 58.037 54.3285C58.9382 54.3285 59.8243 54.298 60.696 54.252C61.6113 54.2674 62.6139 54.252 63.1084 54.3285C62.9484 54.8317 62.8903 55.3196 62.8755 55.8076C62.8755 56.1283 62.8322 56.3875 62.8322 56.7073H62.3815C62.3668 56.1131 62.2796 55.6859 62.1783 55.2128C61.4808 54.9844 60.7399 54.9539 60.013 54.9539C59.374 54.9539 58.6908 54.9539 58.2113 55.0298C58.1532 55.4109 58.1388 55.7621 58.1388 56.2961V59.1476C61.3061 59.178 61.5095 59.3618 61.5243 57.8668H62.0038V61.3903H61.5243C61.5243 59.6665 61.4223 59.7581 58.1388 59.88V62.8236C58.1388 63.3727 58.1532 63.7384 58.2113 64.135C58.7489 64.2115 59.4902 64.2115 60.1878 64.2115C60.9723 64.2115 61.771 64.1808 62.5267 63.9521C62.5998 63.723 62.6719 63.449 62.7011 63.1737L62.8322 62.3355H63.3112C63.2531 62.6554 63.166 63.0833 63.166 63.5712Z" fill="#282828"/>
<path fill-rule="evenodd" clip-rule="evenodd" d="M76.8284 54.714C75.9097 54.714 75.6331 54.8495 75.6331 55.7152V64.3605L75.6766 64.9131L74.5247 64.7039L67.4818 55.9389V63.2257C67.4818 64.0919 67.7592 64.2263 68.6779 64.2263L68.9111 64.2417V64.6891C68.3422 64.6442 67.7592 64.6142 67.1756 64.6142C66.5924 64.6142 66.0092 64.6442 65.4263 64.6891V64.2417L65.6595 64.2263C66.5489 64.2263 66.8112 64.0919 66.8112 63.2257V55.7152C66.8112 54.8495 66.5776 54.714 65.7612 54.7004H65.5572V54.252C65.9802 54.2971 66.3883 54.3269 66.8257 54.3269C67.2488 54.3269 67.6568 54.2971 68.0798 54.252L74.9626 63.1366V55.7152C74.9626 54.8495 74.7002 54.714 73.8102 54.714L73.5769 54.7004V54.252C74.1604 54.2971 74.7436 54.3269 75.3267 54.3269C75.9097 54.3269 76.4934 54.2971 77.0618 54.252V54.7004L76.8284 54.714Z" fill="#282828"/>
<path fill-rule="evenodd" clip-rule="evenodd" d="M89.3954 59.8503C88.986 59.8644 88.6223 59.8182 88.4094 59.7581L88.2428 59.1937C88.47 59.2544 88.8339 59.3157 89.2132 59.3309C90.4564 59.3764 91.4123 58.4314 91.4123 57.1345C91.4123 55.5487 90.4564 54.8168 88.9401 54.8168C88.4251 54.8168 87.9242 54.9388 87.4384 55.0298C87.3485 55.2893 87.3485 55.61 87.3485 56.0819V63.0833C87.3485 64.2725 87.3322 64.3793 88.7883 64.4561V64.9131C88.0608 64.8672 87.3485 64.8366 86.6047 64.8366C85.8615 64.8366 85.1488 64.8672 84.4663 64.9131V64.4561C85.9224 64.3793 85.9068 64.2725 85.9068 63.0833V56.0819C85.9068 54.8927 85.9224 54.7856 84.4663 54.71V54.252C85.3462 54.298 86.2254 54.3285 87.1357 54.3285C88.0301 54.3285 88.9094 54.298 89.7898 54.252C91.2602 54.252 92.9285 54.8927 92.9285 56.6159C92.9285 58.5228 91.291 59.7736 89.3954 59.8503Z" fill="#282828"/>
<path fill-rule="evenodd" clip-rule="evenodd" d="M102.836 63.235L102.68 64.8366C102.227 64.9131 101.32 64.8979 100.484 64.9131C99.6912 64.8672 98.8837 64.8366 98.0621 64.8366C97.2403 64.8366 96.4469 64.8672 95.6253 64.9131V64.4561C96.2913 64.3335 96.3908 63.8911 96.3908 62.6712V56.0819C96.3908 54.8927 96.4049 54.7856 95.0444 54.71V54.252C95.6825 54.298 96.3485 54.3285 97.0422 54.3285C97.7363 54.3285 98.4015 54.298 99.0818 54.252V54.71C97.7219 54.7856 97.7363 54.8927 97.7363 56.0819V63.5712L97.7791 64.135C98.3738 64.2115 99.0965 64.2115 99.776 64.2115C100.541 64.2115 101.32 64.1808 102.057 63.9521C102.114 63.8152 102.156 63.6471 102.198 63.4641L102.524 62.1826L102.978 62.2139C102.935 62.4272 102.893 62.8236 102.836 63.235Z" fill="#282828"/>
<path fill-rule="evenodd" clip-rule="evenodd" d="M113.772 64.8372C113.13 64.8372 112.501 64.8676 111.874 64.9131V64.46C112.244 64.4443 112.63 64.4292 112.944 64.2478C113.144 64.1417 113.158 63.8998 113.044 63.6281L112.173 61.4203H108.119C107.948 61.828 107.163 63.6281 107.163 63.9602C107.163 64.46 107.862 64.3839 108.376 64.46V64.9131C107.834 64.8676 107.291 64.8372 106.734 64.8372C106.177 64.8372 105.635 64.8676 105.093 64.9131V64.46C105.893 64.2932 105.992 64.4292 106.335 63.6429L107.034 62.085L108.961 57.5185C109.418 56.4451 109.889 55.3403 110.26 54.252H110.717L114.157 62.8564C114.343 63.3408 114.529 63.839 114.885 64.2018C115.042 64.3535 115.342 64.4443 115.671 64.46V64.9131C115.042 64.8676 114.415 64.8372 113.772 64.8372ZM110.132 56.2627L108.347 60.7696H111.916L110.132 56.2627Z" fill="#282828"/>
<path fill-rule="evenodd" clip-rule="evenodd" d="M122.553 64.8366C120.934 64.8366 119.36 64.8672 117.786 64.9131V64.4707L119.268 62.6712L124.449 56.0513L124.83 55.5333L125.197 54.9686C124.861 54.9686 124.54 54.9539 124.204 54.9539C123.057 54.9539 121.912 54.9686 120.766 55.0147C119.238 55.0753 119.406 55.2128 119.329 55.8686L119.223 56.7534H118.749C118.794 56.3416 118.826 55.9304 118.826 55.5026C118.826 55.0753 118.794 54.6639 118.749 54.252H127.291V54.7239L127.061 54.9686L119.879 64.151L123.852 64.1957C124.54 64.1957 125.533 64.2421 126.189 64.0282C126.511 63.922 126.573 63.6319 126.663 63.0675L126.801 62.1826H127.291L127.244 62.5647L127.306 64.9131C125.732 64.8672 124.158 64.8366 122.553 64.8366Z" fill="#282828"/>
<path fill-rule="evenodd" clip-rule="evenodd" d="M138.007 64.8372C137.332 64.8372 136.673 64.8676 136.014 64.9131V64.46C136.404 64.4443 136.807 64.4292 137.138 64.2478C137.347 64.1417 137.362 63.8998 137.242 63.6281L136.328 61.4203H132.071C131.891 61.828 131.067 63.6281 131.067 63.9602C131.067 64.46 131.801 64.3839 132.34 64.46V64.9131C131.771 64.8676 131.202 64.8372 130.618 64.8372C130.033 64.8372 129.463 64.8676 128.894 64.9131V64.46C129.732 64.2932 129.838 64.4292 130.197 63.6429L130.932 62.085L132.955 57.5185C133.435 56.4451 133.93 55.3403 134.32 54.252H134.8L138.412 62.8564C138.606 63.3408 138.802 63.839 139.176 64.2018C139.341 64.3535 139.656 64.4443 140 64.46V64.9131C139.341 64.8676 138.681 64.8372 138.007 64.8372ZM134.184 56.2627L132.311 60.7696H136.058L134.184 56.2627Z" fill="#282828"/>
<path fill-rule="evenodd" clip-rule="evenodd" d="M80.4996 26C75.3878 26 71.2441 30.2954 71.2441 35.5951C71.2441 40.8944 75.3878 45.19 80.4996 45.19C85.612 45.19 89.7552 40.8944 89.7552 35.5951C89.7552 30.2954 85.612 26 80.4996 26ZM80.4996 43.7089C76.1768 43.7089 72.673 40.0759 72.673 35.5951C72.673 31.1137 76.1768 27.4817 80.4996 27.4817C84.822 27.4817 88.3265 31.1137 88.3265 35.5951C88.3265 40.0759 84.822 43.7089 80.4996 43.7089Z" fill="#282828"/>
<path fill-rule="evenodd" clip-rule="evenodd" d="M85.482 40.3731C85.083 40.002 85.0597 38.9176 85.0597 38.9176C85.0597 38.9176 85.1444 31.9718 85.1444 31.6494C85.1444 31.3279 85.2645 30.9365 85.3987 30.6783C85.6048 30.4168 85.3527 30.267 85.3527 30.267C85.3527 30.267 83.5865 30.2613 82.946 30.267C83.391 30.4632 83.5193 31.5185 83.5829 31.7258C80.9575 30.2095 78.221 31.4423 78.0888 31.4861C77.9558 31.5297 77.9558 31.4152 77.9558 31.4152L78.5546 30.2693C78.5546 30.2693 76.5485 30.2635 76.2046 30.2693C76.0081 30.3559 76.1302 30.5254 76.2046 30.5968C76.4585 30.8149 76.5013 30.9889 76.5013 31.2189C76.5013 31.4477 76.4321 32.0646 76.4321 32.0646C76.4321 32.0646 75.7437 32.9486 75.5531 33.2102C75.3626 33.4725 75.5639 33.6902 75.7225 33.6468C76.5485 33.6798 76.5269 34.1272 76.6119 34.4326C76.6964 34.7382 76.7181 37.2809 76.6543 38.9283C76.5236 39.7618 76.3471 39.9221 76.0983 40.4239C76.0156 40.6274 76.1281 40.9261 76.3046 40.9256C76.4321 40.915 80.1684 40.784 80.4016 40.7656C81.7143 40.7589 83.4398 39.3909 83.6377 39.2524C83.5527 39.7981 83.3483 40.1837 83.1504 40.4895C82.9635 40.7019 83.2069 40.7787 83.2069 40.7787C83.2069 40.7787 85.1872 40.6911 85.4306 40.6692C85.5388 40.5891 85.55 40.4673 85.482 40.3731ZM78.242 39.2448L78.1572 33.9306C78.1572 33.9306 78.041 32.315 79.8298 32.3807C80.3161 32.3789 82.9742 32.0974 83.567 35.0327C83.5865 35.1584 83.5998 35.262 83.6075 35.3564C83.0419 35.7996 82.8972 35.8402 82.4348 35.798C82.0117 35.798 81.6656 34.9973 80.7428 34.9624C80.2257 34.9902 79.4351 35.3104 79.1655 35.9373C79.2428 36.1458 79.3577 36.3551 79.3577 36.3551C79.7429 35.902 80.2425 35.8675 80.2425 35.8675C80.8579 35.902 81.1526 36.842 81.8837 36.8765H81.9731C82.6155 36.8765 83.2891 36.31 83.5982 35.9495C83.5894 36.0545 83.5787 36.1743 83.567 36.3204C83.5796 36.7252 82.4979 39.9981 78.242 39.2448Z" fill="#282828"/>
<path fill-rule="evenodd" clip-rule="evenodd" d="M73.8883 44.1242C73.8883 44.4177 73.6515 44.6569 73.3601 44.6569C73.0666 44.6569 72.8306 44.4177 72.8306 44.1242C72.8306 43.83 73.0666 43.5908 73.3601 43.5908C73.6515 43.5908 73.8883 43.83 73.8883 44.1242Z" fill="#282828"/>
<path fill-rule="evenodd" clip-rule="evenodd" d="M88.1686 44.1242C88.1686 44.4177 87.9314 44.6569 87.6396 44.6569C87.3472 44.6569 87.1108 44.4177 87.1108 44.1242C87.1108 43.83 87.3472 43.5908 87.6396 43.5908C87.9314 43.5908 88.1686 43.83 88.1686 44.1242Z" fill="#282828"/>
<path fill-rule="evenodd" clip-rule="evenodd" d="M93.5607 33.2694C93.398 33.4508 93.239 33.6508 93.1325 33.8654C93.0156 34.1026 92.9685 34.3651 92.9399 34.6251C92.9058 34.951 92.9591 35.2719 92.9399 35.595C93.1887 35.3566 93.3761 35.0796 93.556 34.7901C93.6445 34.6484 93.7347 34.5081 93.7815 34.3471C93.8335 34.1683 93.8425 34.0051 93.8327 33.8207C93.8288 33.7435 93.8152 33.6524 93.8249 33.5747C93.8392 33.4734 93.9123 33.3848 93.9294 33.2795C93.9466 33.1625 93.9344 33.0396 93.986 32.9297C93.8371 32.9754 93.7225 33.0925 93.6211 33.2038C93.6001 33.2248 93.5802 33.2467 93.5607 33.2694Z" fill="#282828"/>
<path fill-rule="evenodd" clip-rule="evenodd" d="M67.4381 33.2694C67.6004 33.4508 67.7598 33.6508 67.8664 33.8654C67.984 34.1026 68.0302 34.3651 68.0586 34.6251C68.093 34.951 68.0397 35.2719 68.0586 35.595C67.8119 35.3566 67.622 35.0796 67.4416 34.7901C67.354 34.6484 67.2627 34.5081 67.2166 34.3471C67.1653 34.1683 67.1553 34.0051 67.1653 33.8207C67.1697 33.7435 67.183 33.6524 67.173 33.5747C67.1594 33.4734 67.0862 33.3848 67.0687 33.2795C67.0518 33.1625 67.0633 33.0396 67.0127 32.9297C67.1611 32.9754 67.2758 33.0925 67.3771 33.2038C67.3981 33.2248 67.4183 33.2467 67.4381 33.2694Z" fill="#282828"/>
<path fill-rule="evenodd" clip-rule="evenodd" d="M93.8768 36.5234C93.8517 36.7101 93.7899 36.8913 93.6967 37.0469C93.6433 37.1349 93.5905 37.2206 93.5301 37.3009C93.4608 37.3928 93.3656 37.4552 93.2807 37.526C93.219 37.5775 93.1551 37.6068 93.0848 37.6385C93.0309 37.6624 92.9808 37.7115 92.9282 37.7272C92.9464 37.6617 92.944 37.5954 92.9494 37.5283C92.958 37.4366 92.9826 37.3528 92.994 37.2633C93.0136 37.1014 93.047 36.9562 93.1037 36.8073C93.158 36.6589 93.2078 36.5136 93.2826 36.3806C93.3584 36.2449 93.4529 36.1306 93.5473 36.0152C93.6189 35.9291 93.7009 35.8488 93.7896 35.7862C93.8712 35.7318 93.9293 35.6853 93.986 35.595C93.9152 35.7067 93.9335 35.9291 93.9272 36.0575C93.9207 36.2094 93.8972 36.371 93.8768 36.5234Z" fill="#282828"/>
<path fill-rule="evenodd" clip-rule="evenodd" d="M67.1223 36.5234C67.147 36.7101 67.2086 36.8913 67.3024 37.0469C67.3551 37.1349 67.4081 37.2206 67.4683 37.3009C67.5377 37.3928 67.633 37.4552 67.7181 37.526C67.7803 37.5775 67.843 37.6068 67.9139 37.6385C67.9673 37.6624 68.0177 37.7115 68.0705 37.7272C68.0518 37.6617 68.0549 37.5954 68.0493 37.5283C68.0405 37.4366 68.0156 37.3528 68.0042 37.2633C67.9852 37.1014 67.9515 36.9562 67.8957 36.8073C67.8405 36.6589 67.7907 36.5136 67.7166 36.3806C67.6402 36.2449 67.5456 36.1306 67.4516 36.0152C67.38 35.9291 67.298 35.8488 67.2091 35.7862C67.1277 35.7318 67.0701 35.6853 67.0127 35.595C67.0836 35.7067 67.065 35.9291 67.0706 36.0575C67.0783 36.2094 67.1027 36.371 67.1223 36.5234Z" fill="#282828"/>
<path fill-rule="evenodd" clip-rule="evenodd" d="M90.18 42.5135C90.2115 42.2193 90.3007 41.935 90.2816 41.6296C90.2606 41.292 90.0948 41.0042 90.055 40.675C90.0441 40.5841 90.0405 40.48 90.0671 40.3925C90.0304 40.4175 89.9753 40.4999 89.9488 40.5455C89.912 40.6085 89.8814 40.6808 89.8565 40.7541C89.8129 40.8794 89.7944 41.0299 89.7775 41.1668C89.7428 41.4533 89.7435 41.8088 89.8188 42.0817C89.8729 42.2771 90.0052 42.5331 90.1826 42.5245C90.183 42.4643 90.2005 42.4081 90.2032 42.3469L90.18 42.5135Z" fill="#282828"/>
<path fill-rule="evenodd" clip-rule="evenodd" d="M70.8204 42.5135C70.7888 42.2193 70.6992 41.935 70.7185 41.6296C70.739 41.292 70.9049 41.0042 70.9448 40.675C70.9557 40.5841 70.9596 40.48 70.9329 40.3925C70.9691 40.4175 71.0247 40.4999 71.0511 40.5455C71.0881 40.6085 71.1187 40.6808 71.1438 40.7541C71.1869 40.8794 71.2058 41.0299 71.2223 41.1668C71.2574 41.4533 71.2566 41.8088 71.181 42.0817C71.1275 42.2771 70.9949 42.5331 70.817 42.5245C70.8164 42.4643 70.7993 42.4081 70.7968 42.3469L70.8204 42.5135Z" fill="#282828"/>
<path fill-rule="evenodd" clip-rule="evenodd" d="M88.7495 43.4956C88.7909 43.6852 88.8514 43.8506 88.9315 44.0013C88.9519 44.0384 88.9716 44.0763 88.9802 44.1239C88.9918 44.0781 88.9875 44.0185 88.9989 43.9669C89.0204 43.8733 89.0702 43.7747 89.1055 43.6946C89.174 43.5391 89.2086 43.3369 89.2197 43.1482C89.2332 42.9275 89.227 42.7154 89.2009 42.4971C89.1762 42.289 89.1236 42.1135 89.0724 41.9209C89.033 41.7716 89.0129 41.6093 88.9882 41.4586C88.9604 41.611 88.9037 41.7494 88.8634 41.8968C88.8196 42.0616 88.787 42.2283 88.755 42.3989C88.688 42.758 88.6719 43.1364 88.7495 43.4956Z" fill="#282828"/>
<path fill-rule="evenodd" clip-rule="evenodd" d="M72.25 43.4956C72.2088 43.6852 72.1482 43.8506 72.068 44.0013C72.0476 44.0384 72.0275 44.0763 72.0202 44.1239C72.0082 44.0781 72.0125 44.0185 72.0014 43.9669C71.9795 43.8733 71.9297 43.7747 71.8939 43.6946C71.8256 43.5391 71.7909 43.3369 71.7797 43.1482C71.7665 42.9275 71.7726 42.7154 71.7987 42.4971C71.8234 42.289 71.8759 42.1135 71.9271 41.9209C71.9663 41.7716 71.9866 41.6093 72.0116 41.4586C72.0394 41.611 72.0958 41.7494 72.1362 41.8968C72.1803 42.0616 72.2127 42.2283 72.2443 42.3989C72.3114 42.758 72.3279 43.1364 72.25 43.4956Z" fill="#282828"/>
<path fill-rule="evenodd" clip-rule="evenodd" d="M92.468 36.7065C92.468 35.9895 92.4235 35.3122 92.3454 34.6753C92.0947 34.7934 91.7132 34.6653 91.5316 34.4933C91.399 34.3671 91.3285 34.2011 91.2734 34.0294C91.2235 33.8716 91.1862 33.7089 91.1527 33.5483C91.1296 33.4337 91.0443 33.2198 91.1102 33.1096C91.2011 33.1755 91.2772 33.2621 91.3649 33.3336C91.48 33.4293 91.5969 33.5176 91.7106 33.6154C91.8228 33.7105 91.9414 33.7959 92.0475 33.8988C92.1075 33.9564 92.1941 34.0162 92.2623 34.083C92.1935 33.6598 92.1108 33.2573 92.0178 32.8749C91.9889 32.8733 91.9595 32.8704 91.9426 32.8669C91.5473 32.7954 91.1941 32.5364 90.9519 32.2368C90.826 32.0837 90.7006 31.9108 90.6292 31.7282C90.5995 31.6541 90.5779 31.5727 90.5546 31.4948C90.5368 31.4341 90.4896 31.3243 90.4989 31.2672C90.6164 31.3152 90.7388 31.3957 90.8531 31.4581C91.0207 31.5466 91.1897 31.6353 91.3424 31.7434C91.4605 31.8256 91.5707 31.9019 91.6776 31.9962C91.7042 32.0202 91.756 32.0524 91.8044 32.0884C91.1402 29.8783 90.1621 28.4727 89.7793 27.9786C89.7613 27.9728 89.5051 27.766 89.4663 27.7377C89.2935 27.6112 89.0871 27.5326 88.8918 27.4324C88.7379 27.3541 88.5966 27.2798 88.4759 27.157C88.3658 27.0431 88.2859 26.9086 88.1847 26.79C87.983 26.5533 87.8604 26.2815 87.7487 26C87.9467 26.1362 88.1742 26.247 88.4051 26.3393C88.6196 26.4259 88.8396 26.5058 89.0364 26.6205C89.2325 26.7341 89.3943 26.8687 89.5499 27.0299C89.6747 27.159 89.7682 27.3058 89.8341 27.4711C89.8648 27.5473 89.9449 27.7433 89.9542 27.7677C90.3692 28.3194 92.7901 31.7443 92.7901 36.6163C92.7901 38.1497 92.3914 39.525 91.7948 40.7233C91.979 40.5097 92.2786 40.3821 92.5436 40.3023C92.6899 40.2583 92.8351 40.2336 92.9799 40.1952C93.1367 40.1537 93.2967 40.1079 93.4576 40.0767C93.3897 40.0894 93.3323 40.1701 93.2956 40.2168C93.2264 40.301 93.1568 40.3832 93.0906 40.4695C92.9018 40.7202 92.7855 41.0172 92.5709 41.2532C92.45 41.388 92.283 41.5039 92.1081 41.5746C91.9872 41.6229 91.779 41.6544 91.6564 41.5941C91.5071 41.5205 91.4999 41.3585 91.545 41.1945C91.2754 41.6751 90.9781 42.1233 90.6648 42.5414C90.7895 42.472 90.9344 42.4292 91.0746 42.4044C91.3119 42.3626 91.5532 42.3574 91.7922 42.3439C92.0259 42.329 92.2512 42.2795 92.4821 42.2472C92.2821 42.4137 92.093 42.6264 91.9204 42.8193C91.8105 42.9417 91.6669 43.0265 91.5316 43.1215C91.4004 43.2149 91.25 43.2955 91.0945 43.3446C90.9338 43.3956 90.677 43.4444 90.5211 43.361C90.3853 43.2899 90.318 43.1104 90.3404 42.9689C90.3407 42.963 90.3425 42.9565 90.3442 42.9506C88.6071 45.0823 86.582 46.2561 86.582 46.2561V45.5008C86.582 45.5008 92.468 41.9913 92.468 36.7065Z" fill="#282828"/>
<path fill-rule="evenodd" clip-rule="evenodd" d="M68.531 36.7065C68.531 35.9895 68.577 35.3122 68.6546 34.6753C68.9047 34.7934 69.2862 34.6653 69.4675 34.4933C69.6007 34.3671 69.6719 34.2011 69.7255 34.0294C69.7762 33.8716 69.8138 33.7089 69.8467 33.5483C69.8709 33.4337 69.9552 33.2198 69.8887 33.1096C69.7989 33.1755 69.7223 33.2621 69.6345 33.3336C69.52 33.4293 69.4022 33.5176 69.2891 33.6154C69.1766 33.7105 69.0588 33.7959 68.9522 33.8988C68.8921 33.9564 68.8056 34.0162 68.7379 34.083C68.8067 33.6598 68.8889 33.2573 68.981 32.8749C69.0113 32.8733 69.0403 32.8704 69.0568 32.8669C69.4532 32.7954 69.8051 32.5364 70.0476 32.2368C70.1733 32.0837 70.2989 31.9108 70.3702 31.7282C70.3997 31.6541 70.4216 31.5727 70.4443 31.4948C70.4629 31.4341 70.5104 31.3243 70.5014 31.2672C70.3839 31.3152 70.2612 31.3957 70.1458 31.4581C69.9791 31.5466 69.8103 31.6353 69.657 31.7434C69.5387 31.8256 69.4302 31.9019 69.3217 31.9962C69.2952 32.0202 69.2445 32.0524 69.1947 32.0884C69.8593 29.8783 70.8369 28.4727 71.2196 27.9786C71.2383 27.9728 71.4954 27.766 71.5333 27.7377C71.7073 27.6112 71.9128 27.5326 72.1081 27.4324C72.2614 27.3541 72.4031 27.2798 72.524 27.157C72.6345 27.0431 72.7132 26.9086 72.8141 26.79C73.0172 26.5533 73.1402 26.2815 73.251 26C73.0531 26.1362 72.8254 26.247 72.5952 26.3393C72.3803 26.4259 72.1608 26.5058 71.9635 26.6205C71.7674 26.7341 71.6052 26.8687 71.4497 27.0299C71.3255 27.159 71.2313 27.3058 71.1655 27.4711C71.1354 27.5473 71.0552 27.7433 71.0459 27.7677C70.6302 28.3194 68.2095 31.7443 68.2095 36.6163C68.2095 38.1497 68.6085 39.525 69.2049 40.7233C69.021 40.5097 68.7214 40.3821 68.4558 40.3023C68.3097 40.2583 68.1651 40.2336 68.0194 40.1952C67.8623 40.1537 67.7032 40.1079 67.542 40.0767C67.6088 40.0894 67.6681 40.1701 67.7046 40.2168C67.7728 40.301 67.8434 40.3832 67.9095 40.4695C68.0987 40.7202 68.2145 41.0172 68.4284 41.2532C68.5499 41.388 68.7166 41.5039 68.891 41.5746C69.0131 41.6229 69.2221 41.6544 69.3422 41.5941C69.4929 41.5205 69.5008 41.3585 69.4544 41.1945C69.7235 41.6751 70.0219 42.1233 70.3347 42.5414C70.2108 42.472 70.0648 42.4292 69.9243 42.4044C69.6879 42.3626 69.4459 42.3574 69.2072 42.3439C68.974 42.329 68.7484 42.2795 68.5181 42.2472C68.7186 42.4137 68.9055 42.6264 69.0798 42.8193C69.1894 42.9417 69.3326 43.0265 69.4675 43.1215C69.6001 43.2149 69.7494 43.2955 69.9053 43.3446C70.0659 43.3956 70.3227 43.4444 70.4787 43.361C70.6145 43.2899 70.6812 43.1104 70.6592 42.9689C70.6589 42.963 70.6577 42.9565 70.6562 42.9506C72.3929 45.0823 74.4175 46.2561 74.4175 46.2561V45.5008C74.4175 45.5008 68.5309 41.9913 68.5309 36.7065H68.531Z" fill="#282828"/>
<path fill-rule="evenodd" clip-rule="evenodd" d="M91.109 29.7279C91.0064 29.7657 90.974 29.4865 90.9438 29.4307C90.8556 29.2741 90.7128 29.1575 90.6257 29.0062C90.468 28.7325 90.3413 28.3601 90.3099 28.0419C90.2921 27.876 90.2773 27.7134 90.2865 27.5522C90.2944 27.4018 90.2706 27.189 90.4046 27.0838C90.5149 26.9969 90.6 27.2537 90.6386 27.3414C90.7085 27.496 90.7665 27.6627 90.8563 27.8127C90.9487 27.9669 91.0594 28.1014 91.1361 28.2665C91.2156 28.4383 91.2769 28.6256 91.3125 28.8103C91.3482 28.9865 91.3557 29.1547 91.3073 29.3285C91.2806 29.4247 91.2198 29.6889 91.109 29.7279Z" fill="#282828"/>
<path fill-rule="evenodd" clip-rule="evenodd" d="M69.8884 29.7279C69.9915 29.7657 70.0246 29.4865 70.0549 29.4307C70.1422 29.2741 70.2863 29.1575 70.3729 29.0062C70.5312 28.7325 70.6571 28.3601 70.6888 28.0419C70.7046 27.876 70.7214 27.7134 70.7125 27.5522C70.7036 27.4018 70.727 27.189 70.5935 27.0838C70.484 26.9969 70.3977 27.2537 70.3588 27.3414C70.2906 27.496 70.2315 27.6627 70.1416 27.8127C70.0492 27.9669 69.9391 28.1014 69.8633 28.2665C69.7832 28.4383 69.7226 28.6256 69.686 28.8103C69.65 28.9865 69.6434 29.1547 69.6915 29.3285C69.7173 29.4247 69.7783 29.6889 69.8884 29.7279Z" fill="#282828"/>
<path fill-rule="evenodd" clip-rule="evenodd" d="M88.6978 28.1332C88.8038 28.1226 88.9807 28.2008 89.0864 28.2368C89.2719 28.2985 89.4512 28.3577 89.6261 28.4463C89.7726 28.5221 89.9087 28.6199 90.019 28.747C90.1176 28.8596 90.2466 29.0387 90.2844 29.1881C90.1802 29.2138 90.0713 29.183 89.9664 29.183C89.8522 29.1834 89.743 29.1542 89.6373 29.1079C89.4935 29.0466 89.3742 28.9347 89.2619 28.8238C89.0488 28.617 88.8693 28.3732 88.6978 28.1332Z" fill="#282828"/>
<path fill-rule="evenodd" clip-rule="evenodd" d="M72.3025 28.1332C72.1958 28.1226 72.0194 28.2008 71.9132 28.2368C71.7271 28.2985 71.5494 28.3577 71.3739 28.4463C71.2271 28.5221 71.0918 28.6199 70.9814 28.747C70.8831 28.8596 70.7544 29.0387 70.7158 29.1881C70.8207 29.2138 70.9298 29.183 71.0334 29.183C71.1483 29.1834 71.2569 29.1542 71.3631 29.1079C71.5073 29.0466 71.626 28.9347 71.7395 28.8238C71.9504 28.617 72.1311 28.3732 72.3025 28.1332Z" fill="#282828"/>
<path fill-rule="evenodd" clip-rule="evenodd" d="M90.6989 30.0973C91.0057 30.2545 91.2116 30.4773 91.342 30.7345C91.2388 30.7729 91.1289 30.799 91.0114 30.7974C90.673 30.7936 90.394 30.6102 90.2036 30.4194C90.0934 30.3083 90.0199 30.1806 89.9387 30.0574C89.8723 29.9551 89.8003 29.8381 89.7554 29.7314C89.9067 29.7777 90.0508 29.8401 90.2021 29.8917C90.3691 29.9483 90.5464 30.019 90.6989 30.0973Z" fill="#282828"/>
<path fill-rule="evenodd" clip-rule="evenodd" d="M70.3018 30.0973C69.9931 30.2545 69.7872 30.4773 69.6572 30.7345C69.7607 30.7729 69.8714 30.799 69.9879 30.7974C70.3255 30.7936 70.6054 30.6102 70.7951 30.4194C70.9051 30.3083 70.9789 30.1806 71.0596 30.0574C71.1276 29.9551 71.199 29.8381 71.2439 29.7314C71.0912 29.7777 70.948 29.8401 70.7965 29.8917C70.629 29.9483 70.4524 30.019 70.3018 30.0973Z" fill="#282828"/>
<path fill-rule="evenodd" clip-rule="evenodd" d="M92.2862 31.0509C92.2527 31.1383 92.2152 31.2702 92.1531 31.3178C92.0628 31.385 91.9927 31.17 91.9621 31.0662C91.9106 30.8942 91.8918 30.7167 91.8768 30.5322C91.8646 30.3822 91.8726 30.2072 91.882 30.0564C91.8928 29.8831 91.8967 29.7124 91.9222 29.5428C91.9476 29.3732 91.9828 29.2036 92.0172 29.0378C92.0313 28.9686 92.0476 28.9008 92.0607 28.8314C92.0718 28.7743 92.0681 28.7143 92.0911 28.6653C92.1396 28.7821 92.1631 28.9454 92.2016 29.0759C92.2462 29.224 92.2952 29.3698 92.3232 29.5244C92.3848 29.8683 92.4242 30.2104 92.3817 30.5667C92.3606 30.7403 92.3449 30.8974 92.2862 31.0509Z" fill="#282828"/>
<path fill-rule="evenodd" clip-rule="evenodd" d="M68.7134 31.0509C68.7472 31.1383 68.7847 31.2702 68.8468 31.3178C68.9366 31.385 69.0068 31.17 69.0374 31.0662C69.0886 30.8942 69.1074 30.7167 69.1226 30.5322C69.1352 30.3822 69.1268 30.2072 69.1176 30.0564C69.1072 29.8831 69.1026 29.7124 69.077 29.5428C69.052 29.3732 69.0167 29.2036 68.9821 29.0378C68.9675 28.9686 68.9523 28.9008 68.9388 28.8314C68.9277 28.7743 68.9312 28.7143 68.9084 28.6653C68.8598 28.7821 68.8365 28.9454 68.7981 29.0759C68.7543 29.224 68.7041 29.3698 68.6763 29.5244C68.6145 29.8683 68.5754 30.2104 68.618 30.5667C68.6385 30.7403 68.6542 30.8974 68.7134 31.0509Z" fill="#282828"/>
<path fill-rule="evenodd" clip-rule="evenodd" d="M93.3493 32.3451C93.2703 32.5984 93.1432 32.8174 92.9874 33.048C92.8825 33.2038 92.7067 33.3252 92.5712 33.4628C92.5739 33.3521 92.4781 33.2155 92.4504 33.1038C92.4308 33.0337 92.4187 32.9645 92.4143 32.8946C92.4084 32.8004 92.4028 32.7091 92.4006 32.6173C92.3929 32.3147 92.421 32.0233 92.5731 31.7256C92.6573 31.5591 92.7739 31.4143 92.8877 31.2605C92.9568 31.1696 93.014 31.0766 93.0971 30.9911C93.1314 30.9548 93.2825 30.8033 93.3361 30.7978C93.4062 30.7888 93.4184 30.9579 93.4258 31.004C93.4605 31.1925 93.4571 31.3827 93.4571 31.5714C93.4571 31.8311 93.4269 32.0917 93.3493 32.3451Z" fill="#282828"/>
<path fill-rule="evenodd" clip-rule="evenodd" d="M67.6497 32.3451C67.7277 32.5984 67.8553 32.8174 68.0116 33.048C68.1169 33.2038 68.2912 33.3252 68.4274 33.4628C68.4251 33.3521 68.5208 33.2155 68.5493 33.1038C68.5667 33.0337 68.5799 32.9645 68.5854 32.8946C68.5907 32.8004 68.5965 32.7091 68.5988 32.6173C68.6058 32.3147 68.5781 32.0233 68.4267 31.7256C68.3413 31.5591 68.2255 31.4143 68.1109 31.2605C68.0429 31.1696 67.9843 31.0766 67.9026 30.9911C67.8673 30.9548 67.7165 30.8033 67.6623 30.7978C67.5924 30.7888 67.5795 30.9579 67.5726 31.004C67.5386 31.1925 67.5415 31.3827 67.5425 31.5714C67.5429 31.8311 67.5714 32.0917 67.6497 32.3451Z" fill="#282828"/>
<path fill-rule="evenodd" clip-rule="evenodd" d="M91.3815 36.0618C91.3442 35.8912 91.3455 35.7058 91.3442 35.5318C91.3432 35.3868 91.33 35.1953 91.3895 35.0619C91.4145 35.1162 91.4229 35.1693 91.4543 35.221C91.5623 35.3975 91.7403 35.5474 91.8933 35.6864C92.0343 35.8157 92.1444 35.9735 92.2234 36.1496C92.2993 36.3177 92.3345 36.4957 92.3638 36.6774C92.3918 36.8516 92.4119 37.0191 92.3922 37.1941C92.2351 37.1984 92.0624 37.0024 91.9424 36.9196C91.6499 36.7172 91.4556 36.4033 91.3815 36.0618Z" fill="#282828"/>
<path fill-rule="evenodd" clip-rule="evenodd" d="M69.6195 36.0618C69.6556 35.8912 69.6546 35.7058 69.6556 35.5318C69.6575 35.3868 69.6697 35.1953 69.6102 35.0619C69.585 35.1162 69.5772 35.1693 69.5464 35.221C69.4378 35.3975 69.2599 35.5474 69.1063 35.6864C68.966 35.8157 68.8563 35.9735 68.777 36.1496C68.7011 36.3177 68.6666 36.4957 68.6364 36.6774C68.6083 36.8516 68.5883 37.0191 68.608 37.1941C68.7649 37.1984 68.9376 37.0024 69.0582 36.9196C69.3505 36.7172 69.5445 36.4033 69.6195 36.0618Z" fill="#282828"/>
<path fill-rule="evenodd" clip-rule="evenodd" d="M91.7742 38.7933C91.7019 38.7101 91.6179 38.6402 91.5585 38.5242C91.4222 38.2566 91.3718 37.9541 91.3461 37.6023C91.3345 37.4363 91.3521 37.267 91.3608 37.1024C91.3684 36.9659 91.3561 36.7919 91.3755 36.6611C91.4249 36.8029 91.484 36.9274 91.553 37.0409C91.6365 37.1786 91.7195 37.3181 91.7742 37.5009C91.8159 37.6397 91.8486 37.7893 91.8602 37.9441C91.872 38.0967 91.8778 38.2566 91.8591 38.4092C91.8428 38.5467 91.8225 38.6788 91.7742 38.7933H91.7742Z" fill="#282828"/>
<path fill-rule="evenodd" clip-rule="evenodd" d="M69.2253 38.7933C69.2984 38.7101 69.3817 38.6402 69.441 38.5242C69.5774 38.2566 69.628 37.9541 69.6535 37.6023C69.6651 37.4363 69.6473 37.267 69.6388 37.1024C69.6317 36.9659 69.644 36.7919 69.6244 36.6611C69.5751 36.8029 69.5158 36.9274 69.4461 37.0409C69.3629 37.1786 69.2797 37.3181 69.2253 37.5009C69.1839 37.6397 69.1511 37.7893 69.1391 37.9441C69.1279 38.0967 69.1217 38.2566 69.1402 38.4092C69.1569 38.5467 69.1773 38.6788 69.2252 38.7933H69.2253Z" fill="#282828"/>
<path fill-rule="evenodd" clip-rule="evenodd" d="M92.8885 39.6055C92.735 39.7111 92.5545 39.7608 92.3994 39.8595C92.4177 39.6155 92.4945 39.394 92.5989 39.1846C92.6785 39.0226 92.7749 38.8673 92.8714 38.712C92.9744 38.5466 93.0939 38.3772 93.2382 38.2449C93.3735 38.1196 93.5172 38.0234 93.6573 37.9138C93.7537 37.8395 93.8744 37.7721 93.9861 37.7272C93.9639 37.8234 93.9059 37.9254 93.8795 38.0234C93.8508 38.1295 93.807 38.2367 93.7644 38.339C93.6348 38.6549 93.5394 38.9663 93.3113 39.2247C93.185 39.3676 93.045 39.4988 92.8885 39.6055Z" fill="#282828"/>
<path fill-rule="evenodd" clip-rule="evenodd" d="M68.1102 39.6055C68.265 39.7111 68.4445 39.7608 68.5993 39.8595C68.5819 39.6155 68.5053 39.394 68.4009 39.1846C68.3207 39.0226 68.2242 38.8673 68.1283 38.712C68.0253 38.5466 67.9051 38.3772 67.761 38.2449C67.6257 38.1196 67.4812 38.0234 67.3411 37.9138C67.2455 37.8395 67.1242 37.7721 67.0127 37.7272C67.0344 37.8234 67.0938 37.9254 67.1194 38.0234C67.1467 38.1295 67.1922 38.2367 67.2339 38.339C67.3639 38.6549 67.4599 38.9663 67.6878 39.2247C67.8136 39.3676 67.954 39.4988 68.1102 39.6055Z" fill="#282828"/>
<path fill-rule="evenodd" clip-rule="evenodd" d="M91.248 40.7966C91.2042 40.9698 91.1116 40.947 91.005 40.8541C90.9162 40.776 90.8757 40.6914 90.854 40.5617C90.8304 40.4265 90.8272 40.2977 90.8229 40.1571C90.8171 40.0051 90.8076 39.8409 90.8184 39.6902C90.8299 39.5367 90.8473 39.3813 90.854 39.2291C90.8595 39.094 90.843 38.9226 90.8763 38.7933C90.8955 38.8651 90.9444 38.929 90.982 38.9876C91.0435 39.0846 91.0861 39.1896 91.136 39.296C91.268 39.5776 91.3424 39.8575 91.3424 40.1837C91.3424 40.3345 91.3372 40.4774 91.3016 40.6222C91.2858 40.6832 91.2626 40.7363 91.248 40.7966Z" fill="#282828"/>
<path fill-rule="evenodd" clip-rule="evenodd" d="M69.7523 40.7966C69.7953 40.9698 69.8884 40.947 69.9947 40.8541C70.0833 40.776 70.1247 40.6914 70.1461 40.5617C70.1695 40.4265 70.1725 40.2977 70.1768 40.1571C70.1821 40.0051 70.1923 39.8409 70.181 39.6902C70.1698 39.5367 70.1526 39.3813 70.1461 39.2291C70.14 39.094 70.1561 38.9226 70.1238 38.7933C70.104 38.8651 70.0555 38.929 70.0172 38.9876C69.9567 39.0846 69.9136 39.1896 69.8634 39.296C69.7311 39.5776 69.6572 39.8575 69.6572 40.1837C69.6572 40.3345 69.6629 40.4774 69.6985 40.6222C69.7135 40.6832 69.7375 40.7363 69.7523 40.7966Z" fill="#282828"/>
<path fill-rule="evenodd" clip-rule="evenodd" d="M90.1086 44.1793C90.5225 44.1508 90.9329 44.1902 91.3421 44.1239C91.259 44.1963 91.2227 44.3326 91.1381 44.4018C91.0378 44.4855 90.9453 44.5892 90.8434 44.6755C90.6604 44.8294 90.4757 44.9818 90.2719 45.0745C90.0963 45.154 89.8997 45.1858 89.7159 45.1899C89.5711 45.1926 89.3576 45.1124 89.2687 44.945C89.2011 44.8164 89.2205 44.6541 89.2864 44.5335C89.464 44.2062 89.8325 44.1982 90.1086 44.1793Z" fill="#282828"/>
<path fill-rule="evenodd" clip-rule="evenodd" d="M70.8909 44.1793C70.4776 44.1508 70.067 44.1902 69.6572 44.1239C69.7402 44.1963 69.7773 44.3326 69.8613 44.4018C69.9611 44.4855 70.0551 44.5892 70.1558 44.6755C70.3385 44.8294 70.5234 44.9818 70.7278 45.0745C70.9037 45.154 71.1002 45.1858 71.2826 45.1899C71.4277 45.1926 71.642 45.1124 71.7306 44.945C71.7987 44.8164 71.7782 44.6541 71.7126 44.5335C71.5352 44.2062 71.1669 44.1982 70.8909 44.1793Z" fill="#282828"/>
<path fill-rule="evenodd" clip-rule="evenodd" d="M89.2262 47.8553C89.2262 48.1497 88.9448 48.3883 88.5972 48.3883H72.4018C72.0545 48.3883 71.7729 48.1497 71.7729 47.8553C71.7729 47.5609 72.0545 47.3222 72.4018 47.3222H88.5972C88.9448 47.3222 89.2262 47.5609 89.2262 47.8553Z" fill="#282828"/>
<path fill-rule="evenodd" clip-rule="evenodd" d="M88.1692 49.4544C88.1692 49.7488 87.9305 49.9875 87.6356 49.9875H73.8939C73.5993 49.9875 73.3604 49.7488 73.3604 49.4544C73.3604 49.16 73.5993 48.9214 73.8939 48.9214H87.6356C87.9305 48.9214 88.1692 49.16 88.1692 49.4544Z" fill="#282828"/>
<path fill-rule="evenodd" clip-rule="evenodd" d="M75.4757 51.1595C75.4757 50.8066 75.2391 50.5206 74.9469 50.5206C74.6548 50.5206 74.418 50.8066 74.418 51.1595V53.1859H75.4757V51.1595Z" fill="#282828"/>
<path fill-rule="evenodd" clip-rule="evenodd" d="M77.591 51.1595C77.591 50.8066 77.3543 50.5206 77.0622 50.5206C76.7701 50.5206 76.5332 50.8066 76.5332 51.1595V53.1859H77.591V51.1595Z" fill="#282828"/>
<path fill-rule="evenodd" clip-rule="evenodd" d="M80.2351 51.1595C80.2351 50.8066 79.8802 50.5206 79.442 50.5206C79.0038 50.5206 78.6484 50.8066 78.6484 51.1595V53.1859H80.2351V51.1595Z" fill="#282828"/>
<path fill-rule="evenodd" clip-rule="evenodd" d="M82.3508 51.1595C82.3508 50.8066 81.9957 50.5206 81.5577 50.5206C81.1195 50.5206 80.7642 50.8066 80.7642 51.1595V53.1859H82.3508V51.1595Z" fill="#282828"/>
<path fill-rule="evenodd" clip-rule="evenodd" d="M84.467 51.1595C84.467 50.8066 84.2302 50.5206 83.9383 50.5206C83.6459 50.5206 83.4092 50.8066 83.4092 51.1595V53.1859H84.467V51.1595Z" fill="#282828"/>
<path fill-rule="evenodd" clip-rule="evenodd" d="M86.5817 51.1595C86.5817 50.8066 86.345 50.5206 86.0529 50.5206C85.7608 50.5206 85.5239 50.8066 85.5239 51.1595V53.1859H86.5817V51.1595Z" fill="#282828"/>
<path fill-rule="evenodd" clip-rule="evenodd" d="M30.5182 62.7922L30.5754 64.167C30.3462 64.2258 30.1309 64.2985 29.9016 64.3576C28.9986 64.6354 27.7229 64.9131 26.7772 64.9131C23.5806 64.9131 21 63.2167 21 59.6044C21 56.2848 23.4368 54.252 26.8772 54.252C28.1388 54.252 29.3998 54.5592 30.6042 54.9103C30.4609 55.6412 30.3749 56.3721 30.2889 57.1036H29.8731C29.8303 56.1673 30.0595 55.8309 29.2138 55.4073C28.626 55.1146 27.9381 54.8661 26.9058 54.8661C24.1532 54.8661 22.5338 56.6794 22.5338 59.2678C22.5338 62.2077 24.1966 64.284 27.1497 64.284C28.2534 64.284 29.0561 64.0646 29.1712 63.6992C29.2998 63.2604 29.2138 61.6665 29.185 61.4323C29.1426 61.1256 28.5687 61.1399 27.551 61.0962V60.6575H31.0489V61.0231C30.3462 61.1399 30.4755 61.8562 30.5182 62.7922Z" fill="#282828"/>
</svg>
