<svg width="80" height="80" viewBox="0 0 80 80" fill="none" xmlns="http://www.w3.org/2000/svg">
<path d="M75.9999 71.9598V70.6197C75.9888 68.926 74.9222 67.4211 73.3332 66.8571V65.2593C73.328 63.5612 72.26 62.0501 70.6665 61.4859V40.8904C72.26 40.3262 73.3278 38.8152 73.3332 37.1169V34.7534L75.7628 29.8693L79.609 26.0034C80.1297 25.4809 80.1304 24.6331 79.6106 24.1099C79.5353 24.0342 79.4514 23.9678 79.3605 23.9122L40.6942 0.196466C40.2681 -0.065326 39.7322 -0.065326 39.3062 0.196466L0.639811 23.9122C0.0113788 24.2966 -0.188151 25.1203 0.194346 25.7519C0.249658 25.8433 0.315751 25.9278 0.391063 26.0034L4.23728 29.8693L6.66695 34.7534V37.1169C6.67211 38.815 7.74007 40.3261 9.33365 40.8902V61.4857C7.74007 62.0498 6.67226 63.5609 6.66695 65.2592V66.8569C5.0779 67.4209 4.01135 68.9258 4.00025 70.6196V71.9596C1.79215 71.962 0.00262888 73.7606 0.000285148 75.9799V78.6602C0.0001289 79.4002 0.596687 80.0001 1.33293 80.0003C1.33324 80.0003 1.3334 80.0003 1.33356 80.0003H78.6665C79.4028 80.0004 79.9997 79.4008 79.9998 78.6609C79.9998 78.6607 79.9998 78.6604 79.9998 78.6602V75.9799C79.9975 73.7608 78.208 71.9621 75.9999 71.9598ZM70.6666 37.1169C70.6658 37.8567 70.0694 38.4563 69.3333 38.457H61.3334C60.5973 38.4562 60.0008 37.8567 60.0001 37.1169V35.7768H70.6668V37.1169H70.6666ZM33.3336 61.4859V40.8904C34.9272 40.3262 35.995 38.8152 36.0003 37.1169V35.7768H44.0003V37.1169C44.0054 38.815 45.0734 40.3261 46.667 40.8902V61.4857C45.0734 62.0498 44.0056 63.5609 44.0003 65.2592V66.5992H36.0003V65.2592C35.995 63.5611 34.927 62.05 33.3336 61.4859ZM10.6671 38.4571C9.93099 38.4563 9.33443 37.8569 9.33381 37.1171V35.777H20.0004V37.1171C19.9997 37.8569 19.4033 38.4565 18.6672 38.4571H10.6671ZM17.3336 41.1372V61.2389H12.0003V41.1372H17.3336ZM20.0003 40.8904C20.4926 40.7146 20.9456 40.4432 21.3336 40.0916C21.7215 40.4432 22.1746 40.7146 22.6668 40.8902V61.4857C22.1745 61.6615 21.7215 61.9328 21.3336 62.2845C20.9456 61.9328 20.4925 61.6615 20.0003 61.4857V40.8904ZM22.667 65.2592C22.6678 64.5193 23.2643 63.9198 24.0003 63.9191H32.0002C32.7363 63.9199 33.3328 64.5193 33.3335 65.2592V66.5992H22.667V65.2592ZM25.3335 61.2389V41.1372H30.6668V61.2389H25.3335ZM32.0002 38.4571H24.0003C23.2642 38.4563 22.6676 37.8569 22.667 37.1171V35.777H33.3336V37.1171C33.3328 37.8567 32.7363 38.4563 32.0002 38.4571ZM46.6668 65.2592C46.6676 64.5193 47.264 63.9198 48.0001 63.9191H56C56.7361 63.9199 57.3327 64.5193 57.3333 65.2592V66.5992H46.6668V65.2592ZM49.3333 61.2389V41.1372H54.6666V61.2389H49.3333ZM56 38.4571H48.0001C47.264 38.4563 46.6674 37.8569 46.6668 37.1171V35.777H57.3334V37.1171C57.3327 37.8567 56.7361 38.4563 56 38.4571ZM57.3333 40.8904C57.8256 40.7146 58.2786 40.4432 58.6665 40.0916C59.0545 40.4432 59.5076 40.7146 59.9998 40.8902V61.4857C59.5075 61.6615 59.0545 61.9328 58.6665 62.2845C58.2786 61.9328 57.8255 61.6615 57.3333 61.4857V40.8904ZM60 65.2592C60.0008 64.5193 60.5973 63.9198 61.3332 63.9191H69.3332C70.0693 63.9199 70.6658 64.5193 70.6665 65.2592V66.5992H59.9998V65.2592H60ZM62.6667 61.2389V41.1372H67.9999V61.2389H62.6667ZM5.53165 27.3802L3.47432 25.3124L40.0001 2.91003L76.5259 25.3124L74.4686 27.3802L40.6993 6.4933C40.2706 6.22759 39.7297 6.22759 39.3009 6.4933L5.53165 27.3802ZM69.9557 27.7362H10.0446L40.0001 9.20828L69.9557 27.7362ZM8.82459 33.0966L7.49132 30.4163H72.5091L71.1758 33.0966H8.82459ZM9.33365 65.2592C9.33443 64.5193 9.93083 63.9198 10.6669 63.9191H18.6669C19.4029 63.9199 19.9995 64.5193 20.0001 65.2592V66.5992H9.33365V65.2592ZM77.3331 77.3202H2.66714V75.9801C2.66792 75.2403 3.26432 74.6407 4.00041 74.6401H32.0002C32.7366 74.6401 33.3335 74.0401 33.3335 73.3C33.3335 72.5598 32.7364 71.9599 32.0002 71.9599H6.66711V70.6199C6.68258 69.8658 7.3021 69.2663 8.05257 69.2798H71.9479C72.6982 69.2665 73.3178 69.8658 73.3333 70.6199V71.9599H48.0001C47.2637 71.9599 46.6668 72.5598 46.6668 73.3C46.6668 74.0401 47.2637 74.6401 48.0001 74.6401H75.9999C76.7359 74.6408 77.3325 75.2403 77.3331 75.9801V77.3202Z" fill="#B58D73"/>
<path d="M40.0002 13.665C37.056 13.6682 34.6701 16.0662 34.6669 19.0254C34.6669 21.9859 37.0547 24.3858 40.0002 24.3858C42.9456 24.3858 45.3334 21.9859 45.3334 19.0254C45.3334 16.065 42.9456 13.665 40.0002 13.665ZM40.0002 21.7057C38.5274 21.7057 37.3335 20.5057 37.3335 19.0254C37.3335 17.5451 38.5274 16.3452 40.0002 16.3452C41.4722 16.3469 42.6652 17.5458 42.6669 19.0254C42.6669 20.5057 41.473 21.7057 40.0002 21.7057Z" fill="#B58D73"/>
</svg>
