<svg width="80" height="80" viewBox="0 0 80 80" fill="none" xmlns="http://www.w3.org/2000/svg">
<path d="M58.6045 22.1767C58.3141 21.8861 57.9109 21.7189 57.5 21.7189C57.0891 21.7189 56.6859 21.8861 56.3953 22.1767C56.1047 22.4673 55.9375 22.8689 55.9375 23.2814C55.9375 23.6923 56.1045 24.0954 56.3953 24.3861C56.6861 24.6767 57.0891 24.8439 57.5 24.8439C57.9109 24.8439 58.3141 24.6767 58.6045 24.3861C58.8952 24.0954 59.0625 23.6923 59.0625 23.2814C59.0625 22.8704 58.8953 22.4673 58.6045 22.1767Z" fill="#B58D73"/>
<path d="M23.4375 44.0626H10.9375C10.0747 44.0626 9.375 44.7622 9.375 45.6251V58.1251C9.375 58.9881 10.0747 59.6876 10.9375 59.6876H23.4375C24.3003 59.6876 25 58.9881 25 58.1251V45.6251C25 44.7622 24.3005 44.0626 23.4375 44.0626ZM21.875 56.5626H12.5V47.1876H21.875V56.5626Z" fill="#B58D73"/>
<path d="M79.0355 32.7753C78.4515 32.5332 77.7794 32.6673 77.3326 33.1139L61.4111 49.0354C61.4109 49.0358 61.4106 49.0359 61.4103 49.0362C61.41 49.0365 61.4098 49.0367 61.4097 49.037L42.8497 67.597C42.8494 67.5973 42.8492 67.5975 42.8489 67.5978C42.8486 67.5981 42.8484 67.5983 42.8481 67.5986L33.1139 77.3328C32.6672 77.7797 32.5334 78.4519 32.7751 79.0356C33.017 79.6195 33.5867 80.0001 34.2187 80.0001H78.4375C79.3003 80.0001 80 79.3006 80 78.4376V34.2189C80 33.587 79.6194 33.0172 79.0355 32.7753ZM76.875 76.8751H37.9911L43.9537 70.9125L45.4453 72.404C45.7504 72.7092 46.1503 72.8617 46.5501 72.8617C46.95 72.8617 47.3498 72.7092 47.655 72.404C48.2651 71.7939 48.2651 70.8045 47.655 70.1942L46.1634 68.7026L50.1409 64.7251L51.6323 66.2165C51.9375 66.5217 52.3373 66.6742 52.7372 66.6742C53.137 66.6742 53.5369 66.5215 53.842 66.2165C54.4522 65.6064 54.4522 64.617 53.842 64.0069L52.3505 62.5153L56.328 58.5378L57.8195 60.0293C58.1247 60.3345 58.5245 60.487 58.9244 60.487C59.3242 60.487 59.724 60.3345 60.0292 60.0293C60.6394 59.4192 60.6394 58.4298 60.0292 57.8195L58.5376 56.3279L62.515 52.3506L64.0065 53.8422C64.3117 54.1473 64.7116 54.2998 65.1114 54.2998C65.5112 54.2998 65.9111 54.1473 66.2162 53.8422C66.8264 53.232 66.8264 52.2426 66.2162 51.6323L64.7247 50.1408L68.7022 46.1633L70.1936 47.6547C70.4987 47.9598 70.8986 48.1123 71.2984 48.1123C71.6983 48.1123 72.0981 47.9597 72.4033 47.6547C73.0134 47.0445 73.0134 46.0551 72.4033 45.445L70.9117 43.9534L76.875 37.9911V76.8751Z" fill="#B58D73"/>
<path d="M71.2229 51.6364C70.639 51.3944 69.9668 51.5283 69.5201 51.975L51.9749 69.5203C51.5282 69.9672 51.3943 70.6392 51.6362 71.2231C51.878 71.807 52.4477 72.1877 53.0798 72.1877H70.6249C71.4877 72.1877 72.1874 71.4881 72.1874 70.6252V53.08C72.1874 52.4481 71.8068 51.8783 71.2229 51.6364ZM69.0624 69.0627H56.8521L69.0624 56.8522V69.0627Z" fill="#B58D73"/>
<path d="M72.3531 23.322C71.923 22.892 71.2827 22.7504 70.7109 22.9597L60.042 26.8667C59.8287 26.9448 59.6351 27.0684 59.4744 27.229L56.4745 30.2289L36.8861 10.6403C36.593 10.3473 36.1956 10.1826 35.7812 10.1826C35.3669 10.1826 34.9694 10.3473 34.6764 10.6403L11.0978 34.2189H5.33482L35.7812 3.77231L52.4889 20.48C53.0992 21.0901 54.0883 21.0901 54.6987 20.48C55.3089 19.8698 55.3089 18.8804 54.6987 18.2701L36.8862 0.457617C36.2759 -0.152539 35.2869 -0.152539 34.6764 0.457617L0.457633 34.6764C0.0109143 35.1233 -0.122836 35.7953 0.118883 36.3792C0.360758 36.9633 0.930446 37.3439 1.56248 37.3439H3.12498V78.4376C3.12498 79.3006 3.82467 80.0001 4.68748 80.0001H29.529C30.3919 80.0001 31.0915 79.3006 31.0915 78.4376C31.0915 77.5747 30.3919 76.8751 29.529 76.8751H6.24998V37.3439H11.745C12.1594 37.3439 12.5567 37.1792 12.8498 36.8862L35.7812 13.9548L54.2647 32.4384L31.0937 55.6095V41.5626H42.0312C42.8941 41.5626 43.5937 40.8631 43.5937 40.0001C43.5937 39.1372 42.8941 38.4376 42.0312 38.4376H29.5312C28.6684 38.4376 27.9687 39.1372 27.9687 40.0001V58.1251C27.9687 58.3075 28.0015 58.4815 28.0589 58.6442L26.659 60.044C24.1856 62.5175 24.1856 66.5422 26.659 69.0156C27.8959 70.2525 29.5201 70.8709 31.1448 70.8708C32.7692 70.8708 34.394 70.2523 35.6306 69.0158L48.8075 55.8389C49.4176 55.2287 49.4176 54.2393 48.8075 53.6292C48.1973 53.019 47.2083 53.019 46.5976 53.6292L36.6145 63.6123L32.0625 59.0603L60.6105 30.5123L65.1625 35.0643L54.2539 45.9731C53.6437 46.5833 53.6437 47.5726 54.2539 48.1828C54.8642 48.7929 55.8533 48.7929 56.4637 48.1828L68.4459 36.2006C68.6064 36.04 68.7302 35.8462 68.8081 35.6331L72.7153 24.9642C72.9245 24.3929 72.7833 23.7522 72.3531 23.322ZM34.405 65.8219L33.4209 66.8059C32.813 67.4139 32.0048 67.7487 31.145 67.7487C30.2851 67.7487 29.4769 67.4139 28.869 66.8059C28.2609 66.198 27.9262 65.3897 27.9262 64.53C27.9262 63.6703 28.2608 62.8619 28.8689 62.2539L29.853 61.2698L34.405 65.8219ZM66.7322 32.2142L63.4606 28.9426L68.6228 27.0522L66.7322 32.2142Z" fill="#B58D73"/>
<path d="M52.6076 49.8283C52.3171 49.5377 51.914 49.3705 51.5031 49.3705C51.0921 49.3705 50.689 49.5377 50.3984 49.8283C50.1077 50.1205 49.9406 50.522 49.9406 50.933C49.9406 51.3455 50.1076 51.747 50.3984 52.0392C50.689 52.3299 51.0906 52.4955 51.5031 52.4955C51.914 52.4955 52.3171 52.3299 52.6076 52.0392C52.8982 51.747 53.0656 51.3439 53.0656 50.933C53.0656 50.522 52.8984 50.1205 52.6076 49.8283Z" fill="#B58D73"/>
<path d="M35.7813 23.5939C32.5073 23.5939 29.8438 26.2575 29.8438 29.5314C29.8438 32.8053 32.5073 35.4689 35.7813 35.4689C39.0552 35.4689 41.7188 32.8053 41.7188 29.5314C41.7188 26.2575 39.0552 23.5939 35.7813 23.5939ZM35.7813 32.3439C34.2305 32.3439 32.9688 31.0823 32.9688 29.5314C32.9688 27.9806 34.2305 26.7189 35.7813 26.7189C37.332 26.7189 38.5938 27.9806 38.5938 29.5314C38.5938 31.0822 37.332 32.3439 35.7813 32.3439Z" fill="#B58D73"/>
</svg>
