<svg width="80" height="80" viewBox="0 0 80 80" fill="none" xmlns="http://www.w3.org/2000/svg">
<path d="M78.8258 21.2916C76.7108 21.2916 74.9902 19.5711 74.9902 17.456C74.9902 16.8074 74.4646 16.2817 73.816 16.2817C73.1674 16.2817 72.6418 16.8074 72.6418 17.456C72.6418 19.571 70.9213 21.2916 68.8061 21.2916C68.1576 21.2916 67.6319 21.8172 67.6319 22.4658C67.6319 23.1144 68.1576 23.64 68.8061 23.64C70.9211 23.64 72.6418 25.3606 72.6418 27.4756C72.6418 28.1242 73.1674 28.6498 73.816 28.6498C74.4646 28.6498 74.9902 28.1242 74.9902 27.4756C74.9902 25.3606 76.7107 23.64 78.8258 23.64C79.4744 23.64 80 23.1144 80 22.4658C80 21.8172 79.4744 21.2916 78.8258 21.2916ZM73.8161 23.8539C73.4299 23.3213 72.9605 22.852 72.428 22.4658C72.9607 22.0795 73.43 21.6102 73.8161 21.0777C74.2024 21.6103 74.6718 22.0795 75.2043 22.4658C74.6716 22.852 74.2024 23.3214 73.8161 23.8539Z" fill="#B58D73"/>
<path d="M11.1939 21.2916C9.07904 21.2916 7.35827 19.5711 7.35827 17.456C7.35827 16.8074 6.83249 16.2817 6.18405 16.2817C5.53561 16.2817 5.00983 16.8074 5.00983 17.456C5.00983 19.571 3.28906 21.2916 1.17422 21.2916C0.52578 21.2916 0 21.8172 0 22.4658C0 23.1144 0.52578 23.64 1.17422 23.64C3.28906 23.64 5.00983 25.3606 5.00983 27.4756C5.00983 28.1242 5.53561 28.6498 6.18405 28.6498C6.83249 28.6498 7.35827 28.1242 7.35827 27.4756C7.35827 25.3606 9.07904 23.64 11.1939 23.64C11.8423 23.64 12.3681 23.1144 12.3681 22.4658C12.3681 21.8172 11.8423 21.2916 11.1939 21.2916ZM6.18405 23.8539C5.7978 23.3213 5.32858 22.852 4.79593 22.4658C5.32874 22.0795 5.79796 21.6102 6.18405 21.0777C6.5703 21.6103 7.03952 22.0795 7.57217 22.4658C7.03967 22.852 6.5703 23.3214 6.18405 23.8539Z" fill="#B58D73"/>
<path d="M46.2622 6.26217C43.4566 6.26217 41.1741 3.97984 41.1741 1.17406C41.1743 0.525624 40.6486 0 40.0001 0C39.3516 0 38.8258 0.525624 38.8258 1.17422C38.8258 3.97983 36.5432 6.26233 33.7377 6.26233C33.0893 6.26233 32.5635 6.78795 32.5635 7.43655C32.5635 8.08514 33.0893 8.61076 33.7377 8.61076C36.5432 8.61076 38.8258 10.8933 38.8258 13.6989C38.8258 14.3475 39.3516 14.8731 40.0001 14.8731C40.6486 14.8731 41.1743 14.3475 41.1743 13.6989C41.1743 10.8933 43.4568 8.61076 46.2624 8.61076C46.911 8.61076 47.4366 8.08514 47.4366 7.43655C47.4366 6.78795 46.9108 6.26217 46.2622 6.26217ZM40.0001 9.6917C39.4196 8.78795 38.6485 8.01686 37.7446 7.43639C38.6485 6.85592 39.4196 6.08483 40.0001 5.18108C40.5805 6.08483 41.3516 6.85592 42.2554 7.43639C41.3516 8.01686 40.5805 8.78795 40.0001 9.6917Z" fill="#B58D73"/>
<path d="M64.4463 39.6092L59.8788 26.668C59.5371 25.6996 58.6174 25.049 57.5905 25.049H22.0965C21.0695 25.049 20.15 25.6996 19.8083 26.6679L15.2408 39.6092C14.9755 40.3609 15.552 41.1742 16.348 41.1742H63.3391C63.72 41.1742 64.0774 40.9892 64.2974 40.6783C64.5175 40.3672 64.5732 39.9686 64.4463 39.6092ZM18.0075 38.8258L22.0226 27.4494C22.0333 27.4193 22.0643 27.3972 22.0964 27.3972H57.5905C57.6226 27.3972 57.6537 27.4193 57.6644 27.4496L61.6796 38.8258H18.0075Z" fill="#B58D73"/>
<path d="M62.3876 55.1077C58.2176 55.1077 54.9512 57.2739 54.9512 60.0392C54.9512 62.8045 58.2176 64.9708 62.3876 64.9708C66.5576 64.9708 69.824 62.8045 69.824 60.0392C69.824 57.2739 66.5576 55.1077 62.3876 55.1077ZM62.3876 62.6223C59.4754 62.6223 57.2994 61.2586 57.2994 60.0392C57.2994 58.8198 59.4752 57.4561 62.3876 57.4561C65.2997 57.4561 67.4757 58.8198 67.4757 60.0392C67.4757 61.2586 65.2997 62.6223 62.3876 62.6223Z" fill="#B58D73"/>
<path d="M17.2996 55.1077C13.1296 55.1077 9.86316 57.2739 9.86316 60.0392C9.86316 62.8045 13.1296 64.9708 17.2996 64.9708C21.4695 64.9708 24.7359 62.8045 24.7359 60.0392C24.7359 57.2739 21.4695 55.1077 17.2996 55.1077ZM17.2996 62.6223C14.3875 62.6223 12.2114 61.2586 12.2114 60.0392C12.2114 58.8198 14.3874 57.4561 17.2996 57.4561C20.2117 57.4561 22.3877 58.8198 22.3877 60.0392C22.3877 61.2586 20.2117 62.6223 17.2996 62.6223Z" fill="#B58D73"/>
<path d="M77.4169 37.5733H71.1547C70.616 37.5733 70.1463 37.9401 70.0156 38.4627L69.1908 41.7619L63.4219 25.4173C62.551 22.9496 60.2075 21.2915 57.5905 21.2915H22.0965C19.4795 21.2915 17.1361 22.9496 16.2651 25.4174L10.4964 41.7621L9.67155 38.4627C9.54077 37.9399 9.07109 37.5733 8.53249 37.5733H2.27016C1.62173 37.5733 1.09595 38.099 1.09595 38.7476V43.7574C1.09595 44.406 1.62173 44.9316 2.27016 44.9316H8.75562L4.75266 50.5357C3.99922 51.5905 3.60094 52.8336 3.60094 54.13V68.8062C3.60094 70.8398 4.58797 72.647 6.10781 73.7747C6.10734 73.7884 6.10578 73.802 6.10578 73.8159V77.5733C6.10578 78.9114 7.19437 79.9998 8.53234 79.9998H16.047C17.3851 79.9998 18.4736 78.9112 18.4736 77.5733V74.9901H61.2132V77.5733C61.2132 78.9114 62.3018 79.9998 63.6397 79.9998H71.1544C72.4925 79.9998 73.5809 78.9112 73.5809 77.5733V73.8159C73.5809 73.802 73.5794 73.7884 73.5789 73.7747C75.0988 72.647 76.0858 70.8398 76.0858 68.8062V54.13C76.0858 52.8335 75.6873 51.5903 74.9339 50.5357L70.931 44.9316H77.4166C78.0652 44.9316 78.5908 44.406 78.5908 43.7574V38.7476C78.5909 38.0988 78.0655 37.5733 77.4169 37.5733ZM3.44438 42.583V39.9216H7.61562L8.28093 42.583H3.44438ZM16.1254 77.5733C16.1254 77.6164 16.0904 77.6515 16.0472 77.6515H8.53249C8.48937 77.6515 8.45421 77.6164 8.45421 77.5733V74.9901H9.78499H16.1254V77.5733ZM71.2328 77.5733C71.2328 77.6164 71.1977 77.6515 71.1545 77.6515H63.6399C63.5967 77.6515 63.5616 77.6164 63.5616 77.5733V74.9901H69.902H71.2328V77.5733ZM69.9022 72.6417H9.78483C8.07937 72.6417 6.63094 71.5227 6.13375 69.9803H73.5531C73.0559 71.5227 71.6077 72.6417 69.9022 72.6417ZM49.9413 59.9608V62.6222H29.7457V59.9608H49.9413ZM29.9303 57.6124C30.4274 56.07 31.8757 54.951 33.5813 54.951H46.1058C47.8113 54.951 49.2597 56.07 49.7569 57.6124H29.9303ZM49.9413 64.9705V67.6319H29.7457V64.9705H49.9413ZM73.0234 51.9005C73.4908 52.5547 73.7378 53.3257 73.7378 54.1299V67.632H52.2897V58.7866C52.2897 55.3767 49.5155 52.6027 46.1058 52.6027H33.5813C30.1715 52.6027 27.3975 55.3769 27.3975 58.7866V67.632H5.94922V54.1299C5.94922 53.3257 6.19625 52.5547 6.66359 51.9005L11.6415 44.9315H54.8727C55.5213 44.9315 56.0469 44.4058 56.0469 43.7572C56.0469 43.1086 55.5213 42.583 54.8727 42.583H12.6969L18.4795 26.1988C19.0198 24.6684 20.4732 23.6398 22.0965 23.6398H57.5907C59.2138 23.6398 60.6672 24.6682 61.2077 26.1988L66.9902 42.583H59.8825C59.2339 42.583 58.7083 43.1086 58.7083 43.7572C58.7083 44.4058 59.2339 44.9315 59.8825 44.9315H68.0455L73.0234 51.9005ZM76.2427 42.583H71.4059L72.0713 39.9216H76.2427V42.583Z" fill="#B58D73"/>
<path d="M21.0568 51.3501H13.5421C12.8937 51.3501 12.3679 51.8757 12.3679 52.5243C12.3679 53.1729 12.8937 53.6985 13.5421 53.6985H21.0568C21.7052 53.6985 22.231 53.1729 22.231 52.5243C22.231 51.8757 21.7052 51.3501 21.0568 51.3501Z" fill="#B58D73"/>
<path d="M66.1448 51.3501H58.6302C57.9816 51.3501 57.456 51.8757 57.456 52.5243C57.456 53.1729 57.9816 53.6985 58.6302 53.6985H66.1448C66.7934 53.6985 67.3191 53.1729 67.3191 52.5243C67.3191 51.8757 66.7934 51.3501 66.1448 51.3501Z" fill="#B58D73"/>
</svg>
