<svg width="86" height="81" viewBox="0 0 86 81" fill="none" xmlns="http://www.w3.org/2000/svg">
<path d="M70.911 28.7078C71.0214 28.8393 71.1593 28.9451 71.315 29.0176C71.4706 29.0902 71.6403 29.1277 71.812 29.1277H77.1917C77.3634 29.1277 77.5331 29.0902 77.6888 29.0176C77.8444 28.9451 77.9823 28.8393 78.0927 28.7078L80.3489 26.0203C80.5274 25.8081 80.6252 25.5397 80.625 25.2624V18.2077H84.8256C85.1373 18.2073 85.4361 18.0832 85.6563 17.8626C85.8766 17.642 86.0002 17.343 86 17.0313V13C86 12.6882 85.8761 12.3891 85.6556 12.1686C85.4351 11.9481 85.1361 11.8242 84.8242 11.8242H80.625V4.76953C80.6251 4.49311 80.5278 4.22549 80.3502 4.01367L78.094 1.32617C77.9835 1.19445 77.8454 1.08859 77.6895 1.01603C77.5336 0.943477 77.3637 0.906003 77.1917 0.906251H71.812C71.6403 0.9062 71.4706 0.943768 71.315 1.01632C71.1593 1.08886 71.0214 1.19463 70.911 1.32617L68.6549 4.01367C68.4773 4.22549 68.38 4.49311 68.3801 4.76953V11.8242H17.6206V4.76953C17.6207 4.49311 17.5234 4.22549 17.3458 4.01367L15.0896 1.32617C14.9792 1.19454 14.8412 1.08872 14.6854 1.01617C14.5296 0.943623 14.3598 0.906102 14.188 0.906251H8.80828C8.63655 0.9062 8.46689 0.943768 8.31123 1.01632C8.15557 1.08886 8.0177 1.19463 7.9073 1.32617L5.65114 4.01367C5.47201 4.22654 5.37417 4.49603 5.375 4.77424V11.8289H1.17578C0.86476 11.8289 0.566406 11.9522 0.346038 12.1716C0.125671 12.3911 0.00124582 12.689 1.72784e-06 13V17.0313C1.72784e-06 17.3431 0.123878 17.6422 0.34438 17.8627C0.564882 18.0832 0.863946 18.207 1.17578 18.207H5.375V25.2617C5.3749 25.5381 5.4722 25.8058 5.6498 26.0176L7.90596 28.7051C8.0165 28.8368 8.15459 28.9427 8.3105 29.0152C8.4664 29.0878 8.63632 29.1252 8.80828 29.125H14.188C14.3597 29.1251 14.5294 29.0875 14.685 29.0149C14.8407 28.9424 14.9786 28.8366 15.089 28.7051L15.269 28.4907V71.3221H3.86328C2.83854 71.3232 1.85611 71.7309 1.13176 72.4558C0.407409 73.1806 0.000357232 74.1633 1.72784e-06 75.1881V79.0097C-0.000263259 79.1643 0.0299537 79.3174 0.0889236 79.4603C0.147893 79.6032 0.234459 79.733 0.343667 79.8424C0.452874 79.9518 0.582581 80.0386 0.725365 80.0978C0.868149 80.157 1.02121 80.1875 1.17578 80.1875H84.8242C85.1361 80.1875 85.4351 80.0636 85.6556 79.8431C85.8761 79.6226 86 79.3236 86 79.0117V75.1908C85.9989 74.1665 85.5916 73.1845 84.8673 72.4602C84.143 71.7359 83.161 71.3286 82.1367 71.3275H70.731V28.4934L70.911 28.7078ZM83.6484 14.1785V15.8582H80.625V14.1785H83.6484ZM70.731 5.20222L72.3609 3.25781H76.6435L78.2728 5.19953V24.8344L76.6435 26.7761H72.3609L70.7316 24.8344L70.731 5.20222ZM68.3794 14.1785V15.8582H17.6206V14.1785H68.3794ZM49.6966 71.3248V63.9705H57.8652C58.1771 63.9705 58.4761 63.8466 58.6966 63.6261C58.9171 63.4056 59.041 63.1065 59.041 62.7947V59.4266C59.039 58.1225 58.5491 56.8663 57.6677 55.9052C56.7863 54.9441 55.5771 54.3476 54.2781 54.233V35.3734C54.2763 33.6838 53.6042 32.0638 52.4093 30.8692C51.2144 29.6746 49.5944 29.0028 47.9047 29.0014H38.0953C36.4057 29.0028 34.7856 29.6746 33.5907 30.8692C32.3958 32.0638 31.7237 33.6838 31.7219 35.3734V54.233C30.4229 54.3476 29.2137 54.9441 28.3323 55.9052C27.4509 56.8663 26.961 58.1225 26.959 59.4266V62.7947C26.959 63.1065 27.0829 63.4056 27.3034 63.6261C27.5239 63.8466 27.8229 63.9705 28.1348 63.9705H36.3034V71.3241H22.6805V18.2097H63.3195V71.3248H49.6966ZM51.9265 54.2101H34.0735V35.3734C34.0745 34.3072 34.4987 33.285 35.2527 32.5312C36.0068 31.7774 37.0291 31.3537 38.0953 31.3529H47.9047C48.9709 31.3537 49.9933 31.7774 50.7473 32.5312C51.5014 33.285 51.9255 34.3072 51.9265 35.3734V54.2101ZM32.1734 56.5617H53.8239C54.5836 56.5624 55.3119 56.8644 55.8491 57.4015C56.3864 57.9386 56.6886 58.6669 56.6895 59.4266V61.6189H29.3105V59.4266C29.3114 58.6669 29.6137 57.9386 30.1509 57.4015C30.6881 56.8644 31.4164 56.5624 32.1761 56.5617H32.1734ZM38.653 63.9705H47.345V71.3241H38.655L38.653 63.9705ZM2.35156 15.8582V14.1785H5.375V15.8582H2.35156ZM13.6391 26.7734H9.35721L7.72656 24.8344V5.20222L9.35721 3.25781H13.6391L15.2684 5.19953V24.8344L13.6391 26.7734ZM17.6199 18.207H20.3283V71.3221H17.6206L17.6199 18.207ZM83.6478 75.182V77.8359H2.35156V75.1908C2.3521 74.79 2.51154 74.4058 2.79493 74.1224C3.07831 73.839 3.46251 73.6796 3.86328 73.679H82.1367C82.537 73.6796 82.9208 73.8386 83.2041 74.1215C83.4874 74.4043 83.6472 74.7878 83.6484 75.1881L83.6478 75.182ZM65.6704 71.3187V18.2097H68.3787V71.3248L65.6704 71.3187Z" fill="#B58D73"/>
<path d="M40.0177 37.4873H45.9833C46.2951 37.4873 46.5942 37.3634 46.8147 37.1429C47.0352 36.9224 47.1591 36.6234 47.1591 36.3115C47.1591 35.9997 47.0352 35.7006 46.8147 35.4801C46.5942 35.2596 46.2951 35.1357 45.9833 35.1357H40.0177C39.7059 35.1357 39.4068 35.2596 39.1863 35.4801C38.9658 35.7006 38.8419 35.9997 38.8419 36.3115C38.8419 36.6234 38.9658 36.9224 39.1863 37.1429C39.4068 37.3634 39.7059 37.4873 40.0177 37.4873Z" fill="#B58D73"/>
<path d="M47.2938 40.698H38.7059C38.3941 40.698 38.095 40.8219 37.8745 41.0424C37.654 41.2629 37.5302 41.5619 37.5302 41.8738C37.5302 42.1856 37.654 42.4847 37.8745 42.7052C38.095 42.9257 38.3941 43.0496 38.7059 43.0496H47.2938C47.6057 43.0496 47.9047 42.9257 48.1252 42.7052C48.3457 42.4847 48.4696 42.1856 48.4696 41.8738C48.4696 41.5619 48.3457 41.2629 48.1252 41.0424C47.9047 40.8219 47.6057 40.698 47.2938 40.698Z" fill="#B58D73"/>
<path d="M45.9826 46.2578H40.0177C39.7059 46.2578 39.4068 46.3817 39.1863 46.6022C38.9658 46.8227 38.8419 47.1218 38.8419 47.4336C38.8419 47.7454 38.9658 48.0445 39.1863 48.265C39.4068 48.4855 39.7059 48.6094 40.0177 48.6094H45.9833C46.2951 48.6094 46.5942 48.4855 46.8147 48.265C47.0352 48.0445 47.1591 47.7454 47.1591 47.4336C47.1591 47.1218 47.0352 46.8227 46.8147 46.6022C46.5942 46.3817 46.2951 46.2578 45.9833 46.2578H45.9826Z" fill="#B58D73"/>
</svg>
