<svg width="115" height="80" viewBox="0 0 115 80" fill="none" xmlns="http://www.w3.org/2000/svg">
<g clip-path="url(#clip0-XCeqw3493-34)">
<path d="M93.9999 71.9597V70.6196C93.9888 68.9259 92.9222 67.4209 91.3332 66.857V65.2592C91.328 63.5611 90.26 62.05 88.6665 61.4858V40.8902C90.26 40.3261 91.3278 38.815 91.3332 37.1168V34.7533L93.7628 29.8692L97.609 26.0032C98.1297 25.4807 98.1304 24.633 97.6106 24.1098C97.5353 24.0341 97.4514 23.9676 97.3605 23.912L58.6942 0.196344C58.2681 -0.0654481 57.7322 -0.0654481 57.3062 0.196344L18.6398 23.912C18.0114 24.2965 17.8118 25.1202 18.1943 25.7518C18.2497 25.8432 18.3158 25.9277 18.3911 26.0032L22.2373 29.8692L24.667 34.7533V37.1168C24.6721 38.8149 25.7401 40.326 27.3337 40.8901V61.4856C25.7401 62.0497 24.6723 63.5608 24.667 65.2591V66.8568C23.0779 67.4208 22.0113 68.9257 22.0003 70.6194V71.9595C19.7921 71.9619 18.0026 73.7605 18.0003 75.9798V78.6601C18.0001 79.4001 18.5967 80 19.3329 80.0002C19.3332 80.0002 19.3334 80.0002 19.3336 80.0002H96.6665C97.4028 80.0003 97.9997 79.4007 97.9998 78.6607C97.9998 78.6606 97.9998 78.6603 97.9998 78.6601V75.9798C97.9975 73.7606 96.208 71.962 93.9999 71.9597ZM88.6666 37.1168C88.6658 37.8566 88.0694 38.4562 87.3333 38.4568H79.3334C78.5973 38.456 78.0008 37.8566 78.0001 37.1168V35.7767H88.6668V37.1168H88.6666ZM51.3336 61.4858V40.8902C52.9272 40.3261 53.995 38.815 54.0003 37.1168V35.7767H62.0003V37.1168C62.0054 38.8149 63.0734 40.326 64.667 40.8901V61.4856C63.0734 62.0497 62.0056 63.5608 62.0003 65.2591V66.5991H54.0003V65.2591C53.995 63.5609 52.927 62.0499 51.3336 61.4858ZM28.6671 38.457C27.931 38.4562 27.3344 37.8568 27.3338 37.1169V35.7769H38.0004V37.1169C37.9997 37.8568 37.4033 38.4564 36.6672 38.457H28.6671ZM35.3336 41.1371V61.2387H30.0003V41.1371H35.3336ZM38.0003 40.8902C38.4926 40.7145 38.9456 40.4431 39.3336 40.0915C39.7215 40.4431 40.1746 40.7145 40.6668 40.8901V61.4856C40.1745 61.6613 39.7215 61.9327 39.3336 62.2843C38.9456 61.9327 38.4925 61.6613 38.0003 61.4856V40.8902ZM40.667 65.2591C40.6678 64.5192 41.2643 63.9196 42.0003 63.919H50.0002C50.7363 63.9198 51.3328 64.5192 51.3335 65.2591V66.5991H40.667V65.2591ZM43.3335 61.2387V41.1371H48.6668V61.2387H43.3335ZM50.0002 38.457H42.0003C41.2642 38.4562 40.6676 37.8568 40.667 37.1169V35.7769H51.3336V37.1169C51.3328 37.8566 50.7363 38.4562 50.0002 38.457ZM64.6668 65.2591C64.6676 64.5192 65.264 63.9196 66.0001 63.919H74C74.7361 63.9198 75.3327 64.5192 75.3333 65.2591V66.5991H64.6668V65.2591ZM67.3333 61.2387V41.1371H72.6666V61.2387H67.3333ZM74 38.457H66.0001C65.264 38.4562 64.6674 37.8568 64.6668 37.1169V35.7769H75.3334V37.1169C75.3327 37.8566 74.7361 38.4562 74 38.457ZM75.3333 40.8902C75.8256 40.7145 76.2786 40.4431 76.6665 40.0915C77.0545 40.4431 77.5076 40.7145 77.9998 40.8901V61.4856C77.5075 61.6613 77.0545 61.9327 76.6665 62.2843C76.2786 61.9327 75.8255 61.6613 75.3333 61.4856V40.8902ZM78 65.2591C78.0008 64.5192 78.5973 63.9196 79.3332 63.919H87.3332C88.0693 63.9198 88.6658 64.5192 88.6665 65.2591V66.5991H77.9998V65.2591H78ZM80.6667 61.2387V41.1371H85.9999V61.2387H80.6667ZM23.5316 27.38L21.4743 25.3122L58.0001 2.90991L94.5259 25.3122L92.4686 27.38L58.6993 6.49318C58.2706 6.22746 57.7297 6.22746 57.3009 6.49318L23.5316 27.38ZM87.9557 27.7361H28.0446L58.0001 9.20816L87.9557 27.7361ZM26.8246 33.0964L25.4913 30.4162H90.5091L89.1758 33.0964H26.8246ZM27.3337 65.2591C27.3344 64.5192 27.9308 63.9196 28.6669 63.919H36.6669C37.4029 63.9198 37.9995 64.5192 38.0001 65.2591V66.5991H27.3337V65.2591ZM95.3331 77.32H20.6671V75.98C20.6679 75.2402 21.2643 74.6406 22.0004 74.6399H50.0002C50.7366 74.6399 51.3335 74.04 51.3335 73.2999C51.3335 72.5597 50.7364 71.9598 50.0002 71.9598H24.6671V70.6198C24.6826 69.8656 25.3021 69.2662 26.0526 69.2797H89.9479C90.6982 69.2664 91.3178 69.8656 91.3333 70.6198V71.9598H66.0001C65.2637 71.9598 64.6668 72.5597 64.6668 73.2999C64.6668 74.04 65.2637 74.6399 66.0001 74.6399H93.9999C94.7359 74.6407 95.3325 75.2402 95.3331 75.98V77.32Z" fill="#B58D73"/>
<path d="M58.0002 13.665C55.056 13.6682 52.6701 16.0662 52.667 19.0254C52.667 21.9859 55.0548 24.3858 58.0002 24.3858C60.9457 24.3858 63.3335 21.9859 63.3335 19.0254C63.3335 16.065 60.9457 13.665 58.0002 13.665ZM58.0002 21.7057C56.5274 21.7057 55.3335 20.5057 55.3335 19.0254C55.3335 17.5451 56.5274 16.3452 58.0002 16.3452C59.4723 16.3469 60.6652 17.5458 60.6669 19.0254C60.6669 20.5057 59.473 21.7057 58.0002 21.7057Z" fill="#B58D73"/>
</g>
<defs>
<clipPath id="clip0-XCeqw3493-34">
<rect width="115" height="80.0002" transform="matrix(1 0 0 -1 0 80)" fill="white"/>
</clipPath>
</defs>
</svg>
