<svg width="115" height="74" viewBox="0 0 115 74" fill="none" xmlns="http://www.w3.org/2000/svg">
<g clip-path="url(#clip0)">
<path d="M36.9488 26.3929C36.1417 25.9505 35.1286 26.2463 34.6861 27.0537L34.6527 27.1143C34.2103 27.9215 34.506 28.9346 35.3135 29.3769C35.5677 29.5163 35.8422 29.5822 36.113 29.5822C36.702 29.5822 37.273 29.2693 37.5761 28.7162L37.6095 28.6555C38.0519 27.8483 37.756 26.8352 36.9488 26.3929Z" fill="#B58D73"/>
<path d="M90.2856 31.6925C87.6647 21.4913 80.3162 13.0111 70.4008 9.04828C68.688 3.69953 63.6519 0 58.0002 0C52.2039 0 47.2822 3.80813 45.6003 9.05313C39.6286 11.445 34.5147 15.48 30.7733 20.7661C28.4097 24.1058 26.7056 27.7977 25.7078 31.693C21.4042 32.0144 18 35.6161 18 40.0003C18 44.387 21.4077 47.9906 25.7147 48.3085C29.4158 62.682 42.4872 73.3339 58.0002 73.3339C73.5128 73.3339 86.5842 62.682 90.2852 48.3085C94.5922 47.9906 98 44.387 98 40C98 35.6138 94.5925 32.0106 90.2856 31.6925ZM21.3336 40C21.3336 37.7002 22.895 35.7581 25.0131 35.1775C24.87 36.1694 24.7703 37.1709 24.7163 38.1802C24.7153 38.1942 24.7148 38.208 24.7141 38.222C24.7044 38.4058 24.6958 38.5897 24.6892 38.7739C24.6866 38.8438 24.6852 38.9136 24.6833 38.9835C24.6792 39.1156 24.675 39.2477 24.6725 39.38C24.6689 39.5867 24.6667 39.7934 24.6667 40.0002C24.6667 40.2525 24.6706 40.5047 24.6766 40.7572C24.6783 40.8363 24.6805 40.915 24.683 40.9938C24.6883 41.1774 24.6955 41.361 24.7039 41.5444C24.7073 41.6222 24.7105 41.7002 24.7144 41.7781C24.7266 42.0072 24.7413 42.236 24.758 42.4647C24.7659 42.5722 24.7753 42.6791 24.7841 42.7863C24.7955 42.9219 24.8073 43.0577 24.8203 43.1931C24.8317 43.3125 24.8434 43.432 24.8561 43.551C24.8708 43.6903 24.8875 43.8295 24.9039 43.9686C24.9256 44.1508 24.9489 44.3325 24.9734 44.5136C24.9875 44.6174 25.0005 44.721 25.0155 44.8241C22.8961 44.2442 21.3336 42.3011 21.3336 40ZM58.0002 3.33359C61.3013 3.33359 64.3205 5.02891 66.0827 7.6825C66.0495 7.68219 66.0163 7.68203 65.983 7.68203C65.9614 7.68203 65.9405 7.6836 65.9189 7.68375C65.9106 7.68406 65.9022 7.68391 65.8937 7.68438C60.7042 7.73266 56.4973 11.9673 56.4973 17.1678C56.4973 19.1916 57.1331 21.1156 58.2755 22.7031C58.1838 22.7056 58.0917 22.707 58.0002 22.707C52.6591 22.707 48.3137 18.3617 48.3137 13.0206C48.3136 7.67906 52.6589 3.33359 58.0002 3.33359ZM87.9892 40.7899C87.9883 40.8305 87.9859 40.8708 87.9847 40.9114C87.9778 41.1347 87.9697 41.3581 87.958 41.5814C87.9559 41.6213 87.9528 41.6611 87.9505 41.701C87.9378 41.9239 87.9238 42.147 87.9062 42.3699C87.9028 42.4149 87.898 42.4595 87.8942 42.5045C87.8764 42.7199 87.8569 42.935 87.8345 43.1499C87.8284 43.2097 87.8206 43.2692 87.8141 43.3289C87.7922 43.5258 87.7694 43.7224 87.7437 43.9188C87.733 44.001 87.7208 44.0827 87.7092 44.1645C87.6858 44.3344 87.6617 44.5041 87.635 44.6733C87.6177 44.7835 87.5989 44.8928 87.5803 45.0027C87.5573 45.1397 87.5344 45.2766 87.5094 45.4131C87.4841 45.552 87.457 45.6902 87.4297 45.8281C87.4094 45.9316 87.3891 46.0352 87.3675 46.1385C84.527 59.7464 72.4386 70.0003 57.9998 70.0003C43.5505 70.0003 31.4548 59.7319 28.6258 46.1091C28.6002 45.9856 28.5766 45.8614 28.5527 45.7374C28.5295 45.6189 28.5059 45.5005 28.4844 45.3816C28.4537 45.2131 28.4258 45.0439 28.398 44.8749C28.3853 44.7972 28.3714 44.7197 28.3594 44.6419C28.3263 44.4278 28.2959 44.2135 28.2672 43.9986C28.2623 43.9622 28.2564 43.9259 28.2519 43.8895C28.2191 43.6366 28.1891 43.3828 28.1627 43.1291C28.1627 43.128 28.1623 43.1266 28.1623 43.1255C28.0544 42.088 27.9998 41.0441 27.9998 40.0006C27.9998 39.7652 28.0037 39.5295 28.0094 39.2941C28.0114 39.2167 28.0137 39.1395 28.0162 39.0624C28.0211 38.9039 28.0277 38.7455 28.0352 38.587C28.0394 38.4949 28.0434 38.4025 28.0486 38.3105C28.0566 38.1702 28.0666 38.0299 28.0764 37.8897C28.0938 37.6475 28.1133 37.4058 28.1363 37.1647C28.1389 37.137 28.1411 37.1094 28.1437 37.0819C29.1681 26.7084 35.5927 17.5028 44.9814 12.9681C44.9814 12.9858 44.9802 13.0031 44.9802 13.0208C44.9802 14.2139 45.1445 15.3686 45.4466 16.467C42.455 18.06 39.828 20.1825 37.6259 22.792C37.0322 23.4956 37.1214 24.5472 37.825 25.1406C38.1378 25.4047 38.5194 25.5334 38.8991 25.5334C39.3731 25.5334 39.8441 25.3322 40.1736 24.9416C42.0337 22.7372 44.2402 20.9306 46.7455 19.5544C49.0036 23.4289 53.2014 26.0406 58.0002 26.0406C59.4717 26.0406 60.9177 25.7959 62.297 25.3136C62.8978 25.1034 63.3266 24.5695 63.4019 23.9374C63.4772 23.3053 63.1858 22.6855 62.6511 22.3403C60.8852 21.1995 59.8308 19.2661 59.8308 17.1681C59.8308 13.8445 62.4803 11.13 65.7781 11.0211C76.8491 13.9831 85.0827 22.9349 87.3638 33.8452C87.4014 34.0256 87.4381 34.2064 87.4723 34.3877C87.4902 34.4824 87.5066 34.5777 87.5239 34.6727C87.5505 34.8209 87.5766 34.9695 87.6009 35.1183C87.6156 35.2074 87.6295 35.2966 87.6434 35.3859C87.6692 35.5533 87.6939 35.7208 87.7167 35.8886C87.7264 35.9585 87.7364 36.0283 87.7456 36.0983C87.8091 36.5855 87.8608 37.0745 87.9006 37.5645C87.9052 37.6206 87.9088 37.6772 87.913 37.7336C87.9273 37.922 87.9397 38.1108 87.9505 38.2995C87.9545 38.3728 87.9584 38.4464 87.962 38.5199C87.9711 38.6995 87.9778 38.8794 87.9834 39.0591C87.9858 39.1286 87.9883 39.1981 87.9902 39.2675C87.9961 39.5119 87.9998 39.7563 87.9998 40.0003C87.9997 40.2636 87.9961 40.5269 87.9892 40.7899ZM90.9845 44.8241C91.0028 44.6981 91.0194 44.5716 91.0363 44.4452C91.0541 44.3117 91.0713 44.178 91.0877 44.0439C91.1081 43.8758 91.1277 43.7074 91.1456 43.5389C91.1573 43.4286 91.1681 43.318 91.1784 43.2072C91.1925 43.062 91.2053 42.9169 91.2173 42.7717C91.2256 42.6711 91.2345 42.5708 91.2419 42.4699C91.2591 42.2384 91.2738 42.007 91.2861 41.7752C91.2903 41.7005 91.2928 41.6256 91.2964 41.5508C91.3048 41.3644 91.312 41.1781 91.3175 40.9916C91.3198 40.9139 91.322 40.8361 91.3241 40.7583C91.3295 40.5056 91.3336 40.253 91.3336 40C91.3336 39.7802 91.3309 39.5603 91.3267 39.3405C91.325 39.2606 91.3223 39.181 91.3202 39.1011C91.3166 38.9631 91.3123 38.8252 91.3072 38.687C91.3033 38.5889 91.2983 38.4908 91.2939 38.3928C91.2881 38.2741 91.2822 38.1556 91.275 38.0372C91.2689 37.9306 91.2622 37.8244 91.2548 37.7181C91.2473 37.6088 91.2392 37.4997 91.2306 37.3905C91.222 37.2797 91.2134 37.1688 91.2036 37.0583C91.1941 36.9514 91.1836 36.845 91.1731 36.7383C91.1625 36.6284 91.1522 36.5184 91.1405 36.4086C91.1272 36.2845 91.112 36.1611 91.0972 36.0372C91.0808 35.8995 91.0641 35.7622 91.0459 35.625C91.0261 35.4753 91.0066 35.3256 90.9848 35.1764C93.1045 35.7561 94.6667 37.6989 94.6667 39.9997C94.6664 42.3014 93.1042 44.2442 90.9845 44.8241Z" fill="#B58D73"/>
<path d="M52.0715 41.9287C51.2918 39.0193 48.644 36.9873 45.632 36.9873C42.6204 36.9873 39.9723 39.0193 39.1925 41.9287C38.9542 42.8179 39.4819 43.7318 40.3709 43.9701C41.2603 44.2081 42.174 43.6807 42.4123 42.7917C42.8023 41.3368 44.1262 40.3207 45.6318 40.3207C47.1376 40.3207 48.4615 41.3368 48.8514 42.7917C49.0509 43.5362 49.7245 44.0273 50.4603 44.0273C50.6029 44.0273 50.7483 44.0089 50.8928 43.9701C51.7823 43.7318 52.3098 42.8179 52.0715 41.9287Z" fill="#B58D73"/>
<path d="M70.3694 36.9873C67.3574 36.9873 64.7092 39.0195 63.9297 41.9289C63.6916 42.8181 64.2192 43.732 65.1085 43.9701C65.9974 44.2086 66.9114 43.6806 67.1496 42.7915C67.5394 41.3368 68.8633 40.3207 70.3692 40.3207C71.875 40.3207 73.1989 41.3368 73.5888 42.7917C73.7883 43.5362 74.4616 44.0273 75.1977 44.0273C75.3403 44.0273 75.4856 44.0089 75.6302 43.9701C76.5194 43.7318 77.0469 42.8178 76.8086 41.9287C76.0289 39.0195 73.3811 36.9873 70.3694 36.9873Z" fill="#B58D73"/>
<path d="M63.261 53.6236C62.3721 53.3855 61.4578 53.9128 61.2196 54.8022C60.8296 56.2571 59.5057 57.2732 58 57.2732C56.4941 57.2732 55.1702 56.2571 54.7805 54.8022C54.5422 53.913 53.6283 53.3853 52.7391 53.6236C51.8499 53.8619 51.3224 54.7758 51.5606 55.665C52.3403 58.5747 54.9881 60.6066 58.0002 60.6066C61.0119 60.6066 63.66 58.5746 64.4397 55.665C64.6777 54.776 64.15 53.8619 63.261 53.6236Z" fill="#B58D73"/>
</g>
<defs>
<clipPath id="clip0">
<rect width="115" height="73.3339" fill="white"/>
</clipPath>
</defs>
</svg>
