<svg width="80" height="74" viewBox="0 0 80 74" fill="none" xmlns="http://www.w3.org/2000/svg">
<path d="M18.9488 26.3929C18.1417 25.9505 17.1286 26.2463 16.6861 27.0537L16.6527 27.1143C16.2103 27.9215 16.506 28.9346 17.3135 29.3769C17.5677 29.5163 17.8422 29.5822 18.113 29.5822C18.702 29.5822 19.273 29.2693 19.5761 28.7162L19.6095 28.6555C20.0519 27.8483 19.756 26.8352 18.9488 26.3929Z" fill="#B58D73"/>
<path d="M72.2856 31.6926C69.6647 21.4914 62.3162 13.0112 52.4008 9.04841C50.688 3.69965 45.6519 0.00012207 40.0002 0.00012207C34.2039 0.00012207 29.2822 3.80825 27.6003 9.05325C21.6286 11.4451 16.5147 15.4801 12.7733 20.7662C10.4097 24.1059 8.70563 27.7978 7.70781 31.6931C3.40422 32.0145 0 35.6162 0 40.0005C0 44.3872 3.40766 47.9908 7.71469 48.3086C11.4158 62.6822 24.4872 73.3341 40.0002 73.3341C55.5128 73.3341 68.5842 62.6822 72.2852 48.3086C76.5922 47.9908 80 44.3872 80 40.0001C80 35.6139 76.5925 32.0108 72.2856 31.6926ZM3.33359 40.0001C3.33359 37.7003 4.895 35.7583 7.01312 35.1776C6.87 36.1695 6.77031 37.1711 6.71625 38.1803C6.71531 38.1944 6.71484 38.2081 6.71406 38.2222C6.70438 38.4059 6.69578 38.5898 6.68922 38.774C6.68656 38.8439 6.68516 38.9137 6.68328 38.9836C6.67922 39.1158 6.675 39.2478 6.6725 39.3801C6.66891 39.5869 6.66672 39.7936 6.66672 40.0003C6.66672 40.2526 6.67062 40.5048 6.67656 40.7573C6.67828 40.8364 6.68047 40.9151 6.68297 40.9939C6.68828 41.1775 6.69547 41.3611 6.70391 41.5445C6.70734 41.6223 6.71047 41.7003 6.71438 41.7783C6.72656 42.0073 6.74125 42.2361 6.75797 42.4648C6.76594 42.5723 6.77531 42.6792 6.78406 42.7864C6.79547 42.922 6.80734 43.0578 6.82031 43.1933C6.83172 43.3126 6.84344 43.4322 6.85609 43.5511C6.87078 43.6904 6.8875 43.8297 6.90391 43.9687C6.92563 44.1509 6.94891 44.3326 6.97344 44.5137C6.9875 44.6175 7.00047 44.7211 7.01547 44.8242C4.89609 44.2444 3.33359 42.3012 3.33359 40.0001ZM40.0002 3.33372C43.3013 3.33372 46.3205 5.02903 48.0827 7.68262C48.0495 7.68231 48.0163 7.68216 47.983 7.68216C47.9614 7.68216 47.9405 7.68372 47.9189 7.68387C47.9106 7.68419 47.9022 7.68403 47.8937 7.6845C42.7042 7.73278 38.4973 11.9675 38.4973 17.1679C38.4973 19.1917 39.1331 21.1158 40.2755 22.7033C40.1838 22.7058 40.0917 22.7072 40.0002 22.7072C34.6591 22.7072 30.3137 18.3618 30.3137 13.0208C30.3136 7.67919 34.6589 3.33372 40.0002 3.33372ZM69.9892 40.79C69.9883 40.8306 69.9859 40.8709 69.9847 40.9115C69.9778 41.1348 69.9697 41.3583 69.958 41.5815C69.9559 41.6214 69.9528 41.6612 69.9505 41.7011C69.9378 41.924 69.9238 42.1472 69.9062 42.37C69.9028 42.415 69.898 42.4597 69.8942 42.5047C69.8764 42.72 69.8569 42.9351 69.8345 43.15C69.8284 43.2098 69.8206 43.2694 69.8141 43.329C69.7922 43.5259 69.7694 43.7225 69.7437 43.9189C69.733 44.0011 69.7208 44.0828 69.7092 44.1647C69.6858 44.3345 69.6617 44.5042 69.635 44.6734C69.6177 44.7836 69.5989 44.8929 69.5803 45.0028C69.5573 45.1398 69.5344 45.2767 69.5094 45.4133C69.4841 45.5522 69.457 45.6903 69.4297 45.8283C69.4094 45.9317 69.3891 46.0353 69.3675 46.1386C66.527 59.7465 54.4386 70.0005 39.9998 70.0005C25.5505 70.0005 13.4548 59.732 10.6258 46.1092C10.6002 45.9858 10.5766 45.8615 10.5527 45.7375C10.5295 45.619 10.5059 45.5006 10.4844 45.3817C10.4537 45.2133 10.4258 45.044 10.398 44.875C10.3853 44.7973 10.3714 44.7198 10.3594 44.642C10.3263 44.4279 10.2959 44.2136 10.2672 43.9987C10.2623 43.9623 10.2564 43.9261 10.2519 43.8897C10.2191 43.6367 10.1891 43.3829 10.1627 43.1292C10.1627 43.1281 10.1623 43.1267 10.1623 43.1256C10.0544 42.0881 9.99984 41.0442 9.99984 40.0008C9.99984 39.7653 10.0037 39.5297 10.0094 39.2942C10.0114 39.2169 10.0137 39.1397 10.0162 39.0625C10.0211 38.904 10.0277 38.7456 10.0352 38.5872C10.0394 38.495 10.0434 38.4026 10.0486 38.3106C10.0566 38.1703 10.0666 38.03 10.0764 37.8898C10.0938 37.6476 10.1133 37.4059 10.1363 37.1648C10.1389 37.1372 10.1411 37.1095 10.1437 37.082C11.1681 26.7086 17.5927 17.5029 26.9814 12.9683C26.9814 12.9859 26.9802 13.0033 26.9802 13.0209C26.9802 14.214 27.1445 15.3687 27.4466 16.4672C24.455 18.0601 21.828 20.1826 19.6259 22.7922C19.0322 23.4958 19.1214 24.5473 19.825 25.1408C20.1378 25.4048 20.5194 25.5336 20.8991 25.5336C21.3731 25.5336 21.8441 25.3323 22.1736 24.9417C24.0337 22.7373 26.2402 20.9308 28.7455 19.5545C31.0036 23.429 35.2014 26.0408 40.0002 26.0408C41.4717 26.0408 42.9177 25.7961 44.297 25.3137C44.8978 25.1036 45.3266 24.5697 45.4019 23.9375C45.4772 23.3054 45.1858 22.6856 44.6511 22.3404C42.8852 21.1997 41.8308 19.2662 41.8308 17.1683C41.8308 13.8447 44.4803 11.1301 47.7781 11.0212C58.8491 13.9833 67.0827 22.935 69.3638 33.8453C69.4014 34.0258 69.4381 34.2065 69.4723 34.3878C69.4902 34.4825 69.5066 34.5778 69.5239 34.6728C69.5505 34.8211 69.5766 34.9697 69.6009 35.1184C69.6156 35.2075 69.6295 35.2967 69.6434 35.3861C69.6692 35.5534 69.6939 35.7209 69.7167 35.8887C69.7264 35.9586 69.7364 36.0284 69.7456 36.0984C69.8091 36.5856 69.8608 37.0747 69.9006 37.5647C69.9052 37.6208 69.9088 37.6773 69.913 37.7337C69.9273 37.9222 69.9397 38.1109 69.9505 38.2997C69.9545 38.3729 69.9584 38.4465 69.962 38.52C69.9711 38.6997 69.9778 38.8795 69.9834 39.0592C69.9858 39.1287 69.9883 39.1983 69.9902 39.2676C69.9961 39.512 69.9998 39.7564 69.9998 40.0005C69.9997 40.2637 69.9961 40.527 69.9892 40.79ZM72.9845 44.8242C73.0028 44.6983 73.0194 44.5717 73.0363 44.4453C73.0541 44.3119 73.0713 44.1781 73.0877 44.044C73.1081 43.8759 73.1277 43.7075 73.1456 43.539C73.1573 43.4287 73.1681 43.3181 73.1784 43.2073C73.1925 43.0622 73.2053 42.917 73.2173 42.7719C73.2256 42.6712 73.2345 42.5709 73.2419 42.47C73.2591 42.2386 73.2738 42.0072 73.2861 41.7753C73.2903 41.7006 73.2928 41.6258 73.2964 41.5509C73.3048 41.3645 73.312 41.1783 73.3175 40.9917C73.3198 40.914 73.322 40.8362 73.3241 40.7584C73.3295 40.5058 73.3336 40.2531 73.3336 40.0001C73.3336 39.7803 73.3309 39.5604 73.3267 39.3406C73.325 39.2608 73.3223 39.1811 73.3202 39.1012C73.3166 38.9633 73.3123 38.8253 73.3072 38.6872C73.3033 38.589 73.2983 38.4909 73.2939 38.3929C73.2881 38.2742 73.2822 38.1558 73.275 38.0373C73.2689 37.9308 73.2622 37.8245 73.2548 37.7183C73.2473 37.6089 73.2392 37.4998 73.2306 37.3906C73.222 37.2798 73.2134 37.1689 73.2036 37.0584C73.1941 36.9515 73.1836 36.8451 73.1731 36.7384C73.1625 36.6286 73.1522 36.5186 73.1405 36.4087C73.1272 36.2847 73.112 36.1612 73.0972 36.0373C73.0808 35.8997 73.0641 35.7623 73.0459 35.6251C73.0261 35.4754 73.0066 35.3258 72.9848 35.1765C75.1045 35.7562 76.6667 37.699 76.6667 39.9998C76.6664 42.3015 75.1042 44.2444 72.9845 44.8242Z" fill="#B58D73"/>
<path d="M34.0715 41.929C33.2918 39.0196 30.644 36.9875 27.632 36.9875C24.6204 36.9875 21.9723 39.0196 21.1925 41.929C20.9542 42.8182 21.4819 43.7321 22.3709 43.9704C23.2603 44.2083 24.174 43.681 24.4123 42.7919C24.8023 41.3371 26.1262 40.321 27.6318 40.321C29.1376 40.321 30.4615 41.3371 30.8514 42.7919C31.0509 43.5365 31.7245 44.0275 32.4603 44.0275C32.6029 44.0275 32.7483 44.0091 32.8928 43.9704C33.7823 43.7321 34.3098 42.8182 34.0715 41.929Z" fill="#B58D73"/>
<path d="M52.3693 36.9875C49.3573 36.9875 46.7092 39.0197 45.9297 41.9291C45.6915 42.8183 46.2192 43.7322 47.1084 43.9704C47.9973 44.2088 48.9114 43.6808 49.1495 42.7918C49.5393 41.3371 50.8632 40.321 52.3692 40.321C53.875 40.321 55.1989 41.3371 55.5887 42.7919C55.7882 43.5365 56.4615 44.0275 57.1976 44.0275C57.3403 44.0275 57.4856 44.0091 57.6301 43.9704C58.5193 43.7321 59.0468 42.818 58.8086 41.929C58.0289 39.0197 55.3811 36.9875 52.3693 36.9875Z" fill="#B58D73"/>
<path d="M45.261 53.6239C44.3721 53.3857 43.4578 53.9131 43.2196 54.8025C42.8296 56.2573 41.5057 57.2734 40 57.2734C38.4941 57.2734 37.1702 56.2573 36.7805 54.8025C36.5422 53.9132 35.6283 53.3856 34.7391 53.6239C33.8499 53.8622 33.3224 54.7761 33.5606 55.6653C34.3403 58.575 36.9881 60.6068 40.0002 60.6068C43.0119 60.6068 45.66 58.5748 46.4397 55.6653C46.6777 54.7762 46.15 53.8622 45.261 53.6239Z" fill="#B58D73"/>
</svg>
