<svg width="80" height="80" viewBox="0 0 80 80" fill="none" xmlns="http://www.w3.org/2000/svg">
<path d="M55.489 60.9114C55.2387 60.9637 54.9917 61.0268 54.7485 61.1007C53.2401 59.0976 51.0878 57.7387 48.7061 57.2111L50.3214 54.0867L53.6075 50.8032C56.1212 48.288 56.1212 44.1956 53.6075 41.6804L50.0967 38.1678L67.9555 20.2992C67.9708 20.285 67.9869 20.2721 68.0019 20.2573C68.017 20.2421 68.0301 20.2256 68.0447 20.21L74.9865 13.2642C74.9867 13.2641 74.9868 13.2639 74.987 13.2639C74.9871 13.2638 74.9871 13.2636 74.9873 13.2635L78.2438 10.005C80.5291 7.72475 80.5304 4.00587 78.2454 1.7137C77.1409 0.608555 75.669 0.00012207 74.0999 0.00012207C74.0987 0.00012207 74.0971 0.00012207 74.0959 0.00012207C72.5276 0.00121581 71.0575 0.610273 69.9576 1.7137L66.7003 4.97274C66.7003 4.97274 66.7003 4.97274 66.7002 4.97274L66.7 4.97289L59.7566 11.92C59.7415 11.9341 59.7254 11.9469 59.7105 11.9616C59.6954 11.9767 59.6824 11.993 59.668 12.0086L55.7306 15.9483C55.1206 16.5587 55.1207 17.548 55.731 18.1581C56.3413 18.7679 57.3307 18.7678 57.9407 18.1575L60.8172 15.2794L64.6858 19.15L47.8875 35.9575L44.0189 32.0869L48.0255 28.0782C48.6355 27.4677 48.6352 26.4785 48.0248 25.8684C47.4142 25.2584 46.425 25.2585 45.815 25.869L41.8097 29.8764L38.3002 26.3651C37.0866 25.1509 35.4671 24.4821 33.7401 24.4821C32.0131 24.4821 30.3937 25.1509 29.1794 26.3658L25.8981 29.6532L19.5709 32.932C19.5641 32.9355 19.5574 32.9389 19.5508 32.9424L13.4564 36.1006C13.4295 36.1136 13.4031 36.1272 13.3768 36.1417L3.54332 41.2378C1.43209 42.3307 0.287882 43.6224 0.0449153 45.1869C-0.190083 46.7008 0.49788 48.276 2.08943 49.8683L6.41705 54.1997C6.43315 54.2172 6.45033 54.2331 6.46705 54.2498L16.0996 63.8907L25.7066 73.4998C25.7305 73.5253 25.7552 73.5502 25.781 73.5742L30.1139 77.9082C31.5031 79.2981 32.8789 79.9993 34.2125 79.9993C34.4071 79.9993 34.6009 79.9843 34.7935 79.9545C36.3581 79.7117 37.6496 78.5667 38.7419 76.4542L39.4516 75.0823C39.8462 75.439 40.2697 75.7691 40.7222 76.0672C42.4411 77.1998 44.4094 77.7859 46.4195 77.7859C47.1242 77.7859 47.8345 77.7137 48.5405 77.5679C49.874 77.2936 51.1348 76.7634 52.2489 76.0147C54.1504 77.392 56.5474 77.9221 58.8944 77.4393C61.1015 76.9845 62.9989 75.6973 64.2374 73.8147C65.4753 71.9328 65.9069 69.6814 65.4522 67.4757C64.516 62.9226 60.0493 59.9771 55.489 60.9114ZM74.0979 3.1251H74.0998C74.8337 3.1251 75.521 3.40838 76.0337 3.92134C77.1013 4.99243 77.1027 6.72929 76.0351 7.79459L73.8823 9.94848L70.0137 6.07789L72.1692 3.92118C72.6806 3.40838 73.3654 3.12557 74.0979 3.1251ZM63.0266 13.0689L67.8047 8.28818L71.6732 12.1588L66.895 16.9395L63.0266 13.0689ZM38.9705 60.142L16.7529 37.9123L19.9894 36.2351L41.8033 58.0609C40.7335 58.5945 39.7796 59.3026 38.9705 60.142ZM26.5361 32.8422L47.1325 53.45L45.2797 57.034C45.2544 57.0368 45.2291 57.0397 45.2038 57.0426L22.9 34.7266L26.5361 32.8422ZM31.3906 28.5743C32.0139 27.9507 32.8484 27.6072 33.7404 27.6072C34.6323 27.6072 35.4668 27.9507 36.0902 28.5743L51.3972 43.8895C52.6936 45.1865 52.6936 47.2971 51.3979 48.5933L49.0459 50.9436L29.0412 30.928L31.3906 28.5743ZM35.9667 75.0187C35.3981 76.1184 34.7959 76.792 34.3148 76.8665C33.8612 76.9376 33.1362 76.5114 32.3243 75.699L28.7603 72.1341L32.1729 65.5466C32.57 64.7804 32.2706 63.8374 31.5043 63.4406C30.7379 63.0437 29.7951 63.3429 29.3983 64.1091L26.4422 69.8153L19.4173 62.7887L24.363 57.8258C24.9721 57.2145 24.9703 56.2251 24.3591 55.6161C23.7478 55.007 22.7585 55.0086 22.1494 55.62L17.2082 60.5784L10.1795 53.5436L15.884 50.585C16.6501 50.1878 16.949 49.2447 16.5517 48.4786C16.1545 47.7127 15.211 47.4135 14.4453 47.811L7.86282 51.2249L4.30051 47.6594C3.48832 46.8469 3.06302 46.1204 3.13348 45.6663C3.20833 45.1846 3.88145 44.582 4.98113 44.0127L13.8425 39.4206L37.1418 62.7327C36.1345 64.7479 35.7667 67.101 36.254 69.4752C36.4677 70.511 36.8307 71.491 37.3252 72.3927L35.9667 75.0187ZM61.6274 72.0974C60.8479 73.2823 59.6535 74.0927 58.2649 74.3787C56.4959 74.7433 54.6807 74.1923 53.4098 72.9064C52.8257 72.3155 51.8812 72.2849 51.2601 72.8373C50.3214 73.6722 49.1633 74.2498 47.91 74.5077C46.0075 74.9006 44.0657 74.5278 42.4421 73.4581C40.8182 72.3881 39.7074 70.7494 39.3144 68.8455C38.5065 64.9093 41.0468 61.0499 44.9772 60.2423C44.9774 60.2423 44.9775 60.2423 44.9778 60.2421C45.4725 60.1403 45.9675 60.0909 46.4574 60.0909C49.0409 60.0909 51.4665 61.4673 52.7803 63.7868C53.1892 64.5087 54.091 64.7851 54.8342 64.4165C55.2399 64.2152 55.6754 64.0651 56.1224 63.9716C58.9894 63.3848 61.8021 65.239 62.3922 68.1066C62.6785 69.4952 62.4069 70.9127 61.6274 72.0974Z" fill="#B58D73"/>
<path d="M74.5688 65.9271C71.5715 65.9271 69.1331 68.3646 69.1331 71.3605C69.1331 74.3589 71.5715 76.7983 74.5688 76.7983C77.5636 76.7983 80 74.3589 80 71.3605C80 68.3646 77.5636 65.9271 74.5688 65.9271ZM74.5688 73.6733C73.2946 73.6733 72.258 72.6358 72.258 71.3605C72.258 70.0877 73.2946 69.0521 74.5688 69.0521C75.8405 69.0521 76.875 70.0876 76.875 71.3605C76.875 72.6358 75.8403 73.6733 74.5688 73.6733Z" fill="#B58D73"/>
<path d="M74.1835 49.3088C74.1835 45.5485 71.1255 42.4891 67.3667 42.4891C63.6103 42.4891 60.5544 45.5485 60.5544 49.3088C60.5544 53.0691 63.6105 56.1284 67.3667 56.1284C71.1255 56.1284 74.1835 53.0691 74.1835 49.3088ZM67.3667 53.0034C65.3334 53.0034 63.6794 51.3461 63.6794 49.3088C63.6794 47.2714 65.3334 45.6141 67.3667 45.6141C69.4023 45.6141 71.0585 47.2714 71.0585 49.3088C71.0585 51.3461 69.4024 53.0034 67.3667 53.0034Z" fill="#B58D73"/>
<path d="M51.875 23.5768C52.2761 23.5768 52.6775 23.4236 52.9832 23.118C53.5933 22.5079 53.5933 21.5185 52.9832 20.9082C52.373 20.298 51.3836 20.298 50.7733 20.9082L50.769 20.9126C50.1588 21.5227 50.161 22.5099 50.7711 23.12C51.0758 23.4247 51.4752 23.5768 51.875 23.5768Z" fill="#B58D73"/>
</svg>
