<svg width="115" height="80" viewBox="0 0 115 80" fill="none" xmlns="http://www.w3.org/2000/svg">
<g clip-path="url(#clip0cxxcxccxxxxxxxx)">
<path d="M72.489 60.9112C72.2387 60.9636 71.9917 61.0267 71.7485 61.1006C70.2401 59.0975 68.0878 57.7386 65.7061 57.2109L67.3214 54.0866L70.6075 50.803C73.1212 48.2879 73.1212 44.1954 70.6075 41.6803L67.0967 38.1677L84.9555 20.2991C84.9708 20.2848 84.9869 20.272 85.0019 20.2572C85.017 20.242 85.0301 20.2255 85.0447 20.2098L91.9865 13.2641C91.9867 13.264 91.9868 13.2638 91.987 13.2638C91.9871 13.2636 91.9871 13.2635 91.9873 13.2633L95.2438 10.0049C97.5291 7.72463 97.5304 4.00575 95.2454 1.71358C94.1409 0.608433 92.669 0 91.0999 0C91.0987 0 91.0971 0 91.0959 0C89.5276 0.00109374 88.0575 0.610151 86.9576 1.71358L83.7003 4.97262C83.7003 4.97262 83.7003 4.97262 83.7002 4.97262L83.7 4.97277L76.7566 11.9199C76.7415 11.934 76.7254 11.9468 76.7105 11.9615C76.6954 11.9766 76.6824 11.9929 76.668 12.0085L72.7306 15.9482C72.1206 16.5586 72.1207 17.5478 72.731 18.158C73.3413 18.7678 74.3307 18.7677 74.9407 18.1574L77.8172 15.2793L81.6858 19.1498L64.8875 35.9574L61.0189 32.0868L65.0255 28.0781C65.6355 27.4676 65.6352 26.4784 65.0248 25.8682C64.4142 25.2582 63.425 25.2584 62.815 25.8689L58.8097 29.8763L55.3002 26.3649C54.0866 25.1507 52.4671 24.482 50.7401 24.482C49.0131 24.482 47.3937 25.1507 46.1794 26.3657L42.8981 29.653L36.5709 32.9319C36.5641 32.9354 36.5574 32.9388 36.5508 32.9422L30.4564 36.1005C30.4295 36.1135 30.4031 36.1271 30.3768 36.1416L20.5433 41.2376C18.4321 42.3306 17.2879 43.6223 17.0449 45.1868C16.8099 46.7007 17.4979 48.2759 19.0894 49.8682L23.4171 54.1996C23.4331 54.2171 23.4503 54.233 23.4671 54.2497L33.0996 63.8906L42.7066 73.4997C42.7305 73.5252 42.7552 73.55 42.781 73.5741L47.1139 77.9081C48.5031 79.298 49.8789 79.9992 51.2125 79.9992C51.4071 79.9992 51.6009 79.9842 51.7935 79.9544C53.3581 79.7115 54.6496 78.5666 55.7419 76.4541L56.4516 75.0822C56.8462 75.4389 57.2697 75.7689 57.7222 76.067C59.4411 77.1997 61.4094 77.7858 63.4195 77.7858C64.1242 77.7858 64.8345 77.7136 65.5405 77.5678C66.874 77.2934 68.1348 76.7633 69.2489 76.0145C71.1504 77.3919 73.5474 77.922 75.8944 77.4392C78.1015 76.9844 79.9989 75.6972 81.2374 73.8146C82.4753 71.9327 82.9069 69.6813 82.4522 67.4755C81.516 62.9225 77.0493 59.977 72.489 60.9112ZM91.0979 3.12497H91.0998C91.8337 3.12497 92.521 3.40825 93.0337 3.92122C94.1013 4.9923 94.1027 6.72916 93.0351 7.79447L90.8823 9.94836L87.0137 6.07776L89.1692 3.92106C89.6806 3.40825 90.3654 3.12544 91.0979 3.12497ZM80.0266 13.0688L84.8047 8.28806L88.6732 12.1587L83.895 16.9394L80.0266 13.0688ZM55.9705 60.1419L33.7529 37.9122L36.9894 36.235L58.8033 58.0608C57.7335 58.5944 56.7796 59.3025 55.9705 60.1419ZM43.5361 32.8421L64.1325 53.4499L62.2797 57.0339C62.2544 57.0367 62.2291 57.0395 62.2038 57.0425L39.9 34.7264L43.5361 32.8421ZM48.3906 28.5741C49.0139 27.9506 49.8484 27.6071 50.7404 27.6071C51.6323 27.6071 52.4668 27.9506 53.0902 28.5741L68.3972 43.8893C69.6936 45.1864 69.6936 47.297 68.3979 48.5932L66.0459 50.9435L46.0412 30.9279L48.3906 28.5741ZM52.9667 75.0186C52.3981 76.1183 51.7959 76.7919 51.3148 76.8664C50.8612 76.9375 50.1362 76.5113 49.3243 75.6989L45.7603 72.134L49.1729 65.5465C49.57 64.7803 49.2706 63.8373 48.5043 63.4404C47.7379 63.0436 46.7951 63.3428 46.3983 64.109L43.4422 69.8152L36.4173 62.7886L41.363 57.8256C41.9721 57.2144 41.9703 56.225 41.3591 55.616C40.7478 55.0069 39.7585 55.0085 39.1494 55.6199L34.2082 60.5783L27.1795 53.5435L32.884 50.5849C33.6501 50.1877 33.949 49.2446 33.5517 48.4785C33.1545 47.7126 32.211 47.4134 31.4453 47.8109L24.8628 51.2247L21.3005 47.6593C20.4883 46.8468 20.063 46.1203 20.1335 45.6662C20.2083 45.1845 20.8814 44.5818 21.9811 44.0126L30.8425 39.4205L54.1418 62.7326C53.1345 64.7478 52.7667 67.1009 53.254 69.4751C53.4677 70.5108 53.8307 71.4908 54.3252 72.3925L52.9667 75.0186ZM78.6274 72.0972C77.8479 73.2822 76.6535 74.0925 75.2649 74.3786C73.4959 74.7431 71.6807 74.1922 70.4098 72.9063C69.8257 72.3154 68.8812 72.2847 68.2601 72.8372C67.3214 73.6721 66.1633 74.2497 64.91 74.5075C63.0075 74.9005 61.0657 74.5277 59.4421 73.458C57.8182 72.388 56.7074 70.7493 56.3144 68.8454C55.5065 64.9092 58.0468 61.0498 61.9772 60.2422C61.9774 60.2422 61.9775 60.2422 61.9778 60.242C62.4725 60.1401 62.9675 60.0908 63.4574 60.0908C66.0409 60.0908 68.4665 61.4672 69.7803 63.7867C70.1892 64.5085 71.091 64.785 71.8342 64.4164C72.2399 64.2151 72.6754 64.065 73.1224 63.9715C75.9894 63.3846 78.8021 65.2389 79.3922 68.1065C79.6785 69.4951 79.4069 70.9126 78.6274 72.0972Z" fill="#B58D73"/>
<path d="M91.569 65.9272C88.5717 65.9272 86.1333 68.3647 86.1333 71.3606C86.1333 74.3591 88.5717 76.7984 91.569 76.7984C94.5639 76.7984 97.0002 74.3591 97.0002 71.3606C97.0002 68.3647 94.5639 65.9272 91.569 65.9272ZM91.569 73.6734C90.2948 73.6734 89.2583 72.6359 89.2583 71.3606C89.2583 70.0878 90.2948 69.0522 91.569 69.0522C92.8407 69.0522 93.8753 70.0877 93.8753 71.3606C93.8753 72.6359 92.8406 73.6734 91.569 73.6734Z" fill="#B58D73"/>
<path d="M91.1833 49.3089C91.1833 45.5486 88.1254 42.4893 84.3665 42.4893C80.6101 42.4893 77.5542 45.5486 77.5542 49.3089C77.5542 53.0692 80.6103 56.1285 84.3665 56.1285C88.1254 56.1285 91.1833 53.0692 91.1833 49.3089ZM84.3665 53.0035C82.3332 53.0035 80.6792 51.3462 80.6792 49.3089C80.6792 47.2716 82.3332 45.6142 84.3665 45.6142C86.4021 45.6142 88.0583 47.2716 88.0583 49.3089C88.0583 51.3462 86.4023 53.0035 84.3665 53.0035Z" fill="#B58D73"/>
<path d="M68.8751 23.5764C69.2762 23.5764 69.6776 23.4233 69.9832 23.1176C70.5934 22.5075 70.5934 21.5181 69.9832 20.9078C69.3731 20.2977 68.3837 20.2977 67.7734 20.9078L67.769 20.9122C67.1589 21.5223 67.1611 22.5095 67.7712 23.1197C68.0759 23.4244 68.4753 23.5764 68.8751 23.5764Z" fill="#B58D73"/>
</g>
<defs>
<clipPath id="clip0cxxcxccxxxxxxxx">
<rect width="115" height="79.9992" transform="matrix(1 0 0 -1 0 79.999)" fill="white"/>
</clipPath>
</defs>
</svg>
