<svg width="115" height="65" viewBox="0 0 115 65" fill="none" xmlns="http://www.w3.org/2000/svg">
<path d="M112.657 46.5713C107.762 46.5713 105.284 47.4102 102.887 48.2214C100.678 48.9693 98.5909 49.676 94.3156 49.676C90.0401 49.676 87.9533 48.9695 85.7438 48.2214C83.3476 47.4102 80.8696 46.5713 75.9742 46.5713C71.0819 46.5713 68.6056 47.4104 66.2106 48.2216C64.0029 48.9695 61.9177 49.676 57.6457 49.676C53.372 49.676 51.286 48.9695 49.0777 48.2216C46.6821 47.4102 44.2051 46.5713 39.3114 46.5713C34.4193 46.5713 31.943 47.4104 29.548 48.2216C27.3404 48.9695 25.2553 49.676 20.9833 49.676C16.7127 49.676 14.6281 48.9695 12.4211 48.2216C10.0268 47.4102 7.55112 46.5713 2.65991 46.5713C1.7432 46.5713 1 47.2216 1 48.0237C1 48.8258 1.7432 49.4761 2.65991 49.4761C6.93053 49.4761 9.01494 50.1826 11.2222 50.9305C13.6164 51.7419 16.0921 52.5808 20.9833 52.5808C25.8754 52.5808 28.3518 51.7417 30.7467 50.9305C32.9544 50.1826 35.0395 49.4761 39.3114 49.4761C43.5849 49.4761 45.6709 50.1826 47.8792 50.9305C50.2748 51.7419 52.7521 52.5808 57.6457 52.5808C62.538 52.5808 65.0144 51.7417 67.4093 50.9305C69.617 50.1826 71.7023 49.4761 75.9742 49.4761C80.2495 49.4761 82.3366 50.1826 84.5458 50.9307C86.9423 51.7419 89.4202 52.5808 94.3156 52.5808C99.211 52.5808 101.689 51.7419 104.085 50.9307C106.294 50.1828 108.381 49.4761 112.657 49.4761C113.573 49.4761 114.317 48.8258 114.317 48.0237C114.317 47.2216 113.573 46.5713 112.657 46.5713Z" fill="#B58D73"/>
<path d="M105.335 55.1618C105.005 54.4133 104.044 54.0405 103.189 54.3291L102.886 54.4313C101.887 54.7696 100.943 55.0892 99.8197 55.3444C98.9324 55.5462 98.3999 56.339 98.6303 57.1154C98.8244 57.7694 99.4979 58.203 100.236 58.203C100.374 58.203 100.514 58.1877 100.654 58.1559C101.963 57.8584 103.041 57.4934 104.084 57.1402L104.383 57.0393C105.238 56.7507 105.664 55.9101 105.335 55.1618Z" fill="#B58D73"/>
<path d="M93.2012 55.8686C89.6598 55.7569 87.7578 55.113 85.744 54.4311C83.3475 53.6199 80.8696 52.781 75.9744 52.781C71.0821 52.781 68.6057 53.6201 66.2108 54.4313C64.0031 55.1792 61.9178 55.8857 57.6459 55.8857C53.3722 55.8857 51.2864 55.1792 49.0779 54.4311C46.6823 53.6199 44.2053 52.7808 39.3116 52.7808C34.4195 52.7808 31.9432 53.6199 29.5482 54.4311C27.5393 55.1118 25.6417 55.7545 22.1147 55.8678C21.1984 55.8973 20.4831 56.571 20.5168 57.3725C20.5504 58.1743 21.3206 58.7984 22.2364 58.7707C26.3207 58.6396 28.5711 57.8772 30.7471 57.14C32.9548 56.3921 35.0399 55.6856 39.3118 55.6856C43.5853 55.6856 45.6713 56.3921 47.8796 57.1402C50.2752 57.9514 52.7525 58.7905 57.6461 58.7905C62.5384 58.7905 65.0148 57.9514 67.4097 57.1402C69.6174 56.3923 71.7027 55.6858 75.9746 55.6858C80.2499 55.6858 82.337 56.3923 84.5462 57.1404C86.7273 57.8788 88.9826 58.6424 93.0817 58.7717C93.992 58.8002 94.7673 58.1743 94.8002 57.3725C94.8332 56.5708 94.1172 55.8975 93.2012 55.8686Z" fill="#B58D73"/>
<path d="M75.9741 58.9902C71.0818 58.9902 68.6054 59.8293 66.2105 60.6406C64.0028 61.3885 61.9175 62.0949 57.6456 62.0949C53.3718 62.0949 51.2861 61.3885 49.0775 60.6406C46.6819 59.8292 44.2049 58.9902 39.3113 58.9902C38.3946 58.9902 37.6514 59.6405 37.6514 60.4427C37.6514 61.2448 38.3946 61.8951 39.3113 61.8951C43.5848 61.8951 45.6707 62.6015 47.8793 63.3494C50.2749 64.1609 52.7519 64.9998 57.6456 64.9998C62.5379 64.9998 65.0142 64.1607 67.4092 63.3494C69.6168 62.6015 71.7021 61.8951 75.9741 61.8951C76.8908 61.8951 77.634 61.2448 77.634 60.4427C77.634 59.6405 76.8908 58.9902 75.9741 58.9902Z" fill="#B58D73"/>
<path d="M15.4986 55.3476C14.3688 55.0914 13.4218 54.7703 12.4192 54.4305C11.5644 54.1408 10.6028 54.5122 10.2717 55.2601C9.94059 56.0082 10.3651 56.8494 11.2198 57.1391C12.2667 57.4939 13.3492 57.8609 14.6656 58.1595C14.8052 58.1913 14.9453 58.2064 15.0832 58.2064C15.8213 58.2064 16.495 57.7722 16.6889 57.118C16.9191 56.3415 16.3861 55.549 15.4986 55.3476Z" fill="#B58D73"/>
<path d="M79.4103 27.0166C74.4512 20.7919 66.3198 17.0757 57.6586 17.0757C43.0476 17.0757 31.1606 27.4766 31.1606 40.2614C31.1604 40.8131 31.1828 41.3699 31.227 41.9162C31.2888 42.6815 32.0176 43.2663 32.8812 43.2663C32.9206 43.2663 32.96 43.2652 32.9998 43.2627C33.9143 43.2061 34.6033 42.5117 34.5387 41.7115C34.4999 41.2328 34.4805 40.7449 34.4805 40.2614C34.4805 29.0785 44.8779 19.9805 57.6586 19.9805C65.2347 19.9805 72.3482 23.2318 76.6867 28.6778C77.211 29.3357 78.2455 29.4972 78.9978 29.0388C79.7498 28.58 79.9344 27.6747 79.4103 27.0166Z" fill="#B58D73"/>
<path d="M23.9498 38.8096H13.3049C12.3882 38.8096 11.645 39.4599 11.645 40.262C11.645 41.0641 12.3882 41.7144 13.3049 41.7144H23.9498C24.8665 41.7144 25.6097 41.0641 25.6097 40.262C25.6097 39.4599 24.8665 38.8096 23.9498 38.8096Z" fill="#B58D73"/>
<path d="M57.6584 0C56.7417 0 55.9985 0.650298 55.9985 1.45242V10.7667C55.9985 11.569 56.7417 12.2191 57.6584 12.2191C58.5752 12.2191 59.3184 11.5688 59.3184 10.7667V1.45242C59.3184 0.650298 58.5752 0 57.6584 0Z" fill="#B58D73"/>
<path d="M90.1947 11.7926C89.5464 11.2254 88.4953 11.2254 87.8473 11.7926L80.3202 18.3789C79.6719 18.9461 79.6719 19.8658 80.3202 20.4328C80.6442 20.7163 81.0689 20.8582 81.4938 20.8582C81.9186 20.8582 82.3435 20.7165 82.6675 20.4328L90.1947 13.8465C90.8429 13.2793 90.8429 12.3596 90.1947 11.7926Z" fill="#B58D73"/>
<path d="M46.2919 12.4563L44.9341 9.58782C44.5833 8.8467 43.6124 8.49502 42.7654 8.80177C41.9184 9.10871 41.5162 9.95848 41.867 10.6994L43.2248 13.5679C43.4895 14.1271 44.1077 14.4649 44.759 14.4649C44.9708 14.4649 45.1859 14.4292 45.3935 14.3539C46.2405 14.047 46.6427 13.1972 46.2919 12.4563Z" fill="#B58D73"/>
<path d="M93.6132 27.2309C93.2624 26.49 92.2915 26.1379 91.4445 26.4449L88.1662 27.633C87.3192 27.9397 86.9171 28.7895 87.2679 29.5306C87.5326 30.0899 88.1507 30.4276 88.8021 30.4276C89.0139 30.4276 89.229 30.392 89.4366 30.3167L92.7148 29.1286C93.5618 28.8216 93.964 27.9719 93.6132 27.2309Z" fill="#B58D73"/>
<path d="M72.5508 8.80136C71.704 8.49442 70.7328 8.84629 70.3821 9.58741L69.0242 12.4559C68.6734 13.1968 69.0756 14.0464 69.9226 14.3535C70.1302 14.4288 70.3455 14.4645 70.5571 14.4645C71.2085 14.4645 71.8266 14.1267 72.0913 13.5674L73.4491 10.699C73.7999 9.95788 73.3978 9.10831 72.5508 8.80136Z" fill="#B58D73"/>
<path d="M27.1504 27.6325L23.8722 26.4444C23.025 26.1375 22.0542 26.4894 21.7034 27.2305C21.3526 27.9716 21.7548 28.8212 22.6018 29.1281L25.88 30.3162C26.0878 30.3915 26.303 30.4272 26.5145 30.4272C27.1659 30.4272 27.784 30.0894 28.0487 29.5302C28.3995 28.789 27.9974 27.9395 27.1504 27.6325Z" fill="#B58D73"/>
<path d="M26.8643 9.31445C24.4125 9.31445 22.045 10.0294 20.0943 11.3442C19.2057 11.1007 18.2899 10.9776 17.3601 10.9776C12.2522 10.9776 8.09668 14.6137 8.09668 19.0831C8.09668 19.8852 8.83988 20.5355 9.75659 20.5355H36.3687C37.2855 20.5355 38.0287 19.8852 38.0287 19.0831C38.0287 13.6967 33.0204 9.31445 26.8643 9.31445ZM11.6524 17.6304C12.3724 15.4675 14.6586 13.8824 17.3601 13.8824C18.1779 13.8824 18.9826 14.0331 19.7519 14.3303C20.3581 14.5645 21.0652 14.4609 21.551 14.0666C23.0193 12.8752 24.9065 12.2191 26.8645 12.2191C30.6206 12.2191 33.7684 14.541 34.5324 17.6304H11.6524Z" fill="#B58D73"/>
<path d="M85.5377 33.7085C84.6079 33.7085 83.6921 33.8315 82.8035 34.0751C80.8528 32.7604 78.4851 32.0454 76.0335 32.0454C69.8774 32.0454 64.8691 36.4277 64.8691 41.814C64.8691 42.6161 65.6123 43.2664 66.5291 43.2664H93.1412C94.0579 43.2664 94.8011 42.6161 94.8011 41.814C94.8011 37.3446 90.6456 33.7085 85.5377 33.7085ZM68.3656 40.3616C69.1294 37.2722 72.2774 34.9503 76.0335 34.9503C77.9915 34.9503 79.8785 35.6064 81.347 36.7977C81.833 37.1918 82.5397 37.2952 83.1459 37.0613C83.9152 36.764 84.7199 36.6134 85.5377 36.6134C88.2391 36.6134 90.5254 38.1984 91.2456 40.3616H68.3656Z" fill="#B58D73"/>
</svg>
