<svg width="100" height="65" viewBox="0 0 100 65" fill="none" xmlns="http://www.w3.org/2000/svg">
<path d="M97.6996 46.5712C93.4164 46.5712 91.2482 47.4101 89.1513 48.2213C87.2182 48.9692 85.392 49.6759 81.6511 49.6759C77.9101 49.6759 76.0841 48.9694 74.1508 48.2213C72.0541 47.4101 69.8859 46.5712 65.6025 46.5712C61.3217 46.5712 59.1549 47.4103 57.0593 48.2215C55.1276 48.9694 53.303 49.6759 49.565 49.6759C45.8255 49.6759 44.0003 48.9694 42.068 48.2215C39.9718 47.4101 37.8044 46.5712 33.5225 46.5712C29.2419 46.5712 27.0751 47.4103 24.9795 48.2215C23.0478 48.9694 21.2234 49.6759 17.4854 49.6759C13.7486 49.6759 11.9246 48.9694 9.99344 48.2215C7.89847 47.4101 5.73223 46.5712 1.45242 46.5712C0.650298 46.5712 0 47.2215 0 48.0236C0 48.8257 0.650298 49.476 1.45242 49.476C5.18922 49.476 7.01307 50.1825 8.94441 50.9304C11.0394 51.7418 13.2056 52.5807 17.4854 52.5807C21.766 52.5807 23.9328 51.7416 26.0284 50.9304C27.9601 50.1825 29.7845 49.476 33.5225 49.476C37.2618 49.476 39.087 50.1825 41.0193 50.9304C43.1155 51.7418 45.2831 52.5807 49.565 52.5807C53.8458 52.5807 56.0126 51.7416 58.1082 50.9304C60.0399 50.1825 61.8645 49.476 65.6025 49.476C69.3433 49.476 71.1695 50.1825 73.1026 50.9306C75.1995 51.7418 77.3677 52.5807 81.6511 52.5807C85.9346 52.5807 88.1026 51.7418 90.1995 50.9306C92.1326 50.1827 93.9588 49.476 97.6996 49.476C98.5018 49.476 99.1521 48.8257 99.1521 48.0236C99.1521 47.2215 98.5018 46.5712 97.6996 46.5712Z" fill="#B58D73"/>
<path d="M91.2929 55.1617C91.0044 54.4132 90.1633 54.0404 89.4152 54.3289L89.1505 54.4312C88.2761 54.7695 87.4502 55.089 86.4674 55.3443C85.691 55.5461 85.2251 56.3389 85.4267 57.1153C85.5965 57.7692 86.1858 58.2028 86.8315 58.2028C86.9525 58.2028 87.0753 58.1875 87.1977 58.1558C88.3426 57.8583 89.286 57.4933 90.1988 57.1401L90.46 57.0392C91.2085 56.7506 91.5815 55.91 91.2929 55.1617Z" fill="#B58D73"/>
<path d="M80.676 55.8686C77.5773 55.7569 75.913 55.113 74.151 54.4311C72.0541 53.6199 69.8859 52.781 65.6026 52.781C61.3218 52.781 59.155 53.6201 57.0594 54.4313C55.1277 55.1792 53.3031 55.8857 49.5651 55.8857C45.8256 55.8857 44.0006 55.1792 42.0681 54.4311C39.972 53.6199 37.8046 52.7808 33.5226 52.7808C29.2421 52.7808 27.0752 53.6199 24.9797 54.4311C23.2219 55.1118 21.5614 55.7545 18.4753 55.8678C17.6736 55.8973 17.0477 56.571 17.0771 57.3725C17.1066 58.1743 17.7805 58.7984 18.5818 58.7707C22.1556 58.6396 24.1247 57.8772 26.0287 57.14C27.9604 56.3921 29.7849 55.6856 33.5228 55.6856C37.2621 55.6856 39.0873 56.3921 41.0197 57.1402C43.1158 57.9514 45.2834 58.7905 49.5653 58.7905C53.8461 58.7905 56.0129 57.9514 58.1085 57.1402C60.0402 56.3923 61.8648 55.6858 65.6028 55.6858C69.3436 55.6858 71.1698 56.3923 73.1029 57.1404C75.0114 57.8788 76.9847 58.6424 80.5715 58.7717C81.368 58.8002 82.0463 58.1743 82.0752 57.3725C82.104 56.5708 81.4776 55.8975 80.676 55.8686Z" fill="#B58D73"/>
<path d="M65.6024 58.9904C61.3216 58.9904 59.1548 59.8295 57.0592 60.6407C55.1275 61.3886 53.3028 62.0951 49.5649 62.0951C45.8254 62.0951 44.0004 61.3886 42.0679 60.6407C39.9717 59.8293 37.8043 58.9904 33.5224 58.9904C32.7203 58.9904 32.07 59.6407 32.07 60.4428C32.07 61.2449 32.7203 61.8952 33.5224 61.8952C37.2617 61.8952 39.0869 62.6017 41.0194 63.3496C43.1156 64.161 45.283 64.9999 49.5649 64.9999C53.8457 64.9999 56.0125 64.1608 58.108 63.3496C60.0398 62.6017 61.8644 61.8952 65.6024 61.8952C66.4045 61.8952 67.0548 61.2449 67.0548 60.4428C67.0548 59.6407 66.4045 58.9904 65.6024 58.9904Z" fill="#B58D73"/>
<path d="M12.6865 55.3479C11.6979 55.0917 10.8692 54.7706 9.99195 54.4307C9.24405 54.141 8.40262 54.5124 8.11291 55.2603C7.8232 56.0084 8.19463 56.8497 8.94253 57.1394C9.85852 57.4942 10.8057 57.8611 11.9576 58.1598C12.0798 58.1915 12.2023 58.2066 12.323 58.2066C12.9688 58.2066 13.5583 57.7724 13.728 57.1183C13.9294 56.3417 13.4631 55.5493 12.6865 55.3479Z" fill="#B58D73"/>
<path d="M68.609 27.0169C64.2697 20.7922 57.1548 17.0759 49.5762 17.0759C36.7916 17.0759 26.3905 27.4768 26.3905 40.2616C26.3903 40.8134 26.4099 41.3701 26.4486 41.9164C26.5027 42.6818 27.1404 43.2666 27.896 43.2666C27.9305 43.2666 27.965 43.2654 27.9998 43.2629C28.8 43.2064 29.4029 42.5119 29.3463 41.7117C29.3124 41.233 29.2954 40.7452 29.2954 40.2616C29.2954 29.0787 38.3932 19.9808 49.5762 19.9808C56.2053 19.9808 62.4296 23.2321 66.2259 28.6781C66.6846 29.3359 67.5898 29.4974 68.248 29.0391C68.9061 28.5803 69.0676 27.6749 68.609 27.0169Z" fill="#B58D73"/>
<path d="M20.0811 38.8097H10.7668C9.96469 38.8097 9.31439 39.46 9.31439 40.2621C9.31439 41.0642 9.96469 41.7145 10.7668 41.7145H20.0811C20.8832 41.7145 21.5335 41.0642 21.5335 40.2621C21.5335 39.46 20.8832 38.8097 20.0811 38.8097Z" fill="#B58D73"/>
<path d="M49.576 0C48.7739 0 48.1236 0.650298 48.1236 1.45242V10.7667C48.1236 11.569 48.7739 12.2191 49.576 12.2191C50.3781 12.2191 51.0284 11.5688 51.0284 10.7667V1.45242C51.0284 0.650298 50.3781 0 49.576 0Z" fill="#B58D73"/>
<path d="M78.0455 11.7926C77.4783 11.2254 76.5586 11.2254 75.9916 11.7926L69.4053 18.3789C68.8381 18.9461 68.8381 19.8657 69.4053 20.4328C69.6888 20.7163 70.0605 20.8582 70.4323 20.8582C70.8039 20.8582 71.1757 20.7165 71.4593 20.4328L78.0455 13.8465C78.6127 13.2793 78.6127 12.3596 78.0455 11.7926Z" fill="#B58D73"/>
<path d="M39.6305 12.4561L38.4424 9.5877C38.1354 8.84658 37.2859 8.4949 36.5448 8.80165C35.8036 9.10859 35.4518 9.95836 35.7587 10.6993L36.9468 13.5677C37.1784 14.127 37.7193 14.4647 38.2892 14.4647C38.4745 14.4647 38.6628 14.4291 38.8444 14.3538C39.5855 14.0468 39.9374 13.1971 39.6305 12.4561Z" fill="#B58D73"/>
<path d="M81.0365 27.2308C80.7296 26.4899 79.88 26.1378 79.1389 26.4448L76.2705 27.6329C75.5293 27.9396 75.1775 28.7894 75.4844 29.5305C75.716 30.0898 76.2569 30.4275 76.8268 30.4275C77.0122 30.4275 77.2004 30.3919 77.382 30.3165L80.2505 29.1285C80.9916 28.8215 81.3435 27.9717 81.0365 27.2308Z" fill="#B58D73"/>
<path d="M62.6071 8.80148C61.8661 8.49454 61.0164 8.84641 60.7094 9.58754L59.5213 12.456C59.2144 13.1969 59.5663 14.0465 60.3074 14.3536C60.489 14.4289 60.6775 14.4646 60.8626 14.4646C61.4325 14.4646 61.9734 14.1268 62.205 13.5676L63.3931 10.6991C63.7001 9.958 63.3482 9.10843 62.6071 8.80148Z" fill="#B58D73"/>
<path d="M22.8817 27.6326L20.0133 26.4446C19.272 26.1376 18.4226 26.4895 18.1157 27.2306C17.8087 27.9717 18.1606 28.8213 18.9017 29.1282L21.7702 30.3163C21.952 30.3917 22.1402 30.4273 22.3254 30.4273C22.8953 30.4273 23.4362 30.0895 23.6678 29.5303C23.9747 28.7891 23.6229 27.9396 22.8817 27.6326Z" fill="#B58D73"/>
<path d="M22.6313 9.31458C20.4859 9.31458 18.4144 10.0296 16.7075 11.3443C15.93 11.1009 15.1286 10.9777 14.3151 10.9777C9.84569 10.9777 6.20959 14.6138 6.20959 19.0832C6.20959 19.8853 6.85989 20.5356 7.66202 20.5356H30.9476C31.7498 20.5356 32.4001 19.8853 32.4001 19.0832C32.4001 13.6968 28.0178 9.31458 22.6313 9.31458ZM9.32088 17.6306C9.95084 15.4676 11.9513 13.8825 14.3151 13.8825C15.0306 13.8825 15.7348 14.0332 16.4079 14.3305C16.9384 14.5646 17.5571 14.461 17.9822 14.0667C19.2669 12.8753 20.9182 12.2192 22.6315 12.2192C25.918 12.2192 28.6724 14.5412 29.3409 17.6306H9.32088Z" fill="#B58D73"/>
<path d="M73.9703 33.7087C73.1568 33.7087 72.3554 33.8316 71.5779 34.0752C69.871 32.7605 67.7993 32.0455 65.6541 32.0455C60.2676 32.0455 55.8853 36.4278 55.8853 41.8141C55.8853 42.6163 56.5356 43.2666 57.3378 43.2666H80.6234C81.4255 43.2666 82.0758 42.6163 82.0758 41.8141C82.0758 37.3447 78.4397 33.7087 73.9703 33.7087ZM58.9447 40.3617C59.613 37.2723 62.3676 34.9504 65.6541 34.9504C67.3674 34.9504 69.0185 35.6065 70.3034 36.7979C70.7287 37.1919 71.3471 37.2954 71.8775 37.0614C72.5506 36.7642 73.2548 36.6135 73.9703 36.6135C76.3341 36.6135 78.3346 38.1986 78.9647 40.3617H58.9447Z" fill="#B58D73"/>
</svg>
