<svg width="115" height="80" viewBox="0 0 115 80" fill="none" xmlns="http://www.w3.org/2000/svg">
<path d="M76.6045 22.1766C76.3141 21.8859 75.9109 21.7188 75.5 21.7188C75.0891 21.7188 74.6859 21.8859 74.3953 22.1766C74.1047 22.4672 73.9375 22.8688 73.9375 23.2813C73.9375 23.6922 74.1045 24.0953 74.3953 24.3859C74.6861 24.6766 75.0891 24.8438 75.5 24.8438C75.9109 24.8438 76.3141 24.6766 76.6045 24.3859C76.8952 24.0953 77.0625 23.6922 77.0625 23.2813C77.0625 22.8703 76.8953 22.4672 76.6045 22.1766Z" fill="#B58D73"/>
<path d="M41.4375 44.0625H28.9375C28.0747 44.0625 27.375 44.762 27.375 45.625V58.125C27.375 58.988 28.0747 59.6875 28.9375 59.6875H41.4375C42.3003 59.6875 43 58.988 43 58.125V45.625C43 44.762 42.3005 44.0625 41.4375 44.0625ZM39.875 56.5625H30.5V47.1875H39.875V56.5625Z" fill="#B58D73"/>
<path d="M97.0355 32.7753C96.4515 32.5332 95.7794 32.6673 95.3326 33.1139L79.4111 49.0354C79.4109 49.0358 79.4106 49.0359 79.4103 49.0362C79.41 49.0365 79.4098 49.0367 79.4097 49.037L60.8497 67.597C60.8494 67.5973 60.8492 67.5975 60.8489 67.5978C60.8486 67.5981 60.8484 67.5983 60.8481 67.5986L51.1139 77.3328C50.6672 77.7797 50.5334 78.4519 50.7751 79.0356C51.017 79.6195 51.5867 80.0001 52.2187 80.0001H96.4375C97.3003 80.0001 98 79.3006 98 78.4376V34.2189C98 33.587 97.6194 33.0172 97.0355 32.7753ZM94.875 76.8751H55.9911L61.9537 70.9125L63.4453 72.404C63.7504 72.7092 64.1503 72.8617 64.5501 72.8617C64.95 72.8617 65.3498 72.7092 65.655 72.404C66.2651 71.7939 66.2651 70.8045 65.655 70.1942L64.1634 68.7026L68.1409 64.7251L69.6323 66.2165C69.9375 66.5217 70.3373 66.6742 70.7372 66.6742C71.137 66.6742 71.5369 66.5215 71.842 66.2165C72.4522 65.6064 72.4522 64.617 71.842 64.0069L70.3505 62.5153L74.328 58.5378L75.8195 60.0293C76.1247 60.3345 76.5245 60.487 76.9244 60.487C77.3242 60.487 77.724 60.3345 78.0292 60.0293C78.6394 59.4192 78.6394 58.4298 78.0292 57.8195L76.5376 56.3279L80.515 52.3506L82.0065 53.8422C82.3117 54.1473 82.7116 54.2998 83.1114 54.2998C83.5112 54.2998 83.9111 54.1473 84.2162 53.8422C84.8264 53.232 84.8264 52.2426 84.2162 51.6323L82.7247 50.1408L86.7022 46.1633L88.1936 47.6547C88.4987 47.9598 88.8986 48.1123 89.2984 48.1123C89.6983 48.1123 90.0981 47.9597 90.4033 47.6547C91.0134 47.0445 91.0134 46.0551 90.4033 45.445L88.9117 43.9534L94.875 37.9911V76.8751Z" fill="#B58D73"/>
<path d="M89.2228 51.6366C88.6389 51.3946 87.9667 51.5285 87.52 51.9752L69.9748 69.5206C69.5281 69.9674 69.3942 70.6395 69.636 71.2234C69.8779 71.8073 70.4476 72.1879 71.0796 72.1879H88.6248C89.4876 72.1879 90.1873 71.4884 90.1873 70.6254V53.0802C90.1873 52.4484 89.8067 51.8785 89.2228 51.6366ZM87.0623 69.0629H74.852L87.0623 56.8524V69.0629Z" fill="#B58D73"/>
<path d="M90.3531 23.322C89.923 22.892 89.2827 22.7504 88.7109 22.9597L78.042 26.8667C77.8287 26.9448 77.6351 27.0684 77.4744 27.229L74.4745 30.2289L54.8861 10.6403C54.593 10.3473 54.1956 10.1826 53.7812 10.1826C53.3669 10.1826 52.9694 10.3473 52.6764 10.6403L29.0978 34.2189H23.3348L53.7812 3.77231L70.4889 20.48C71.0992 21.0901 72.0883 21.0901 72.6987 20.48C73.3089 19.8698 73.3089 18.8804 72.6987 18.2701L54.8862 0.457617C54.2759 -0.152539 53.2869 -0.152539 52.6764 0.457617L18.4576 34.6764C18.0109 35.1233 17.8772 35.7953 18.1189 36.3792C18.3608 36.9633 18.9304 37.3439 19.5625 37.3439H21.125V78.4376C21.125 79.3006 21.8247 80.0001 22.6875 80.0001H47.529C48.3919 80.0001 49.0915 79.3006 49.0915 78.4376C49.0915 77.5747 48.3919 76.8751 47.529 76.8751H24.25V37.3439H29.745C30.1594 37.3439 30.5567 37.1792 30.8498 36.8862L53.7812 13.9548L72.2647 32.4384L49.0937 55.6095V41.5626H60.0312C60.8941 41.5626 61.5937 40.8631 61.5937 40.0001C61.5937 39.1372 60.8941 38.4376 60.0312 38.4376H47.5312C46.6684 38.4376 45.9687 39.1372 45.9687 40.0001V58.1251C45.9687 58.3075 46.0015 58.4815 46.0589 58.6442L44.659 60.044C42.1856 62.5175 42.1856 66.5422 44.659 69.0156C45.8959 70.2525 47.5201 70.8709 49.1448 70.8708C50.7692 70.8708 52.394 70.2523 53.6306 69.0158L66.8075 55.8389C67.4176 55.2287 67.4176 54.2393 66.8075 53.6292C66.1973 53.019 65.2083 53.019 64.5976 53.6292L54.6145 63.6123L50.0625 59.0603L78.6105 30.5123L83.1625 35.0643L72.2539 45.9731C71.6437 46.5833 71.6437 47.5726 72.2539 48.1828C72.8642 48.7929 73.8533 48.7929 74.4637 48.1828L86.4459 36.2006C86.6064 36.04 86.7302 35.8462 86.8081 35.6331L90.7153 24.9642C90.9245 24.3929 90.7833 23.7522 90.3531 23.322ZM52.405 65.8219L51.4209 66.8059C50.813 67.4139 50.0048 67.7487 49.145 67.7487C48.2851 67.7487 47.4769 67.4139 46.869 66.8059C46.2609 66.198 45.9262 65.3897 45.9262 64.53C45.9262 63.6703 46.2608 62.8619 46.8689 62.2539L47.853 61.2698L52.405 65.8219ZM84.7322 32.2142L81.4606 28.9426L86.6228 27.0522L84.7322 32.2142Z" fill="#B58D73"/>
<path d="M70.6075 49.8284C70.317 49.5378 69.9139 49.3706 69.5029 49.3706C69.092 49.3706 68.6889 49.5378 68.3982 49.8284C68.1076 50.1206 67.9404 50.5222 67.9404 50.9331C67.9404 51.3456 68.1075 51.7472 68.3982 52.0394C68.6889 52.33 69.0904 52.4956 69.5029 52.4956C69.9139 52.4956 70.317 52.33 70.6075 52.0394C70.8981 51.7472 71.0654 51.344 71.0654 50.9331C71.0654 50.5222 70.8982 50.1206 70.6075 49.8284Z" fill="#B58D73"/>
<path d="M53.7813 23.5938C50.5073 23.5938 47.8438 26.2573 47.8438 29.5313C47.8438 32.8052 50.5073 35.4688 53.7813 35.4688C57.0552 35.4688 59.7188 32.8052 59.7188 29.5313C59.7188 26.2573 57.0552 23.5938 53.7813 23.5938ZM53.7813 32.3438C52.2305 32.3438 50.9688 31.0822 50.9688 29.5313C50.9688 27.9805 52.2305 26.7188 53.7813 26.7188C55.332 26.7188 56.5938 27.9805 56.5938 29.5313C56.5938 31.082 55.332 32.3438 53.7813 32.3438Z" fill="#B58D73"/>
</svg>
