<svg width="115" height="80" viewBox="0 0 115 80" fill="none" xmlns="http://www.w3.org/2000/svg">
<g clip-path="url(#clip0oofmvug_t)">
<path d="M31.6666 74.6664C32.0709 74.6664 32.4537 74.4821 32.7063 74.1664C33.2669 73.473 46.3332 57.0772 46.3332 49.3331C46.3332 41.2329 39.7669 34.6665 31.6666 34.6665C23.5664 34.6665 17 41.2329 17 49.3331C17 57.0772 30.0664 73.4665 30.6269 74.1664C30.8795 74.4821 31.2623 74.6664 31.6666 74.6664ZM31.6666 37.3332C38.291 37.3403 43.6594 42.7088 43.6666 49.3331C43.6666 54.5063 35.7851 65.8181 31.6666 71.1716C27.5481 65.8201 19.6667 54.5089 19.6667 49.3331C19.6738 42.7088 25.0423 37.3403 31.6666 37.3332Z" fill="#B58D73"/>
<path d="M37.0001 47.9998C37.0001 45.0545 34.6121 42.6665 31.6668 42.6665C28.7215 42.6665 26.3335 45.0545 26.3335 47.9998C26.3335 50.9451 28.7215 53.3331 31.6668 53.3331C34.6121 53.3331 37.0001 50.9451 37.0001 47.9998ZM29.0002 47.9998C29.0002 46.5272 30.1942 45.3332 31.6668 45.3332C33.1395 45.3332 34.3335 46.5272 34.3335 47.9998C34.3335 49.4725 33.1395 50.6665 31.6668 50.6665C30.1942 50.6665 29.0002 49.4725 29.0002 47.9998Z" fill="#B58D73"/>
<path d="M86.3336 27.9999C86.7223 27.9999 87.0908 27.8306 87.344 27.5357C88.3336 26.3879 97.0003 16.1575 97.0003 10.6666C97.0003 4.77538 92.2249 0 86.3336 0C80.4424 0 75.667 4.77538 75.667 10.6666C75.667 16.1575 84.3336 26.3879 85.3232 27.5357C85.5765 27.8306 85.945 27.9999 86.3336 27.9999ZM86.3336 2.66666C90.7503 2.67122 94.329 6.24998 94.3336 10.6666C94.3336 14.0455 89.2431 21.0078 86.3336 24.5852C83.4228 21.0078 78.3337 14.052 78.3337 10.6666C78.3382 6.24998 81.917 2.67122 86.3336 2.66666Z" fill="#B58D73"/>
<path d="M90.3335 9.33348C90.3335 7.12451 88.5425 5.3335 86.3335 5.3335C84.1245 5.3335 82.3335 7.12451 82.3335 9.33348C82.3335 11.5425 84.1245 13.3335 86.3335 13.3335C88.5425 13.3335 90.3335 11.5425 90.3335 9.33348ZM85.0002 9.33348C85.0002 8.59716 85.5972 8.00015 86.3335 8.00015C87.0698 8.00015 87.6668 8.59716 87.6668 9.33348C87.6668 10.0698 87.0698 10.6668 86.3335 10.6668C85.5972 10.6668 85.0002 10.0698 85.0002 9.33348Z" fill="#B58D73"/>
<path d="M84.9998 33.3332H86.3332C87.0695 33.3332 87.6665 32.7362 87.6665 31.9998C87.6665 31.2635 87.0695 30.6665 86.3332 30.6665H84.9998C84.2635 30.6665 83.6665 31.2635 83.6665 31.9998C83.6665 32.7362 84.2635 33.3332 84.9998 33.3332Z" fill="#B58D73"/>
<path d="M67.6665 41.3337H70.3625C71.0988 41.3337 71.6958 40.7366 71.6958 40.0003C71.6958 39.264 71.0988 38.667 70.3625 38.667H67.6451C67.2928 38.6676 66.9549 38.8089 66.7069 39.0589C66.4589 39.3089 66.3202 39.6481 66.3228 40.0003C66.3273 40.7386 66.9283 41.3343 67.6665 41.3337V41.3337Z" fill="#B58D73"/>
<path d="M82.6143 40.0003C82.6143 40.7366 83.2113 41.3337 83.9476 41.3337H86.6637C87.4001 41.3337 87.9971 40.7366 87.9971 40.0003C87.9971 39.264 87.4001 38.667 86.6637 38.667H83.9476C83.2113 38.667 82.6143 39.264 82.6143 40.0003Z" fill="#B58D73"/>
<path d="M76.8494 33.3332H79.5662C80.3026 33.3332 80.8996 32.7362 80.8996 31.9998C80.8996 31.2635 80.3026 30.6665 79.5662 30.6665H76.8494C76.1125 30.6665 75.5161 31.2635 75.5161 31.9998C75.5161 32.7362 76.1125 33.3332 76.8494 33.3332Z" fill="#B58D73"/>
<path d="M41.2866 77.333H38.5692C37.8328 77.333 37.2358 77.93 37.2358 78.6663C37.2358 79.4027 37.8328 79.9997 38.5692 79.9997H41.2866C42.0229 79.9997 42.6199 79.4027 42.6199 78.6663C42.6199 77.93 42.0229 77.333 41.2866 77.333Z" fill="#B58D73"/>
<path d="M63.7505 38.1601C63.8436 38.1601 63.9361 38.1504 64.0266 38.1308C64.7466 37.9791 65.2075 37.2734 65.0572 36.5534C65.0194 36.3711 65.0005 36.1862 64.9999 36C64.9992 35.5781 65.0988 35.1627 65.2902 34.7864C65.6242 34.1302 65.3631 33.3275 64.7062 32.9935C64.05 32.6595 63.2473 32.9206 62.9133 33.5775C62.3605 34.6627 62.1965 35.9056 62.4478 37.0976C62.576 37.7148 63.1197 38.1588 63.7505 38.1601V38.1601Z" fill="#B58D73"/>
<path d="M75.7996 41.3337H78.5171C79.2534 41.3337 79.8504 40.7366 79.8504 40.0003C79.8504 39.264 79.2534 38.667 78.5171 38.667H75.7996C75.0633 38.667 74.4663 39.264 74.4663 40.0003C74.4663 40.7366 75.0633 41.3337 75.7996 41.3337Z" fill="#B58D73"/>
<path d="M68.6986 33.3332H71.416C72.1523 33.3332 72.7493 32.7362 72.7493 31.9998C72.7493 31.2635 72.1523 30.6665 71.416 30.6665H68.6986C67.9622 30.6665 67.3652 31.2635 67.3652 31.9998C67.3652 32.7362 67.9622 33.3332 68.6986 33.3332Z" fill="#B58D73"/>
<path d="M55.5228 56.5025C55.6282 56.5298 55.7376 56.5428 55.8463 56.5428C56.4583 56.5415 56.9909 56.1249 57.1387 55.5318C57.3112 54.8462 57.636 54.2082 58.0892 53.6653C58.4095 53.302 58.5071 52.7942 58.3457 52.3384C58.1842 51.8821 57.7877 51.5494 57.3105 51.4686C56.834 51.3886 56.3502 51.5728 56.0482 51.9504C55.334 52.8026 54.8223 53.8052 54.5521 54.884C54.4655 55.2271 54.5195 55.591 54.7018 55.8944C54.8835 56.1984 55.179 56.4172 55.5228 56.5025V56.5025Z" fill="#B58D73"/>
<path d="M81.8639 77.2773C81.5775 77.315 81.2891 77.3339 81 77.3332H79.3216C78.5846 77.3332 77.9883 77.9303 77.9883 78.6666C77.9883 79.4029 78.5846 79.9999 79.3216 79.9999H81C81.401 79.9999 81.8021 79.9739 82.1999 79.9224C82.9303 79.828 83.4459 79.1594 83.3522 78.4289C83.2578 77.6985 82.5892 77.1829 81.8587 77.2773H81.8639Z" fill="#B58D73"/>
<path d="M83.7212 61.7328C82.839 61.4658 81.9217 61.3311 80.9998 61.333H80.6502C79.9139 61.333 79.3169 61.93 79.3169 62.6664C79.3169 63.4027 79.9139 63.9997 80.6502 63.9997H80.9998C81.6587 63.9997 82.3143 64.0967 82.9451 64.2874C83.0708 64.3265 83.2016 64.346 83.3332 64.346C83.994 64.3467 84.5558 63.863 84.6535 63.2093C84.7505 62.555 84.354 61.9287 83.7212 61.7373V61.7328Z" fill="#B58D73"/>
<path d="M80.8776 52.0002C81.6139 52.0002 82.2109 51.4032 82.2109 50.6668C82.2109 49.9305 81.6139 49.3335 80.8776 49.3335H78.1615C77.4251 49.3335 76.8281 49.9305 76.8281 50.6668C76.8281 51.4032 77.4251 52.0002 78.1615 52.0002H80.8776Z" fill="#B58D73"/>
<path d="M88.845 72.7312C88.1745 72.4291 87.3854 72.7273 87.0827 73.3979C86.7721 74.0873 86.3457 74.7188 85.8229 75.2651C85.4804 75.6069 85.3502 76.1069 85.4824 76.5717C85.6146 77.0372 85.9883 77.3946 86.4583 77.5053C86.929 77.6166 87.4232 77.4643 87.7493 77.1075C88.4824 76.3432 89.08 75.4584 89.5149 74.4929C89.8157 73.8217 89.5162 73.0333 88.845 72.7312V72.7312Z" fill="#B58D73"/>
<path d="M95.8276 45.5674C95.4884 45.4672 95.1232 45.5056 94.812 45.6749C94.5015 45.8441 94.2703 46.1299 94.1701 46.4691C93.9741 47.1228 93.616 47.7165 93.1291 48.1944C92.6024 48.71 92.5933 49.5544 93.1089 50.0811C93.6245 50.6078 94.4689 50.6163 94.9956 50.1013C95.8081 49.3051 96.4044 48.3155 96.7287 47.225C96.8296 46.8858 96.7905 46.5206 96.6219 46.2094C96.4526 45.8988 96.1668 45.6677 95.8276 45.5674V45.5674Z" fill="#B58D73"/>
<path d="M94.3065 43.1065C94.8332 43.1071 95.3104 42.7972 95.5253 42.3168C95.7395 41.8363 95.6516 41.2745 95.3 40.8825C94.5389 40.0362 93.5754 39.3975 92.4999 39.0264C91.8033 38.7868 91.0448 39.1579 90.8052 39.8545C90.5657 40.5512 90.9367 41.3096 91.6334 41.5492C92.2792 41.7712 92.8573 42.1547 93.313 42.6638C93.5663 42.9457 93.9276 43.1065 94.3065 43.1065Z" fill="#B58D73"/>
<path d="M75.2169 61.333H72.5008C71.7645 61.333 71.1675 61.93 71.1675 62.6663C71.1675 63.4027 71.7645 63.9997 72.5008 63.9997H75.2169C75.9533 63.9997 76.5503 63.4027 76.5503 62.6663C76.5503 61.93 75.9533 61.333 75.2169 61.333Z" fill="#B58D73"/>
<path d="M89.0273 49.3335H86.3099C85.5736 49.3335 84.9766 49.9305 84.9766 50.6668C84.9766 51.4032 85.5736 52.0002 86.3099 52.0002H89.0273C89.7637 52.0002 90.3607 51.4032 90.3607 50.6668C90.3607 49.9305 89.7637 49.3335 89.0273 49.3335Z" fill="#B58D73"/>
<path d="M49.4357 77.333H46.7196C45.9832 77.333 45.3862 77.93 45.3862 78.6663C45.3862 79.4027 45.9832 79.9997 46.7196 79.9997H49.4357C50.172 79.9997 50.769 79.4027 50.769 78.6663C50.769 77.93 50.172 77.333 49.4357 77.333Z" fill="#B58D73"/>
<path d="M88.7236 65.4261C88.3076 64.8174 87.4769 64.6612 86.8675 65.0772C86.2588 65.4932 86.1026 66.3239 86.5186 66.9333C86.9444 67.557 87.2601 68.249 87.4515 68.9795C87.5557 69.4567 87.9124 69.8389 88.3818 69.9756C88.8506 70.1123 89.3565 69.9814 89.7009 69.6344C90.0446 69.2881 90.1716 68.7809 90.0316 68.3128C89.7647 67.2829 89.3226 66.3063 88.7236 65.4261V65.4261Z" fill="#B58D73"/>
<path d="M59.6027 60.8542C58.9692 60.5384 58.4152 60.0853 57.9796 59.5274C57.5278 58.9453 56.6899 58.8405 56.1085 59.2923C55.5265 59.7435 55.4217 60.5814 55.8729 61.1634C56.5558 62.0397 57.4269 62.7513 58.4223 63.2448C59.0792 63.5514 59.8611 63.2767 60.1821 62.6263C60.5031 61.9766 60.2452 61.1888 59.6027 60.8542V60.8542Z" fill="#B58D73"/>
<path d="M57.5866 77.333H54.8665C54.1302 77.333 53.5332 77.93 53.5332 78.6663C53.5332 79.4027 54.1302 79.9997 54.8665 79.9997H57.5866C58.3229 79.9997 58.9199 79.4027 58.9199 78.6663C58.9199 77.93 58.3229 77.333 57.5866 77.333Z" fill="#B58D73"/>
<path d="M73.8878 77.333H71.1717C70.4354 77.333 69.8384 77.93 69.8384 78.6663C69.8384 79.4027 70.4354 79.9997 71.1717 79.9997H73.8878C74.6242 79.9997 75.2212 79.4027 75.2212 78.6663C75.2212 77.93 74.6242 77.333 73.8878 77.333Z" fill="#B58D73"/>
<path d="M64.5773 52.0002C65.3136 52.0002 65.9106 51.4032 65.9106 50.6668C65.9106 49.9305 65.3136 49.3335 64.5773 49.3335H61.8612C61.1248 49.3335 60.5278 49.9305 60.5278 50.6668C60.5278 51.4032 61.1248 52.0002 61.8612 52.0002H64.5773Z" fill="#B58D73"/>
<path d="M72.7332 52.0002C73.4695 52.0002 74.0666 51.4032 74.0666 50.6668C74.0666 49.9305 73.4695 49.3335 72.7332 49.3335H70.0106C69.2742 49.3335 68.6772 49.9305 68.6772 50.6668C68.6772 51.4032 69.2742 52.0002 70.0106 52.0002H72.7332Z" fill="#B58D73"/>
<path d="M67.0677 61.333H64.3509C63.6146 61.333 63.0176 61.93 63.0176 62.6663C63.0176 63.4027 63.6146 63.9997 64.3509 63.9997H67.0677C67.8047 63.9997 68.401 63.4027 68.401 62.6663C68.401 61.93 67.8047 61.333 67.0677 61.333Z" fill="#B58D73"/>
<path d="M65.7388 77.333H63.0213C62.285 77.333 61.688 77.93 61.688 78.6663C61.688 79.4027 62.285 79.9997 63.0213 79.9997H65.7388C66.4751 79.9997 67.0721 79.4027 67.0721 78.6663C67.0721 77.93 66.4751 77.333 65.7388 77.333Z" fill="#B58D73"/>
<path d="M33.0002 77.333H31.6668C30.9305 77.333 30.3335 77.93 30.3335 78.6663C30.3335 79.4027 30.9305 79.9997 31.6668 79.9997H33.0002C33.7365 79.9997 34.3335 79.4027 34.3335 78.6663C34.3335 77.93 33.7365 77.333 33.0002 77.333Z" fill="#B58D73"/>
</g>
<defs>
<clipPath id="clip0oofmvug_t">
<rect width="115" height="79.9999" transform="matrix(-1 0 0 1 115 0)" fill="white"/>
</clipPath>
</defs>
</svg>
