<svg width="80" height="80" viewBox="0 0 80 80" fill="none" xmlns="http://www.w3.org/2000/svg">
<path d="M14.6666 74.6664C15.0709 74.6664 15.4537 74.4821 15.7063 74.1664C16.2669 73.473 29.3332 57.0772 29.3332 49.3331C29.3332 41.2329 22.7669 34.6665 14.6666 34.6665C6.56639 34.6665 0 41.2329 0 49.3331C0 57.0772 13.0664 73.4665 13.6269 74.1664C13.8795 74.4821 14.2623 74.6664 14.6666 74.6664ZM14.6666 37.3332C21.291 37.3403 26.6594 42.7088 26.6666 49.3331C26.6666 54.5063 18.7851 65.8181 14.6666 71.1716C10.5481 65.8201 2.66666 54.5089 2.66666 49.3331C2.67382 42.7088 8.04229 37.3403 14.6666 37.3332Z" fill="#B58D73"/>
<path d="M20 47.9998C20 45.0545 17.612 42.6665 14.6667 42.6665C11.7214 42.6665 9.33337 45.0545 9.33337 47.9998C9.33337 50.9451 11.7214 53.3331 14.6667 53.3331C17.612 53.3331 20 50.9451 20 47.9998ZM12 47.9998C12 46.5272 13.194 45.3332 14.6667 45.3332C16.1393 45.3332 17.3334 46.5272 17.3334 47.9998C17.3334 49.4725 16.1393 50.6665 14.6667 50.6665C13.194 50.6665 12 49.4725 12 47.9998Z" fill="#B58D73"/>
<path d="M69.3334 27.9999C69.7221 27.9999 70.0905 27.8306 70.3438 27.5357C71.3334 26.3879 80 16.1575 80 10.6666C80 4.77538 75.2246 0 69.3334 0C63.4421 0 58.6667 4.77538 58.6667 10.6666C58.6667 16.1575 67.3334 26.3879 68.323 27.5357C68.5762 27.8306 68.9447 27.9999 69.3334 27.9999ZM69.3334 2.66666C73.75 2.67122 77.3288 6.24998 77.3334 10.6666C77.3334 14.0455 72.2429 21.0078 69.3334 24.5852C66.4226 21.0078 61.3334 14.052 61.3334 10.6666C61.338 6.24998 64.9167 2.67122 69.3334 2.66666Z" fill="#B58D73"/>
<path d="M73.3332 9.33361C73.3332 7.12463 71.5422 5.33362 69.3332 5.33362C67.1243 5.33362 65.3333 7.12463 65.3333 9.33361C65.3333 11.5426 67.1243 13.3336 69.3332 13.3336C71.5422 13.3336 73.3332 11.5426 73.3332 9.33361ZM67.9999 9.33361C67.9999 8.59728 68.5969 8.00028 69.3332 8.00028C70.0696 8.00028 70.6666 8.59728 70.6666 9.33361C70.6666 10.0699 70.0696 10.6669 69.3332 10.6669C68.5969 10.6669 67.9999 10.0699 67.9999 9.33361Z" fill="#B58D73"/>
<path d="M67.9998 33.3332H69.3332C70.0695 33.3332 70.6665 32.7362 70.6665 31.9998C70.6665 31.2635 70.0695 30.6665 69.3332 30.6665H67.9998C67.2635 30.6665 66.6665 31.2635 66.6665 31.9998C66.6665 32.7362 67.2635 33.3332 67.9998 33.3332Z" fill="#B58D73"/>
<path d="M50.6667 41.3334H53.3626C54.0989 41.3334 54.6959 40.7364 54.6959 40.0001C54.6959 39.2638 54.0989 38.6667 53.3626 38.6667H50.6452C50.293 38.6674 49.9551 38.8087 49.707 39.0587C49.459 39.3087 49.3203 39.6479 49.3229 40.0001C49.3275 40.7384 49.9284 41.3341 50.6667 41.3334Z" fill="#B58D73"/>
<path d="M65.6143 40.0001C65.6143 40.7364 66.2113 41.3334 66.9476 41.3334H69.6637C70.4001 41.3334 70.9971 40.7364 70.9971 40.0001C70.9971 39.2638 70.4001 38.6667 69.6637 38.6667H66.9476C66.2113 38.6667 65.6143 39.2638 65.6143 40.0001Z" fill="#B58D73"/>
<path d="M59.8494 33.3332H62.5662C63.3026 33.3332 63.8996 32.7362 63.8996 31.9998C63.8996 31.2635 63.3026 30.6665 62.5662 30.6665H59.8494C59.1125 30.6665 58.5161 31.2635 58.5161 31.9998C58.5161 32.7362 59.1125 33.3332 59.8494 33.3332Z" fill="#B58D73"/>
<path d="M24.2867 77.333H21.5693C20.833 77.333 20.236 77.93 20.236 78.6663C20.236 79.4027 20.833 79.9997 21.5693 79.9997H24.2867C25.0231 79.9997 25.6201 79.4027 25.6201 78.6663C25.6201 77.93 25.0231 77.333 24.2867 77.333Z" fill="#B58D73"/>
<path d="M46.7506 38.16C46.8437 38.16 46.9362 38.1502 47.0267 38.1307C47.7467 37.979 48.2077 37.2733 48.0573 36.5532C48.0195 36.371 48.0006 36.1861 48 35.9999C47.9993 35.578 48.0989 35.1626 48.2903 34.7863C48.6243 34.1301 48.3633 33.3273 47.7064 32.9934C47.0501 32.6594 46.2474 32.9204 45.9134 33.5773C45.3607 34.6626 45.1966 35.9055 45.4479 37.0975C45.5762 37.7147 46.1198 38.1587 46.7506 38.16Z" fill="#B58D73"/>
<path d="M58.7998 41.3334H61.5172C62.2535 41.3334 62.8505 40.7364 62.8505 40.0001C62.8505 39.2638 62.2535 38.6667 61.5172 38.6667H58.7998C58.0634 38.6667 57.4664 39.2638 57.4664 40.0001C57.4664 40.7364 58.0634 41.3334 58.7998 41.3334Z" fill="#B58D73"/>
<path d="M51.6987 33.3332H54.4161C55.1525 33.3332 55.7495 32.7362 55.7495 31.9998C55.7495 31.2635 55.1525 30.6665 54.4161 30.6665H51.6987C50.9624 30.6665 50.3654 31.2635 50.3654 31.9998C50.3654 32.7362 50.9624 33.3332 51.6987 33.3332Z" fill="#B58D73"/>
<path d="M38.5228 56.5025C38.6282 56.5298 38.7376 56.5428 38.8463 56.5428C39.4583 56.5415 39.9909 56.1249 40.1387 55.5318C40.3112 54.8462 40.636 54.2082 41.0892 53.6653C41.4095 53.302 41.5071 52.7942 41.3457 52.3384C41.1842 51.8821 40.7877 51.5494 40.3105 51.4686C39.834 51.3886 39.3502 51.5728 39.0482 51.9504C38.334 52.8026 37.8223 53.8052 37.5521 54.884C37.4655 55.2271 37.5195 55.591 37.7018 55.8944C37.8835 56.1984 38.179 56.4172 38.5228 56.5025Z" fill="#B58D73"/>
<path d="M64.8639 77.2773C64.5775 77.315 64.2891 77.3339 64 77.3332H62.3216C61.5846 77.3332 60.9883 77.9303 60.9883 78.6666C60.9883 79.4029 61.5846 79.9999 62.3216 79.9999H64C64.401 79.9999 64.8021 79.9739 65.1999 79.9224C65.9303 79.828 66.4459 79.1594 66.3522 78.4289C66.2578 77.6985 65.5892 77.1829 64.8587 77.2773H64.8639Z" fill="#B58D73"/>
<path d="M66.7212 61.7328C65.839 61.4658 64.9217 61.3311 63.9998 61.333H63.6502C62.9139 61.333 62.3169 61.93 62.3169 62.6664C62.3169 63.4027 62.9139 63.9997 63.6502 63.9997H63.9998C64.6587 63.9997 65.3143 64.0967 65.9451 64.2874C66.0708 64.3265 66.2016 64.346 66.3332 64.346C66.994 64.3467 67.5558 63.863 67.6535 63.2093C67.7505 62.555 67.354 61.9287 66.7212 61.7373V61.7328Z" fill="#B58D73"/>
<path d="M63.8777 52C64.614 52 65.211 51.403 65.211 50.6667C65.211 49.9304 64.614 49.3334 63.8777 49.3334H61.1616C60.4253 49.3334 59.8282 49.9304 59.8282 50.6667C59.8282 51.403 60.4253 52 61.1616 52H63.8777Z" fill="#B58D73"/>
<path d="M71.8451 72.7315C71.1746 72.4294 70.3855 72.7276 70.0828 73.3981C69.7722 74.0876 69.3458 74.7191 68.823 75.2653C68.4806 75.6071 68.3504 76.1071 68.4825 76.5719C68.6147 77.0374 68.9884 77.3949 69.4584 77.5055C69.9291 77.6169 70.4233 77.4645 70.7494 77.1078C71.4825 76.3434 72.0802 75.4587 72.5151 74.4932C72.8158 73.822 72.5164 73.0335 71.8451 72.7315Z" fill="#B58D73"/>
<path d="M78.8276 45.5674C78.4884 45.4672 78.1232 45.5056 77.812 45.6749C77.5015 45.8441 77.2703 46.1299 77.1701 46.4691C76.9741 47.1228 76.616 47.7165 76.1291 48.1944C75.6024 48.71 75.5933 49.5544 76.1089 50.0811C76.6245 50.6078 77.4689 50.6163 77.9956 50.1013C78.8081 49.3051 79.4044 48.3155 79.7287 47.225C79.8296 46.8858 79.7905 46.5206 79.6219 46.2094C79.4526 45.8988 79.1668 45.6677 78.8276 45.5674Z" fill="#B58D73"/>
<path d="M77.3066 43.1065C77.8333 43.1071 78.3105 42.7972 78.5254 42.3168C78.7396 41.8363 78.6517 41.2745 78.3001 40.8825C77.5391 40.0362 76.5755 39.3975 75.5 39.0264C74.8034 38.7868 74.0449 39.1579 73.8054 39.8545C73.5658 40.5512 73.9369 41.3096 74.6335 41.5492C75.2793 41.7712 75.8574 42.1547 76.3132 42.6638C76.5664 42.9457 76.9277 43.1065 77.3066 43.1065Z" fill="#B58D73"/>
<path d="M58.2171 61.333H55.5009C54.7646 61.333 54.1676 61.93 54.1676 62.6663C54.1676 63.4027 54.7646 63.9997 55.5009 63.9997H58.2171C58.9534 63.9997 59.5504 63.4027 59.5504 62.6663C59.5504 61.93 58.9534 61.333 58.2171 61.333Z" fill="#B58D73"/>
<path d="M72.0275 49.3334H69.31C68.5737 49.3334 67.9767 49.9304 67.9767 50.6667C67.9767 51.403 68.5737 52 69.31 52H72.0275C72.7638 52 73.3608 51.403 73.3608 50.6667C73.3608 49.9304 72.7638 49.3334 72.0275 49.3334Z" fill="#B58D73"/>
<path d="M32.4359 77.333H29.7198C28.9835 77.333 28.3865 77.93 28.3865 78.6663C28.3865 79.4027 28.9835 79.9997 29.7198 79.9997H32.4359C33.1723 79.9997 33.7693 79.4027 33.7693 78.6663C33.7693 77.93 33.1723 77.333 32.4359 77.333Z" fill="#B58D73"/>
<path d="M71.7235 65.4262C71.3075 64.8175 70.4768 64.6613 69.8674 65.0773C69.2587 65.4933 69.1024 66.324 69.5185 66.9334C69.9442 67.5571 70.26 68.2492 70.4514 68.9796C70.5556 69.4568 70.9123 69.839 71.3817 69.9757C71.8505 70.1124 72.3563 69.9816 72.7007 69.6346C73.0445 69.2882 73.1714 68.7811 73.0315 68.313C72.7645 67.283 72.3225 66.3065 71.7235 65.4262Z" fill="#B58D73"/>
<path d="M42.6028 60.8543C41.9693 60.5385 41.4153 60.0854 40.9797 59.5275C40.5279 58.9454 39.69 58.8406 39.1087 59.2925C38.5266 59.7436 38.4218 60.5815 38.873 61.1635C39.5559 62.0398 40.427 62.7514 41.4225 63.2449C42.0794 63.5516 42.8613 63.2768 43.1822 62.6264C43.5032 61.9767 43.2454 61.1889 42.6028 60.8543Z" fill="#B58D73"/>
<path d="M40.5865 77.333H37.8664C37.1301 77.333 36.5331 77.93 36.5331 78.6663C36.5331 79.4027 37.1301 79.9997 37.8664 79.9997H40.5865C41.3228 79.9997 41.9198 79.4027 41.9198 78.6663C41.9198 77.93 41.3228 77.333 40.5865 77.333Z" fill="#B58D73"/>
<path d="M56.888 77.333H54.1718C53.4355 77.333 52.8385 77.93 52.8385 78.6663C52.8385 79.4027 53.4355 79.9997 54.1718 79.9997H56.888C57.6243 79.9997 58.2213 79.4027 58.2213 78.6663C58.2213 77.93 57.6243 77.333 56.888 77.333Z" fill="#B58D73"/>
<path d="M47.5773 52C48.3136 52 48.9106 51.403 48.9106 50.6667C48.9106 49.9304 48.3136 49.3334 47.5773 49.3334H44.8612C44.1248 49.3334 43.5278 49.9304 43.5278 50.6667C43.5278 51.403 44.1248 52 44.8612 52H47.5773Z" fill="#B58D73"/>
<path d="M55.7331 52C56.4694 52 57.0664 51.403 57.0664 50.6667C57.0664 49.9304 56.4694 49.3334 55.7331 49.3334H53.0105C52.2741 49.3334 51.6771 49.9304 51.6771 50.6667C51.6771 51.403 52.2741 52 53.0105 52H55.7331Z" fill="#B58D73"/>
<path d="M50.0677 61.333H47.3509C46.6146 61.333 46.0176 61.93 46.0176 62.6663C46.0176 63.4027 46.6146 63.9997 47.3509 63.9997H50.0677C50.8047 63.9997 51.401 63.4027 51.401 62.6663C51.401 61.93 50.8047 61.333 50.0677 61.333Z" fill="#B58D73"/>
<path d="M48.7388 77.333H46.0213C45.285 77.333 44.688 77.93 44.688 78.6663C44.688 79.4027 45.285 79.9997 46.0213 79.9997H48.7388C49.4751 79.9997 50.0721 79.4027 50.0721 78.6663C50.0721 77.93 49.4751 77.333 48.7388 77.333Z" fill="#B58D73"/>
<path d="M15.9999 77.333H14.6666C13.9303 77.333 13.3333 77.93 13.3333 78.6663C13.3333 79.4027 13.9303 79.9997 14.6666 79.9997H15.9999C16.7362 79.9997 17.3332 79.4027 17.3332 78.6663C17.3332 77.93 16.7362 77.333 15.9999 77.333Z" fill="#B58D73"/>
</svg>
