<svg width="116" height="80" viewBox="0 0 116 80" fill="none" xmlns="http://www.w3.org/2000/svg">
<g clip-path="url(#clip0)">
<path d="M103.086 21.2916C100.669 21.2916 98.7029 19.5711 98.7029 17.456C98.7029 16.8074 98.1022 16.2817 97.3609 16.2817C96.6197 16.2817 96.019 16.8074 96.019 17.456C96.019 19.5709 94.0527 21.2916 91.6354 21.2916C90.8942 21.2916 90.2935 21.8172 90.2935 22.4658C90.2935 23.1144 90.8942 23.64 91.6354 23.64C94.0526 23.64 96.019 25.3606 96.019 27.4756C96.019 28.1242 96.6197 28.6498 97.3609 28.6498C98.1022 28.6498 98.7029 28.1242 98.7029 27.4756C98.7029 25.3606 100.669 23.64 103.086 23.64C103.828 23.64 104.428 23.1144 104.428 22.4658C104.428 21.8172 103.828 21.2916 103.086 21.2916ZM97.3611 23.8539C96.9197 23.3213 96.3833 22.852 95.7747 22.4658C96.3834 22.0795 96.9199 21.6102 97.3611 21.0777C97.8025 21.6103 98.339 22.0795 98.9475 22.4658C98.3388 22.852 97.8025 23.3214 97.3611 23.8539Z" fill="#B58D73"/>
<path d="M25.793 21.2916C23.376 21.2916 21.4094 19.5711 21.4094 17.456C21.4094 16.8074 20.8086 16.2817 20.0675 16.2817C19.3264 16.2817 18.7255 16.8074 18.7255 17.456C18.7255 19.5709 16.7589 21.2916 14.342 21.2916C13.6009 21.2916 13 21.8172 13 22.4658C13 23.1144 13.6009 23.64 14.342 23.64C16.7589 23.64 18.7255 25.3606 18.7255 27.4756C18.7255 28.1242 19.3264 28.6498 20.0675 28.6498C20.8086 28.6498 21.4094 28.1242 21.4094 27.4756C21.4094 25.3606 23.376 23.64 25.793 23.64C26.5341 23.64 27.135 23.1144 27.135 22.4658C27.135 21.8172 26.5341 21.2916 25.793 21.2916ZM20.0675 23.8539C19.6261 23.3213 19.0898 22.852 18.4811 22.4658C19.09 22.0795 19.6262 21.6102 20.0675 21.0777C20.5089 21.6103 21.0452 22.0795 21.6539 22.4658C21.0453 22.852 20.5089 23.3214 20.0675 23.8539Z" fill="#B58D73"/>
<path d="M65.871 6.26217C62.6646 6.26217 60.056 3.97984 60.056 1.17406C60.0562 0.525624 59.4555 0 58.7142 0C57.9732 0 57.3723 0.525624 57.3723 1.17422C57.3723 3.97983 54.7635 6.26233 51.5573 6.26233C50.8162 6.26233 50.2153 6.78795 50.2153 7.43655C50.2153 8.08514 50.8162 8.61076 51.5573 8.61076C54.7635 8.61076 57.3723 10.8933 57.3723 13.6989C57.3723 14.3475 57.9732 14.8731 58.7142 14.8731C59.4555 14.8731 60.0562 14.3475 60.0562 13.6989C60.0562 10.8933 62.6648 8.61076 65.8712 8.61076C66.6125 8.61076 67.2132 8.08514 67.2132 7.43655C67.2132 6.78795 66.6123 6.26217 65.871 6.26217ZM58.7142 9.6917C58.0509 8.78795 57.1696 8.01686 56.1366 7.43639C57.1696 6.85592 58.0509 6.08483 58.7142 5.18108C59.3776 6.08483 60.2589 6.85592 61.2917 7.43639C60.2589 8.01686 59.3776 8.78795 58.7142 9.6917Z" fill="#B58D73"/>
<path d="M86.6529 39.6091L81.4329 26.6679C81.0423 25.6995 79.9913 25.0488 78.8177 25.0488H38.2532C37.0794 25.0488 36.0285 25.6995 35.638 26.6677L30.418 39.6091C30.1148 40.3608 30.7737 41.1741 31.6833 41.1741H85.3875C85.8229 41.1741 86.2313 40.9891 86.4827 40.6782C86.7343 40.3671 86.7979 39.9685 86.6529 39.6091ZM33.5799 38.8257L38.1687 27.4493C38.1808 27.4191 38.2164 27.3971 38.253 27.3971H78.8177C78.8543 27.3971 78.8899 27.4191 78.9022 27.4494L83.4909 38.8257H33.5799Z" fill="#B58D73"/>
<path d="M84.3 55.1074C79.5343 55.1074 75.8013 57.2737 75.8013 60.039C75.8013 62.8043 79.5343 64.9705 84.3 64.9705C89.0657 64.9705 92.7987 62.8043 92.7987 60.039C92.7987 57.2737 89.0657 55.1074 84.3 55.1074ZM84.3 62.6221C80.9718 62.6221 78.485 61.2584 78.485 60.039C78.485 58.8196 80.9716 57.4559 84.3 57.4559C87.6282 57.4559 90.115 58.8196 90.115 60.039C90.115 61.2584 87.6282 62.6221 84.3 62.6221Z" fill="#B58D73"/>
<path d="M32.7707 55.1074C28.005 55.1074 24.272 57.2737 24.272 60.039C24.272 62.8043 28.005 64.9705 32.7707 64.9705C37.5364 64.9705 41.2695 62.8043 41.2695 60.039C41.2695 57.2737 37.5364 55.1074 32.7707 55.1074ZM32.7707 62.6221C29.4427 62.6221 26.9557 61.2584 26.9557 60.039C26.9557 58.8196 29.4425 57.4559 32.7707 57.4559C36.0989 57.4559 38.5857 58.8196 38.5857 60.039C38.5857 61.2584 36.0989 62.6221 32.7707 62.6221Z" fill="#B58D73"/>
<path d="M101.476 37.5733H94.3196C93.7039 37.5733 93.1671 37.9401 93.0178 38.4627L92.0751 41.7619L85.4821 25.4173C84.4868 22.9496 81.8085 21.2915 78.8177 21.2915H38.2531C35.2622 21.2915 32.584 22.9496 31.5887 25.4174L24.9958 41.7621L24.0531 38.4627C23.9037 37.9399 23.3669 37.5733 22.7514 37.5733H15.5944C14.8533 37.5733 14.2524 38.099 14.2524 38.7476V43.7574C14.2524 44.406 14.8533 44.9316 15.5944 44.9316H23.0064L18.4315 50.5357C17.5705 51.5905 17.1153 52.8336 17.1153 54.13V68.8062C17.1153 70.8398 18.2433 72.647 19.9803 73.7747C19.9798 73.7884 19.978 73.802 19.978 73.8159V77.5733C19.978 78.9114 21.2221 79.9998 22.7512 79.9998H31.3394C32.8687 79.9998 34.1126 78.9112 34.1126 77.5733V74.9901H82.9578V77.5733C82.9578 78.9114 84.2019 79.9998 85.731 79.9998H94.3192C95.8485 79.9998 97.0924 78.9112 97.0924 77.5733V73.8159C97.0924 73.802 97.0907 73.7884 97.0901 73.7747C98.8271 72.647 99.9551 70.8398 99.9551 68.8062V54.13C99.9551 52.8335 99.4998 51.5903 98.6387 50.5357L94.0639 44.9316H101.476C102.217 44.9316 102.818 44.406 102.818 43.7574V38.7476C102.818 38.0988 102.218 37.5733 101.476 37.5733ZM16.9364 42.583V39.9216H21.7035L22.4639 42.583H16.9364ZM31.429 77.5733C31.429 77.6164 31.389 77.6515 31.3395 77.6515H22.7514C22.7021 77.6515 22.6619 77.6164 22.6619 77.5733V74.9901H24.1828H31.429V77.5733ZM94.4089 77.5733C94.4089 77.6164 94.3687 77.6515 94.3194 77.6515H85.7312C85.6819 77.6515 85.6418 77.6164 85.6418 77.5733V74.9901H92.888H94.4089V77.5733V77.5733ZM92.8882 72.6417H24.1826C22.2335 72.6417 20.5781 71.5226 20.0099 69.9803H97.0607C96.4924 71.5226 94.8373 72.6417 92.8882 72.6417ZM70.0757 59.9608V62.6222H46.995V59.9608H70.0757ZM47.2059 57.6124C47.7742 56.07 49.4293 54.951 51.3786 54.951H65.6923C67.6414 54.951 69.2968 56.07 69.865 57.6124H47.2059ZM70.0757 64.9705V67.6319H46.995V64.9705H70.0757ZM96.4553 51.9005C96.9894 52.5547 97.2717 53.3257 97.2717 54.1299V67.632H72.7596V58.7866C72.7596 55.3767 69.5891 52.6027 65.6923 52.6027H51.3786C47.4817 52.6027 44.3113 55.3769 44.3113 58.7866V67.632H19.799V54.1299C19.799 53.3257 20.0814 52.5547 20.6155 51.9005L26.3046 44.9315H75.7116C76.4528 44.9315 77.0536 44.4058 77.0536 43.7572C77.0536 43.1086 76.4528 42.583 75.7116 42.583H27.5106L34.1194 26.1988C34.7369 24.6684 36.3979 23.6398 38.2531 23.6398H78.8178C80.6728 23.6398 82.3339 24.6682 82.9516 26.1988L89.5601 42.583H81.4371C80.6959 42.583 80.0952 43.1086 80.0952 43.7572C80.0952 44.4058 80.6959 44.9315 81.4371 44.9315H90.7662L96.4553 51.9005ZM100.134 42.583H94.6067L95.3671 39.9216H100.134V42.583Z" fill="#B58D73"/>
<path d="M37.0649 51.3501H28.4767C27.7357 51.3501 27.1348 51.8757 27.1348 52.5243C27.1348 53.1729 27.7357 53.6985 28.4767 53.6985H37.0649C37.806 53.6985 38.4069 53.1729 38.4069 52.5243C38.4069 51.8757 37.806 51.3501 37.0649 51.3501Z" fill="#B58D73"/>
<path d="M88.5942 51.3501H80.006C79.2648 51.3501 78.6641 51.8757 78.6641 52.5243C78.6641 53.1729 79.2648 53.6985 80.006 53.6985H88.5942C89.3355 53.6985 89.9362 53.1729 89.9362 52.5243C89.9362 51.8757 89.3355 51.3501 88.5942 51.3501Z" fill="#B58D73"/>
</g>
<defs>
<clipPath id="clip0">
<rect x="0.857422" width="115" height="79.9998" fill="white"/>
</clipPath>
</defs>
</svg>
