<svg width="116" height="80" viewBox="0 0 116 80" fill="none" xmlns="http://www.w3.org/2000/svg">
<path d="M103.281 71L76.5783 65.689C73.8737 65.1523 71.9862 63.0826 71.9862 60.6568V53.5987C75.0004 51.1471 77.0383 47.8555 77.6356 44.2026L77.6887 43.871H79.3595C80.0511 43.871 80.6498 43.4503 80.7987 42.8606L83.748 31.2477C83.7716 31.1561 83.7834 31.0619 83.7834 30.9677V22.6181C86.5528 20.9032 88.809 18.6065 90.3279 15.9484L91.0004 14.7716C91.2629 14.3135 91.1891 13.7626 90.8146 13.369L90.53 13.0697C85.6916 7.98839 79.2577 4.45548 71.9257 2.85161L59.0726 0.0387097C58.8382 -0.0129032 58.5919 -0.0129032 58.3574 0.0387097L45.5043 2.85032C38.1723 4.45419 31.7384 7.9871 26.9001 13.0684L26.6155 13.3677C26.2409 13.7613 26.1672 14.3123 26.4297 14.7703L27.1021 15.9471C28.621 18.6065 30.8772 20.9032 33.6466 22.6168V30.9677C33.6466 31.0619 33.6584 31.1561 33.682 31.2477L36.6313 42.8606C36.7788 43.4503 37.3775 43.871 38.0691 43.871H39.7399L39.7945 44.2026C40.3917 47.8555 42.4297 51.1471 45.4439 53.5987V60.6568C45.4439 63.0826 43.5563 65.1523 40.8518 65.689L14.1473 71C13.4763 71.1329 13 71.6555 13 72.2581V80H15.9493V77.2581L34.2291 75.1252C36.4175 74.871 38.0691 73.2219 38.0691 71.289V68.889L40.5288 68.4L47.1766 76.8606C47.414 77.1626 47.7871 77.3613 48.2015 77.409C48.2649 77.4155 48.3283 77.4193 48.3917 77.4193C48.7412 77.4193 49.0818 77.311 49.3517 77.1084L52.2848 74.9084L56.1971 78.3316C56.4728 78.5742 56.8489 78.7097 57.2396 78.7097H60.1889C60.5797 78.7097 60.9558 78.5742 61.2315 78.3316L65.1438 74.9084L68.0769 77.1084C68.3467 77.311 68.6874 77.4193 69.0369 77.4193C69.1003 77.4193 69.1637 77.4155 69.2271 77.409C69.6415 77.3613 70.0146 77.1626 70.252 76.8606L76.8997 68.4L79.3595 68.889V71.289C79.3595 73.2219 81.0111 74.871 83.1994 75.1264L101.479 77.2594V80H104.429V72.2581C104.429 71.6555 103.952 71.1329 103.281 71ZM91.1567 71.2348V73.4503L88.2074 73.1058V70.6477L91.1567 71.2348ZM70.6339 27.9574C62.8876 26.8271 54.6988 26.8039 46.7947 27.9574L36.5945 29.4452V23.0284L47.2798 21.471C54.7062 20.3871 62.5646 20.3639 70.1488 21.471L80.8341 23.0284V29.4452L70.6339 27.9574ZM72.9993 30.9187C71.5983 31.7794 69.9113 32.2581 68.1447 32.2581H49.2839C47.5172 32.2581 45.8302 31.7794 44.4278 30.9187L47.2783 30.5032C54.7047 29.4194 62.5631 29.3961 70.1473 30.5032L72.9993 30.9187ZM29.7388 14.7935L29.4999 14.3755C33.8959 9.90322 39.6662 6.78839 46.2195 5.35484L58.7143 2.62065L71.209 5.35484C77.7624 6.78839 83.5327 9.90322 87.9287 14.3755L87.6898 14.7935C86.3655 17.1123 84.3747 19.0968 81.9445 20.5742L70.6339 18.9252C62.8876 17.7948 54.6988 17.7716 46.7947 18.9252L35.4841 20.5742C33.0524 19.0968 31.063 17.1123 29.7388 14.7935ZM42.7128 43.8374L42.4783 42.3987C42.3736 41.7626 41.7528 41.2903 41.0184 41.2903H39.2518L36.8968 32.0168L40.7338 31.4568C42.8839 33.5923 45.9792 34.8387 49.2839 34.8387H68.1432C71.4479 34.8387 74.5447 33.5923 76.6933 31.4568L80.5303 32.0168L78.1768 41.2903H76.4101C75.6758 41.2903 75.0549 41.7626 74.9502 42.3987L74.7158 43.8374C74.0079 48.1742 70.9112 51.9316 66.4356 53.889C61.6651 55.9768 55.765 55.9768 50.993 53.889C46.5174 51.9316 43.4206 48.1729 42.7128 43.8374ZM49.6747 56.1974C52.4677 57.4194 55.5924 58.0645 58.7143 58.0645C61.8361 58.0645 64.9609 57.4194 67.7539 56.1974C68.1993 56.0026 68.6151 55.7716 69.0369 55.5484V60.0116L58.7143 66.7755L48.3917 60.0116V55.5484C48.8135 55.7716 49.2293 56.0026 49.6747 56.1974ZM29.2212 70.649V73.1071L26.2719 73.4516V71.2361L29.2212 70.649ZM15.9493 73.2877L23.3226 71.8219V73.7948L15.9493 74.6555V73.2877ZM35.1198 71.289C35.1198 71.9329 34.5698 72.4826 33.8398 72.5677L32.1705 72.7626V70.0619L35.1198 69.4748V71.289ZM48.6778 74.2155L43.4605 67.5755C45.64 66.6374 47.2621 64.9781 47.9744 62.9626L56.3578 68.4568L48.6778 74.2155ZM59.5784 76.129H57.8501L54.5307 73.2245L58.7143 70.0864L62.8979 73.2245L59.5784 76.129ZM68.7508 74.2155L61.0708 68.4555L69.4542 62.9613C70.1665 64.9768 71.7886 66.6374 73.9681 67.5742L68.7508 74.2155ZM82.3088 71.289V69.4748L85.2581 70.0619V72.7626L83.5888 72.5677C82.8588 72.4826 82.3088 71.9329 82.3088 71.289ZM94.106 73.7948V71.8219L101.479 73.2877V74.6542L94.106 73.7948Z" fill="#B58D73"/>
<path d="M58.0421 17.9582L58.3562 18.0266C58.4742 18.0524 58.5937 18.0653 58.7146 18.0653C58.8355 18.0653 58.9549 18.0524 59.0729 18.0266L59.387 17.9582C63.3317 17.095 66.0878 14.006 66.0878 10.4473V6.45243C66.0878 5.74017 65.4272 5.16211 64.6132 5.16211H52.816C52.002 5.16211 51.3413 5.74017 51.3413 6.45243V10.4473C51.3413 14.006 54.0974 17.095 58.0421 17.9582ZM54.2906 7.74276H63.1385V10.4473C63.1385 12.8073 61.3218 14.8563 58.7146 15.4447C56.1074 14.855 54.2906 12.8073 54.2906 10.4473V7.74276Z" fill="#B58D73"/>
</svg>
