<svg width="80" height="80" viewBox="0 0 80 80" fill="none" xmlns="http://www.w3.org/2000/svg">
<path d="M78.9961 71L55.631 65.689C53.2645 65.1523 51.6129 63.0826 51.6129 60.6568V53.5987C54.2503 51.1471 56.0336 47.8555 56.5561 44.2026L56.6026 43.871H58.0645C58.6697 43.871 59.1936 43.4503 59.3239 42.8606L61.9045 31.2477C61.9252 31.1561 61.9355 31.0619 61.9355 30.9677V22.6181C64.3587 20.9032 66.3329 18.6065 67.6619 15.9484L68.2503 14.7716C68.48 14.3135 68.4155 13.7626 68.0877 13.369L67.8387 13.0697C63.6052 7.98839 57.9755 4.45548 51.56 2.85161L40.3135 0.0387097C40.1084 -0.0129032 39.8929 -0.0129032 39.6877 0.0387097L28.4413 2.85032C22.0258 4.45419 16.3961 7.9871 12.1626 13.0684L11.9135 13.3677C11.5858 13.7613 11.5213 14.3123 11.751 14.7703L12.3394 15.9471C13.6684 18.6065 15.6426 20.9032 18.0658 22.6168V30.9677C18.0658 31.0619 18.0761 31.1561 18.0968 31.2477L20.6774 42.8606C20.8064 43.4503 21.3303 43.871 21.9355 43.871H23.3974L23.4452 44.2026C23.9677 47.8555 25.751 51.1471 28.3884 53.5987V60.6568C28.3884 63.0826 26.7368 65.1523 24.3703 65.689L1.00387 71C0.416774 71.1329 0 71.6555 0 72.2581V80H2.58065V77.2581L18.5755 75.1252C20.4903 74.871 21.9355 73.2219 21.9355 71.289V68.889L24.0877 68.4L29.9045 76.8606C30.1123 77.1626 30.4387 77.3613 30.8013 77.409C30.8568 77.4155 30.9123 77.4193 30.9677 77.4193C31.2735 77.4193 31.5716 77.311 31.8077 77.1084L34.3742 74.9084L37.7974 78.3316C38.0387 78.5742 38.3677 78.7097 38.7097 78.7097H41.2903C41.6323 78.7097 41.9613 78.5742 42.2026 78.3316L45.6258 74.9084L48.1923 77.1084C48.4284 77.311 48.7265 77.4193 49.0323 77.4193C49.0877 77.4193 49.1432 77.4155 49.1987 77.409C49.5613 77.3613 49.8877 77.1626 50.0955 76.8606L55.9123 68.4L58.0645 68.889V71.289C58.0645 73.2219 59.5097 74.871 61.4245 75.1264L77.4193 77.2594V80H80V72.2581C80 71.6555 79.5832 71.1329 78.9961 71ZM68.3871 71.2348V73.4503L65.8064 73.1058V70.6477L68.3871 71.2348ZM50.4297 27.9574C43.6516 26.8271 36.4865 26.8039 29.5703 27.9574L20.6452 29.4452V23.0284L29.9948 21.471C36.4929 20.3871 43.369 20.3639 50.0052 21.471L59.3548 23.0284V29.4452L50.4297 27.9574ZM52.4994 30.9187C51.2735 31.7794 49.7974 32.2581 48.2516 32.2581H31.7484C30.2026 32.2581 28.7265 31.7794 27.4994 30.9187L29.9935 30.5032C36.4916 29.4194 43.3677 29.3961 50.0039 30.5032L52.4994 30.9187ZM14.6465 14.7935L14.4374 14.3755C18.2839 9.90322 23.3329 6.78839 29.0671 5.35484L40 2.62065L50.9329 5.35484C56.6671 6.78839 61.7161 9.90322 65.5626 14.3755L65.3535 14.7935C64.1948 17.1123 62.4529 19.0968 60.3264 20.5742L50.4297 18.9252C43.6516 17.7948 36.4865 17.7716 29.5703 18.9252L19.6735 20.5742C17.5458 19.0968 15.8052 17.1123 14.6465 14.7935ZM25.9987 43.8374L25.7935 42.3987C25.7019 41.7626 25.1587 41.2903 24.5161 41.2903H22.9703L20.9097 32.0168L24.2671 31.4568C26.1484 33.5923 28.8568 34.8387 31.7484 34.8387H48.2503C51.1419 34.8387 53.8516 33.5923 55.7316 31.4568L59.089 32.0168L57.0297 41.2903H55.4839C54.8413 41.2903 54.2981 41.7626 54.2064 42.3987L54.0013 43.8374C53.3819 48.1742 50.6723 51.9316 46.7561 53.889C42.5819 55.9768 37.4194 55.9768 33.2439 53.889C29.3277 51.9316 26.6181 48.1729 25.9987 43.8374ZM32.0903 56.1974C34.5342 57.4194 37.2684 58.0645 40 58.0645C42.7316 58.0645 45.4658 57.4194 47.9097 56.1974C48.2994 56.0026 48.6632 55.7716 49.0323 55.5484V60.0116L40 66.7755L30.9677 60.0116V55.5484C31.3368 55.7716 31.7006 56.0026 32.0903 56.1974ZM14.1935 70.649V73.1071L11.6129 73.4516V71.2361L14.1935 70.649ZM2.58065 73.2877L9.03226 71.8219V73.7948L2.58065 74.6555V73.2877ZM19.3548 71.289C19.3548 71.9329 18.8735 72.4826 18.2348 72.5677L16.7742 72.7626V70.0619L19.3548 69.4748V71.289ZM31.2181 74.2155L26.6529 67.5755C28.56 66.6374 29.9794 64.9781 30.6026 62.9626L37.9381 68.4568L31.2181 74.2155ZM40.7561 76.129H39.2439L36.3394 73.2245L40 70.0864L43.6606 73.2245L40.7561 76.129ZM48.7819 74.2155L42.0619 68.4555L49.3974 62.9613C50.0206 64.9768 51.44 66.6374 53.3471 67.5742L48.7819 74.2155ZM60.6452 71.289V69.4748L63.2258 70.0619V72.7626L61.7652 72.5677C61.1264 72.4826 60.6452 71.9329 60.6452 71.289ZM70.9677 73.7948V71.8219L77.4193 73.2877V74.6542L70.9677 73.7948Z" fill="#B58D73"/>
<path d="M39.4117 17.9581L39.6866 18.0265C39.7898 18.0523 39.8943 18.0652 40.0001 18.0652C40.1059 18.0652 40.2105 18.0523 40.3137 18.0265L40.5885 17.9581C44.0401 17.0949 46.4517 14.0059 46.4517 10.4471V6.45231C46.4517 5.74005 45.8737 5.16199 45.1614 5.16199H34.8388C34.1266 5.16199 33.5485 5.74005 33.5485 6.45231V10.4471C33.5485 14.0059 35.9601 17.0949 39.4117 17.9581ZM36.1292 7.74263H43.8711V10.4471C43.8711 12.8071 42.2814 14.8562 40.0001 15.4446C37.7188 14.8549 36.1292 12.8071 36.1292 10.4471V7.74263Z" fill="#B58D73"/>
</svg>
