<svg width="115" height="81" viewBox="0 0 115 81" fill="none" xmlns="http://www.w3.org/2000/svg">
<g clip-path="url(#clip0____etvmxur5)">
<path d="M85.911 28.8015C86.0214 28.9331 86.1593 29.0388 86.315 29.1114C86.4706 29.1839 86.6403 29.2215 86.812 29.2214H92.1917C92.3634 29.2215 92.5331 29.1839 92.6888 29.1114C92.8444 29.0388 92.9823 28.9331 93.0927 28.8015L95.3489 26.114C95.5274 25.9019 95.6252 25.6334 95.625 25.3561V18.3015H99.8256C100.137 18.3011 100.436 18.177 100.656 17.9564C100.877 17.7358 101 17.4367 101 17.125V13.0938C101 12.7819 100.876 12.4829 100.656 12.2623C100.435 12.0418 100.136 11.918 99.8242 11.918H95.625V4.86328C95.6251 4.58686 95.5278 4.31924 95.3502 4.10742L93.094 1.41992C92.9835 1.2882 92.8454 1.18234 92.6895 1.10978C92.5336 1.03723 92.3637 0.999753 92.1917 1H86.812C86.6403 0.99995 86.4706 1.03752 86.315 1.11007C86.1593 1.18261 86.0214 1.28838 85.911 1.41992L83.6549 4.10742C83.4773 4.31924 83.38 4.58686 83.3801 4.86328V11.918H32.6206V4.86328C32.6207 4.58686 32.5234 4.31924 32.3458 4.10742L30.0896 1.41992C29.9792 1.28829 29.8412 1.18247 29.6854 1.10992C29.5296 1.03737 29.3598 0.999852 29.188 1H23.8083C23.6365 0.99995 23.4669 1.03752 23.3112 1.11007C23.1556 1.18261 23.0177 1.28838 22.9073 1.41992L20.6511 4.10742C20.472 4.32029 20.3742 4.58978 20.375 4.86799V11.9227H16.1758C15.8648 11.9227 15.5664 12.0459 15.346 12.2654C15.1257 12.4849 15.0012 12.7827 15 13.0938V17.125C15 17.4368 15.1239 17.7359 15.3444 17.9564C15.5649 18.1769 15.8639 18.3008 16.1758 18.3008H20.375V25.3555C20.3749 25.6319 20.4722 25.8995 20.6498 26.1113L22.906 28.7988C23.0165 28.9305 23.1546 29.0364 23.3105 29.109C23.4664 29.1815 23.6363 29.219 23.8083 29.2188H29.188C29.3597 29.2188 29.5294 29.1812 29.685 29.1087C29.8407 29.0361 29.9786 28.9304 30.089 28.7988L30.269 28.5845V71.4159H18.8633C17.8385 71.4169 16.8561 71.8247 16.1318 72.5495C15.4074 73.2744 15.0004 74.2571 15 75.2818V79.1035C14.9997 79.258 15.03 79.4111 15.0889 79.554C15.1479 79.6969 15.2345 79.8268 15.3437 79.9362C15.4529 80.0456 15.5826 80.1323 15.7254 80.1916C15.8681 80.2508 16.0212 80.2812 16.1758 80.2812H99.8242C100.136 80.2812 100.435 80.1574 100.656 79.9369C100.876 79.7164 101 79.4173 101 79.1055V75.2845C100.999 74.2602 100.592 73.2782 99.8673 72.5539C99.143 71.8297 98.161 71.4223 97.1367 71.4212H85.731V28.5872L85.911 28.8015ZM98.6484 14.2722V15.9519H95.625V14.2722H98.6484ZM85.731 5.29597L87.3609 3.35156H91.6435L93.2728 5.29328V24.9282L91.6435 26.8699H87.3609L85.7316 24.9282L85.731 5.29597ZM83.3794 14.2722V15.9519H32.6206V14.2722H83.3794ZM64.6966 71.4185V64.0642H72.8652C73.1771 64.0642 73.4761 63.9403 73.6966 63.7198C73.9171 63.4993 74.041 63.2003 74.041 62.8884V59.5203C74.039 58.2162 73.5491 56.9601 72.6677 55.999C71.7863 55.0378 70.5771 54.4413 69.2781 54.3267V35.4672C69.2763 33.7775 68.6042 32.1576 67.4093 30.9629C66.2144 29.7683 64.5944 29.0965 62.9047 29.0951H53.0953C51.4057 29.0965 49.7856 29.7683 48.5907 30.9629C47.3958 32.1576 46.7237 33.7775 46.7219 35.4672V54.3267C45.4229 54.4413 44.2137 55.0378 43.3323 55.999C42.4509 56.9601 41.961 58.2162 41.959 59.5203V62.8884C41.959 63.2003 42.0829 63.4993 42.3034 63.7198C42.5239 63.9403 42.8229 64.0642 43.1348 64.0642H51.3034V71.4179H37.6805V18.3035H78.3195V71.4185H64.6966ZM66.9265 54.3039H49.0735V35.4672C49.0745 34.401 49.4987 33.3788 50.2527 32.625C51.0068 31.8712 52.0291 31.4474 53.0953 31.4467H62.9047C63.9709 31.4474 64.9933 31.8712 65.7473 32.625C66.5014 33.3788 66.9255 34.401 66.9265 35.4672V54.3039ZM47.1734 56.6554H68.8239C69.5836 56.6561 70.3119 56.9582 70.8491 57.4953C71.3864 58.0324 71.6886 58.7607 71.6895 59.5203V61.7126H44.3105V59.5203C44.3114 58.7607 44.6137 58.0324 45.1509 57.4953C45.6881 56.9582 46.4164 56.6561 47.1761 56.6554H47.1734ZM53.653 64.0642H62.345V71.4179H53.655L53.653 64.0642ZM17.3516 15.9519V14.2722H20.375V15.9519H17.3516ZM28.6391 26.8672H24.3572L22.7266 24.9282V5.29597L24.3572 3.35156H28.6391L30.2684 5.29328V24.9282L28.6391 26.8672ZM32.6199 18.3008H35.3283V71.4159H32.6206L32.6199 18.3008ZM98.6478 75.2758V77.9297H17.3516V75.2845C17.3521 74.8838 17.5115 74.4995 17.7949 74.2162C18.0783 73.9328 18.4625 73.7733 18.8633 73.7728H97.1367C97.537 73.7733 97.9208 73.9324 98.2041 74.2152C98.4874 74.498 98.6472 74.8815 98.6484 75.2818L98.6478 75.2758ZM80.6704 71.4125V18.3035H83.3787V71.4185L80.6704 71.4125Z" fill="#B58D73"/>
<path d="M55.0176 37.5811H60.9832C61.295 37.5811 61.5941 37.4572 61.8146 37.2367C62.0351 37.0162 62.1589 36.7171 62.1589 36.4053C62.1589 36.0934 62.0351 35.7944 61.8146 35.5739C61.5941 35.3534 61.295 35.2295 60.9832 35.2295H55.0176C54.7057 35.2295 54.4067 35.3534 54.1862 35.5739C53.9657 35.7944 53.8418 36.0934 53.8418 36.4053C53.8418 36.7171 53.9657 37.0162 54.1862 37.2367C54.4067 37.4572 54.7057 37.5811 55.0176 37.5811Z" fill="#B58D73"/>
<path d="M62.294 40.792H53.7061C53.3942 40.792 53.0952 40.9159 52.8747 41.1364C52.6541 41.3569 52.5303 41.6559 52.5303 41.9678C52.5303 42.2796 52.6541 42.5787 52.8747 42.7992C53.0952 43.0197 53.3942 43.1436 53.7061 43.1436H62.294C62.6058 43.1436 62.9049 43.0197 63.1254 42.7992C63.3459 42.5787 63.4697 42.2796 63.4697 41.9678C63.4697 41.6559 63.3459 41.3569 63.1254 41.1364C62.9049 40.9159 62.6058 40.792 62.294 40.792Z" fill="#B58D73"/>
<path d="M60.9825 46.3516H55.0176C54.7057 46.3516 54.4067 46.4754 54.1862 46.6959C53.9657 46.9164 53.8418 47.2155 53.8418 47.5273C53.8418 47.8392 53.9657 48.1382 54.1862 48.3587C54.4067 48.5792 54.7057 48.7031 55.0176 48.7031H60.9832C61.295 48.7031 61.5941 48.5792 61.8146 48.3587C62.0351 48.1382 62.1589 47.8392 62.1589 47.5273C62.1589 47.2155 62.0351 46.9164 61.8146 46.6959C61.5941 46.4754 61.295 46.3516 60.9832 46.3516H60.9825Z" fill="#B58D73"/>
</g>
<defs>
<clipPath id="clip0____etvmxur5">
<rect width="115" height="79.2812" transform="matrix(-1 0 0 1 115 0.90625)" fill="white"/>
</clipPath>
</defs>
</svg>
